<svg width="5776" height="841" xmlns="http://www.w3.org/2000/svg" xmlns:xlink="http://www.w3.org/1999/xlink" xml:space="preserve" overflow="hidden">
    <defs>
        <clipPath id="clip0">
            <rect x="-688" y="817" width="5776" height="841" />
        </clipPath>
    </defs>
    <g clip-path="url(#clip0)" transform="translate(688 -817)">
        <path d="M4374.45 1534.72C4331.01 1548.35 4294.87 1566.48 4266.04 1589.11 4237.22 1611.74 4222.81 1627.35 4222.81 1635.96 4222.81 1638.16 4226.12 1639.27 4232.76 1639.27 4243.51 1639.27 4255.32 1635.33 4268.2 1627.47 4281.07 1619.61 4305.3 1596.94 4340.87 1559.47ZM309.597 1534.72C266.152 1548.35 230.016 1566.48 201.192 1589.11 172.366 1611.74 157.954 1627.35 157.954 1635.96 157.954 1638.16 161.27 1639.27 167.904 1639.27 178.656 1639.27 190.469 1635.33 203.345 1627.47 216.221 1619.61 240.446 1596.94 276.021 1559.47ZM1758.35 1533.21C1726.07 1541.94 1693.38 1557.44 1660.28 1579.72 1627.18 1602 1610.63 1618.73 1610.63 1629.91 1610.63 1632.14 1613.69 1633.26 1619.83 1633.26 1633.64 1633.26 1647.67 1628.48 1661.93 1618.93 1676.18 1609.38 1698.5 1589.6 1728.88 1559.59ZM2557.67 1403.97C2556.72 1407.99 2555.07 1412.48 2552.69 1417.43L2550.08 1422.03 2558.32 1413.16C2557.71 1413.74 2556.95 1412.63 2556.03 1409.83ZM2611.68 1360.08 2575.12 1385.57C2573.48 1389.6 2572.65 1393.36 2572.65 1396.85 2572.65 1400.1 2572.15 1402.47 2571.15 1403.96ZM4049.99 1357.77C4049.99 1358.08 4049.8 1358.23 4049.42 1358.23 4044.77 1358.23 4039.1 1359.93 4032.39 1363.34 4025.68 1366.75 4015.11 1374.05 4000.65 1385.25 3986.2 1396.44 3974.7 1403.6 3966.15 1406.72 3967.45 1406.72 3976.49 1403.85 3993.26 1398.11 4010.02 1392.37 4023.67 1385.22 4034.2 1376.66 4044.73 1368.1 4049.99 1361.8 4049.99 1357.77ZM3315.5 1357.77C3315.5 1358.08 3315.31 1358.23 3314.93 1358.23 3310.28 1358.23 3304.61 1359.93 3297.9 1363.34 3291.19 1366.75 3280.61 1374.05 3266.16 1385.25 3251.71 1396.44 3240.21 1403.6 3231.65 1406.72 3232.96 1406.72 3242 1403.85 3258.77 1398.11 3275.53 1392.37 3289.18 1385.22 3299.71 1376.66 3310.24 1368.1 3315.5 1361.8 3315.5 1357.77ZM2108.12 1357.77C2108.12 1358.08 2107.93 1358.23 2107.55 1358.23 2102.9 1358.23 2097.22 1359.93 2090.52 1363.34 2083.81 1366.75 2073.23 1374.05 2058.78 1385.25 2044.33 1396.44 2032.83 1403.6 2024.27 1406.72 2025.58 1406.72 2034.62 1403.85 2051.38 1398.11 2068.15 1392.37 2081.8 1385.22 2092.33 1376.66 2102.86 1368.1 2108.12 1361.8 2108.12 1357.77ZM1675.48 1357.77C1675.48 1358.08 1675.28 1358.23 1674.91 1358.23 1670.26 1358.23 1664.58 1359.93 1657.87 1363.34 1651.17 1366.75 1640.59 1374.05 1626.14 1385.25 1611.68 1396.44 1600.18 1403.6 1591.62 1406.72 1592.93 1406.72 1601.97 1403.85 1618.74 1398.11 1635.51 1392.37 1649.15 1385.22 1659.68 1376.66 1670.21 1368.1 1675.48 1361.8 1675.48 1357.77ZM1423.94 1357.77C1423.94 1358.08 1423.75 1358.23 1423.37 1358.23 1418.72 1358.23 1413.04 1359.93 1406.33 1363.34 1399.63 1366.75 1389.05 1374.05 1374.6 1385.25 1360.15 1396.44 1348.64 1403.6 1340.09 1406.72 1341.4 1406.72 1350.43 1403.85 1367.2 1398.11 1383.97 1392.37 1397.62 1385.22 1408.14 1376.66 1418.67 1368.1 1423.94 1361.8 1423.94 1357.77ZM4512.15 1353.99C4502.96 1353.99 4491.15 1358.34 4476.72 1367.04 4462.29 1375.75 4444.86 1388.95 4424.45 1406.65 4404.04 1424.35 4390.09 1437.96 4382.6 1447.48 4375.11 1457 4371.37 1463.87 4371.37 1468.09 4371.37 1473.33 4373.87 1475.95 4378.87 1475.95 4397 1475.95 4425.57 1459.66 4464.59 1427.1 4503.61 1394.53 4523.12 1372.32 4523.12 1360.45 4523.12 1356.14 4519.46 1353.99 4512.15 1353.99ZM447.297 1353.99C438.107 1353.99 426.296 1358.34 411.866 1367.04 397.435 1375.75 380.012 1388.95 359.598 1406.65 339.182 1424.35 325.232 1437.96 317.747 1447.48 310.262 1457 306.519 1463.87 306.519 1468.09 306.519 1473.33 309.017 1475.95 314.014 1475.95 332.142 1475.95 360.717 1459.66 399.737 1427.1 438.757 1394.53 458.267 1372.32 458.267 1360.45 458.267 1356.14 454.61 1353.99 447.297 1353.99ZM2472.49 1352.22C2457.13 1352.22 2432.47 1369.07 2398.52 1402.76 2364.57 1436.46 2347.59 1458 2347.59 1467.38 2347.59 1468.53 2348.41 1469.77 2350.03 1471.11 2351.66 1472.45 2353.67 1473.12 2356.06 1473.12 2364.57 1473.12 2377.39 1468.36 2394.51 1458.85 2411.64 1449.34 2426.9 1437.54 2440.28 1423.45 2453.66 1409.36 2463.9 1396.97 2471.01 1386.3 2478.11 1375.63 2481.65 1366.88 2481.65 1360.04 2481.65 1357.93 2480.72 1356.09 2478.85 1354.54 2476.98 1352.99 2474.86 1352.22 2472.49 1352.22ZM37.6017 1352.22C22.2408 1352.22-2.41565 1369.07-36.3666 1402.76-70.3194 1436.46-87.2958 1458-87.2958 1467.38-87.2958 1468.53-86.4834 1469.77-84.8577 1471.11-83.233 1472.45-81.2225 1473.12-78.8272 1473.12-70.3203 1473.12-57.5013 1468.36-40.374 1458.85-23.2457 1449.34-7.99048 1437.54 5.3924 1423.45 18.7745 1409.36 29.0163 1396.97 36.1161 1386.3 43.2176 1375.63 46.7675 1366.88 46.7675 1360.04 46.7675 1357.93 45.8314 1356.09 43.9617 1354.54 42.092 1352.99 39.9724 1352.22 37.6017 1352.22ZM4681.11 1338.43 4723.76 1338.43C4715.97 1353.23 4706.85 1365.74 4696.4 1375.95L4617.79 1457.21C4612.55 1462.65 4609.55 1466.49 4608.8 1468.72L4608.8 1470.21C4608.8 1471.22 4609.38 1472.25 4610.54 1473.31 4611.7 1474.36 4613.15 1474.89 4614.9 1474.89 4623.65 1474.89 4637.27 1468.76 4655.77 1456.52 4674.27 1444.27 4690.67 1432.33 4704.95 1420.7L4759.24 1372.63C4764.45 1364.95 4775.11 1353.54 4791.25 1338.43L4835.54 1338.43C4803.09 1376.46 4777.62 1405.85 4759.13 1426.6L4738.26 1442.51C4727.18 1460.1 4721.64 1470.12 4721.64 1472.54 4721.64 1474.58 4723.44 1475.59 4727.03 1475.59 4735.73 1475.59 4747.66 1470.31 4762.81 1459.73 4777.96 1449.15 4800.88 1431.34 4831.58 1406.3L4841.2 1416.18C4799.32 1454.26 4771.67 1476.75 4758.26 1483.64 4744.85 1490.53 4734.17 1493.97 4726.22 1493.97 4719.1 1493.97 4712.96 1491.32 4707.8 1486 4702.64 1480.69 4700.06 1473.71 4700.06 1465.05 4700.06 1460.33 4700.94 1455.36 4702.69 1450.14L4709.57 1435.82 4697.34 1446.38C4660 1477.17 4632.24 1492.56 4614.06 1492.56 4606.68 1492.56 4600.36 1489.93 4595.1 1484.68 4589.85 1479.42 4587.22 1472.41 4587.22 1463.65 4587.22 1455.32 4589.41 1446.82 4593.78 1438.15L4607.52 1419.64 4603.32 1422.92 4594.3 1412.97C4622.42 1388.05 4641.69 1370.88 4652.11 1361.48 4662.54 1352.07 4672.21 1344.39 4681.11 1338.43ZM2223.99 1338.37 2128.24 1422.92 2128.04 1422.7 2115.97 1433.54 2122.91 1434.83C2125.07 1435.71 2127.07 1437.02 2128.89 1438.77 2132.55 1442.26 2134.38 1446.36 2134.38 1451.06 2134.38 1456.82 2132.13 1462 2127.63 1466.59 2125.39 1468.88 2123.01 1470.6 2120.51 1471.75L2116.41 1472.64 2126.52 1473.82C2142.6 1473.82 2161.51 1461.23 2183.25 1436.04 2204.99 1410.85 2216.97 1384.08 2219.2 1355.74 2220.14 1346.06 2221.74 1340.27 2223.99 1338.37ZM1811.94 1338.08C1819.42 1338.08 1825.46 1340.64 1830.08 1345.76 1834.7 1350.87 1837.01 1356.67 1837.01 1363.16 1837.01 1374.43 1833.2 1384.89 1825.57 1394.54 1817.94 1404.19 1796.32 1423.9 1760.72 1453.67 1753.33 1461.81 1749.64 1467.64 1749.64 1471.18 1749.64 1472.47 1750.51 1473.12 1752.25 1473.12 1760.65 1473.12 1772.87 1468.01 1788.92 1457.78 1804.98 1447.56 1834.35 1423.29 1877.05 1384.97L1910.3 1355.2C1912.26 1353.44 1917.12 1347.85 1924.88 1338.43L1969.46 1338.43 1821.78 1493.42C1862.79 1481.45 1910.68 1452.41 1965.44 1406.3L1974.96 1416.25C1914.78 1469.82 1860.35 1502 1811.67 1512.8L1775.96 1549.8C1754.52 1572.13 1728.83 1594.57 1698.89 1617.12 1668.94 1639.66 1642.57 1650.93 1619.76 1650.93 1601.17 1650.93 1591.88 1643.73 1591.88 1629.32 1591.88 1613 1607.89 1593.48 1639.9 1570.77 1671.92 1548.05 1714.65 1528.33 1768.08 1511.62L1824.02 1453.98 1818.27 1458.3C1799.23 1472.21 1784.91 1481.23 1775.32 1485.34 1765.72 1489.45 1757.15 1491.5 1749.61 1491.5 1743.87 1491.5 1738.08 1489.44 1732.23 1485.33 1726.39 1481.22 1723.46 1474.67 1723.46 1465.68 1723.46 1445.23 1735.61 1424.76 1759.9 1404.25 1784.19 1383.74 1798.75 1370.76 1803.58 1365.32 1808.42 1359.87 1810.83 1356.3 1810.83 1354.59 1810.83 1355.37 1810.42 1355.76 1809.6 1355.76 1804.94 1355.76 1796.13 1359.37 1783.17 1366.6 1770.21 1373.82 1754.6 1385 1736.34 1400.15L1705.65 1422.92 1700.93 1417.72 1680.92 1435.7C1659.71 1453.71 1640.23 1466.97 1622.49 1475.5 1598.83 1486.87 1579.62 1492.56 1564.84 1492.56 1541.2 1492.56 1529.39 1480.48 1529.39 1456.32 1529.39 1427.64 1548.12 1401.17 1585.57 1376.93 1623.03 1352.68 1652.49 1340.55 1673.96 1340.55 1679.36 1340.55 1684.21 1342.23 1688.5 1345.58 1692.78 1348.93 1694.93 1353.19 1694.93 1358.37 1694.93 1372.39 1682.83 1386.11 1658.64 1399.53 1634.45 1412.94 1609.08 1421.11 1582.53 1424.02 1561.49 1445.09 1550.96 1459.07 1550.96 1465.97 1550.96 1468.15 1552.26 1470.35 1554.84 1472.59 1557.43 1474.83 1560.58 1475.95 1564.32 1475.95 1575.34 1475.95 1591.46 1470.89 1612.68 1460.78 1633.89 1450.67 1660.72 1432.51 1693.18 1406.3L1698.17 1411.44 1731.53 1380.71C1743.08 1370.84 1756.85 1361.27 1772.85 1352 1788.86 1342.72 1801.88 1338.08 1811.94 1338.08ZM4189.57 1338.08C4196.16 1338.08 4201.88 1340.3 4206.73 1344.75 4211.58 1349.19 4214 1355.02 4214 1362.23L4207.42 1385.76 4215.29 1379.25C4248.93 1352.51 4274.25 1339.14 4291.23 1339.14 4311.9 1339.14 4322.24 1348.11 4322.24 1366.04 4322.24 1376.45 4318.78 1386.81 4311.84 1397.12 4304.91 1407.43 4292.88 1419.84 4275.77 1434.34 4258.66 1448.83 4248.45 1457.92 4245.14 1461.6 4241.83 1465.28 4240.18 1467.88 4240.18 1469.41 4240.18 1469.92 4240.48 1470.42 4241.09 1470.94 4241.7 1471.45 4242.51 1471.7 4243.52 1471.7 4249.6 1471.7 4259.8 1468.14 4274.13 1461.01 4288.45 1453.88 4304.73 1442.58 4322.96 1427.11L4350.72 1406.3 4360.09 1416.15C4307.32 1464.97 4268.18 1489.38 4242.65 1489.38 4235.36 1489.38 4229.24 1486.66 4224.28 1481.21 4219.31 1475.77 4216.84 1469.06 4216.84 1461.08 4216.84 1454.23 4218.46 1447.43 4221.71 1440.66 4224.95 1433.9 4228.52 1428.25 4232.41 1423.72 4236.31 1419.2 4245.2 1411.03 4259.09 1399.24L4275.02 1385.71C4291.41 1371.83 4299.61 1362.96 4299.61 1359.11 4299.61 1357.58 4297.35 1356.81 4292.83 1356.81 4277.54 1356.81 4255.07 1368.57 4225.42 1392.08 4195.76 1415.59 4160.04 1447.32 4118.25 1487.26L4073.58 1487.26 4171.31 1380.15C4184.92 1366.46 4191.72 1358.29 4191.72 1355.64 4191.72 1355.25 4190.84 1355.05 4189.09 1355.05 4172.78 1355.05 4136.5 1377.67 4080.25 1422.92L4075.48 1417.69 4055.44 1435.7C4034.23 1453.71 4014.75 1466.97 3997.01 1475.5 3973.35 1486.87 3954.13 1492.56 3939.36 1492.56 3915.72 1492.56 3903.91 1480.48 3903.91 1456.32 3903.91 1427.64 3922.63 1401.17 3960.09 1376.93 3997.55 1352.68 4027.01 1340.55 4048.48 1340.55 4053.88 1340.55 4058.73 1342.23 4063.02 1345.58 4067.3 1348.93 4069.45 1353.19 4069.45 1358.37 4069.45 1372.39 4057.35 1386.11 4033.16 1399.53 4008.96 1412.94 3983.6 1421.11 3957.05 1424.02 3936.01 1445.09 3925.48 1459.07 3925.48 1465.97 3925.48 1468.15 3926.77 1470.35 3929.36 1472.59 3931.94 1474.83 3935.1 1475.95 3938.84 1475.95 3949.86 1475.95 3965.98 1470.89 3987.19 1460.78 4008.41 1450.67 4035.24 1432.51 4067.7 1406.3L4072.74 1411.5 4091.86 1395.35C4138.3 1357.17 4170.88 1338.08 4189.57 1338.08ZM4514.68 1336.31C4521.85 1336.31 4528.3 1338.35 4534.01 1342.43 4539.72 1346.51 4542.58 1351.92 4542.58 1358.65L4541.98 1362.19 4556.77 1338.43 4596.86 1338.43 4428.48 1504.64C4441.05 1499.85 4462.01 1489.21 4491.35 1472.73 4520.69 1456.25 4541.85 1442.56 4554.83 1431.66L4586.84 1406.3 4596.34 1416.2C4560.5 1449.48 4526.35 1474.56 4493.89 1491.42 4461.44 1508.28 4437.1 1518.35 4420.87 1521.64 4366.73 1576.11 4327.03 1612.45 4301.8 1630.67 4276.56 1648.89 4253.06 1658 4231.29 1658 4223.53 1658 4217.17 1656.04 4212.21 1652.13 4207.25 1648.21 4204.77 1643.13 4204.77 1636.88 4204.77 1618.14 4224.92 1595.4 4265.22 1568.67 4305.52 1541.94 4344.39 1524.98 4381.85 1517.77L4419.31 1480.37 4413.73 1483.74C4400.85 1490.33 4389.53 1493.62 4379.76 1493.62 4370.24 1493.62 4362.28 1489.79 4355.87 1482.12 4349.46 1474.46 4346.26 1465.53 4346.26 1455.35 4346.26 1436.66 4355.65 1418.36 4374.43 1400.45 4393.21 1382.54 4417 1367.37 4445.83 1354.95 4474.65 1342.52 4497.6 1336.31 4514.68 1336.31ZM2472.5 1335.25C2490.63 1335.25 2499.69 1343.84 2499.69 1361.03 2499.69 1375.62 2489.29 1394.29 2468.48 1417.04 2470.08 1417.42 2473.13 1417.62 2477.62 1417.62 2483.51 1417.62 2491.36 1413.85 2501.16 1406.3L2511.01 1415.88C2499.56 1428.82 2488.33 1435.29 2477.3 1435.29 2467.74 1435.29 2461.5 1432.54 2458.6 1427.02 2444.7 1444.03 2427.63 1458.9 2407.4 1471.66 2387.16 1484.42 2369.78 1490.79 2355.25 1490.79 2346.42 1490.79 2339.04 1487.69 2333.12 1481.48 2327.2 1475.27 2324.25 1466.89 2324.25 1456.34 2324.25 1434.83 2333.53 1414.5 2352.09 1395.35 2370.65 1376.19 2391.77 1361.39 2415.46 1350.93 2439.16 1340.48 2458.17 1335.25 2472.5 1335.25ZM2255.62 1299.9 2263.13 1312.16C2252.22 1322.03 2245.67 1328.52 2243.45 1331.64 2241.25 1334.75 2240.14 1338.57 2240.14 1343.09 2240.14 1347.68 2240.96 1355 2242.61 1365.06 2244.26 1375.11 2245.09 1384.43 2245.09 1393.02 2245.09 1402.31 2243.59 1410.27 2240.58 1416.89L2238.38 1420.38 2251.26 1406.3 2260.65 1416.24C2205.7 1466.41 2161.05 1491.5 2126.71 1491.5 2117.19 1491.5 2108.84 1488.63 2101.65 1482.88 2094.46 1477.14 2090.87 1469.54 2090.87 1460.08L2094.51 1450.87 2092.93 1452.13C2079.56 1462.02 2066.96 1469.81 2055.13 1475.5 2031.48 1486.87 2012.26 1492.56 1997.48 1492.56 1973.85 1492.56 1962.03 1480.48 1962.03 1456.32 1962.03 1427.64 1980.76 1401.17 2018.22 1376.93 2055.68 1352.68 2085.14 1340.55 2106.61 1340.55 2112.01 1340.55 2116.85 1342.23 2121.14 1345.58 2125.43 1348.93 2127.58 1353.19 2127.58 1358.37 2127.58 1372.39 2115.48 1386.11 2091.28 1399.53 2067.09 1412.94 2041.72 1421.11 2015.18 1424.02 1994.13 1445.09 1983.61 1459.07 1983.61 1465.97 1983.61 1468.15 1984.9 1470.35 1987.49 1472.59 1990.07 1474.83 1993.23 1475.95 1996.96 1475.95 2007.99 1475.95 2024.11 1470.89 2045.32 1460.78 2066.53 1450.67 2093.37 1432.51 2125.82 1406.3L2126.38 1406.87ZM5088 1233.81 4860.61 1451.55 4858.16 1449.55 4861.58 1454.55C4862.67 1457.14 4863.21 1459.93 4863.21 1462.93 4863.21 1471.14 4859.97 1477.95 4853.48 1483.37 4847 1488.79 4840.01 1491.5 4832.52 1491.5 4826.29 1491.5 4821.12 1489.45 4817.01 1485.35 4812.91 1481.25 4810.86 1476.09 4810.86 1469.86 4810.86 1462.59 4813.94 1455.96 4820.1 1449.95 4826.27 1443.95 4833.18 1440.95 4840.85 1440.95 4843.97 1440.95 4846.86 1441.49 4849.5 1442.57L4851.45 1443.89 5039.38 1235.05ZM2927.39 1112.13C2921.96 1112.13 2913.19 1115.08 2901.09 1120.97 2889 1126.86 2873.37 1137.71 2854.22 1153.5 2835.07 1169.3 2805.27 1198.18 2764.84 1240.14 2739.57 1266.37 2722.2 1284.35 2712.72 1294.08L2710.01 1296.86 2717.51 1291.62C2726.38 1286.01 2739.7 1278.48 2757.45 1269.04 2792.95 1250.15 2825.6 1229.34 2855.41 1206.62 2885.22 1183.9 2905.85 1164.54 2917.32 1148.53 2928.78 1132.52 2934.52 1121.5 2934.52 1115.46 2934.52 1115.14 2933.88 1114.5 2932.62 1113.55 2931.36 1112.61 2929.62 1112.13 2927.39 1112.13ZM3322.88 1109.01C3310.38 1109.01 3293.94 1115.98 3273.57 1129.92 3253.2 1143.86 3220.4 1174.38 3175.17 1221.5 3129.95 1268.62 3107.34 1292.52 3107.34 1293.19 3107.34 1288.94 3120.74 1279.77 3147.54 1265.68 3162.05 1257.75 3177.22 1249.94 3193.05 1242.24 3223.15 1223.51 3247.51 1206.94 3266.14 1192.52 3284.77 1178.11 3300.02 1163.84 3311.91 1149.73 3320.79 1139.35 3326.41 1130.91 3328.77 1124.41 3330.07 1121.17 3330.71 1118.53 3330.71 1116.49 3330.71 1111.5 3328.1 1109.01 3322.88 1109.01ZM1431.31 1109.01C1418.81 1109.01 1402.38 1115.98 1382 1129.92 1361.63 1143.86 1328.83 1174.38 1283.61 1221.5 1238.38 1268.62 1215.77 1292.52 1215.77 1293.19 1215.77 1288.94 1229.17 1279.77 1255.98 1265.68 1270.49 1257.75 1285.66 1249.94 1301.48 1242.24 1331.58 1223.51 1355.95 1206.94 1374.57 1192.52 1393.2 1178.11 1408.46 1163.84 1420.34 1149.73 1429.22 1139.35 1434.84 1130.91 1437.21 1124.41 1438.5 1121.17 1439.15 1118.53 1439.15 1116.49 1439.15 1111.5 1436.54 1109.01 1431.31 1109.01ZM928.234 1109.01C915.736 1109.01 899.301 1115.98 878.928 1129.92 858.556 1143.86 825.757 1174.38 780.532 1221.5 735.307 1268.62 712.694 1292.52 712.694 1293.19 712.694 1288.94 726.097 1279.77 752.903 1265.68 767.414 1257.75 782.581 1249.94 798.405 1242.24 828.506 1223.51 852.87 1206.94 871.497 1192.52 890.124 1178.11 905.382 1163.84 917.268 1149.73 926.144 1139.35 931.766 1130.91 934.132 1124.41 935.425 1121.17 936.072 1118.53 936.072 1116.49 936.072 1111.5 933.459 1109.01 928.234 1109.01ZM-128.225 1109.01C-140.723 1109.01-157.159 1115.98-177.531 1129.92-197.904 1143.86-230.702 1174.38-275.928 1221.5-321.153 1268.62-343.766 1292.52-343.766 1293.19-343.766 1288.94-330.363 1279.77-303.557 1265.68-289.046 1257.75-273.879 1249.94-258.054 1242.24-227.954 1223.51-203.59 1206.94-184.962 1192.52-166.334 1178.11-151.077 1163.84-139.19 1149.73-130.313 1139.35-124.693 1130.91-122.327 1124.41-121.034 1121.17-120.387 1118.53-120.387 1116.49-120.387 1111.5-123 1109.01-128.225 1109.01ZM2928.51 1093.75C2935.09 1093.75 2940.98 1095.85 2946.17 1100.04 2951.37 1104.23 2953.97 1109.46 2953.97 1115.73 2953.97 1131.58 2942.83 1151.5 2920.55 1175.49 2898.26 1199.48 2863.21 1225.95 2815.39 1254.89 2767.56 1283.84 2727.36 1303.63 2694.77 1314.28L2589.79 1425.74C2594.49 1428.07 2601.49 1429.23 2610.79 1429.23 2623.62 1429.23 2639.96 1421.57 2659.8 1406.25L2669.22 1416.21C2647.29 1437.15 2627.7 1447.61 2610.45 1447.61 2596.7 1447.61 2586.55 1444.15 2580.01 1437.22L2380.02 1653.7 2336.01 1653.7 2441.28 1533.21C2470.54 1502.36 2497.09 1469.76 2520.93 1435.43 2526.89 1426.85 2532.1 1419.47 2536.57 1413.31L2540.21 1408.46 2520.63 1422.86 2511.46 1412.96C2525.6 1398.8 2541.65 1385.58 2559.63 1373.31 2564 1361.96 2569.61 1352.01 2576.46 1343.44 2583.3 1334.88 2589.48 1330.6 2595.01 1330.6 2602.75 1330.6 2606.61 1334.46 2606.61 1342.17 2606.61 1346.56 2603.03 1351.01 2595.87 1355.52L2646.49 1317.31C2649.8 1315.17 2656.56 1308.99 2666.78 1298.77 2712.17 1252.92 2747.58 1218.7 2773 1196.11 2798.42 1173.52 2823.08 1153.35 2846.99 1135.59 2870.9 1117.83 2888.53 1106.42 2899.9 1101.35 2911.27 1096.28 2920.8 1093.75 2928.51 1093.75ZM3322.27 1090.27C3341.34 1090.27 3350.88 1099.33 3350.88 1117.44 3350.88 1137.41 3330.38 1164.04 3289.38 1197.33 3248.39 1230.62 3195.97 1261.85 3132.14 1291.01 3106.4 1302.85 3092.24 1310.14 3089.66 1312.89L3052.42 1354.31 3007.07 1403.7 3051.11 1367.46C3080.46 1346.93 3102.7 1336.66 3117.82 1336.66 3137.36 1336.66 3147.13 1346.41 3147.13 1365.91 3147.13 1376.14 3144.63 1386.05 3139.63 1395.65 3134.62 1405.25 3124.01 1416.93 3107.77 1430.71L3086.65 1448.66C3073.2 1460.04 3066.48 1467.67 3066.48 1471.55 3066.48 1472.6 3067.47 1473.12 3069.44 1473.12 3088.4 1473.12 3124.33 1450.85 3177.24 1406.3L3184.14 1414.35 3225.6 1376.93C3263.06 1352.68 3292.52 1340.55 3313.99 1340.55 3319.39 1340.55 3324.24 1342.23 3328.52 1345.58 3332.81 1348.93 3334.96 1353.19 3334.96 1358.37 3334.96 1372.39 3322.86 1386.11 3298.67 1399.53 3274.47 1412.94 3249.11 1421.11 3222.56 1424.02 3201.51 1445.09 3190.99 1459.07 3190.99 1465.97 3190.99 1468.15 3192.28 1470.35 3194.87 1472.59 3197.45 1474.83 3200.61 1475.95 3204.34 1475.95 3215.37 1475.95 3231.49 1470.89 3252.7 1460.78 3273.92 1450.67 3300.75 1432.51 3333.21 1406.3L3342.74 1416.12C3312.91 1444.34 3286.17 1464.13 3262.51 1475.5 3238.86 1486.87 3219.64 1492.56 3204.86 1492.56 3181.23 1492.56 3169.41 1480.48 3169.41 1456.32L3181.5 1420.74 3156.3 1443.97C3142.15 1455.92 3126.71 1466.71 3109.98 1476.34 3093.25 1485.97 3079.8 1490.79 3069.64 1490.79 3061.19 1490.79 3054.6 1487.67 3049.87 1481.44 3045.14 1475.2 3042.78 1467.53 3042.78 1458.44 3042.78 1448.52 3045.72 1439.69 3051.58 1431.93 3057.45 1424.16 3069.32 1412.7 3087.18 1397.53 3105.05 1382.36 3115.74 1372.68 3119.24 1368.48 3122.74 1364.29 3124.49 1361.14 3124.49 1359.01 3124.49 1357.99 3123.8 1356.96 3122.41 1355.91 3121.02 1354.86 3119.45 1354.34 3117.68 1354.34 3113.92 1354.34 3106.67 1356.7 3095.92 1361.41 3085.17 1366.12 3069.5 1375.84 3048.89 1390.57 3028.28 1405.3 3007.98 1422.25 2987.97 1441.41 2967.97 1460.57 2951.29 1475.85 2937.94 1487.26L2893.86 1487.26 3014.76 1350.92 2998.34 1363.41C2978.85 1378.49 2953.76 1398.33 2923.08 1422.92L2918.99 1418.44 2900.39 1434.6C2853.03 1474.65 2820.22 1494.68 2801.96 1494.68 2793.72 1494.68 2786.84 1491.46 2781.3 1485.02 2775.77 1478.59 2773.01 1471.1 2773.01 1462.58 2773.01 1443.41 2786.97 1420.15 2814.91 1392.79L2834.42 1372.69 2772.12 1422.92 2763.1 1412.99 2861.46 1329.54 2898.53 1310.86 2867.1 1310.86 2870.73 1293.18 2907.8 1293.18 2966.28 1232.21 3006.31 1231.32 2950.23 1293.18 2999.74 1293.18 2996.9 1310.86 2942.16 1310.86 2824.47 1435.97C2810.4 1450.9 2802.19 1459.94 2799.86 1463.11 2797.52 1466.27 2796.35 1468.87 2796.35 1470.9 2796.35 1472.24 2797.03 1473.48 2798.37 1474.61 2799.72 1475.74 2801.09 1476.3 2802.49 1476.3 2819.76 1476.3 2856.27 1452.97 2912.01 1406.3L2916.61 1411.07 2947.22 1388.29C2966.58 1368.38 2988.69 1349.85 3013.54 1332.71 3038.38 1315.57 3052.73 1306.16 3056.57 1304.49L3147.05 1208.95C3166.05 1189.51 3184.6 1171.98 3202.72 1156.34 3220.85 1140.7 3238.75 1127.41 3256.44 1116.46 3274.12 1105.52 3288.05 1098.41 3298.21 1095.16 3308.37 1091.9 3316.39 1090.27 3322.27 1090.27ZM1430.7 1090.27C1449.77 1090.27 1459.31 1099.33 1459.31 1117.44 1459.31 1137.41 1438.81 1164.04 1397.82 1197.33 1356.82 1230.62 1304.41 1261.85 1240.58 1291.01 1214.84 1302.85 1200.68 1310.14 1198.09 1312.89L1160.85 1354.31 1115.5 1403.7 1159.54 1367.46C1188.89 1346.93 1211.13 1336.66 1226.25 1336.66 1245.79 1336.66 1255.56 1346.41 1255.56 1365.91 1255.56 1376.14 1253.06 1386.05 1248.06 1395.65 1243.06 1405.25 1232.44 1416.93 1216.21 1430.71L1195.09 1448.66C1181.64 1460.04 1174.91 1467.67 1174.91 1471.55 1174.91 1472.6 1175.9 1473.12 1177.88 1473.12 1196.83 1473.12 1232.76 1450.85 1285.67 1406.3L1292.58 1414.35 1334.04 1376.93C1371.49 1352.68 1400.96 1340.55 1422.42 1340.55 1427.82 1340.55 1432.67 1342.23 1436.96 1345.58 1441.25 1348.93 1443.39 1353.19 1443.39 1358.37 1443.39 1372.39 1431.3 1386.11 1407.1 1399.53 1382.91 1412.94 1357.54 1421.11 1331 1424.02 1309.95 1445.09 1299.43 1459.07 1299.43 1465.97 1299.43 1468.15 1300.72 1470.35 1303.3 1472.59 1305.89 1474.83 1309.05 1475.95 1312.78 1475.95 1323.8 1475.95 1339.92 1470.89 1361.14 1460.78 1382.35 1450.67 1409.19 1432.51 1441.64 1406.3L1451.17 1416.12C1421.35 1444.34 1394.61 1464.13 1370.95 1475.5 1347.29 1486.87 1328.08 1492.56 1313.3 1492.56 1289.67 1492.56 1277.85 1480.48 1277.85 1456.32L1289.93 1420.74 1264.73 1443.97C1250.59 1455.92 1235.15 1466.71 1218.42 1476.34 1201.68 1485.97 1188.24 1490.79 1178.07 1490.79 1169.62 1490.79 1163.03 1487.67 1158.31 1481.44 1153.58 1475.2 1151.22 1467.53 1151.22 1458.44 1151.22 1448.52 1154.15 1439.69 1160.02 1431.93 1165.88 1424.16 1177.75 1412.7 1195.62 1397.53 1213.49 1382.36 1224.17 1372.68 1227.67 1368.48 1231.17 1364.29 1232.93 1361.14 1232.93 1359.01 1232.93 1357.99 1232.23 1356.96 1230.85 1355.91 1229.46 1354.86 1227.88 1354.34 1226.12 1354.34 1222.35 1354.34 1215.1 1356.7 1204.35 1361.41 1193.61 1366.12 1177.93 1375.84 1157.32 1390.57 1136.72 1405.3 1116.41 1422.25 1096.41 1441.41 1076.4 1460.57 1059.73 1475.85 1046.38 1487.26L1002.3 1487.26 1123.19 1350.92 1106.77 1363.41C1087.29 1378.49 1062.2 1398.33 1031.51 1422.92L1027.43 1418.44 1008.82 1434.6C961.465 1474.65 928.658 1494.68 910.396 1494.68 902.158 1494.68 895.272 1491.46 889.739 1485.02 884.207 1478.59 881.44 1471.1 881.44 1462.58 881.44 1443.41 895.408 1420.15 923.341 1392.79L942.851 1372.69 880.556 1422.92 871.537 1412.99 969.894 1329.54 1006.96 1310.86 975.531 1310.86 979.162 1293.18 1016.23 1293.18 1074.72 1232.21 1114.74 1231.32 1058.66 1293.18 1108.18 1293.18 1105.33 1310.86 1050.59 1310.86 932.902 1435.97C918.83 1450.9 910.627 1459.94 908.29 1463.11 905.954 1466.27 904.786 1468.87 904.786 1470.9 904.786 1472.24 905.46 1473.48 906.809 1474.61 908.159 1475.74 909.528 1476.3 910.922 1476.3 928.191 1476.3 964.7 1452.97 1020.45 1406.3L1025.05 1411.07 1055.65 1388.29C1075.02 1368.38 1097.12 1349.85 1121.97 1332.71 1146.82 1315.57 1161.16 1306.16 1165 1304.49L1255.48 1208.95C1274.48 1189.51 1293.04 1171.98 1311.16 1156.34 1329.28 1140.7 1347.19 1127.41 1364.87 1116.46 1382.56 1105.52 1396.48 1098.41 1406.64 1095.16 1416.81 1091.9 1424.82 1090.27 1430.7 1090.27ZM927.627 1090.27C946.698 1090.27 956.233 1099.33 956.233 1117.44 956.233 1137.41 935.736 1164.04 894.741 1197.33 853.745 1230.62 801.331 1261.85 737.499 1291.01 711.761 1302.85 697.601 1310.14 695.019 1312.89L657.778 1354.31 612.424 1403.7 656.468 1367.46C685.816 1346.93 708.053 1336.66 723.178 1336.66 742.719 1336.66 752.488 1346.41 752.488 1365.91 752.488 1376.14 749.987 1386.05 744.985 1395.65 739.984 1405.25 729.365 1416.93 713.13 1430.71L692.012 1448.66C678.564 1460.04 671.839 1467.67 671.839 1471.55 671.839 1472.6 672.827 1473.12 674.802 1473.12 693.755 1473.12 729.685 1450.85 782.594 1406.3L791.398 1416.56 761.657 1443.97C747.512 1455.92 732.073 1466.71 715.341 1476.34 698.609 1485.97 685.159 1490.79 674.994 1490.79 666.545 1490.79 659.957 1487.67 655.23 1481.44 650.503 1475.2 648.139 1467.53 648.139 1458.44 648.139 1448.52 651.074 1439.69 656.942 1431.93 662.809 1424.16 674.676 1412.7 692.543 1397.53 710.41 1382.36 721.094 1372.68 724.596 1368.48 728.098 1364.29 729.851 1361.14 729.851 1359.01 729.851 1357.99 729.155 1356.96 727.768 1355.91 726.381 1354.86 724.805 1354.34 723.041 1354.34 719.279 1354.34 712.024 1356.7 701.279 1361.41 690.531 1366.12 674.856 1375.84 654.248 1390.57 633.643 1405.3 613.337 1422.25 593.331 1441.41 573.326 1460.57 556.65 1475.85 543.304 1487.26L499.221 1487.26 620.119 1350.92 603.695 1363.41C584.208 1378.49 559.123 1398.33 528.437 1422.92L526.402 1420.69 504.924 1439.62C478.675 1461.51 453.382 1478.77 429.041 1491.42 396.586 1508.28 372.245 1518.35 356.019 1521.64 301.873 1576.11 262.182 1612.45 236.946 1630.67 211.71 1648.89 188.205 1658 166.432 1658 158.677 1658 152.317 1656.04 147.356 1652.13 142.396 1648.21 139.914 1643.13 139.914 1636.88 139.914 1618.14 160.064 1595.4 200.362 1568.67 240.662 1541.94 279.538 1524.98 316.992 1517.77L354.46 1480.37 348.872 1483.74C336 1490.33 324.677 1493.62 314.903 1493.62 305.39 1493.62 297.429 1489.79 291.018 1482.12 284.61 1474.46 281.405 1465.53 281.405 1455.35L284.861 1441.74 284.771 1441.82C258.698 1464.53 240.633 1478.47 230.575 1483.64 217.164 1490.53 206.485 1493.97 198.532 1493.97 191.414 1493.97 185.276 1491.32 180.116 1486 174.958 1480.69 172.378 1473.71 172.378 1465.05L182.321 1435.45 169.655 1446.38C132.32 1477.17 104.561 1492.56 86.3735 1492.56 78.9948 1492.56 72.6766 1489.93 67.4218 1484.68 62.1677 1479.42 59.5403 1472.41 59.5403 1463.65L82.9722 1417.2 75.6352 1422.92 72.5093 1419.47 67.5788 1424.37C59.071 1431.65 50.6826 1435.29 42.4112 1435.29 32.8504 1435.29 26.6184 1432.54 23.7145 1427.02 9.81274 1444.03-7.25665 1458.9-27.4902 1471.66-47.7238 1484.42-65.1063 1490.79-79.6345 1490.79-88.4691 1490.79-95.847 1487.69-101.765 1481.48-107.682 1475.27-110.641 1466.89-110.641 1456.34L-105.141 1431.54-108.065 1434.09C-154.299 1473.07-188.15 1492.56-209.62 1492.56-218.479 1492.56-225.452 1489.71-230.543 1484-235.634 1478.29-238.179 1471.05-238.179 1462.28-238.179 1452.14-235.098 1442.29-228.935 1432.72-222.773 1423.14-210.355 1409.24-191.686 1391-182.351 1381.89-174.581 1374.24-168.374 1368.05L-163.667 1363.32-175.741 1364.59C-178.839 1364.59-180.676 1364.24-181.25 1363.54L-256.378 1422.92-265.415 1412.99-210.085 1364.85C-201.854 1358.25-196.798 1355.4-194.92 1356.29-202.3 1353.48-205.989 1346.89-205.989 1336.5-205.989 1329.82-203.668 1323.88-199.02 1318.67-194.374 1313.46-188.933 1310.86-182.698 1310.86-177.611 1310.86-173.144 1312.89-169.304 1316.97-165.463 1321.04-163.543 1325.78-163.543 1331.18-163.543 1336.72-165.446 1341.56-169.251 1345.68L-169.302 1345.71-159.581 1344.44C-154.499 1343.26-148.834 1341.5-142.59 1339.14L-118.47 1365.62C-123.865 1377.84-133.544 1390.36-147.512 1403.18-161.477 1416.01-175.178 1429.44-188.609 1443.47-202.043 1457.51-209.418 1465.52-210.734 1467.5-212.052 1469.48-212.71 1471.06-212.71 1472.23-212.71 1474-211.488 1474.89-209.04 1474.89-201.431 1474.89-188.83 1469.97-171.236 1460.15-153.643 1450.32-128.936 1432.38-97.1194 1406.3L-93.2956 1410.23-82.8021 1395.35C-64.2419 1376.19-43.1166 1361.39-19.4236 1350.93 4.2677 1340.48 23.2784 1335.25 37.6095 1335.25 55.7413 1335.25 64.8071 1343.84 64.8071 1361.03 64.8071 1375.62 54.4023 1394.29 33.5911 1417.04 35.1928 1417.42 38.2426 1417.62 42.7372 1417.62 48.6261 1417.62 56.4717 1413.85 66.2714 1406.3L70.0219 1409.95 86.045 1395.73C103.815 1379.95 116.61 1368.53 124.429 1361.48 134.855 1352.07 144.521 1344.39 153.427 1338.43L196.078 1338.43C188.286 1353.23 179.166 1365.74 168.719 1375.95L90.1087 1457.21C84.8623 1462.65 81.8663 1466.49 81.117 1468.72L81.117 1470.21C81.117 1471.22 81.6965 1472.25 82.8561 1473.31 84.015 1474.36 85.4691 1474.89 87.2202 1474.89 95.9626 1474.89 109.584 1468.76 128.085 1456.52 146.585 1444.27 162.981 1432.33 177.271 1420.7L231.557 1372.63C236.763 1364.95 247.432 1353.54 263.564 1338.43L307.856 1338.43C275.405 1376.46 249.936 1405.85 231.451 1426.6L210.575 1442.51C199.496 1460.1 193.956 1470.12 193.956 1472.54 193.956 1474.58 195.752 1475.59 199.344 1475.59 208.047 1475.59 219.974 1470.31 235.127 1459.73 250.276 1449.15 273.201 1431.34 303.892 1406.3L304.518 1406.95 309.573 1400.45C328.351 1382.54 352.152 1367.37 380.972 1354.95 409.794 1342.52 432.744 1336.31 449.822 1336.31 457 1336.31 463.444 1338.35 469.156 1342.43 474.866 1346.51 477.722 1351.92 477.722 1358.65L477.133 1362.19 491.915 1338.43 532.009 1338.43 363.624 1504.64C376.2 1499.85 397.158 1489.21 426.498 1472.73 455.839 1456.25 477 1442.56 489.981 1431.66L521.988 1406.3 524.649 1409.08 552.578 1388.29C571.94 1368.38 594.045 1349.85 618.893 1332.71 643.741 1315.57 658.085 1306.16 661.93 1304.49L752.405 1208.95C771.403 1189.51 789.962 1171.98 808.084 1156.34 826.206 1140.7 844.109 1127.41 861.795 1116.46 879.48 1105.52 893.405 1098.41 903.568 1095.16 913.73 1091.9 921.748 1090.27 927.627 1090.27ZM-128.833 1090.27C-109.762 1090.27-100.226 1099.33-100.226 1117.44-100.226 1137.41-120.723 1164.04-161.719 1197.33-202.713 1230.62-255.128 1261.85-318.961 1291.01-344.697 1302.85-358.859 1310.14-361.441 1312.89L-398.681 1354.31-444.036 1403.7-399.992 1367.46C-370.643 1346.93-348.407 1336.66-333.28 1336.66-313.741 1336.66-303.972 1346.41-303.972 1365.91-303.972 1376.14-306.473 1386.05-311.474 1395.65-316.476 1405.25-327.095 1416.93-343.329 1430.71L-364.447 1448.66C-377.896 1460.04-384.621 1467.67-384.621 1471.55-384.621 1472.6-383.633 1473.12-381.658 1473.12-362.705 1473.12-326.775 1450.85-273.866 1406.3L-265.062 1416.56-294.802 1443.97C-308.948 1455.92-324.386 1466.71-341.118 1476.34-357.85 1485.97-371.299 1490.79-381.464 1490.79-389.913 1490.79-396.502 1487.67-401.23 1481.44-405.956 1475.2-408.321 1467.53-408.321 1458.44-408.321 1448.52-405.386 1439.69-399.518 1431.93-393.65 1424.16-381.784 1412.7-363.917 1397.53-346.05 1382.36-335.365 1372.68-331.863 1368.48-328.361 1364.29-326.609 1361.14-326.609 1359.01-326.609 1357.99-327.303 1356.96-328.69 1355.91-330.077 1354.86-331.654 1354.34-333.42 1354.34-337.181 1354.34-344.435 1356.7-355.181 1361.41-365.929 1366.12-381.604 1375.84-402.21 1390.57-422.817 1405.3-443.123 1422.25-463.128 1441.41-483.133 1460.57-499.81 1475.85-513.155 1487.26L-557.239 1487.26-436.34 1350.92-452.764 1363.41C-472.251 1378.49-497.337 1398.33-528.024 1422.92L-532.107 1418.44-550.716 1434.6C-598.07 1474.65-630.879 1494.68-649.14 1494.68-657.379 1494.68-664.264 1491.46-669.796 1485.02-675.329 1478.59-678.095 1471.1-678.095 1462.58-678.095 1443.41-664.128 1420.15-636.195 1392.79L-616.684 1372.69-678.979 1422.92-688 1412.99-589.64 1329.54-552.572 1310.86-584.004 1310.86-580.371 1293.18-543.304 1293.18-484.816 1232.21-444.791 1231.32-500.873 1293.18-451.358 1293.18-454.203 1310.86-508.943 1310.86-626.633 1435.97C-640.705 1450.9-648.909 1459.94-651.246 1463.11-653.581 1466.27-654.749 1468.87-654.749 1470.9-654.749 1472.24-654.075 1473.48-652.726 1474.61-651.378 1475.74-650.007 1476.3-648.614 1476.3-631.344 1476.3-594.836 1452.97-539.087 1406.3L-534.487 1411.07-503.881 1388.29C-484.518 1368.38-462.415 1349.85-437.566 1332.71-412.719 1315.57-398.373 1306.16-394.53 1304.49L-304.054 1208.95C-285.056 1189.51-266.496 1171.98-248.376 1156.34-230.254 1140.7-212.35 1127.41-194.665 1116.46-176.979 1105.52-163.054 1098.41-152.892 1095.16-142.73 1091.9-134.71 1090.27-128.833 1090.27ZM4000.13 1002.6C4048.02 1002.6 4091.36 1004.06 4130.13 1006.99L4208.47 1013.38C4227.24 1014.92 4243.35 1015.68 4256.79 1015.68 4271.77 1015.68 4287.05 1012.26 4302.64 1005.43L4309.66 1018.29C4295.67 1030.83 4279.77 1040.19 4261.98 1046.37 4244.18 1052.54 4226.96 1055.63 4210.33 1055.63 4196.87 1055.63 4158.76 1051.15 4095.98 1042.19L4091.55 1041.71 4098.53 1047.1 4036.45 1094.81C4017.7 1117.82 4000.01 1138.88 3983.39 1157.99 3966.76 1177.1 3941.9 1213.19 3908.79 1266.26 3875.69 1319.33 3845.26 1359.56 3817.5 1386.93 3789.74 1414.31 3753.38 1438.23 3708.42 1458.69 3663.46 1479.15 3617.02 1489.38 3569.11 1489.38 3530.11 1489.38 3499.23 1483 3476.49 1470.23 3453.74 1457.47 3442.37 1440.2 3442.37 1418.41 3442.37 1407.08 3446.05 1397.22 3453.41 1388.84 3460.76 1380.45 3469.79 1376.26 3480.48 1376.26 3489.05 1376.26 3496.4 1379.11 3502.52 1384.83 3508.64 1390.54 3511.7 1397.58 3511.7 1405.94 3511.7 1414.08 3508.9 1420.89 3503.3 1426.37 3497.7 1431.85 3490.65 1434.59 3482.14 1434.59 3478.26 1434.59 3474.68 1433.77 3471.4 1432.15L3466.9 1428.46 3472.09 1441.96C3476.34 1447.26 3482.71 1452.33 3491.2 1457.17 3508.19 1466.86 3533.07 1471.7 3565.83 1471.7 3600.2 1471.7 3632.36 1465.39 3662.33 1452.78 3692.3 1440.16 3719.44 1422.17 3743.75 1398.81 3768.06 1375.44 3801.93 1335.77 3845.36 1279.78L3883.52 1230.58C3909.35 1197.36 3943.29 1161.97 3985.34 1124.44L4086.35 1041.15 4003.1 1032.12C3972.57 1029.88 3942.46 1028.76 3912.78 1028.76 3826.78 1028.76 3761.84 1044.13 3717.96 1074.85 3674.07 1105.58 3652.13 1134.31 3652.13 1161.04 3652.13 1173.83 3659.09 1185.33 3673 1195.53 3686.91 1205.72 3704.89 1210.82 3726.91 1210.82 3762.7 1210.82 3798.57 1200.47 3834.51 1179.78 3870.45 1159.08 3888.42 1137.96 3888.42 1116.41 3888.42 1108.15 3884.59 1101.43 3876.92 1096.26 3869.25 1091.09 3860.07 1088.5 3849.39 1088.5 3823.61 1088.5 3795.46 1095.94 3764.93 1110.81 3734.4 1125.69 3703.4 1148.3 3671.95 1178.65L3663.1 1168.99C3691.63 1136.59 3722.36 1112.01 3755.28 1095.25 3788.2 1078.5 3819.71 1070.12 3849.81 1070.12 3866.65 1070.12 3880.47 1074.23 3891.29 1082.44 3902.11 1090.66 3907.52 1100.92 3907.52 1113.25 3907.52 1143.45 3887.38 1170.2 3847.11 1193.52 3806.83 1216.83 3766.41 1228.49 3725.84 1228.49 3699.38 1228.49 3677.36 1221.86 3659.77 1208.59 3642.18 1195.33 3633.38 1180.08 3633.38 1162.85 3633.38 1144.91 3641.59 1125.13 3658.01 1103.5 3674.43 1081.87 3698.21 1063.09 3729.36 1047.17 3760.51 1031.26 3797.44 1019.85 3840.15 1012.95 3882.85 1006.05 3936.18 1002.6 4000.13 1002.6ZM2786.65 965.726C2774.04 965.726 2765.31 980.392 2760.45 1009.73 2765.55 1006.33 2770.34 1003.3 2774.83 1000.63 2779.31 997.967 2783.26 995.422 2786.65 992.998 2793.93 987.665 2797.69 981.604 2797.93 974.817 2797.93 968.756 2794.17 965.726 2786.65 965.726ZM2324.25 965.726C2311.64 965.726 2302.9 980.392 2298.05 1009.73 2303.15 1006.33 2307.94 1003.3 2312.42 1000.63 2316.91 997.967 2320.85 995.422 2324.25 992.998 2331.53 987.665 2335.29 981.604 2335.53 974.817 2335.53 968.756 2331.77 965.726 2324.25 965.726ZM1346.38 965.726C1333.77 965.726 1325.04 980.392 1320.18 1009.73 1325.28 1006.33 1330.07 1003.3 1334.56 1000.63 1339.04 997.967 1342.99 995.422 1346.38 992.998 1353.66 987.665 1357.42 981.604 1357.66 974.817 1357.66 968.756 1353.9 965.726 1346.38 965.726ZM565.603 965.726C552.99 965.726 544.258 980.392 539.407 1009.73 544.499 1006.33 549.291 1003.3 553.778 1000.63 558.266 997.967 562.207 995.422 565.603 992.998 572.881 987.665 576.641 981.604 576.883 974.817 576.883 968.756 573.124 965.726 565.603 965.726ZM2648.08 962.816C2644.2 962.816 2640.5 963.301 2636.99 964.271 2633.47 965.24 2630.62 965.969 2628.43 966.452 2628.43 975.665 2634.14 986.574 2645.54 999.179 2655.24 988.756 2660.09 980.392 2660.09 974.088 2660.09 971.181 2659.06 968.573 2657 966.272 2654.94 963.968 2651.96 962.816 2648.08 962.816ZM2801.75 933.362C2814.97 933.362 2825.16 936.635 2832.32 943.18 2839.47 949.726 2843.05 958.211 2843.05 968.635 2843.05 979.059 2840.44 987.604 2835.23 994.27 2830.01 1000.94 2823.28 1006.51 2815.03 1011 2806.79 1015.48 2797.63 1019.48 2787.56 1023 2777.5 1026.51 2767.61 1030.45 2757.91 1034.82L2757.91 1043.91C2758.15 1052.63 2761.79 1058.82 2768.82 1062.45 2775.86 1066.09 2783.86 1068.03 2792.84 1068.27 2811.76 1068.27 2830.07 1060.75 2847.78 1045.72 2854.33 1040.15 2859.67 1035 2863.79 1030.27 2867.91 1025.54 2871.07 1023.18 2873.25 1023.18 2876.65 1023.18 2878.34 1026.57 2878.34 1033.36 2878.34 1040.15 2876.52 1047.72 2872.89 1056.09 2869.25 1064.45 2863.18 1072.63 2854.69 1080.63 2833.83 1100.27 2805.21 1110.09 2768.82 1110.09 2739.96 1110.09 2720.31 1099.66 2709.88 1078.81 2706.24 1071.54 2704.42 1061.12 2704.42 1047.54 2704.42 1033.97 2707.09 1019.85 2712.43 1005.18 2717.76 990.513 2724.86 977.848 2733.71 967.181 2742.57 956.514 2752.81 948.212 2764.46 942.271 2776.1 936.332 2788.53 933.362 2801.75 933.362ZM2431.1 920.999C2440.08 920.999 2447.96 925.726 2454.75 935.181 2459.6 941.727 2463.12 949.363 2465.31 958.09 2468.7 959.302 2472.95 959.908 2478.04 959.908 2485.07 959.908 2493.2 957.604 2502.42 952.999L2511.88 948.272C2514.79 946.816 2517.34 946.09 2519.52 946.09 2526.56 946.09 2533.59 956.393 2540.62 976.999 2538.44 986.452 2536.08 995.543 2533.53 1004.27 2530.98 1013 2528.01 1023.54 2524.61 1035.91 2521.22 1048.27 2519.46 1056.57 2519.34 1060.82 2519.22 1065.06 2520.49 1067.18 2523.16 1067.18 2526.8 1067.18 2531.28 1064.88 2536.62 1060.27L2548.12 1049.43 2554.39 1034.82C2560.09 1025.36 2566.22 1020.63 2572.76 1020.63 2576.65 1020.63 2579.44 1022.03 2581.13 1024.82 2582.83 1027.6 2585.99 1035.66 2590.59 1049 2592.29 1053.85 2595.08 1058.45 2598.96 1062.82 2607.94 1072.75 2622.13 1077.72 2641.53 1077.72 2638.62 1068.51 2633.95 1060.57 2627.53 1053.91 2621.1 1047.24 2614.73 1040.75 2608.42 1034.45 2602.12 1028.15 2596.54 1021.42 2591.69 1014.27 2586.83 1007.12 2584.41 998.695 2584.41 988.998 2584.41 971.543 2590.96 957.362 2604.06 946.452 2616.43 936.756 2630.74 931.847 2646.99 931.726 2663.24 931.605 2675.37 934.635 2683.38 940.818 2691.38 946.999 2695.39 955.847 2695.39 967.361 2695.39 978.878 2691.93 988.695 2685.01 996.816 2678.1 1004.94 2669.67 1010.7 2659.73 1014.09 2666.76 1021.36 2673.13 1028.76 2678.83 1036.27 2684.53 1043.78 2687.38 1051.66 2687.38 1059.91 2687.38 1076.15 2680.95 1088.69 2668.1 1097.54 2655.24 1106.39 2637.35 1110.82 2614.43 1110.82 2591.5 1110.82 2574.34 1106.27 2562.94 1097.18L2555.6 1088.85 2548.32 1095.63C2536.52 1104.72 2523.52 1109.18 2509.33 1109 2498.17 1109 2489.81 1104.51 2484.23 1095.54 2478.65 1086.57 2475.74 1075.66 2475.49 1062.82 2475.49 1037.36 2481.19 1013.24 2492.6 990.452 2487.26 992.634 2481.25 993.725 2474.58 993.725 2467.91 993.725 2463.12 993.483 2460.21 992.998 2458.03 1002.21 2455.84 1011.48 2453.66 1020.82 2451.48 1030.15 2450.39 1038.82 2450.39 1046.81L2452.57 1091.18C2452.57 1097 2449.54 1102.21 2443.47 1106.82 2437.41 1111.42 2429.16 1113.72 2418.73 1113.72 2412.67 1113.72 2408.48 1110.57 2406.18 1104.27 2403.87 1097.97 2402.72 1088.76 2402.72 1076.63L2402.86 1066.38 2392.29 1080.63C2371.43 1100.27 2342.81 1110.09 2306.42 1110.09 2277.56 1110.09 2257.91 1099.66 2247.48 1078.81L2244.97 1070.7 2235.97 1075.5C2230.54 1077.22 2224.55 1078.09 2218 1078.09 2200.78 1078.09 2187.07 1070.57 2176.89 1055.54 2148.51 1092.39 2124.73 1110.82 2105.57 1110.82 2098.05 1110.82 2090.65 1100.15 2083.38 1078.81 2081.56 1073.48 2079.84 1067.68 2078.24 1061.41L2075.25 1047.98 2056.03 1085.18C2038.93 1101.3 2020.67 1109.24 2001.27 1109 1980.04 1109 1968.1 1091.64 1965.45 1056.93L1965.3 1052.75 1948.99 1084.63C1920.85 1101.12 1902.9 1109.36 1895.14 1109.36 1894.41 1109.36 1893.93 1109.24 1893.69 1109 1874.28 1109 1864.58 1093.48 1864.58 1062.45 1864.58 1049.12 1865.85 1036.88 1868.4 1025.73 1870.94 1014.57 1872.82 1006.45 1874.04 1001.36 1875.25 996.272 1875.86 991.058 1875.86 985.726 1875.86 976.999 1870.82 972.635 1860.75 972.635 1850.69 972.635 1841.11 980.09 1832.01 994.997 1822.91 1009.91 1816.79 1025.36 1813.64 1041.36L1813.64 1043.91C1813.64 1052.15 1814.91 1060.63 1817.46 1069.36 1820 1078.09 1821.28 1084.15 1821.28 1087.54 1821.28 1095.78 1810.97 1103.91 1790.35 1111.9 1787.2 1113.12 1784.41 1113.72 1781.98 1113.72 1775.92 1113.72 1771.73 1110.57 1769.43 1104.27 1767.12 1097.97 1765.97 1088.15 1765.97 1074.82L1766.19 1053.85 1750.45 1084.63C1722.31 1101.12 1704.48 1109.36 1696.96 1109.36 1696.23 1109.36 1695.62 1109.24 1695.14 1109 1685.92 1109 1679.43 1105.97 1675.67 1099.91 1671.91 1093.85 1669.55 1086.21 1668.58 1077 1663.73 1085.97 1657.05 1093.66 1648.57 1100.09 1640.08 1106.51 1630.37 1109.72 1619.46 1109.72 1600.29 1109.72 1585.56 1106.09 1575.25 1098.81 1564.94 1091.54 1559.79 1080.76 1559.79 1066.45 1559.79 1060.15 1560.69 1054.33 1562.51 1049 1564.33 1043.66 1567.3 1037.12 1571.43 1029.36L1581.98 939.909C1589.5 934.09 1600.29 931.181 1614.36 931.181 1625.52 931.181 1631.83 938.453 1633.28 952.999 1634.5 964.877 1633.95 975.484 1631.65 984.817 1629.34 994.149 1626.25 1005.91 1622.37 1020.09 1618.49 1034.27 1616.55 1046.81 1616.55 1057.72 1616.55 1066.45 1622 1070.82 1632.92 1070.82 1644.81 1070.82 1655.12 1060.39 1663.85 1039.54 1670.64 1023.54 1675.25 1005.73 1677.68 986.089 1677.43 984.15 1677.25 981.665 1677.13 978.634 1677.01 975.604 1676.89 972.635 1676.77 969.725 1676.64 966.816 1676.58 963.907 1676.58 960.999L1676.58 954.453C1676.58 938.211 1689.2 930.089 1714.43 930.089 1720.73 930.089 1724.67 932.15 1726.25 936.272 1727.83 940.392 1728.61 946.696 1728.61 955.181 1728.61 967.059 1725.95 985.483 1720.61 1010.45 1715.27 1035.42 1712.73 1052.27 1712.97 1061 1712.97 1065.12 1714.3 1067.18 1716.97 1067.18 1720.61 1067.18 1725.1 1064.88 1730.44 1060.27 1735.77 1055.66 1741.11 1050.63 1746.44 1045.18 1751.78 1039.72 1756.69 1034.69 1761.18 1030.09 1763.42 1027.79 1765.32 1026.06 1766.87 1024.91L1767.4 1024.65 1768.22 1013.52C1768.72 1008.51 1769.31 1004.09 1769.97 1000.27 1773.61 977.483 1781.86 956.271 1794.71 936.635 1799.08 929.847 1803.81 926.454 1808.91 926.454 1817.64 926.454 1825.89 934.816 1833.65 951.544 1845.05 939.665 1859.18 933.726 1876.04 933.726 1892.9 933.726 1905.57 937.423 1914.06 944.817 1922.55 952.211 1926.8 962.634 1926.8 976.09 1926.8 989.543 1925.04 1003.18 1921.52 1017 1918 1030.82 1915.46 1040.69 1913.88 1046.63 1912.3 1052.57 1911.51 1057.48 1911.51 1061.36 1911.51 1065.24 1912.85 1067.18 1915.52 1067.18 1919.16 1067.18 1923.64 1064.88 1928.98 1060.27 1934.32 1055.66 1939.65 1050.63 1944.99 1045.18 1950.32 1039.72 1955.24 1034.69 1959.73 1030.09 1961.97 1027.79 1963.86 1026.06 1965.41 1024.91L1965.93 1024.66 1967.15 1005.63C1968.67 994.424 1970.94 983.786 1973.98 973.725 1983.44 942.696 1994.11 927.18 2006 927.18 2013.03 927.18 2018.61 931.908 2022.73 941.362 2026.13 948.635 2027.71 955.786 2027.46 962.816 2027.46 972.513 2024.55 989.604 2018.73 1014.09 2013.15 1035.42 2010.36 1048.63 2010.36 1053.72 2010.36 1058.82 2011.64 1062.33 2014.18 1064.27 2016.73 1066.21 2019.76 1067.18 2023.28 1067.18 2026.8 1067.18 2031.22 1064.88 2036.56 1060.27 2041.9 1055.66 2047.23 1050.63 2052.57 1045.18 2057.91 1039.72 2062.82 1034.69 2067.31 1030.09L2071.27 1026.48 2069.87 1018.13C2068.69 1009.98 2067.61 1001.36 2066.64 992.27 2063.73 969.24 2065.43 952.756 2071.73 942.817 2077.07 935.06 2087.5 931.181 2103.02 931.181 2108.85 931.181 2113.33 932.938 2116.49 936.453 2119.64 939.969 2121.22 943.786 2121.22 947.908 2121.22 964.15 2118.31 982.574 2112.48 1003.18 2112.97 1010.94 2113.21 1018.45 2113.21 1025.73 2113.21 1033 2113.7 1039.3 2114.67 1044.63 2118.31 1054.33 2122.91 1060.27 2128.49 1062.45 2133.35 1062.45 2138.68 1058.27 2144.5 1049.91 2150.33 1041.54 2156.27 1031.54 2162.33 1019.91 2159.42 1008.76 2157.97 998.209 2157.97 988.271 2157.97 970.817 2160.63 958.09 2165.97 950.09 2172.52 939.909 2182.47 934.816 2195.81 934.816 2209.15 934.816 2218 939.909 2222.37 950.09 2224.07 953.968 2224.92 958.332 2224.92 963.18 2224.92 971.907 2222.73 980.817 2218.37 989.907 2214 998.999 2206.97 1010.94 2197.26 1025.73 2201.63 1038.57 2208.18 1045 2216.91 1045 2227.59 1044.75 2236.8 1041 2244.56 1033.73L2244.64 1033.64 2250.02 1005.18C2255.36 990.513 2262.45 977.848 2271.31 967.181 2280.16 956.514 2290.41 948.212 2302.05 942.271 2313.7 936.332 2326.13 933.362 2339.35 933.362 2352.57 933.362 2362.76 936.635 2369.91 943.18 2377.07 949.726 2380.65 958.211 2380.65 968.635 2380.65 979.059 2378.04 987.604 2372.83 994.27 2367.61 1000.94 2360.88 1006.51 2352.63 1011 2344.38 1015.48 2335.23 1019.48 2325.16 1023 2315.09 1026.51 2305.21 1030.45 2295.51 1034.82L2295.51 1043.91C2295.75 1052.63 2299.39 1058.82 2306.42 1062.45 2313.45 1066.09 2321.46 1068.03 2330.44 1068.27 2349.35 1068.27 2367.67 1060.75 2385.38 1045.72 2391.93 1040.15 2397.26 1035 2401.39 1030.27L2405.16 1026.59 2406.54 1016.82C2409.09 1002.39 2414.12 987.786 2421.64 972.999 2410.48 962.332 2404.91 953.12 2404.91 945.363 2404.91 929.12 2413.64 920.999 2431.1 920.999ZM116.968 869C101.443 869 88.9499 873.727 79.4897 883.181 92.5893 891.182 105.99 895.181 119.696 895.181 133.401 895.181 140.254 891.182 140.254 883.181 140.254 873.727 132.492 869 116.968 869ZM1140.62 836.455C1147.17 836.576 1152.51 841.121 1156.63 850.091 1160.75 859.061 1162.75 866.576 1162.63 872.636 1162.51 878.697 1161.54 884.575 1159.72 890.273 1157.9 895.969 1155.6 901.545 1152.81 906.999 1150.02 912.453 1146.87 918.029 1143.35 923.727 1139.83 929.423 1136.38 935.544 1132.98 942.09L1127.52 968.27C1136.98 952.514 1149.72 941.968 1165.73 936.635 1171.55 934.695 1177.98 933.726 1185.01 933.726 1201.51 933.726 1214 937.423 1222.49 944.817 1230.98 952.211 1235.22 962.634 1235.22 976.09 1235.22 989.543 1233.46 1003.18 1229.95 1017 1226.43 1030.82 1223.88 1040.69 1222.31 1046.63 1220.73 1052.57 1219.94 1057.48 1219.94 1061.36 1219.94 1065.24 1221.27 1067.18 1223.94 1067.18 1227.58 1067.18 1232.07 1064.88 1237.41 1060.27 1242.74 1055.66 1248.08 1050.63 1253.42 1045.18L1267.28 1030.98 1272.16 1005.18C1277.49 990.513 1284.59 977.848 1293.44 967.181 1302.29 956.514 1312.54 948.212 1324.19 942.271 1335.83 936.332 1348.26 933.362 1361.48 933.362 1374.7 933.362 1384.89 936.635 1392.05 943.18 1399.2 949.726 1402.78 958.211 1402.78 968.635 1402.78 979.059 1400.17 987.604 1394.96 994.27 1389.74 1000.94 1383.01 1006.51 1374.76 1011 1366.52 1015.48 1357.36 1019.48 1347.29 1023 1337.23 1026.51 1327.34 1030.45 1317.64 1034.82L1317.64 1043.91C1317.88 1052.63 1321.52 1058.82 1328.55 1062.45 1335.59 1066.09 1343.59 1068.03 1352.57 1068.27 1371.49 1068.27 1389.8 1060.75 1407.51 1045.72 1414.06 1040.15 1419.4 1035 1423.52 1030.27 1427.64 1025.54 1430.8 1023.18 1432.98 1023.18 1436.38 1023.18 1438.07 1026.57 1438.07 1033.36 1438.07 1040.15 1436.25 1047.72 1432.62 1056.09 1428.98 1064.45 1422.91 1072.63 1414.42 1080.63 1393.56 1100.27 1364.94 1110.09 1328.55 1110.09 1299.69 1110.09 1280.04 1099.66 1269.61 1078.81L1266.14 1067.58 1257.42 1084.63C1229.28 1101.12 1211.33 1109.36 1203.57 1109.36 1202.84 1109.36 1202.36 1109.24 1202.11 1109 1182.71 1109 1173 1093.48 1173 1062.45 1173 1049.12 1174.28 1036.88 1176.82 1025.73 1179.37 1014.57 1181.25 1006.45 1182.46 1001.36 1183.68 996.272 1184.28 991.058 1184.28 985.726 1184.28 976.999 1179.13 972.635 1168.82 972.635 1158.51 972.635 1148.38 980.574 1138.44 996.452 1128.49 1012.33 1122.31 1028.51 1119.88 1045L1121.34 1061.72C1121.82 1067.3 1122.06 1072.75 1122.06 1078.09 1122.06 1090.94 1117.82 1099.66 1109.33 1104.27 1105.45 1106.45 1101.75 1108.51 1098.23 1110.45 1094.71 1112.39 1090.65 1113.36 1086.04 1113.36 1081.43 1113.36 1077.37 1110.27 1073.85 1104.09 1070.34 1097.91 1068.58 1088.27 1068.58 1075.18L1068.74 1066.7 1052.2 1084.45C1043.35 1091.6 1033.52 1097.48 1022.73 1102.09 1011.94 1106.69 1002.54 1109 994.53 1109 986.526 1109 980.402 1107.12 976.156 1103.36 971.912 1099.6 968.394 1094.51 965.606 1088.09 962.816 1081.66 960.815 1074.15 959.601 1065.54 958.388 1056.94 957.781 1044.88 957.781 1029.36 957.781 1013.85 960.694 992.877 966.514 966.452L950.141 966.452C947.23 966.452 945.775 965.24 945.775 962.816 945.775 956.999 946.32 952.211 947.412 948.454 948.504 944.695 951.111 940.392 955.234 935.544L963.968 935.544C967.363 935.544 971.002 935.423 974.883 935.181 986.526 897.848 998.413 879.181 1010.54 879.181 1020.24 879.423 1027.04 885.605 1030.92 897.727 1031.89 901.12 1032.98 904.757 1034.19 908.635L1019.27 934.816C1036.25 935.302 1046.99 935.544 1051.47 935.544 1055.96 935.544 1058.39 935.968 1058.75 936.816 1059.12 937.665 1059.3 938.938 1059.3 940.634 1059.3 944.998 1058.27 950.452 1056.21 956.999 1054.14 963.543 1051.78 966.694 1049.11 966.452L1012.72 964.634C1007.63 994.209 1005.08 1018.69 1005.08 1038.09 1005.08 1057.48 1007.87 1067.18 1013.45 1067.18 1018.06 1067.18 1026.43 1063.36 1038.56 1055.73 1050.69 1048.09 1059.42 1040.75 1064.76 1033.73L1070.35 1027.64 1070.58 1023.91C1071.91 1008.03 1073.91 993.362 1076.58 979.908 1084.83 938.211 1101.2 893.605 1125.7 846.091 1129.1 839.546 1134.07 836.334 1140.62 836.455ZM12.54 823.91C15.9354 823.91 20.1202 826.515 25.0927 831.728 30.0659 836.94 34.1295 841.121 37.2827 844.273 40.4357 847.424 43.71 849.97 47.1063 851.909 67.7255 839.303 91.9827 833 119.878 833 147.775 833 166.33 840.758 175.549 856.274 178.945 862.091 180.641 869.242 180.641 877.727 180.641 890.575 175.062 901.362 163.905 910.089 152.746 918.818 138.071 923.181 119.878 923.181 101.685 923.181 84.7044 917.362 68.9381 905.726 68.6958 906.696 68.5738 907.666 68.5738 908.635L68.5738 916.636C68.5738 920.999 69.969 926.15 72.7585 932.09 75.5482 938.029 79.0042 942.939 83.1292 946.816 86.7678 946.09 90.77 945.726 95.1357 945.726 116.24 945.726 126.791 951.059 126.791 961.725 126.791 974.088 114.662 980.271 90.4056 980.271 85.0688 980.271 79.2465 979.302 72.9403 977.362 65.9062 982.21 60.508 988.271 56.749 995.543 52.9883 1002.82 51.1085 1013.3 51.1085 1027 51.1085 1040.69 56.5059 1050.82 67.3006 1057.36 78.0945 1063.91 90.8289 1067.18 105.505 1067.18 120.182 1067.18 132.067 1064.82 141.163 1060.09 150.261 1055.36 158.204 1050.21 164.996 1044.63 171.788 1039.06 177.307 1033.91 181.553 1029.18L182.855 1027.92 183.925 1013.52C184.425 1008.51 185.009 1004.09 185.676 1000.27 189.315 977.483 197.561 956.271 210.419 936.635 214.784 929.847 219.514 926.454 224.608 926.454 233.34 926.454 241.589 934.816 249.351 951.544 260.751 939.665 274.882 933.726 291.739 933.726 308.599 933.726 321.273 937.423 329.763 944.817 338.253 952.211 342.499 962.634 342.499 976.09 342.499 989.543 340.74 1003.18 337.222 1017 333.705 1030.82 331.159 1040.69 329.582 1046.63 328.006 1052.57 327.217 1057.48 327.217 1061.36 327.217 1065.24 328.55 1067.18 331.219 1067.18 334.858 1067.18 339.345 1064.88 344.682 1060.27 350.017 1055.66 355.355 1050.63 360.69 1045.18 366.028 1039.72 370.94 1034.69 375.427 1030.09 377.671 1027.79 379.566 1026.06 381.112 1024.91L381.882 1024.54 382.219 1016.7C383.312 1003.02 386.04 986.271 390.407 966.452L374.032 966.452C371.122 966.452 369.667 965.24 369.667 962.816 369.667 956.999 370.213 952.211 371.304 948.454 372.395 944.695 375.003 940.392 379.127 935.544L387.86 935.544C391.256 935.544 394.894 935.423 398.775 935.181 410.418 897.848 422.305 879.181 434.433 879.181 444.136 879.423 450.929 885.605 454.809 897.727 455.78 901.12 456.871 904.757 458.084 908.635L443.166 934.816C460.145 935.302 470.879 935.544 475.366 935.544 479.854 935.544 482.281 935.968 482.645 936.816 483.008 937.665 483.191 938.938 483.191 940.634 483.191 944.998 482.16 950.452 480.098 956.999 478.035 963.543 475.669 966.694 473.003 966.452L436.616 964.634C431.523 994.209 428.975 1018.69 428.975 1038.09 428.975 1057.48 431.765 1067.18 437.344 1067.18 441.952 1067.18 450.322 1063.36 462.45 1055.73L485.481 1036.39 491.377 1005.18C496.714 990.513 503.808 977.848 512.663 967.181 521.517 956.514 531.765 948.212 543.409 942.271 555.052 936.332 567.483 933.362 580.704 933.362 593.924 933.362 604.112 936.635 611.268 943.18 618.424 949.726 622.001 958.211 622.001 968.635 622.001 979.059 619.395 987.604 614.179 994.27 608.964 1000.94 602.233 1006.51 593.985 1011 585.737 1015.48 576.58 1019.48 566.514 1023 556.447 1026.51 546.562 1030.45 536.858 1034.82L536.858 1043.91C537.102 1052.63 540.741 1058.82 547.775 1062.45 554.809 1066.09 562.815 1068.03 571.789 1068.27 590.71 1068.27 609.024 1060.75 626.733 1045.72 633.282 1040.15 638.618 1035 642.742 1030.27L646.518 1026.59 647.897 1016.82C650.443 1002.39 655.478 987.786 662.997 972.999 651.837 962.332 646.259 953.12 646.259 945.363 646.259 929.12 654.992 920.999 672.457 920.999 681.432 920.999 689.316 925.726 696.108 935.181 700.959 941.727 704.477 949.363 706.659 958.09 710.056 959.302 714.3 959.908 719.394 959.908 726.43 959.908 734.555 957.604 743.774 952.999L753.234 948.272C756.145 946.816 758.691 946.09 760.875 946.09 767.909 946.09 774.943 956.393 781.979 976.999 779.795 986.452 777.43 995.543 774.882 1004.27 772.337 1013 769.364 1023.54 765.968 1035.91 762.572 1048.27 760.813 1056.57 760.692 1060.82 760.571 1065.06 761.845 1067.18 764.512 1067.18 768.151 1067.18 772.64 1064.88 777.976 1060.27 783.312 1055.66 788.649 1050.63 793.985 1045.18 799.322 1039.72 804.234 1034.69 808.722 1030.09 813.209 1025.48 816.303 1023.18 818 1023.18 821.396 1023.18 823.094 1027.3 823.094 1035.54 823.094 1052.27 815.756 1068.75 801.081 1085 786.405 1101.24 769.607 1109.24 750.686 1109 739.527 1109 731.16 1104.51 725.58 1095.54 720.001 1086.57 717.09 1075.66 716.848 1062.82 716.848 1037.36 722.549 1013.24 733.948 990.452 728.612 992.634 722.609 993.725 715.939 993.725 709.267 993.725 704.477 993.483 701.566 992.998 699.382 1002.21 697.199 1011.48 695.016 1020.82 692.832 1030.15 691.741 1038.82 691.741 1046.81L693.925 1091.18C693.925 1097 690.893 1102.21 684.827 1106.82 678.764 1111.42 670.516 1113.72 660.086 1113.72 654.022 1113.72 649.836 1110.57 647.532 1104.27 645.228 1097.97 644.075 1088.76 644.075 1076.63L644.211 1066.38 633.644 1080.63C612.784 1100.27 584.161 1110.09 547.775 1110.09 518.909 1110.09 499.26 1099.66 488.83 1078.81L486.968 1072.78 476.095 1084.45C467.241 1091.6 457.417 1097.48 446.623 1102.09 435.828 1106.69 426.428 1109 418.424 1109 410.418 1109 404.293 1107.12 400.049 1103.36 395.804 1099.6 392.285 1094.51 389.496 1088.09 386.708 1081.66 384.705 1074.15 383.492 1065.54L382.166 1050.47 364.694 1084.63C336.556 1101.12 318.604 1109.36 310.842 1109.36 310.115 1109.36 309.63 1109.24 309.387 1109 289.982 1109 280.279 1093.48 280.279 1062.45 280.279 1049.12 281.552 1036.88 284.099 1025.73 286.646 1014.57 288.526 1006.45 289.738 1001.36 290.952 996.272 291.558 991.058 291.558 985.726 291.558 976.999 286.525 972.635 276.457 972.635 266.391 972.635 256.81 980.09 247.714 994.997 238.617 1009.91 232.491 1025.36 229.338 1041.36L229.338 1043.91C229.338 1052.15 230.612 1060.63 233.158 1069.36 235.706 1078.09 236.979 1084.15 236.979 1087.54 236.979 1095.78 226.67 1103.91 206.051 1111.9 202.899 1113.12 200.109 1113.72 197.682 1113.72 191.619 1113.72 187.435 1110.57 185.13 1104.27 182.826 1097.97 181.674 1088.15 181.674 1074.82L181.716 1070.72 165.178 1087C143.711 1101.66 118.058 1109 88.2228 1109 41.6483 1109 11.4486 1095.54-2.3772 1068.63-7.22845 1059.18-9.6554 1047.78-9.6554 1034.45-9.6554 999.785 7.68878 975.543 42.3762 961.725 24.6685 949.363 15.8143 930.696 15.8143 905.726 15.8143 893.848 19.0894 882.817 25.6379 872.636 19.5741 865.848 14.6623 858.697 10.9025 851.182 7.14264 843.667 5.26276 837.97 5.26276 834.091 5.26276 827.304 7.68878 823.91 12.54 823.91ZM2032.56 817C2039.35 817 2045.54 822.032 2051.11 832.091 2056.69 842.152 2059.48 850.575 2059.48 857.363 2059.48 869.97 2055.06 879.848 2046.2 887 2037.35 894.151 2027.34 897.727 2016.18 897.727 2009.63 888.029 2006.36 877.605 2006.36 866.454 2006.36 855.302 2008.12 846.031 2011.64 838.637 2015.15 831.243 2018.49 825.787 2021.64 822.273 2024.8 818.758 2028.43 817 2032.56 817Z" fill="#FFFFFF" fill-rule="evenodd" />
    </g>
</svg>