<svg width="80" height="79"
  xmlns="http://www.w3.org/2000/svg"
  xmlns:xlink="http://www.w3.org/1999/xlink" xml:space="preserve" overflow="hidden">
  <defs>
    <clipPath id="clip0">
      <rect x="1459" y="1915" width="80" height="79"/>
    </clipPath>
  </defs>
  <g clip-path="url(#clip0)" transform="translate(-1459 -1915)">
    <path d="M1499.03 1915C1476.9 1915 1459 1933.1 1459 1955.5 1459 1973.4 1470.47 1988.56 1486.37 1993.92 1488.36 1994.33 1489.09 1993.05 1489.09 1991.98 1489.09 1991.04 1489.03 1987.82 1489.03 1984.47 1477.89 1986.88 1475.57 1979.64 1475.57 1979.64 1473.78 1974.95 1471.13 1973.74 1471.13 1973.74 1467.48 1971.26 1471.39 1971.26 1471.39 1971.26 1475.44 1971.53 1477.56 1975.42 1477.56 1975.42 1481.14 1981.59 1486.9 1979.84 1489.22 1978.77 1489.55 1976.15 1490.62 1974.34 1491.74 1973.34 1482.86 1972.4 1473.52 1968.91 1473.52 1953.36 1473.52 1948.93 1475.11 1945.31 1477.62 1942.49 1477.23 1941.49 1475.83 1937.33 1478.02 1931.76 1478.02 1931.76 1481.4 1930.69 1489.02 1935.92 1492.29 1935.03 1495.65 1934.58 1499.03 1934.58 1502.41 1934.58 1505.86 1935.05 1509.04 1935.92 1516.66 1930.69 1520.04 1931.76 1520.04 1931.76 1522.23 1937.33 1520.84 1941.49 1520.44 1942.49 1523.03 1945.31 1524.55 1948.93 1524.55 1953.36 1524.55 1968.91 1515.21 1972.33 1506.26 1973.34 1507.72 1974.61 1508.97 1977.03 1508.97 1980.85 1508.97 1986.28 1508.91 1990.64 1508.91 1991.98 1508.91 1993.05 1509.64 1994.33 1511.63 1993.92 1527.53 1988.56 1539 1973.4 1539 1955.5 1539.07 1933.1 1521.1 1915 1499.03 1915Z" fill="#FFFFFF" fill-rule="evenodd"/>
  </g>
</svg>