<svg width="825" height="526"
    xmlns="http://www.w3.org/2000/svg"
    xmlns:xlink="http://www.w3.org/1999/xlink" xml:space="preserve" overflow="hidden">
    <defs>
        <clipPath id="clip0">
            <rect x="963" y="448" width="825" height="526"/>
        </clipPath>
    </defs>
    <g clip-path="url(#clip0)" transform="translate(-963 -448)">
        <path d="M1258.33 553.434 1376 553.434 1376 553.434 1485.31 553.434 1566.5 553.434 1674.13 553.434 1674.13 614.872 1566.5 614.872 1566.5 870.684 1485.31 870.684 1485.31 614.872 1375.5 614.872 1375.5 553.721 1343.27 572.328C1193.02 668.027 1242.09 781.225 1419.72 870.683L1293.32 870.683C1222.69 826.945 1183.07 768.906 1176.55 711.165L1176.45 708.755 1176.45 870.684 1097.74 870.684 1097.74 553.434 1176.45 553.434 1176.45 681.964 1177.89 668.143C1185.5 625.634 1212.03 585.345 1258.33 553.434ZM1524.81 448C1670.17 448 1788 565.749 1788 711 1788 856.251 1670.17 974 1524.81 974 1470.31 974 1419.67 957.441 1377.66 929.084L1375.5 927.467 1375.5 892.931 1393.15 906.124C1430.74 931.496 1476.04 946.311 1524.81 946.311 1654.86 946.311 1760.29 840.959 1760.29 711 1760.29 581.041 1654.86 475.689 1524.81 475.689 1476.04 475.689 1430.74 490.504 1393.15 515.876L1375.5 529.069 1375.5 494.532 1377.66 492.916C1419.67 464.558 1470.31 448 1524.81 448ZM1226.19 448C1280.69 448 1331.33 464.558 1373.34 492.916L1375.5 494.532 1375.5 529.069 1357.84 515.876C1320.26 490.504 1274.96 475.689 1226.19 475.689 1096.14 475.689 990.708 581.041 990.708 711 990.708 840.959 1096.14 946.311 1226.19 946.311 1274.96 946.311 1320.26 931.496 1357.84 906.124L1375.5 892.931 1375.5 927.467 1373.34 929.084C1331.33 957.441 1280.69 974 1226.19 974 1080.83 974 963 856.251 963 711 963 565.749 1080.83 448 1226.19 448Z" fill="#FFFFFF" fill-rule="evenodd"/>
    </g>
</svg>