<svg width="2475" height="779" xmlns="http://www.w3.org/2000/svg" xmlns:xlink="http://www.w3.org/1999/xlink" xml:space="preserve" overflow="hidden"><defs><clipPath id="clip0"><rect x="963" y="848" width="2475" height="779"/></clipPath></defs><g clip-path="url(#clip0)" transform="translate(-963 -848)"><path d="M3259.16 1497.36C3247.95 1508.92 3242.34 1518.26 3242.34 1525.39 3242.34 1527.3 3243.19 1528.26 3244.89 1528.26 3249.42 1528.26 3256.81 1523.1 3267.05 1512.78 3261.22 1511.69 3258.31 1507.54 3258.31 1500.32 3258.31 1498.45 3258.59 1497.46 3259.16 1497.36ZM2683.7 1496.83 2727.83 1498.46C2733.49 1498.73 2736.32 1500.28 2736.32 1503.12 2736.32 1508.59 2732.97 1511.26 2726.26 1511.12L2684.7 1509.85 2663.27 1510.06 2641.7 1510.38C2637.25 1510.38 2635.02 1508.8 2635.02 1505.66 2635.02 1503 2637.05 1501.01 2641.12 1499.69 2646.95 1497.78 2661.14 1496.83 2683.7 1496.83ZM3370.42 1485.5 3370.06 1485.72C3368.84 1486.78 3366.62 1489.42 3363.39 1493.65 3360.16 1497.87 3358.15 1501.09 3357.34 1503.31L3357.23 1503.82 3360.15 1500.66C3361.86 1498.77 3363.91 1496.5 3366.29 1493.83 3368.43 1490.08 3369.77 1487.46 3370.31 1485.96ZM3279.94 1484.98C3277.27 1484.98 3274.41 1486.88 3271.35 1490.68 3268.3 1494.49 3266.77 1497.89 3266.77 1500.89 3266.77 1503.66 3268.1 1505.39 3270.77 1506.07 3272.68 1504.13 3274.76 1501.39 3277 1497.82 3279.84 1492.93 3281.26 1489.26 3281.26 1486.82 3281.26 1485.59 3280.82 1484.98 3279.94 1484.98ZM3280.77 1477.04C3286.95 1477.04 3290.03 1480.27 3290.03 1486.73 3290.03 1494.79 3283.81 1505.55 3271.37 1519 3258.73 1532.58 3248.31 1539.37 3240.12 1539.37 3231.66 1539.37 3227.43 1534.97 3227.43 1526.16 3227.43 1521.9 3229.68 1516.56 3234.17 1510.12L3216 1526.16C3204.87 1533.91 3196.37 1537.79 3190.5 1537.79 3188.27 1537.79 3187.15 1536.66 3187.15 1534.4 3187.15 1531.92 3188.32 1530.44 3190.66 1529.96 3194.82 1529.22 3198.71 1527.97 3202.36 1526.22 3206.59 1523.62 3214.56 1517.67 3226.26 1508.39L3252.97 1486.42C3258.86 1481.23 3262.66 1478.63 3264.38 1478.63 3266.72 1478.63 3268.69 1479.62 3270.3 1481.61 3273.72 1478.57 3277.21 1477.04 3280.77 1477.04ZM3347.96 1475.03C3353.38 1475.03 3356.09 1477.71 3356.09 1483.06 3356.09 1486.11 3351.31 1493.26 3341.76 1504.49 3332.21 1515.73 3327.43 1523.15 3327.43 1526.74 3327.43 1527.47 3327.7 1527.84 3328.22 1527.84 3332.32 1527.84 3340.11 1522.44 3351.61 1511.64 3349.45 1511.48 3348.37 1509.64 3348.37 1506.12 3348.37 1501.12 3351.53 1494.71 3357.85 1486.88 3364.17 1479.05 3369.77 1475.14 3374.66 1475.14 3378.57 1475.14 3380.52 1477.12 3380.52 1481.09 3380.52 1488.41 3373.18 1499.63 3358.51 1514.74 3343.66 1529.96 3332.22 1537.57 3324.19 1537.57 3316.98 1537.57 3313.37 1533.72 3313.37 1526.02 3313.37 1520.17 3316.52 1512.92 3322.82 1504.27L3324.37 1502.68 3312.81 1512.56 3293.82 1527.27C3283.5 1534.28 3275.41 1537.79 3269.57 1537.79 3267.33 1537.79 3266.21 1536.66 3266.21 1534.4 3266.21 1531.86 3267.66 1530.35 3270.55 1529.88 3272.89 1529.48 3275.74 1528.57 3279.09 1527.15 3283.11 1525.43 3292.46 1518.71 3307.13 1507 3313.69 1501.86 3323.48 1493.57 3336.5 1482.11 3341.29 1477.39 3345.11 1475.03 3347.96 1475.03ZM3017.95 1424.03C3011.05 1424.03 2999.21 1430.17 2982.42 1442.44 2965.63 1454.72 2957.24 1466.2 2957.24 1476.86 2957.24 1480.37 2959.12 1482.12 2962.9 1482.12 2971.76 1482.12 2981.2 1478.89 2991.19 1472.41 3000.57 1466.37 3008.26 1458.94 3014.26 1450.13 3019.6 1440.95 3022.27 1433.62 3022.27 1428.14 3022.27 1425.4 3020.83 1424.03 3017.95 1424.03ZM2582.58 1416.94C2591.14 1416.94 2597.63 1419.52 2602.04 1424.69 2606.45 1429.87 2608.65 1434.42 2608.65 1438.35 2608.65 1452.17 2591.23 1463.45 2556.4 1472.17L2553.41 1472.67 2556.89 1473.39C2558.43 1473.85 2559.89 1474.45 2561.3 1475.19 2568.76 1479.07 2572.49 1484.81 2572.49 1492.41 2572.49 1499.46 2569.41 1506.8 2563.25 1514.43 2556.81 1522.45 2547.66 1528.82 2535.78 1533.54 2524.98 1537.85 2514.02 1540.01 2502.92 1540.01 2496.68 1540.01 2491.06 1538.31 2486.07 1534.91 2481.36 1532.25 2479.01 1527.75 2479.01 1521.41 2479.01 1517.27 2480.77 1512.52 2484.27 1507.16 2487.05 1502.46 2490.6 1500.11 2494.91 1500.11 2497.91 1500.11 2499.41 1501.56 2499.41 1504.47L2493.89 1510.81C2490.95 1514.19 2489.48 1517.28 2489.48 1520.08 2489.48 1524.55 2493.13 1526.78 2500.44 1526.78 2513.53 1526.78 2526.45 1522.45 2539.2 1513.78 2551.95 1505.12 2558.32 1497.17 2558.32 1489.93 2558.32 1486.22 2556.78 1483.47 2553.69 1481.65 2549.63 1479.85 2545.22 1478.95 2540.45 1478.95 2538.44 1478.95 2535.7 1479.42 2532.23 1480.38 2528.76 1481.33 2526.34 1481.81 2524.95 1481.81 2523.35 1481.81 2521.96 1481.09 2520.77 1479.67 2519.58 1478.24 2518.98 1476.77 2518.98 1475.25 2518.98 1472.52 2522.31 1470.5 2528.97 1469.17 2538.49 1467.32 2548.44 1464.42 2558.83 1460.45 2570.63 1455.91 2579.68 1451.2 2585.97 1446.32 2592.85 1440.99 2596.28 1436.94 2596.28 1434.18 2596.28 1431.78 2593.56 1430.59 2588.12 1430.59 2573.72 1430.59 2557.65 1435.58 2539.91 1445.56 2538.92 1446.15 2537.01 1446.8 2534.18 1447.52 2531.03 1446.39 2529.45 1444.37 2529.45 1441.46 2529.45 1437.06 2535.66 1431.87 2548.07 1425.9 2560.48 1419.92 2571.99 1416.94 2582.58 1416.94ZM2924.64 1415.67C2929.65 1415.67 2932.15 1417.58 2932.15 1421.41 2932.15 1424.5 2927.93 1429.49 2919.49 1436.4 2898.29 1458.16 2869.51 1491.26 2833.14 1535.69 2831.48 1537.72 2829.87 1538.74 2828.32 1538.74 2826.48 1538.74 2824.88 1537.82 2823.5 1535.98 2822.12 1534.15 2821.44 1532.39 2821.44 1530.71 2821.44 1526.43 2835.09 1509.33 2862.38 1479.39L2902.73 1437.93C2882.31 1450.04 2869.86 1456.09 2865.38 1456.09 2862.38 1456.09 2860.88 1454.48 2860.88 1451.27 2860.88 1449.11 2862.97 1447.43 2867.17 1446.24 2870.75 1445.2 2876.62 1442.6 2884.79 1438.45L2908.84 1425.93C2918.53 1419.09 2923.8 1415.67 2924.64 1415.67ZM2494.95 1415.67C2499.96 1415.67 2502.46 1417.58 2502.46 1421.41 2502.46 1424.5 2498.24 1429.49 2489.8 1436.4 2468.6 1458.16 2439.82 1491.26 2403.46 1535.69 2401.79 1537.72 2400.18 1538.74 2398.63 1538.74 2396.8 1538.74 2395.19 1537.82 2393.81 1535.98 2392.44 1534.15 2391.75 1532.39 2391.75 1530.71 2391.75 1526.43 2405.4 1509.33 2432.7 1479.39L2473.04 1437.93C2452.63 1450.04 2440.18 1456.09 2435.69 1456.09 2432.69 1456.09 2431.19 1454.48 2431.19 1451.27 2431.19 1449.11 2433.29 1447.43 2437.48 1446.24 2441.06 1445.2 2446.94 1442.6 2455.1 1438.45L2479.15 1425.93C2488.85 1419.09 2494.11 1415.67 2494.95 1415.67ZM3014.47 1412.7C3019.83 1412.7 3024.42 1414.56 3028.26 1418.28 3032.09 1422 3034.01 1426.52 3034.01 1431.84 3034.01 1445.77 3025.02 1463.46 3007.05 1484.9 2991.67 1503.28 2976.76 1516.99 2962.29 1526.03 2947.83 1535.07 2938.3 1539.58 2933.71 1539.58 2930.5 1539.58 2928.9 1537.98 2928.9 1534.77 2928.9 1532.79 2931.75 1530.43 2937.44 1527.7 2944.73 1524.19 2953.21 1519.26 2962.89 1512.92 2972.4 1502.56 2980.34 1493.66 2986.7 1486.2 2988.88 1483.62 2991.1 1481.57 2993.36 1480.02 2983.33 1487.77 2973.33 1491.65 2963.35 1491.65 2957.74 1491.65 2953.25 1489.79 2949.9 1486.08 2946.54 1482.37 2944.86 1477.71 2944.86 1472.1 2944.86 1459.39 2953.45 1446.15 2970.61 1432.4 2986.99 1419.27 3001.61 1412.7 3014.47 1412.7ZM3245.03 1393.76C3248.59 1393.76 3251.79 1394.93 3254.61 1397.26 3257.44 1399.59 3258.85 1402.59 3258.85 1406.26 3258.85 1415.19 3248.57 1429.81 3228.01 1450.13L3186.85 1489.39C3163.3 1513.44 3151.52 1526.63 3151.52 1528.96 3151.52 1529.65 3151.7 1530.04 3152.07 1530.14 3152.15 1530.16 3153.81 1530.16 3157.04 1530.16 3160.27 1530.16 3161.89 1531.39 3161.89 1533.84 3161.89 1536.03 3159.6 1537.71 3155.03 1538.91 3152.03 1539.71 3149.56 1540.11 3147.63 1540.11 3144.42 1540.11 3141.59 1539.16 3139.13 1537.26 3136.68 1535.35 3135.45 1532.69 3135.45 1529.28 3135.45 1525.75 3137.01 1521.8 3140.14 1517.41 3143.26 1513.02 3153.66 1502.15 3171.33 1484.8L3219 1436.28C3224.3 1431.18 3228.25 1427.25 3230.85 1424.51 3235.99 1419.16 3239.84 1414.61 3242.41 1410.87 3244.28 1406.99 3245.21 1404.2 3245.21 1402.5 3245.21 1402.39 3245.23 1402.33 3245.25 1402.33 3241.66 1402.33 3231.49 1407.36 3214.75 1417.4 3174.47 1441.57 3130.82 1478.64 3083.78 1528.62 3078.04 1534.73 3074.36 1537.79 3072.75 1537.79 3071.19 1537.79 3069.53 1536.97 3067.77 1535.35 3066.01 1533.72 3065.13 1532.07 3065.13 1530.38 3065.13 1526.84 3074.33 1516.16 3092.71 1498.33L3144.87 1441.77C3162.56 1422.12 3171.4 1409.41 3171.4 1403.65 3171.4 1402.98 3171.24 1402.65 3170.93 1402.65 3163.96 1402.65 3146.78 1414.42 3119.39 1437.97 3106.93 1448.67 3096.12 1459.31 3086.96 1469.9 3084.81 1472.33 3082.98 1473.55 3081.47 1473.55 3077.41 1473.55 3075.39 1471.53 3075.39 1467.49 3075.39 1463.57 3083.28 1454.14 3099.07 1439.19 3110.09 1428.79 3120.86 1420.54 3131.39 1414.43 3148.44 1400.93 3161.62 1394.18 3170.94 1394.18 3178.16 1394.18 3181.77 1397.97 3181.77 1405.54 3181.77 1412.75 3176.42 1423.35 3165.73 1437.33 3163.9 1439.74 3162.06 1442.01 3160.22 1444.15L3155.29 1449.5 3158.51 1446.7C3172.31 1434.82 3182.53 1426.51 3189.15 1421.77 3215.36 1403.1 3233.99 1393.76 3245.03 1393.76ZM2381.08 1347.24C2357.61 1355.9 2334.79 1371.93 2312.61 1395.32 2290.44 1418.72 2279.35 1437.6 2279.35 1451.96 2279.35 1453.86 2279.53 1454.81 2279.9 1454.81 2291.86 1454.81 2325.58 1418.95 2381.08 1347.24ZM2572.32 1259.88C2549.73 1283.18 2538.44 1302.01 2538.44 1316.37 2538.44 1320.23 2540.15 1322.17 2543.57 1322.17 2552.7 1322.17 2567.59 1311.77 2588.22 1290.97 2576.48 1288.77 2570.62 1280.4 2570.62 1265.86 2570.62 1262.09 2571.18 1260.1 2572.32 1259.88ZM3346.33 1241.12C3332.49 1241.12 3312.26 1252.99 3285.65 1276.73 3302.4 1274.21 3316.99 1268.89 3329.44 1260.77 3341.89 1252.64 3348.12 1246.28 3348.12 1241.69 3348.12 1241.31 3347.52 1241.12 3346.33 1241.12ZM1997.92 1236.01C1990.94 1236.01 1974.97 1247.88 1950.01 1271.63 1925.05 1295.37 1912.57 1310.76 1912.57 1317.79 1912.57 1318.72 1912.9 1319.18 1913.54 1319.18 1920.36 1319.18 1936.42 1307.53 1961.73 1284.24 1987.04 1260.95 1999.7 1245.75 1999.73 1238.65 1999.73 1236.89 1999.13 1236.01 1997.92 1236.01ZM1588.77 1236.01C1581.79 1236.01 1565.82 1247.88 1540.86 1271.63 1515.9 1295.37 1503.42 1310.76 1503.42 1317.79 1503.42 1318.72 1503.74 1319.18 1504.39 1319.18 1511.21 1319.18 1527.27 1307.53 1552.58 1284.24 1577.88 1260.95 1590.55 1245.75 1590.58 1238.65 1590.58 1236.89 1589.98 1236.01 1588.77 1236.01ZM2614.2 1234.94C2608.82 1234.94 2603.05 1238.77 2596.9 1246.44 2590.74 1254.1 2587.66 1260.95 2587.66 1267 2587.66 1272.59 2590.35 1276.07 2595.71 1277.44 2599.57 1273.54 2603.76 1268 2608.29 1260.83 2614 1250.96 2616.86 1243.57 2616.86 1238.66 2616.86 1236.18 2615.97 1234.94 2614.2 1234.94ZM3185.25 1233.12C3177.6 1233.12 3166.9 1239.5 3153.14 1252.28 3138.95 1269.81 3129.94 1281.71 3126.1 1287.97 3134.28 1282.2 3145.3 1274.08 3159.15 1263.6 3176.77 1250.49 3185.57 1240.58 3185.57 1233.87 3185.57 1233.37 3185.46 1233.12 3185.25 1233.12ZM3052.6 1233.12C3044.95 1233.12 3034.25 1239.5 3020.49 1252.28 3006.31 1269.81 2997.29 1281.71 2993.45 1287.97 3001.64 1282.2 3012.65 1274.08 3026.5 1263.6 3044.12 1250.49 3052.92 1240.58 3052.92 1233.87 3052.92 1233.37 3052.82 1233.12 3052.6 1233.12ZM1103.69 1203.38 1070.24 1204.18 1044.47 1234.94 1079.45 1233.8ZM1104.79 1132.58C1110.42 1132.58 1113.24 1135.25 1113.24 1140.6 1113.24 1143.26 1102.51 1157.58 1081.05 1183.55L1114.91 1181.99 1135.27 1155.54C1146.85 1140.51 1155.02 1133 1159.77 1133 1165.26 1133 1168 1135.61 1168 1140.81 1168 1145.1 1157.42 1158.56 1136.24 1181.2L1147.64 1180.77C1155.11 1180.77 1158.84 1183.59 1158.84 1189.24 1158.84 1197.53 1152.99 1202.31 1141.3 1203.59L1125.12 1203.17 1100.94 1233.45 1110.32 1233.3C1119.93 1233.12 1124.74 1236.41 1124.74 1243.17 1124.74 1251.9 1112.99 1256.19 1089.5 1256.05L1039.16 1331.09C1036.25 1337.23 1032.92 1340.29 1029.18 1340.29 1023.28 1340.29 1020.32 1337.27 1020.32 1331.22 1020.32 1327.9 1026.05 1317.25 1037.5 1299.27L1068.38 1256.27 1032.99 1256.87C1019.24 1276.45 1003.6 1300.88 986.088 1330.16 980.825 1338.91 975.664 1343.28 970.605 1343.28 965.535 1343.28 963 1340.6 963 1335.25 963 1327.45 979.233 1301.4 1011.7 1257.12L997.202 1257.33C987.897 1257.47 983.245 1254.86 983.245 1249.5 983.245 1241.51 996.224 1236.92 1022.18 1235.74L1047.65 1204.66C1048.26 1204.66 1045.79 1204.8 1040.25 1205.08L1028.26 1205.3C1019.56 1205.3 1015.21 1202.34 1015.21 1196.42 1015.21 1190.08 1022.93 1186.24 1038.38 1184.9L1058.22 1184.31 1078.54 1157.29C1090.98 1140.81 1099.73 1132.58 1104.79 1132.58ZM2838.52 1074.09 2837.5 1074.23C2825.71 1076.93 2802.84 1089.11 2768.88 1110.75 2735.17 1132.24 2716.21 1146.76 2711.99 1154.31L2711.78 1154.97 2714.53 1153.93C2716.76 1152.96 2719.64 1151.5 2723.16 1149.56L2739.76 1140.55C2746.05 1140.33 2749.19 1142.93 2749.19 1148.35 2749.19 1149.57 2748.73 1150.86 2747.82 1152.21L2747.26 1152.79 2757.44 1143.43C2767.06 1134.85 2777.29 1125.96 2788.11 1116.78 2814.54 1094.31 2831.06 1080.31 2837.67 1074.8ZM3079.3 1049.63C3090.64 1049.63 3096.31 1055.51 3096.31 1067.28 3096.31 1084.43 3079.22 1116.07 3045.04 1162.18 3020.93 1194.82 2997.21 1223.72 2973.89 1248.87 2945.07 1279.92 2920 1303.7 2898.68 1320.19L2894.11 1323.35 2900.38 1321.53C2906 1319.32 2912.17 1316.38 2918.9 1312.7 2937.5 1301.6 2951.57 1294.95 2961.11 1292.73 2967.13 1278.19 2980.31 1262.28 3000.66 1245.02 3022.52 1226.27 3041.38 1216.9 3057.26 1216.9 3071.21 1216.9 3078.19 1222.98 3078.19 1235.15 3078.19 1248.92 3066.57 1262.34 3043.34 1275.39 3024.77 1288.51 3006.93 1297.96 2989.83 1303.76 2988.67 1306.41 2988.09 1309.88 2988.09 1314.17 2988.09 1319.56 2989.6 1322.92 2992.62 1324.26 2994.73 1325.09 2999.01 1325.63 3005.45 1325.88 3007.36 1325.94 3009.04 1326.14 3010.47 1326.49L3013.56 1327.77 3014.7 1326.89C3015.61 1326.44 3016.66 1326.12 3017.86 1325.93 3026.85 1324.47 3038.08 1320.06 3051.55 1312.7 3070.15 1301.6 3084.22 1294.95 3093.76 1292.73 3099.77 1278.19 3112.96 1262.28 3133.31 1245.02 3155.17 1226.27 3174.03 1216.9 3189.91 1216.9 3203.86 1216.9 3210.83 1222.98 3210.83 1235.15 3210.83 1248.92 3199.22 1262.34 3175.99 1275.39 3157.42 1288.51 3139.58 1297.96 3122.48 1303.76 3121.32 1306.41 3120.74 1309.88 3120.74 1314.17 3120.74 1319.56 3122.25 1322.92 3125.27 1324.26 3127.38 1325.09 3131.66 1325.63 3138.1 1325.88 3140.01 1325.94 3141.68 1326.14 3143.12 1326.49L3146.55 1327.91 3149.83 1325.92C3167.84 1321.69 3192.09 1306.85 3222.59 1281.39L3281.42 1232.28C3294.93 1220.95 3316.18 1199.73 3345.16 1168.63L3403.73 1099.86C3413.75 1087.86 3421.29 1081.86 3426.36 1081.86 3434.12 1081.86 3438 1085.68 3438 1093.3 3438 1100.31 3431.56 1111.75 3418.68 1127.64L3389.25 1157.59 3312.28 1244.08C3328.77 1229.47 3342.23 1222.16 3352.65 1222.16 3366.75 1222.16 3373.8 1229.09 3373.8 1242.94 3373.8 1257.24 3362 1269.18 3338.42 1278.76 3320.39 1286.11 3304.86 1289.83 3291.84 1289.94 3296.42 1297.61 3302.55 1308.77 3310.24 1323.4 3311.8 1325.29 3314.83 1326.23 3319.34 1326.23 3324.21 1326.23 3326.64 1328.73 3326.64 1333.73 3326.64 1339.54 3319.81 1342.45 3306.15 1342.45 3299.98 1342.45 3294.81 1340.93 3290.65 1337.88 3286.4 1334.98 3279.22 1321.57 3269.12 1297.65L3253.18 1320.51C3240.51 1335.28 3232.38 1342.66 3228.8 1342.66 3220.07 1342.66 3215.71 1337.83 3215.71 1328.17 3215.71 1323.16 3226.74 1307.27 3248.8 1280.51L3283.21 1245.89 3234.46 1291.82 3197.2 1321.4C3178.25 1334.73 3162.51 1341.4 3149.98 1341.4 3147.75 1341.4 3146.08 1340.82 3144.97 1339.66L3144.77 1339.31 3142.13 1340.71C3137.16 1342.29 3129.71 1343.08 3119.78 1343.08 3099.09 1343.08 3088.74 1333.89 3088.74 1315.49 3088.74 1311.48 3089.22 1308.95 3090.19 1307.9 3087.26 1309.39 3077.19 1314.27 3059.98 1322.54 3041.04 1335.11 3026.83 1341.4 3017.34 1341.4 3015.11 1341.4 3013.43 1340.82 3012.32 1339.66L3012.12 1339.31 3009.48 1340.71C3004.51 1342.29 2997.06 1343.08 2987.13 1343.08 2966.44 1343.08 2956.09 1333.89 2956.09 1315.49 2956.09 1311.48 2956.57 1308.95 2957.54 1307.9 2954.61 1309.39 2944.54 1314.27 2927.33 1322.54 2908.4 1335.11 2894.18 1341.4 2884.69 1341.4 2880.23 1341.4 2878 1339.08 2878 1334.45L2878.25 1333.64 2866.12 1339.89C2855.73 1344.27 2845.8 1346.45 2836.32 1346.45 2811.63 1346.45 2799.29 1331.76 2799.29 1302.37 2799.29 1283.93 2805.01 1263.6 2816.46 1241.38 2822.89 1228.79 2833.81 1213.27 2849.22 1194.83L2769.84 1282.33C2722.61 1326.35 2687.88 1348.35 2665.65 1348.35 2655.62 1348.35 2647.46 1345.2 2641.17 1338.91 2634.88 1332.61 2631.73 1324.52 2631.73 1314.62 2631.73 1288.24 2650.17 1254.29 2687.04 1212.76 2699.08 1199.12 2713.52 1184.31 2730.36 1168.31L2742.15 1157.48 2736.87 1161.02C2734.13 1162.61 2730.94 1164.26 2727.29 1165.97 2712.68 1172.82 2702.63 1176.24 2697.14 1176.24 2685.67 1176.24 2679.94 1170.57 2679.94 1159.22 2679.94 1150.22 2690.74 1136.5 2712.34 1118.05 2729.5 1103.39 2751.64 1089.03 2778.76 1074.96 2810.12 1058.64 2834.72 1050.47 2852.56 1050.47 2862.94 1050.47 2868.12 1055.05 2868.12 1064.19 2868.12 1075.04 2853.71 1091.93 2824.88 1114.87 2710.6 1224.43 2653.44 1293.49 2653.41 1322.03 2653.41 1326.94 2655.38 1329.39 2659.31 1329.39 2677.16 1329.39 2720.69 1297.42 2789.89 1233.49 2829.6 1196.91 2871.43 1155.88 2915.37 1110.41 2920.29 1104.78 2928 1097.12 2938.52 1087.43 2943.08 1084.14 2946.63 1082.5 2949.16 1082.5 2952.56 1082.5 2955.76 1084.23 2958.77 1087.71 2961.77 1091.19 2963.27 1094.44 2963.27 1097.45 2963.29 1101.53 2950.62 1117.96 2925.27 1146.77 2894.48 1181.74 2871.81 1209.77 2857.27 1230.87 2833.21 1265.2 2821.18 1292.35 2821.18 1312.31 2821.18 1323.28 2825.49 1328.76 2834.11 1328.76 2843.6 1328.76 2855.94 1322.87 2871.11 1311.09 2886.19 1299.41 2910.67 1275.92 2944.57 1240.64 2978.23 1205.72 3007.73 1170.3 3033.06 1134.36 3055.22 1102.92 3067.69 1083.09 3070.46 1074.89L3071.01 1072.28 3069.15 1072.65C3062.56 1074.87 3048.87 1084.84 3028.09 1102.58L2988.3 1135.58C2983.97 1134 2981.8 1131.63 2981.8 1128.48 2981.8 1118.6 2994.98 1102.99 3021.35 1081.64 3047.71 1060.3 3067.03 1049.63 3079.3 1049.63ZM1583.54 1043.65C1597.81 1043.65 1604.94 1050.43 1604.94 1064 1604.94 1074.72 1600.86 1086.2 1592.7 1098.41 1586.06 1107.99 1548.96 1148.25 1481.39 1219.19 1427.23 1279.48 1400.15 1314.48 1400.15 1324.21 1400.15 1325.4 1402.85 1326.2 1408.25 1326.62L1408.41 1326.75 1409.68 1325.43C1422.09 1323.45 1439.57 1313.63 1462.1 1295.98L1489.07 1274.86 1532.29 1240.41C1553.02 1226.1 1570.86 1218.95 1585.8 1218.95 1598.89 1218.95 1605.86 1224.18 1606.73 1234.65 1608.73 1229.44 1611.36 1226.84 1614.61 1226.84 1622.17 1226.84 1625.95 1230.17 1625.95 1236.82 1625.95 1242.7 1615.26 1258.13 1593.88 1283.11 1572.5 1308.1 1561.81 1322.16 1561.81 1325.3 1561.81 1325.48 1564.08 1325.65 1568.63 1325.78L1573.64 1327.77 1577.63 1325.5C1587.46 1323.07 1594.55 1320.67 1598.89 1318.28 1608.28 1313.37 1626.9 1299.82 1654.77 1277.65 1667.54 1267.69 1685.53 1252.19 1708.75 1231.15 1718.7 1220.74 1726.24 1215.53 1731.38 1215.53 1742.16 1215.53 1747.55 1219.46 1747.55 1227.31 1747.55 1234.64 1739.69 1246.5 1723.96 1262.88 1750.22 1235.01 1769.69 1221.08 1782.38 1221.08 1787.23 1221.08 1791.77 1222.68 1795.99 1225.89 1800.21 1229.1 1802.32 1233.24 1802.32 1238.3 1802.32 1244.72 1798.56 1251.45 1791.03 1258.48 1815.08 1230.7 1835.76 1216.81 1853.08 1216.81 1865.41 1216.81 1871.57 1222.01 1871.57 1232.39 1871.57 1243.27 1860.14 1260.44 1837.26 1283.91 1814.39 1307.38 1802.96 1320.95 1802.96 1324.61 1802.96 1325.49 1805.37 1325.96 1810.2 1326.03L1814.33 1327.5 1818.83 1325.43C1831.24 1323.45 1848.72 1313.63 1871.26 1295.98L1898.22 1274.86 1941.45 1240.41C1962.18 1226.1 1980.01 1218.95 1994.96 1218.95 2008.04 1218.95 2015.02 1224.18 2015.88 1234.65 2017.89 1229.44 2020.51 1226.84 2023.76 1226.84 2031.33 1226.84 2035.11 1230.17 2035.11 1236.82 2035.11 1242.7 2024.42 1258.13 2003.04 1283.11 1981.66 1308.1 1970.96 1322.16 1970.96 1325.3 1970.96 1325.48 1973.24 1325.65 1977.78 1325.78 1982.33 1325.92 1984.6 1328.48 1984.6 1333.47 1984.6 1339.15 1978.39 1342 1965.96 1342 1953.81 1342 1947.74 1336.46 1947.74 1325.38 1947.74 1317.99 1951.53 1310.06 1959.11 1301.59L1939.86 1322.9C1926.62 1332.79 1915.7 1337.73 1907.12 1337.73 1892.29 1337.73 1884.87 1330.24 1884.87 1315.26 1884.87 1308 1886.48 1302.03 1889.68 1297.35 1856.42 1326.69 1832.21 1341.36 1817.06 1341.36L1813.04 1339.97 1808.08 1341.47C1806 1341.82 1803.57 1342 1800.79 1342 1787.03 1342 1780.15 1335.76 1780.15 1323.28 1780.15 1311.28 1790.13 1293.94 1810.1 1271.25 1825.07 1254.23 1834.42 1243.16 1838.16 1238.03L1838.71 1237.11 1838 1237.25C1829.53 1240.05 1813.32 1252.67 1789.39 1275.1 1766.38 1296.63 1748.39 1314.67 1735.41 1329.22 1729.85 1337.6 1724.75 1341.78 1720.12 1341.78 1711.84 1341.78 1707.7 1337.85 1707.7 1329.99 1707.7 1323.75 1718.64 1308.42 1740.52 1284.01 1756.93 1265.7 1767.18 1252.94 1771.28 1245.75L1773.12 1240.97 1770.71 1241.46C1763.36 1244.04 1748.77 1255.61 1726.93 1276.18 1705.11 1296.8 1689.67 1312.96 1680.63 1324.67 1672.7 1334.94 1665.34 1340.08 1658.54 1340.08 1650.97 1340.08 1647.18 1336.56 1647.18 1329.53 1647.18 1323.23 1657.16 1307.61 1677.13 1282.69L1710.01 1247.75 1651.02 1301.61C1616.21 1328.11 1591.54 1341.36 1577.02 1341.36 1574.76 1341.36 1573.07 1340.77 1571.94 1339.6L1571.78 1339.11 1570.79 1339.87C1567.68 1341.29 1563.02 1342 1556.81 1342 1544.66 1342 1538.58 1336.46 1538.58 1325.38 1538.58 1317.99 1542.37 1310.06 1549.96 1301.59L1530.71 1322.9C1517.47 1332.79 1506.55 1337.73 1497.96 1337.73 1483.13 1337.73 1475.72 1330.24 1475.72 1315.26 1475.72 1308 1477.32 1302.03 1480.53 1297.35 1447.27 1326.69 1423.06 1341.36 1407.9 1341.36L1407.75 1341.2 1399.14 1342.85C1384.33 1342.85 1376.93 1335.79 1376.93 1321.66 1376.93 1299.55 1403.24 1259.11 1455.88 1200.36 1474.51 1179.58 1509.08 1143.85 1559.58 1093.18 1571.93 1080.81 1579.64 1071.45 1582.73 1065.11L1584.17 1060.15 1580.55 1060.92C1569.25 1064.91 1544.42 1082.86 1506.07 1114.77 1470.73 1144.2 1444.23 1167.75 1426.59 1185.42 1409.5 1202.5 1387.4 1226.24 1360.3 1256.63 1310.03 1313.12 1283.44 1341.36 1280.55 1341.36 1277.33 1341.36 1273.87 1339.64 1270.17 1336.2 1266.47 1332.76 1264.62 1329.37 1264.62 1326.02 1264.62 1319.55 1294.21 1281.37 1353.39 1211.47 1405.17 1150.31 1434.29 1112.06 1440.75 1096.73L1442.11 1091.66 1435.55 1093.67C1426.73 1097.74 1411.46 1107.93 1389.76 1124.24 1362.71 1144.67 1332.88 1170.42 1300.27 1201.5L1215.01 1285.94 1186.07 1317.12C1168.68 1335.84 1158.69 1345.2 1156.12 1345.2 1152.95 1345.2 1149.59 1344 1146.03 1341.62 1140.56 1338.16 1137.83 1334.56 1137.83 1330.82 1137.83 1325.16 1155.67 1302.37 1191.34 1262.45L1288.92 1152.82C1323.3 1112.28 1340.49 1087.65 1340.49 1078.93 1340.49 1078.16 1340.1 1077.77 1339.32 1077.77 1330.39 1077.77 1310.43 1090.33 1279.44 1115.44 1255.8 1134.64 1222.05 1168.58 1178.19 1217.25 1174.6 1221.23 1171.27 1223.21 1168.21 1223.21 1162.31 1223.21 1159.35 1220.61 1159.35 1215.4 1159.35 1210.68 1171.54 1196.25 1195.92 1172.12 1214.21 1147.57 1236.73 1124.25 1263.47 1102.15 1298.69 1073.1 1324.46 1058.57 1340.79 1058.57 1354.08 1058.57 1360.73 1065.63 1360.73 1079.75 1360.73 1099.65 1335.66 1138.32 1285.51 1195.76 1366.99 1114.4 1419.23 1073.72 1442.24 1073.72 1455.52 1073.72 1462.17 1080.42 1462.17 1093.84 1462.17 1111.47 1442.33 1143.63 1402.64 1190.33 1495.05 1092.54 1555.35 1043.65 1583.54 1043.65ZM2769.48 848.032C2791.86 848.466 2812.07 853.272 2830.09 862.45 2854.12 874.688 2867.26 891.683 2869.52 913.439 2870.73 925.08 2867.95 935.788 2861.17 945.559 2854.39 955.33 2845.23 960.817 2833.67 962.02 2825.03 962.92 2817.3 960.713 2810.49 955.399 2803.67 950.086 2799.83 943.199 2798.95 934.737 2797.97 925.347 2800.57 917.159 2806.76 910.173 2812.95 903.187 2820.07 899.275 2828.14 898.434L2835.97 899.265 2831.27 892.722C2826.42 888.992 2819.33 885.165 2810 881.241 2791.34 873.392 2770.3 870.686 2746.89 873.124 2670.28 881.099 2592.97 924.533 2514.96 1003.42 2446.7 1072.45 2365.66 1177.14 2271.85 1317.5L2271.82 1317.53 2285.01 1311.46C2296.84 1304.19 2310.35 1294.32 2325.53 1281.86L2362.31 1251.58 2385.89 1230.7C2399.74 1218.74 2408.01 1212.76 2410.72 1212.76 2415.34 1212.76 2419.78 1214.35 2424.04 1217.54 2428.31 1220.73 2430.44 1225.24 2430.44 1231.09L2396.39 1270.74C2380.49 1289.66 2370.55 1303.64 2366.58 1312.69L2364.75 1319.51 2367.56 1318.9C2376.52 1315.6 2394.82 1300.75 2422.47 1274.34 2446.14 1251.72 2465.82 1231.5 2481.53 1213.7 2485.61 1209.09 2488.99 1206.79 2491.64 1206.79 2495.18 1206.79 2498.9 1208.08 2502.8 1210.64 2506.7 1213.21 2508.65 1216.48 2508.65 1220.45 2508.65 1222.9 2507.74 1223.14 2505.93 1221.2 2479.44 1253.87 2451.33 1288.88 2421.61 1326.22L2432.35 1325.8 2433.19 1326.2 2434.28 1325.6C2442.66 1324.09 2450.51 1321.57 2457.85 1318.05 2466.38 1312.8 2482.44 1300.82 2506.03 1282.11L2559.84 1237.85C2571.71 1227.38 2579.38 1222.15 2582.85 1222.15 2587.56 1222.15 2591.53 1224.15 2594.78 1228.15 2601.67 1222.01 2608.7 1218.95 2615.88 1218.95 2628.32 1218.95 2634.55 1225.46 2634.55 1238.47 2634.55 1254.71 2622.01 1276.39 2596.93 1303.5 2571.45 1330.87 2550.46 1344.56 2533.96 1344.56 2516.91 1344.56 2508.39 1335.68 2508.39 1317.92 2508.39 1309.35 2512.92 1298.58 2521.97 1285.6L2485.34 1317.93C2462.92 1333.55 2445.8 1341.36 2433.96 1341.36L2431.18 1340.42 2423.97 1342.41 2412.5 1342.95 2354.87 1414.37C2319.42 1454.84 2293.68 1475.07 2277.64 1475.07 2267.84 1475.07 2262.94 1468.97 2262.94 1456.78 2262.94 1434.77 2276.96 1409.78 2304.99 1381.79 2333.02 1353.81 2361.42 1336.56 2390.19 1330.04L2431.71 1282.34 2404.39 1312.07C2382.88 1329.89 2367.82 1338.8 2359.19 1338.8 2347.59 1338.8 2341.79 1331.17 2341.79 1315.92 2341.79 1304.29 2347.17 1290.78 2357.94 1275.41L2359.21 1274.11 2332.88 1296.77C2315.41 1310.63 2303.55 1319.62 2297.31 1323.75 2288.56 1329.62 2280.57 1334.02 2273.34 1336.96L2256.55 1340.77 2230.86 1379.84 2118.06 1576.35 2099.05 1565.86C2111.13 1541.21 2120.71 1517.92 2127.8 1496.01 2134.88 1474.1 2141.05 1431.55 2146.31 1368.37 2151.58 1305.19 2157.48 1256.65 2164.03 1222.76 2170.58 1188.86 2182.74 1146.51 2200.51 1095.71 2202.74 1089.36 2204.91 1083.27 2207.05 1077.44L2209.61 1070.59 2156.82 1155.73C2062.71 1304.28 1973.67 1417.75 1889.71 1496.13 1805.74 1574.52 1725.15 1617.73 1647.92 1625.77 1611.19 1629.6 1580.3 1624.49 1555.27 1610.47 1530.24 1596.44 1516.33 1576.05 1513.55 1549.29 1511.69 1531.33 1516.07 1514.88 1526.72 1499.94 1537.36 1485 1550.66 1476.7 1566.62 1475.04 1577.08 1473.95 1586.57 1476.58 1595.11 1482.93 1603.65 1489.29 1608.44 1497.54 1609.5 1507.7 1610.51 1517.42 1607.98 1525.93 1601.91 1533.24 1595.84 1540.54 1587.71 1544.72 1577.52 1545.78 1565.01 1547.08 1555.42 1544.1 1548.74 1536.84L1543.81 1529.34 1543.4 1529.61C1541.97 1531.8 1541.67 1536.91 1542.51 1544.96 1544.47 1563.86 1554.95 1578.66 1573.95 1589.36 1592.94 1600.07 1617.39 1603.86 1647.3 1600.75 1709.55 1594.27 1776.31 1561.62 1847.57 1502.82 1918.83 1444.01 1997.73 1349.72 2084.28 1219.96 2170.82 1090.2 2229.36 998.874 2259.89 945.976 2268.84 930.035 2277.75 917.38 2286.63 908.013L2303.28 915.062C2269.24 966.194 2246.25 1052.19 2234.31 1173.05L2228.18 1226.65C2221.19 1290.26 2203.44 1360.29 2174.94 1436.73L2169.16 1450.88 2238.81 1336.68C2334.87 1181.08 2423.29 1063.01 2504.06 982.476 2584.82 901.939 2665.6 857.465 2746.38 849.056 2754.32 848.229 2762.02 847.888 2769.48 848.032Z" fill="#FFFFFF" fill-rule="evenodd"/></g></svg>