<svg class="MamaNyoSquad" width="1650" height="484" xmlns="http://www.w3.org/2000/svg" xmlns:xlink="http://www.w3.org/1999/xlink" xml:space="preserve" overflow="hidden">
    <defs>
        <clipPath id="clip0">
            <rect x="1788" y="1821" width="1650" height="484"/>
        </clipPath>
    </defs>
    <g clip-path="url(#clip0)" transform="translate(-1788 -1821)">
        <path d="M2669.96 2131.18C2655.37 2136.56 2641.17 2146.52 2627.38 2161.06 2613.59 2175.59 2606.69 2187.32 2606.69 2196.25 2606.69 2197.43 2606.8 2198.02 2607.03 2198.02 2614.47 2198.02 2635.45 2175.74 2669.96 2131.18ZM3001.14 2127.66C2993.95 2137.09 2983.71 2148.69 2970.41 2162.46 2962.51 2175.44 2957.58 2184.66 2955.6 2190.13L2954.81 2193.52 2955.25 2193.41C2959.25 2191.67 2967.42 2183.84 2979.74 2169.94 2993.83 2154.04 3000.87 2141.32 3000.87 2131.76 3000.87 2130.01 3000.96 2128.64 3001.14 2127.66ZM2788.9 2076.91C2774.85 2091.38 2767.83 2103.08 2767.83 2112 2767.83 2114.4 2768.89 2115.6 2771.02 2115.6 2776.7 2115.6 2785.96 2109.14 2798.79 2096.22 2791.49 2094.85 2787.84 2089.65 2787.84 2080.62 2787.84 2078.28 2788.2 2077.04 2788.9 2076.91ZM3334.28 2063.53C3329.03 2063.53 3319.76 2070.46 3306.46 2084.31 3299.81 2091.24 3294.82 2097.15 3291.5 2102.04L3286.52 2113.65 3286.33 2113.75C3286.45 2113.75 3286.51 2113.72 3286.51 2113.67L3286.52 2113.65 3296.36 2108.4C3300.95 2104.83 3306.78 2099.48 3313.86 2092.34 3328.02 2078.07 3335.12 2068.84 3335.15 2064.65 3335.15 2063.9 3334.86 2063.53 3334.28 2063.53ZM3236.35 2062.07C3232.01 2062.07 3222.07 2069.45 3206.55 2084.2 3191.03 2098.96 3183.27 2108.52 3183.27 2112.89 3183.27 2113.46 3183.47 2113.75 3183.87 2113.75 3188.11 2113.75 3198.1 2106.51 3213.84 2092.04 3229.58 2077.57 3237.46 2068.13 3237.47 2063.71 3237.47 2062.62 3237.1 2062.07 3236.35 2062.07ZM2431.66 2062.07C2427.32 2062.07 2417.39 2069.45 2401.86 2084.2 2386.34 2098.96 2378.58 2108.52 2378.58 2112.89 2378.58 2113.46 2378.78 2113.75 2379.18 2113.75 2383.42 2113.75 2393.41 2106.51 2409.15 2092.04 2424.89 2077.57 2432.77 2068.13 2432.79 2063.71 2432.79 2062.62 2432.41 2062.07 2431.66 2062.07ZM2177.19 2062.07C2172.85 2062.07 2162.92 2069.45 2147.4 2084.2 2131.87 2098.96 2124.11 2108.52 2124.11 2112.89 2124.11 2113.46 2124.31 2113.75 2124.71 2113.75 2128.95 2113.75 2138.94 2106.51 2154.68 2092.04 2170.42 2077.57 2178.3 2068.13 2178.32 2063.71 2178.32 2062.62 2177.94 2062.07 2177.19 2062.07ZM2814.95 2061.41C2811.6 2061.41 2808.01 2063.79 2804.19 2068.55 2800.36 2073.31 2798.44 2077.57 2798.44 2081.33 2798.44 2084.8 2800.11 2086.96 2803.45 2087.81 2805.85 2085.39 2808.46 2081.95 2811.27 2077.49 2814.82 2071.36 2816.6 2066.77 2816.6 2063.72 2816.6 2062.18 2816.05 2061.41 2814.95 2061.41ZM3032.99 2060.75C3026.07 2060.75 3014.36 2068.11 2997.89 2082.85 2981.41 2097.58 2973.17 2108.08 2973.17 2114.34 2973.17 2114.56 2973.2 2114.68 2973.26 2114.68 2979.74 2114.68 2991.39 2107.41 3008.23 2092.86 3025.06 2078.32 3033.47 2067.99 3033.47 2061.86 3033.47 2061.12 3033.31 2060.75 3032.99 2060.75ZM1875.5 2041.8 1854.7 2042.3 1838.67 2061.41 1860.42 2060.7ZM1876.18 1997.81C1879.69 1997.81 1881.44 1999.47 1881.44 2002.8 1881.44 2004.45 1874.76 2013.34 1861.42 2029.48L1882.48 2028.51 1895.14 2012.08C1902.34 2002.74 1907.42 1998.07 1910.38 1998.07 1913.79 1998.07 1915.5 1999.69 1915.5 2002.93 1915.5 2005.59 1908.92 2013.96 1895.75 2028.02L1902.83 2027.76C1907.48 2027.76 1909.8 2029.51 1909.8 2033.02 1909.8 2038.17 1906.16 2041.14 1898.89 2041.93L1888.83 2041.67 1873.79 2060.48 1879.62 2060.39C1885.6 2060.28 1888.59 2062.32 1888.59 2066.53 1888.59 2071.95 1881.29 2074.61 1866.67 2074.53L1835.37 2121.15C1833.56 2124.96 1831.49 2126.87 1829.16 2126.87 1825.49 2126.87 1823.65 2124.99 1823.65 2121.23 1823.65 2119.16 1827.21 2112.55 1834.33 2101.38L1853.54 2074.66 1831.53 2075.03C1822.98 2087.2 1813.25 2102.38 1802.36 2120.57 1799.09 2126 1795.88 2128.72 1792.73 2128.72 1789.58 2128.72 1788 2127.06 1788 2123.73 1788 2118.88 1798.1 2102.7 1818.29 2075.19L1809.27 2075.32C1803.48 2075.41 1800.59 2073.78 1800.59 2070.46 1800.59 2065.49 1808.66 2062.64 1824.81 2061.91L1840.65 2042.59C1841.03 2042.59 1839.49 2042.68 1836.05 2042.86L1828.59 2042.99C1823.18 2042.99 1820.47 2041.16 1820.47 2037.48 1820.47 2033.53 1825.28 2031.15 1834.88 2030.32L1847.22 2029.96 1859.86 2013.17C1867.6 2002.93 1873.04 1997.81 1876.18 1997.81ZM2173.94 1942.56C2182.81 1942.56 2187.25 1946.77 2187.25 1955.2 2187.25 1961.87 2184.71 1968.99 2179.63 1976.58 2175.51 1982.53 2152.43 2007.55 2110.41 2051.62 2076.73 2089.08 2059.88 2110.83 2059.88 2116.87 2059.88 2117.61 2061.56 2118.11 2064.92 2118.37L2065.02 2118.45 2065.81 2117.63C2073.53 2116.4 2084.4 2110.3 2098.41 2099.33L2115.18 2086.21 2142.07 2064.81C2154.96 2055.92 2166.05 2051.47 2175.35 2051.47 2183.49 2051.47 2187.82 2054.72 2188.36 2061.23 2189.61 2057.99 2191.24 2056.38 2193.26 2056.38 2197.97 2056.38 2200.32 2058.44 2200.32 2062.58 2200.32 2066.23 2193.67 2075.82 2180.37 2091.34 2167.07 2106.86 2160.43 2115.6 2160.43 2117.55 2160.43 2117.67 2161.84 2117.77 2164.67 2117.85L2167.78 2119.08 2170.26 2117.67C2176.38 2116.17 2180.79 2114.67 2183.49 2113.19 2189.32 2110.14 2200.91 2101.72 2218.24 2087.94 2226.18 2081.76 2237.37 2072.13 2251.81 2059.06 2258 2052.59 2262.69 2049.35 2265.89 2049.35 2272.59 2049.35 2275.94 2051.79 2275.94 2056.67 2275.94 2061.23 2271.05 2068.59 2261.27 2078.77 2277.6 2061.45 2289.71 2052.8 2297.6 2052.8 2300.62 2052.8 2303.45 2053.79 2306.07 2055.79 2308.69 2057.78 2310 2060.35 2310 2063.5 2310 2067.48 2307.67 2071.66 2302.99 2076.04 2317.94 2058.78 2330.8 2050.15 2341.58 2050.15 2349.25 2050.15 2353.08 2053.38 2353.08 2059.83 2353.08 2066.58 2345.97 2077.25 2331.74 2091.84 2317.52 2106.42 2310.4 2114.85 2310.4 2117.12 2310.4 2117.67 2311.9 2117.96 2314.91 2118L2317.47 2118.92 2320.28 2117.63C2328 2116.4 2338.86 2110.3 2352.88 2099.33L2369.65 2086.21 2396.54 2064.81C2409.43 2055.92 2420.52 2051.47 2429.82 2051.47 2437.95 2051.47 2442.29 2054.72 2442.83 2061.23 2444.08 2057.99 2445.71 2056.38 2447.73 2056.38 2452.43 2056.38 2454.79 2058.44 2454.79 2062.58 2454.79 2066.23 2448.14 2075.82 2434.84 2091.34 2421.54 2106.86 2414.89 2115.6 2414.89 2117.55 2414.89 2117.67 2416.31 2117.77 2419.13 2117.85 2421.96 2117.94 2423.38 2119.53 2423.38 2122.63 2423.38 2126.16 2419.51 2127.93 2411.78 2127.93 2404.23 2127.93 2400.45 2124.48 2400.45 2117.6 2400.45 2113.01 2402.81 2108.09 2407.52 2102.82L2395.55 2116.06C2387.31 2122.2 2380.52 2125.28 2375.18 2125.28 2365.96 2125.28 2361.35 2120.62 2361.35 2111.32 2361.35 2106.8 2362.35 2103.09 2364.34 2100.19 2343.65 2118.42 2328.6 2127.53 2319.17 2127.53L2316.68 2126.66 2313.59 2127.6C2312.29 2127.82 2310.78 2127.93 2309.06 2127.93 2300.5 2127.93 2296.22 2124.05 2296.22 2116.3 2296.22 2108.84 2302.43 2098.06 2314.84 2083.97 2324.15 2073.39 2329.97 2066.51 2332.3 2063.33L2332.64 2062.76 2332.2 2062.84C2326.93 2064.59 2316.85 2072.42 2301.97 2086.36 2287.66 2099.74 2276.47 2110.95 2268.39 2119.99 2264.94 2125.19 2261.77 2127.79 2258.88 2127.79 2253.73 2127.79 2251.16 2125.35 2251.16 2120.46 2251.16 2116.59 2257.96 2107.07 2271.57 2091.9 2281.77 2080.52 2288.15 2072.6 2290.7 2068.13L2291.85 2065.16 2290.35 2065.46C2285.78 2067.06 2276.7 2074.25 2263.12 2087.03 2249.54 2099.84 2239.95 2109.89 2234.32 2117.16 2229.39 2123.54 2224.81 2126.73 2220.59 2126.73 2215.88 2126.73 2213.52 2124.55 2213.52 2120.18 2213.52 2116.26 2219.73 2106.56 2232.14 2091.08L2252.59 2069.37 2215.9 2102.83C2194.26 2119.3 2178.92 2127.53 2169.88 2127.53 2168.48 2127.53 2167.43 2127.16 2166.73 2126.44L2166.63 2126.13 2166.01 2126.6C2164.08 2127.48 2161.18 2127.93 2157.31 2127.93 2149.76 2127.93 2145.98 2124.48 2145.98 2117.6 2145.98 2113.01 2148.34 2108.09 2153.05 2102.82L2141.08 2116.06C2132.85 2122.2 2126.06 2125.28 2120.72 2125.28 2111.49 2125.28 2106.88 2120.62 2106.88 2111.32 2106.88 2106.8 2107.88 2103.09 2109.87 2100.19 2089.19 2118.42 2074.13 2127.53 2064.7 2127.53L2064.61 2127.43 2059.25 2128.46C2050.04 2128.46 2045.44 2124.07 2045.44 2115.29 2045.44 2101.55 2061.81 2076.43 2094.54 2039.92 2106.13 2027.01 2127.63 2004.82 2159.04 1973.33 2166.72 1965.65 2171.52 1959.83 2173.43 1955.89L2174.33 1952.81 2172.08 1953.29C2165.05 1955.77 2149.61 1966.92 2125.76 1986.75 2103.78 2005.03 2087.3 2019.67 2076.32 2030.64 2065.7 2041.25 2051.95 2056 2035.09 2074.89 2003.83 2109.98 1987.3 2127.53 1985.5 2127.53 1983.49 2127.53 1981.34 2126.46 1979.04 2124.32 1976.74 2122.19 1975.59 2120.08 1975.59 2118 1975.59 2113.98 1993.99 2090.26 2030.8 2046.83 2063 2008.83 2081.11 1985.07 2085.13 1975.54L2085.98 1972.39 2081.9 1973.64C2076.41 1976.17 2066.92 1982.5 2053.42 1992.63 2036.59 2005.32 2018.04 2021.32 1997.76 2040.63L1944.74 2093.09 1926.74 2112.47C1915.92 2124.1 1909.71 2129.91 1908.11 2129.91 1906.14 2129.91 1904.05 2129.17 1901.84 2127.69 1898.43 2125.54 1896.73 2123.3 1896.73 2120.98 1896.73 2117.46 1907.83 2103.3 1930.01 2078.5L1990.7 2010.39C2012.08 1985.2 2022.77 1969.89 2022.77 1964.48 2022.77 1964 2022.53 1963.76 2022.05 1963.76 2016.49 1963.76 2004.08 1971.56 1984.81 1987.16 1970.1 1999.09 1949.11 2020.18 1921.84 2050.42 1919.6 2052.89 1917.53 2054.12 1915.63 2054.12 1911.96 2054.12 1910.12 2052.5 1910.12 2049.27 1910.12 2046.34 1917.7 2037.37 1932.86 2022.38 1944.24 2007.13 1958.24 1992.63 1974.88 1978.91 1996.78 1960.86 2012.81 1951.83 2022.96 1951.83 2031.23 1951.83 2035.36 1956.22 2035.36 1964.99 2035.36 1977.35 2019.77 2001.38 1988.58 2037.07 2039.26 1986.51 2071.75 1961.24 2086.06 1961.24 2094.32 1961.24 2098.45 1965.41 2098.45 1973.74 2098.45 1984.7 2086.11 2004.68 2061.43 2033.69 2118.9 1972.93 2156.4 1942.56 2173.94 1942.56ZM3032.96 1940.44C3051.87 1940.44 3061.33 1946.6 3061.33 1958.93 3061.33 1968.87 3053.04 1980.27 3036.47 1993.12 3020.67 2005.35 3007.59 2011.46 2997.22 2011.46 2987.65 2011.46 2982.87 2007.89 2982.87 2000.76 2982.87 1995.34 2989.15 1989.18 3001.71 1982.27 3007.81 1976.55 3013.52 1973.69 3018.83 1973.69 3022.34 1973.69 3024.09 1975.62 3024.09 1979.46L3009.22 1987.54C3005.17 1989.74 3002.11 1991.48 3000.04 1992.76L2998.54 1993.75 3001.3 1993.34C3007.14 1991.83 3015.26 1988.04 3025.67 1981.99 3039.99 1973.64 3047.15 1967.12 3047.15 1962.42 3047.15 1959.16 3041.97 1957.53 3031.61 1957.53 3018.12 1957.53 2998.85 1961.49 2973.81 1969.41 2956.82 1974.79 2942.04 1980.46 2929.45 1986.41 2908.34 1996.31 2897.78 2004.92 2897.78 2012.23 2897.78 2016.18 2903.89 2019.29 2916.1 2021.55L2958.44 2027.01C2975.31 2029.53 2985.38 2033.05 2988.66 2037.59 2993.64 2044.14 2996.12 2050.32 2996.12 2056.12L2993.44 2064.24 3011.56 2053.16C3017.61 2050.53 3023.28 2049.22 3028.55 2049.22 3038.63 2049.22 3043.68 2053.17 3043.68 2061.07 3043.68 2064.27 3042.86 2066.69 3041.21 2068.35 3044.09 2069.12 3045.54 2071.32 3045.54 2074.95 3045.54 2076.25 3033.03 2090.55 3008.02 2117.86L3014.94 2117.86 3015.71 2118.13 3016.48 2117.77C3019.73 2117.16 3022.95 2116.38 3026.15 2115.45 3032.04 2112.16 3042.98 2104.24 3058.97 2091.67 3066.52 2085.79 3077.36 2076.8 3091.48 2064.71 3093.96 2062.14 3097.98 2058.61 3103.52 2054.14 3106.3 2052.36 3108.85 2051.47 3111.16 2051.47 3118.04 2051.47 3121.48 2054 3121.48 2059.05 3121.48 2063.07 3115.4 2071.77 3103.25 2085.17 3094.14 2095.22 3088.45 2102.93 3086.17 2108.29L3085.18 2112.28 3086.56 2111.96C3091.91 2109.8 3102.43 2100.06 3118.12 2082.74 3136.05 2062.96 3146.61 2053.06 3149.81 2053.06 3151.82 2053.06 3153.68 2053.97 3155.38 2055.8 3157.08 2057.63 3157.93 2059.5 3157.93 2061.43 3157.93 2064.13 3151.25 2073.2 3137.91 2088.65 3124.57 2104.11 3117.9 2113.69 3117.9 2117.39 3117.9 2117.7 3119.36 2117.89 3122.27 2117.98L3123.33 2118.38 3124.96 2117.63C3132.68 2116.4 3143.55 2110.3 3157.57 2099.33L3174.34 2086.21 3201.22 2064.81C3214.12 2055.92 3225.21 2051.47 3234.5 2051.47 3242.64 2051.47 3246.98 2054.72 3247.52 2061.23 3248.76 2057.99 3250.4 2056.38 3252.42 2056.38 3257.12 2056.38 3259.47 2058.44 3259.47 2062.58 3259.47 2066.23 3252.83 2075.82 3239.53 2091.34 3226.23 2106.86 3219.58 2115.6 3219.58 2117.55 3219.58 2117.67 3220.99 2117.77 3223.82 2117.85L3224.95 2118.3 3226.03 2117.67C3232.53 2116.07 3239.36 2113.58 3246.54 2110.2 3252.6 2105.71 3263.06 2096.98 3277.93 2084.02 3292.8 2071.06 3304.35 2062.15 3312.58 2057.3 3318.72 2053.68 3324.34 2051.87 3329.42 2051.87 3338.87 2051.87 3343.69 2055.05 3343.87 2061.42 3353.81 2045.85 3366.87 2030.14 3383.05 2014.28 3409.3 1982.01 3425.3 1965.88 3431.06 1965.88 3435.69 1965.88 3438 1968.32 3438 1973.2 3438 1976.49 3434.23 1982.09 3426.7 1989.99 3413.51 2003.7 3394.06 2025.64 3368.34 2055.81 3337.02 2092.55 3321.37 2113.03 3321.37 2117.26 3321.37 2117.57 3322.78 2117.76 3325.61 2117.85 3328.44 2117.94 3329.85 2119.53 3329.85 2122.63 3329.85 2126.16 3326.85 2127.93 3320.86 2127.93 3312.27 2127.93 3307.98 2124.22 3307.98 2116.82 3307.98 2111.8 3310.82 2105.66 3316.5 2098.4 3302 2116.58 3290.75 2125.67 3282.74 2125.67 3274.3 2125.67 3270.08 2121.24 3270.08 2112.38 3270.08 2107.99 3271.98 2102.65 3275.8 2096.35L3255.58 2114.61C3242.87 2123.22 3232.89 2127.53 3225.65 2127.53L3223.91 2126.94 3221.54 2127.59C3220.09 2127.82 3218.4 2127.93 3216.47 2127.93 3208.91 2127.93 3205.13 2124.48 3205.13 2117.6 3205.13 2113.01 3207.49 2108.09 3212.21 2102.82L3200.24 2116.06C3192 2122.2 3185.21 2125.28 3179.87 2125.28 3170.65 2125.28 3166.04 2120.62 3166.04 2111.32 3166.04 2106.8 3167.03 2103.09 3169.03 2100.19 3148.34 2118.42 3133.29 2127.53 3123.86 2127.53L3122.59 2127.09 3121.41 2127.47C3120.25 2127.69 3118.89 2127.79 3117.34 2127.79 3108.26 2127.79 3103.72 2124.14 3103.72 2116.82 3103.72 2112.4 3105.53 2107.82 3109.17 2103.09 3096.61 2117.79 3086.39 2125.14 3078.52 2125.14 3071.37 2125.14 3067.8 2121.28 3067.8 2113.54 3067.8 2105.94 3071.03 2097.62 3077.49 2088.58L3093.94 2072.86 3061.55 2102.75C3039.82 2119.27 3024.4 2127.53 3015.29 2127.53L3014.84 2127.38 3013.85 2127.67C3012.61 2127.84 3011.16 2127.88 3009.51 2127.79 3010.29 2128.63 3010.68 2130 3010.68 2131.89 3010.68 2141.83 3003 2156.29 2987.64 2175.26 2972.03 2194.67 2959.61 2204.38 2950.37 2204.38 2943.75 2204.38 2940.43 2200.55 2940.43 2192.9 2940.43 2182.13 2949.65 2165.81 2968.09 2143.94L3002.62 2106.08C2988.35 2119.94 2977.57 2126.87 2970.29 2126.87 2960.73 2126.87 2955.94 2122.26 2955.94 2113.05L2961.18 2100.72 2950.55 2108.54C2941.73 2113.73 2932.12 2118.18 2921.74 2121.89 2902.19 2128.83 2882.09 2132.3 2861.44 2132.3 2832.13 2132.3 2817.47 2123.14 2817.47 2104.81 2817.47 2093.88 2825.22 2084.66 2840.72 2077.17 2855.56 2068.61 2868.74 2064.33 2880.26 2064.33 2885.67 2064.33 2888.37 2066.29 2888.37 2070.22 2888.37 2073.23 2885.76 2075.11 2880.54 2075.85 2870.3 2077.46 2860.9 2080.14 2852.37 2083.92 2838.56 2090.05 2831.65 2096.32 2831.65 2102.74 2831.65 2110.17 2841.41 2113.88 2860.92 2113.88 2878.03 2113.88 2896.37 2110.47 2915.96 2103.63 2936.01 2096.62 2952.4 2087.72 2965.1 2076.93 2977.12 2066.69 2983.14 2059.29 2983.14 2054.71 2983.14 2051.01 2975.38 2048.25 2959.86 2046.43 2931.48 2043.12 2915.3 2041.01 2911.3 2040.08 2893.45 2035.73 2884.53 2027.57 2884.53 2015.59 2884.53 2001.17 2894.95 1987.65 2915.79 1975.02 2932.35 1964.94 2953.42 1956.44 2978.98 1949.53 3001.46 1943.47 3019.45 1940.44 3032.96 1940.44ZM2591.23 1864.95 2589.73 1866.39 2590.55 1864.97ZM2911.53 1821.02C2925.44 1821.29 2938.01 1824.28 2949.22 1829.98 2964.16 1837.58 2972.34 1848.14 2973.74 1861.66 2974.5 1868.89 2972.77 1875.54 2968.55 1881.61 2964.34 1887.68 2958.63 1891.09 2951.45 1891.84 2946.07 1892.4 2941.27 1891.03 2937.03 1887.73 2932.79 1884.43 2930.4 1880.15 2929.85 1874.89 2929.24 1869.06 2930.86 1863.97 2934.71 1859.63 2938.56 1855.29 2942.99 1852.86 2948.01 1852.33L2952.88 1852.85 2949.95 1848.79C2946.94 1846.47 2942.53 1844.09 2936.72 1841.65 2925.12 1836.78 2912.03 1835.1 2897.47 1836.61 2849.83 1841.56 2801.74 1868.55 2753.23 1917.57 2710.77 1960.45 2660.37 2025.5 2602.02 2112.71L2602.01 2112.73 2610.21 2108.95C2617.57 2104.43 2625.97 2098.3 2635.41 2090.56L2658.28 2071.75 2672.96 2058.77C2681.56 2051.34 2686.71 2047.63 2688.4 2047.63 2691.27 2047.63 2694.03 2048.62 2696.68 2050.6 2699.33 2052.58 2700.66 2055.39 2700.66 2059.02L2679.49 2083.65C2669.6 2095.41 2663.41 2104.1 2660.94 2109.72L2659.8 2113.95 2661.55 2113.57C2667.12 2111.52 2678.51 2102.29 2695.7 2085.89 2710.42 2071.83 2722.67 2059.27 2732.43 2048.21 2734.97 2045.35 2737.07 2043.92 2738.73 2043.92 2740.92 2043.92 2743.24 2044.72 2745.66 2046.31 2748.09 2047.91 2749.3 2049.94 2749.3 2052.41 2749.3 2053.93 2748.74 2054.08 2747.61 2052.87 2731.13 2073.17 2713.65 2094.92 2695.17 2118.12L2701.85 2117.86 2702.37 2118.11 2703.05 2117.74C2708.26 2116.8 2713.14 2115.23 2717.71 2113.05 2723.02 2109.79 2733 2102.34 2747.67 2090.72L2781.14 2063.22C2788.52 2056.71 2793.29 2053.46 2795.45 2053.46 2798.38 2053.46 2800.85 2054.7 2802.87 2057.19 2807.16 2053.38 2811.53 2051.47 2815.99 2051.47 2823.73 2051.47 2827.6 2055.52 2827.6 2063.6 2827.6 2073.7 2819.8 2087.16 2804.21 2104.01 2788.36 2121.01 2775.31 2129.52 2765.04 2129.52 2754.44 2129.52 2749.14 2124 2749.14 2112.97 2749.14 2107.64 2751.96 2100.95 2757.59 2092.89L2734.81 2112.97C2720.86 2122.68 2710.21 2127.53 2702.85 2127.53L2701.12 2126.95 2696.64 2128.18 2689.5 2128.52 2653.66 2172.89C2631.61 2198.03 2615.6 2210.61 2605.63 2210.61 2599.53 2210.61 2596.49 2206.82 2596.49 2199.24 2596.49 2185.57 2605.2 2170.04 2622.64 2152.65 2640.07 2135.26 2657.74 2124.55 2675.63 2120.49L2701.45 2090.86 2684.46 2109.33C2671.08 2120.4 2661.71 2125.94 2656.35 2125.94 2649.13 2125.94 2645.52 2121.2 2645.52 2111.73 2645.52 2104.5 2648.87 2096.11 2655.57 2086.55L2656.36 2085.74 2639.98 2099.83C2629.12 2108.44 2621.74 2114.02 2617.86 2116.59 2612.42 2120.23 2607.45 2122.97 2602.95 2124.79L2592.51 2127.16 2576.53 2151.43 2506.38 2273.53 2494.55 2267.02C2502.07 2251.7 2508.03 2237.23 2512.43 2223.62 2516.84 2210 2520.68 2183.57 2523.95 2144.31 2527.22 2105.05 2530.9 2074.9 2534.97 2053.84 2539.04 2032.78 2546.61 2006.47 2557.66 1974.9 2559.04 1970.96 2560.4 1967.17 2561.72 1963.55L2563.32 1959.3 2530.49 2012.2C2471.96 2104.49 2416.58 2174.99 2364.36 2223.69 2312.13 2272.39 2262.01 2299.24 2213.98 2304.24 2191.13 2306.61 2171.93 2303.44 2156.36 2294.73 2140.79 2286.01 2132.14 2273.34 2130.41 2256.72 2129.25 2245.56 2131.98 2235.34 2138.6 2226.06 2145.22 2216.77 2153.49 2211.62 2163.42 2210.58 2169.92 2209.91 2175.83 2211.54 2181.13 2215.49 2186.44 2219.44 2189.43 2224.57 2190.08 2230.88 2190.71 2236.92 2189.14 2242.21 2185.36 2246.74 2181.59 2251.28 2176.53 2253.88 2170.2 2254.54 2162.42 2255.35 2156.45 2253.5 2152.29 2248.98L2149.23 2244.32 2148.98 2244.49C2148.08 2245.85 2147.9 2249.03 2148.42 2254.03 2149.64 2265.77 2156.16 2274.97 2167.97 2281.62 2179.79 2288.27 2194.99 2290.63 2213.6 2288.69 2252.31 2284.66 2293.83 2264.38 2338.15 2227.84 2382.47 2191.3 2431.54 2132.73 2485.37 2052.1 2539.19 1971.48 2575.6 1914.74 2594.59 1881.87 2600.15 1871.97 2605.7 1864.11 2611.22 1858.29L2621.57 1862.67C2600.4 1894.43 2586.1 1947.86 2578.68 2022.95L2574.87 2056.26C2570.52 2095.78 2559.48 2139.29 2541.76 2186.78L2538.16 2195.57 2581.48 2124.62C2641.22 2027.95 2696.21 1954.59 2746.45 1904.55 2796.68 1854.51 2846.91 1826.88 2897.15 1821.66 2902.1 1821.14 2906.89 1820.93 2911.53 1821.02Z" fill="#FFFFFF" fill-rule="evenodd"/>
    </g>
</svg>