<svg width="1866" height="1650"
    xmlns="http://www.w3.org/2000/svg"
    xmlns:xlink="http://www.w3.org/1999/xlink" xml:space="preserve" overflow="hidden">
    <defs>
        <clipPath id="clip0">
            <rect x="1267" y="413" width="1866" height="1650" />
        </clipPath>
    </defs>
    <g clip-path="url(#clip0)" transform="translate(-1267 -413)">
        <path d="M2678.7 1284.48C2694.16 1283.84 2704.08 1290.85 2708.47 1305.5 2713.18 1321.21 2699.26 1353.11 2666.73 1401.19 2591.79 1544.44 2495.47 1757.03 2377.77 2038.95 2372.37 2051.84 2365.71 2059.46 2357.81 2061.83 2348.43 2064.63 2338.83 2062.41 2329.01 2055.15 2319.19 2047.9 2312.99 2039.98 2310.42 2031.41 2303.91 2009.65 2347.44 1901.65 2441.02 1707.43L2583.58 1434.57C2497.9 1527.42 2443.62 1577.27 2420.73 1584.12 2405.43 1588.7 2395.33 1582.8 2390.43 1566.44 2387.12 1555.4 2395.26 1543.66 2414.82 1531.21 2431.52 1520.42 2457.52 1498.22 2492.82 1464.6L2596.45 1364.08C2635.45 1314.42 2657.1 1288.95 2661.39 1287.66 2667.78 1285.75 2673.55 1284.69 2678.7 1284.48ZM2983.92 1239C2980.91 1238.95 2977.57 1239.47 2973.9 1240.57 2938.69 1251.11 2887.63 1300.47 2820.72 1388.67 2753.8 1476.87 2728.49 1548.14 2744.77 1602.5 2750.12 1620.36 2762.42 1626.42 2781.67 1620.66 2826.91 1607.12 2870.09 1576.23 2911.2 1527.97 2949.85 1482.85 2977.74 1433.26 2994.89 1379.21 3008.12 1324.29 3010.55 1282.88 3002.19 1254.97 2999.05 1244.48 2992.96 1239.15 2983.92 1239ZM2979.05 1183.91C2992.19 1185.14 3005.07 1189.03 3017.69 1195.58 3042.93 1208.68 3059.6 1228.78 3067.71 1255.87 3088.97 1326.86 3070.12 1430.71 3011.16 1567.41 2960.78 1684.53 2905.59 1777.16 2845.59 1845.3 2785.59 1913.43 2743.88 1951.01 2720.44 1958.02 2704.09 1962.91 2693.46 1957.18 2688.56 1940.83 2685.53 1930.72 2696.47 1914.36 2721.37 1891.74 2753.16 1862.74 2788.92 1824.68 2828.63 1777.59 2861.35 1710.3 2888.26 1652.81 2909.34 1605.11 2916.52 1588.65 2924.69 1574.77 2933.87 1563.47 2894.56 1618.25 2849.44 1653.26 2798.52 1668.5 2769.88 1677.06 2744.18 1674.45 2721.39 1660.65 2698.6 1646.86 2682.93 1625.67 2674.38 1597.1 2654.98 1532.33 2678.56 1451.8 2745.13 1355.5 2808.65 1263.6 2873.23 1207.83 2938.85 1188.19 2952.51 1184.1 2965.91 1182.68 2979.05 1183.91ZM3006.5 646.895C3027.16 647.751 3046.73 651.593 3065.23 658.421 3102.23 672.075 3124.23 694.494 3131.23 725.678 3134.98 742.367 3132.77 758.38 3124.59 773.717 3116.41 789.054 3104.03 798.582 3087.44 802.3 3075.04 805.082 3063.43 803.2 3052.62 796.653 3041.82 790.106 3035.05 780.769 3032.33 768.64 3029.31 755.179 3031.7 742.852 3039.49 731.658 3047.28 720.463 3056.97 713.569 3068.55 710.972L3080.07 710.84 3072.12 702.148C3064.44 697.564 3053.49 693.221 3039.26 689.12 3010.8 680.917 2979.78 680.583 2946.18 688.118 2836.23 712.776 2731.32 789.007 2631.44 916.813 2531.57 1044.62 2415.4 1242.87 2282.93 1511.57L2152.6 1815.99 2123.18 1804.03C2136.53 1766.19 2146.48 1730.76 2153.03 1697.75 2159.58 1664.75 2161.28 1601.95 2158.14 1509.36 2155 1416.78 2155.29 1345.33 2159.02 1295.03 2162.75 1244.73 2173.19 1181.19 2190.34 1104.43 2192.48 1094.84 2194.61 1085.63 2196.71 1076.8L2199.27 1066.43 2137.11 1199C2025.74 1430.64 1915.74 1610.51 1807.13 1738.59 1698.51 1866.68 1588.79 1943.16 1477.96 1968.01 1425.24 1979.83 1379.5 1977.7 1340.74 1961.62 1301.98 1945.54 1278.29 1918.32 1269.68 1879.97 1263.9 1854.23 1267.47 1829.61 1280.38 1806.11 1293.29 1782.61 1311.2 1768.29 1334.1 1763.16 1349.11 1759.79 1363.36 1761.99 1376.84 1769.75 1390.33 1777.51 1398.71 1788.67 1401.98 1803.23 1405.11 1817.17 1402.88 1829.95 1395.31 1841.59 1387.74 1853.22 1376.64 1860.68 1362.02 1863.96 1344.07 1867.98 1329.62 1865.3 1318.68 1855.9L1310.23 1845.86 1309.69 1846.32C1307.98 1849.74 1308.42 1857.21 1311.01 1868.75 1317.09 1895.84 1334.84 1915.52 1364.27 1927.81 1393.69 1940.1 1429.87 1941.43 1472.79 1931.81 1562.13 1911.77 1653.55 1853 1747.04 1755.49 1840.54 1657.98 1939.08 1507.68 2042.67 1304.6 2146.26 1101.52 2215.71 958.985 2251.04 877.008 2261.32 852.347 2272.11 832.46 2283.41 817.352L2308.8 824.737C2268.08 904.751 2249.36 1033.47 2252.64 1210.89L2252.89 1289.73C2253.6 1383.23 2239.77 1487.88 2211.41 1603.67L2205.43 1625.19 2287.12 1447.59C2400.12 1205.38 2508.43 1018.94 2612.03 888.278 2715.63 757.612 2825.39 679.28 2941.32 653.28 2964.12 648.167 2985.85 646.038 3006.5 646.895ZM1911.18 501.128C1926.65 500.493 1936.57 507.498 1940.96 522.146 1945.66 537.862 1931.75 569.76 1899.21 617.839 1824.27 761.091 1727.95 973.678 1610.25 1255.6 1604.85 1268.48 1598.2 1276.11 1590.29 1278.47 1580.91 1281.28 1571.31 1279.06 1561.49 1271.8 1551.67 1264.55 1545.48 1256.63 1542.91 1248.05 1536.39 1226.29 1579.92 1118.3 1673.51 924.077L1816.06 651.221C1730.38 744.072 1676.1 793.92 1653.22 800.767 1637.92 805.345 1627.81 799.451 1622.91 783.083 1619.61 772.051 1627.74 760.309 1647.31 747.856 1664.01 737.069 1690.01 714.867 1725.31 681.25L1828.93 580.728C1867.94 531.069 1889.59 505.596 1893.88 504.312 1900.26 502.402 1906.03 501.341 1911.18 501.128ZM2205.58 413.04C2221.04 412.403 2230.96 419.41 2235.35 434.057 2240.06 449.774 2226.15 481.671 2193.61 529.75 2118.67 673.002 2022.35 885.589 1904.65 1167.51 1899.25 1180.39 1892.6 1188.02 1884.69 1190.38 1875.31 1193.19 1865.71 1190.97 1855.89 1183.71 1846.07 1176.46 1839.87 1168.54 1837.31 1159.96 1830.79 1138.2 1874.32 1030.21 1967.9 835.988L2110.46 563.132C2024.78 655.983 1970.5 705.831 1947.61 712.678 1932.31 717.257 1922.21 711.362 1917.31 694.995 1914 683.963 1922.14 672.22 1941.71 659.767 1958.41 648.98 1984.41 626.778 2019.7 593.161L2123.33 492.64C2162.33 442.98 2183.98 417.507 2188.27 416.223 2194.66 414.313 2200.43 413.252 2205.58 413.04Z" fill="#ffffff" fill-rule="evenodd" />
    </g>
</svg>