<svg width="2475" height="727" xmlns="http://www.w3.org/2000/svg" xmlns:xlink="http://www.w3.org/1999/xlink" xml:space="preserve" overflow="hidden"><defs><clipPath id="clip0"><rect x="963" y="874" width="2475" height="727"/></clipPath></defs><g clip-path="url(#clip0)" transform="translate(-963 -874)"><path d="M2389.92 1386.5C2386.75 1386.56 2384.23 1388.29 2382.37 1391.68 2380.5 1395.07 2379.47 1399.73 2379.27 1405.66L2379.27 1408.96C2379.27 1409.1 2379.27 1409.91 2379.27 1411.41 2379.27 1412.9 2379.27 1414.62 2379.27 1416.56 2379.27 1418.5 2379.27 1420.22 2379.27 1421.71 2379.27 1423.21 2379.27 1424.02 2379.27 1424.16 2380.51 1426.1 2381.83 1427.56 2383.25 1428.55 2384.67 1429.53 2386.45 1430.02 2388.6 1430.02 2393.05 1429.95 2396.23 1428.07 2398.16 1424.4 2400.08 1420.72 2401.02 1415.68 2400.97 1409.29 2400.93 1402.13 2399.94 1396.55 2397.98 1392.57 2396.02 1388.58 2393.34 1386.56 2389.92 1386.5ZM3124.55 1386.08C3121.74 1386.19 3119.52 1387.43 3117.9 1389.8 3116.27 1392.16 3115.09 1394.99 3114.38 1398.28 3113.66 1401.57 3113.25 1404.67 3113.17 1407.56L3134.7 1407.56C3134.62 1400.74 3133.74 1395.46 3132.07 1391.74 3130.39 1388.02 3127.89 1386.13 3124.55 1386.08ZM3079.86 1386.08C3077.05 1386.19 3074.84 1387.43 3073.21 1389.8 3071.58 1392.16 3070.41 1394.99 3069.69 1398.28 3068.97 1401.57 3068.56 1404.67 3068.48 1407.56L3090.01 1407.56C3089.93 1400.74 3089.06 1395.46 3087.38 1391.74 3085.7 1388.02 3083.2 1386.13 3079.86 1386.08ZM2936.7 1386.08 2938.6 1386.08C2941.71 1386.12 2944.56 1386.96 2947.16 1388.59 2949.75 1390.23 2951.74 1392.45 2953.12 1395.25L2963.35 1416.72 2974.81 1393.02C2975.35 1391.96 2975.6 1390.8 2975.57 1389.56 2975.53 1388.32 2975.23 1387.19 2974.65 1386.17L2974.65 1386.08 2981.66 1386.08 2980.59 1386.99C2979.66 1387.76 2978.76 1388.7 2977.89 1389.79 2977.02 1390.88 2976.32 1391.96 2975.8 1393.02L2959.39 1426.88C2956.82 1432.26 2954.77 1436.48 2953.25 1439.53 2951.73 1442.58 2950.28 1444.73 2948.91 1445.98 2947.54 1447.22 2945.81 1447.82 2943.71 1447.78 2941.49 1447.77 2939.37 1447.25 2937.36 1446.2 2935.34 1445.15 2933.39 1443.61 2931.5 1441.59L2935.96 1437.13C2936.36 1438.39 2936.91 1439.77 2937.61 1441.27 2938.31 1442.76 2939.21 1444.06 2940.33 1445.15 2941.44 1446.24 2942.81 1446.82 2944.45 1446.87 2945.95 1446.89 2947.32 1446.26 2948.56 1444.97 2949.81 1443.67 2951.18 1441.57 2952.69 1438.67 2954.2 1435.77 2956.1 1431.93 2958.4 1427.13L2942.56 1393.1C2942 1392 2941.31 1390.9 2940.48 1389.8 2939.65 1388.7 2938.78 1387.76 2937.85 1386.99ZM2588.3 1386.08C2585.49 1386.19 2583.27 1387.43 2581.65 1389.8 2580.02 1392.16 2578.85 1394.99 2578.13 1398.28 2577.41 1401.57 2577 1404.67 2576.92 1407.56L2598.45 1407.56C2598.37 1400.74 2597.49 1395.46 2595.82 1391.74 2594.14 1388.02 2591.64 1386.13 2588.3 1386.08ZM2524.2 1386.08 2526.1 1386.08C2529.21 1386.12 2532.04 1386.97 2534.59 1388.63 2537.15 1390.29 2539.07 1392.53 2540.37 1395.33L2550.68 1419.04 2562.4 1393.1C2562.93 1392 2563.16 1390.82 2563.11 1389.57 2563.05 1388.32 2562.73 1387.19 2562.15 1386.17L2562.15 1386.08 2569.16 1386.08 2568.01 1386.99C2567.08 1387.76 2566.21 1388.7 2565.39 1389.8 2564.56 1390.9 2563.9 1392 2563.39 1393.1L2546.89 1429.53 2545.9 1429.53 2545.9 1429.44 2545.81 1429.44 2529.89 1393.1C2529.42 1392 2528.78 1390.9 2527.96 1389.8 2527.15 1388.7 2526.28 1387.76 2525.35 1386.99ZM2467.99 1386.08C2465.18 1386.19 2462.96 1387.43 2461.33 1389.8 2459.71 1392.16 2458.53 1394.99 2457.81 1398.28 2457.09 1401.57 2456.69 1404.67 2456.6 1407.56L2478.14 1407.56C2478.06 1400.74 2477.18 1395.46 2475.51 1391.74 2473.83 1388.02 2471.32 1386.13 2467.99 1386.08ZM2895.72 1385.67C2891.75 1385.75 2888.6 1387.77 2886.27 1391.73 2883.93 1395.69 2882.74 1401.07 2882.69 1407.89 2882.73 1414.62 2883.9 1419.96 2886.18 1423.9 2888.47 1427.84 2891.59 1429.85 2895.56 1429.94 2899.57 1429.85 2902.76 1427.82 2905.13 1423.84 2907.49 1419.86 2908.7 1414.46 2908.76 1407.64 2908.7 1400.83 2907.5 1395.49 2905.15 1391.61 2902.8 1387.72 2899.66 1385.74 2895.72 1385.67ZM2342.29 1385.67C2338.31 1385.75 2335.16 1387.77 2332.83 1391.73 2330.5 1395.69 2329.3 1401.07 2329.25 1407.89 2329.3 1414.62 2330.46 1419.96 2332.75 1423.9 2335.03 1427.84 2338.16 1429.85 2342.12 1429.94 2346.14 1429.85 2349.33 1427.82 2351.69 1423.84 2354.06 1419.86 2355.27 1414.46 2355.32 1407.64 2355.26 1400.83 2354.06 1395.49 2351.71 1391.61 2349.36 1387.72 2346.22 1385.74 2342.29 1385.67ZM3124.88 1385.17C3130.56 1385.33 3135.06 1387.38 3138.37 1391.32 3141.68 1395.26 3143.37 1400.67 3143.44 1407.56L3143.44 1408.38 3113.17 1408.38C3113.67 1412.99 3115.16 1416.77 3117.65 1419.73 3120.14 1422.69 3123.6 1424.22 3128.02 1424.32 3130.27 1424.36 3132.45 1423.87 3134.56 1422.87 3136.68 1421.86 3138.35 1420.12 3139.57 1417.63L3140.06 1418.05C3138.88 1422.21 3136.78 1425.32 3133.77 1427.37 3130.76 1429.42 3127.46 1430.44 3123.89 1430.44 3120.3 1430.4 3117.03 1429.43 3114.09 1427.51 3111.15 1425.6 3108.8 1422.93 3107.04 1419.51 3105.28 1416.09 3104.38 1412.1 3104.34 1407.56 3104.36 1403.33 3105.2 1399.53 3106.86 1396.17 3108.52 1392.82 3110.88 1390.15 3113.94 1388.19 3117.01 1386.22 3120.65 1385.22 3124.88 1385.17ZM3080.19 1385.17C3085.88 1385.33 3090.37 1387.38 3093.68 1391.32 3096.99 1395.26 3098.68 1400.67 3098.76 1407.56L3098.76 1408.38 3068.48 1408.38C3068.98 1412.99 3070.47 1416.77 3072.96 1419.73 3075.45 1422.69 3078.91 1424.22 3083.33 1424.32 3085.58 1424.36 3087.76 1423.87 3089.88 1422.87 3091.99 1421.86 3093.66 1420.12 3094.88 1417.63L3095.37 1418.05C3094.19 1422.21 3092.1 1425.32 3089.08 1427.37 3086.07 1429.42 3082.77 1430.44 3079.2 1430.44 3075.61 1430.4 3072.34 1429.43 3069.4 1427.51 3066.46 1425.6 3064.11 1422.93 3062.35 1419.51 3060.6 1416.09 3059.69 1412.1 3059.65 1407.56 3059.67 1403.33 3060.51 1399.53 3062.17 1396.17 3063.83 1392.82 3066.19 1390.15 3069.26 1388.19 3072.32 1386.22 3075.97 1385.22 3080.19 1385.17ZM2895.72 1385.17C2902.33 1385.27 2907.58 1387.33 2911.46 1391.37 2915.34 1395.41 2917.33 1400.86 2917.42 1407.72 2917.32 1414.63 2915.31 1420.12 2911.41 1424.19 2907.5 1428.26 2902.3 1430.34 2895.81 1430.44 2889.27 1430.33 2884.03 1428.21 2880.09 1424.08 2876.15 1419.94 2874.13 1414.44 2874.03 1407.56 2874.11 1400.77 2876.1 1395.37 2879.99 1391.35 2883.87 1387.33 2889.12 1385.27 2895.72 1385.17ZM2628.04 1385.17C2630.78 1385.19 2633.32 1385.6 2635.67 1386.43 2638.03 1387.25 2639.93 1388.41 2641.38 1389.9 2642.84 1391.39 2643.59 1393.15 2643.63 1395.17 2643.6 1396.76 2643.16 1398 2642.31 1398.91 2641.46 1399.81 2640.36 1400.27 2639.01 1400.29 2637.61 1400.29 2636.41 1399.82 2635.43 1398.89 2634.45 1397.95 2633.94 1396.58 2633.9 1394.76 2635.01 1392.61 2634.95 1390.59 2633.7 1388.7 2632.45 1386.8 2630.51 1385.8 2627.87 1385.67 2625.84 1385.72 2624.17 1386.39 2622.84 1387.68 2621.51 1388.98 2620.83 1390.62 2620.78 1392.61 2620.9 1395.19 2622.09 1397.36 2624.36 1399.12 2626.63 1400.88 2629.26 1402.58 2632.25 1404.21 2635.23 1405.85 2637.86 1407.77 2640.13 1409.98 2642.4 1412.2 2643.59 1415.05 2643.71 1418.54 2643.64 1422.33 2642.24 1425.26 2639.5 1427.34 2636.75 1429.41 2633.1 1430.45 2628.53 1430.44 2625.82 1430.42 2623.29 1430.01 2620.93 1429.18 2618.58 1428.36 2616.67 1427.19 2615.2 1425.69 2613.74 1424.18 2612.99 1422.41 2612.94 1420.36 2612.96 1418.81 2613.39 1417.57 2614.23 1416.65 2615.07 1415.73 2616.18 1415.26 2617.56 1415.24 2618.93 1415.25 2620.11 1415.73 2621.12 1416.68 2622.12 1417.64 2622.67 1419.03 2622.76 1420.85 2621.56 1423 2621.58 1425.02 2622.83 1426.91 2624.08 1428.81 2626.06 1429.81 2628.78 1429.94 2631.02 1429.88 2632.86 1429.13 2634.3 1427.68 2635.74 1426.23 2636.49 1424.42 2636.54 1422.26 2636.42 1419.59 2635.23 1417.35 2632.97 1415.54 2630.7 1413.73 2628.09 1412 2625.11 1410.37 2622.13 1408.73 2619.52 1406.84 2617.25 1404.7 2614.99 1402.56 2613.8 1399.82 2613.68 1396.49 2613.74 1393.09 2615.05 1390.37 2617.61 1388.32 2620.17 1386.28 2623.65 1385.23 2628.04 1385.17ZM2588.63 1385.17C2594.31 1385.33 2598.81 1387.38 2602.12 1391.32 2605.43 1395.26 2607.12 1400.67 2607.19 1407.56L2607.19 1408.38 2576.92 1408.38C2577.42 1412.99 2578.91 1416.77 2581.4 1419.73 2583.89 1422.69 2587.35 1424.22 2591.77 1424.32 2594.02 1424.36 2596.2 1423.87 2598.31 1422.87 2600.43 1421.86 2602.1 1420.12 2603.32 1417.63L2603.81 1418.05C2602.63 1422.21 2600.53 1425.32 2597.52 1427.37 2594.51 1429.42 2591.21 1430.44 2587.64 1430.44 2584.05 1430.4 2580.78 1429.43 2577.84 1427.51 2574.9 1425.6 2572.55 1422.93 2570.79 1419.51 2569.03 1416.09 2568.13 1412.1 2568.09 1407.56 2568.11 1403.33 2568.95 1399.53 2570.61 1396.17 2572.27 1392.82 2574.63 1390.15 2577.69 1388.19 2580.76 1386.22 2584.4 1385.22 2588.63 1385.17ZM2513.67 1385.17C2515.44 1385.21 2517.18 1385.64 2518.88 1386.46 2520.59 1387.27 2522 1388.41 2523.13 1389.87 2524.26 1391.33 2524.84 1393.04 2524.89 1395 2524.86 1396.67 2524.43 1397.96 2523.6 1398.89 2522.76 1399.81 2521.65 1400.28 2520.27 1400.29 2518.86 1400.29 2517.67 1399.82 2516.69 1398.89 2515.71 1397.95 2515.19 1396.58 2515.15 1394.76 2516.34 1392.62 2516.58 1390.64 2515.89 1388.82 2515.2 1387 2513.88 1386.03 2511.93 1385.92 2509.72 1386.02 2507.81 1387.34 2506.21 1389.88 2504.61 1392.42 2503.71 1395.56 2503.52 1399.3L2503.52 1421.93C2503.52 1423.2 2503.74 1424.5 2504.16 1425.82 2504.58 1427.14 2505.16 1428.3 2505.91 1429.28L2506.08 1429.53 2503.02 1429.53C2500.55 1429.49 2498.58 1428.74 2497.11 1427.27 2495.64 1425.79 2494.89 1423.82 2494.86 1421.35L2494.86 1393.6C2494.85 1392.33 2494.62 1391.05 2494.17 1389.74 2493.73 1388.43 2493.13 1387.27 2492.38 1386.25L2492.22 1386.08 2495.35 1386.08C2497.82 1386.11 2499.77 1386.84 2501.23 1388.25 2502.68 1389.67 2503.45 1391.59 2503.52 1394.01 2504.26 1391.55 2505.46 1389.48 2507.14 1387.8 2508.81 1386.12 2510.99 1385.24 2513.67 1385.17ZM2468.32 1385.17C2474 1385.33 2478.5 1387.38 2481.81 1391.32 2485.12 1395.26 2486.81 1400.67 2486.88 1407.56L2486.88 1408.38 2456.6 1408.38C2457.1 1412.99 2458.6 1416.77 2461.09 1419.73 2463.58 1422.69 2467.03 1424.22 2471.45 1424.32 2473.7 1424.36 2475.89 1423.87 2478 1422.87 2480.12 1421.86 2481.78 1420.12 2483 1417.63L2483.5 1418.05C2482.32 1422.21 2480.22 1425.32 2477.21 1427.37 2474.19 1429.42 2470.9 1430.44 2467.33 1430.44 2463.74 1430.4 2460.47 1429.43 2457.53 1427.51 2454.59 1425.6 2452.24 1422.93 2450.48 1419.51 2448.72 1416.09 2447.82 1412.1 2447.78 1407.56 2447.8 1403.33 2448.64 1399.53 2450.3 1396.17 2451.96 1392.82 2454.32 1390.15 2457.38 1388.19 2460.45 1386.22 2464.09 1385.22 2468.32 1385.17ZM2428.66 1385.17C2431.4 1385.19 2433.95 1385.6 2436.3 1386.43 2438.65 1387.25 2440.56 1388.41 2442.01 1389.9 2443.46 1391.39 2444.21 1393.15 2444.26 1395.17 2444.23 1396.76 2443.79 1398 2442.94 1398.91 2442.08 1399.81 2440.98 1400.27 2439.64 1400.29 2438.23 1400.29 2437.04 1399.82 2436.06 1398.89 2435.08 1397.95 2434.56 1396.58 2434.52 1394.76 2435.64 1392.61 2435.57 1390.59 2434.32 1388.7 2433.08 1386.8 2431.14 1385.8 2428.5 1385.67 2426.47 1385.72 2424.79 1386.39 2423.47 1387.68 2422.14 1388.98 2421.45 1390.62 2421.4 1392.61 2421.52 1395.19 2422.72 1397.36 2424.99 1399.12 2427.26 1400.88 2429.88 1402.58 2432.87 1404.21 2435.86 1405.85 2438.48 1407.77 2440.75 1409.98 2443.02 1412.2 2444.22 1415.05 2444.34 1418.54 2444.27 1422.33 2442.86 1425.26 2440.12 1427.34 2437.38 1429.41 2433.72 1430.45 2429.16 1430.44 2426.45 1430.42 2423.91 1430.01 2421.56 1429.18 2419.2 1428.36 2417.3 1427.19 2415.83 1425.69 2414.36 1424.18 2413.61 1422.41 2413.57 1420.36 2413.59 1418.81 2414.02 1417.57 2414.85 1416.65 2415.69 1415.73 2416.8 1415.26 2418.19 1415.24 2419.55 1415.25 2420.74 1415.73 2421.74 1416.68 2422.75 1417.64 2423.3 1419.03 2423.38 1420.85 2422.19 1423 2422.21 1425.02 2423.46 1426.91 2424.7 1428.81 2426.68 1429.81 2429.41 1429.94 2431.64 1429.88 2433.48 1429.13 2434.92 1427.68 2436.36 1426.23 2437.11 1424.42 2437.16 1422.26 2437.04 1419.59 2435.85 1417.35 2433.59 1415.54 2431.33 1413.73 2428.71 1412 2425.73 1410.37 2422.76 1408.73 2420.14 1406.84 2417.88 1404.7 2415.62 1402.56 2414.43 1399.82 2414.31 1396.49 2414.36 1393.09 2415.67 1390.37 2418.24 1388.32 2420.8 1386.28 2424.28 1385.23 2428.66 1385.17ZM2342.29 1385.17C2348.89 1385.27 2354.14 1387.33 2358.02 1391.37 2361.91 1395.41 2363.89 1400.86 2363.98 1407.72 2363.88 1414.63 2361.88 1420.12 2357.97 1424.19 2354.06 1428.26 2348.86 1430.34 2342.37 1430.44 2335.83 1430.33 2330.59 1428.21 2326.65 1424.08 2322.71 1419.94 2320.69 1414.44 2320.59 1407.56 2320.68 1400.77 2322.66 1395.37 2326.55 1391.35 2330.43 1387.33 2335.68 1385.27 2342.29 1385.17ZM3148.04 1368.66 3149.19 1368.66C3152.25 1368.7 3154.69 1369.64 3156.52 1371.47 3158.35 1373.31 3159.29 1375.75 3159.34 1378.82L3159.34 1407.89 3175.1 1391.95C3175.85 1391.18 3176.38 1390.28 3176.7 1389.24 3177.02 1388.21 3177.07 1387.18 3176.83 1386.17L3176.83 1386.08 3184.09 1386.08 3181.61 1387.65C3180.69 1388.21 3179.75 1388.87 3178.81 1389.65 3177.86 1390.42 3177.01 1391.19 3176.25 1391.95L3167.67 1400.62 3181.04 1422.92C3181.63 1423.89 3182.36 1424.84 3183.21 1425.78 3184.07 1426.72 3184.94 1427.53 3185.82 1428.21L3187.55 1429.44 3184.75 1429.44C3181.67 1429.41 3178.75 1428.61 3175.99 1427.06 3173.23 1425.51 3171.04 1423.41 3169.4 1420.77L3161.24 1407.06 3159.34 1409.04 3159.34 1421.93C3159.34 1423.2 3159.56 1424.5 3159.98 1425.82 3160.4 1427.14 3160.98 1428.3 3161.73 1429.28L3161.9 1429.53 3160.82 1429.53C3157.73 1429.49 3155.27 1428.56 3153.46 1426.74 3151.65 1424.92 3150.72 1422.47 3150.68 1419.37L3150.68 1376.25C3150.67 1374.95 3150.44 1373.65 3149.99 1372.35 3149.55 1371.05 3148.95 1369.87 3148.2 1368.82ZM2994.48 1368.66 3009.82 1368.66 3009.74 1368.82C3009.12 1369.88 3008.73 1371.03 3008.58 1372.28 3008.44 1373.53 3008.55 1374.75 3008.91 1375.92L3022.2 1417.72 3029.21 1397.07 3022.2 1375.92C3021.81 1374.75 3021.24 1373.59 3020.49 1372.47 3019.75 1371.34 3018.91 1370.37 3017.99 1369.57L3017.08 1368.66 3032.43 1368.66 3032.34 1368.82C3031.72 1369.88 3031.33 1371.03 3031.18 1372.28 3031.02 1373.53 3031.11 1374.75 3031.44 1375.92L3044.72 1417.72 3058.91 1375.92C3059.28 1374.75 3059.39 1373.53 3059.24 1372.28 3059.09 1371.03 3058.71 1369.88 3058.08 1368.82L3058 1368.66 3064.6 1368.66 3063.61 1369.57C3062.73 1370.37 3061.91 1371.34 3061.17 1372.47 3060.42 1373.59 3059.83 1374.75 3059.4 1375.92L3041.25 1429.53 3039.85 1429.53 3029.46 1397.89 3018.73 1429.53 3017.33 1429.53 2999.59 1375.92C2999.24 1374.75 2998.7 1373.59 2997.96 1372.47 2997.22 1371.34 2996.39 1370.37 2995.47 1369.57ZM2921.16 1368.66 2922.32 1368.66C2925.37 1368.7 2927.82 1369.64 2929.65 1371.47 2931.48 1373.31 2932.42 1375.75 2932.46 1378.82L2932.46 1421.93C2932.47 1423.2 2932.68 1424.5 2933.1 1425.82 2933.52 1427.14 2934.11 1428.3 2934.86 1429.28L2935.02 1429.53 2933.95 1429.53C2930.85 1429.49 2928.4 1428.56 2926.58 1426.74 2924.77 1424.92 2923.84 1422.47 2923.8 1419.37L2923.8 1376.25C2923.79 1374.95 2923.56 1373.65 2923.12 1372.35 2922.68 1371.05 2922.08 1369.87 2921.33 1368.82ZM2822.55 1368.66 2823.7 1368.66C2826.76 1368.7 2829.2 1369.64 2831.03 1371.47 2832.86 1373.31 2833.8 1375.75 2833.85 1378.82L2833.85 1398.8 2857.11 1398.8 2857.11 1376.17C2857.1 1374.91 2856.88 1373.63 2856.43 1372.34 2855.99 1371.05 2855.39 1369.88 2854.64 1368.82L2854.47 1368.66 2855.63 1368.66C2858.72 1368.7 2861.18 1369.64 2862.99 1371.47 2864.81 1373.31 2865.73 1375.75 2865.78 1378.82L2865.78 1421.93C2865.79 1423.2 2866.01 1424.5 2866.46 1425.82 2866.9 1427.14 2867.5 1428.3 2868.25 1429.28L2868.42 1429.53 2867.26 1429.53C2864.17 1429.49 2861.71 1428.56 2859.9 1426.74 2858.08 1424.92 2857.15 1422.47 2857.11 1419.37L2857.11 1399.3 2833.85 1399.3 2833.85 1421.93C2833.86 1423.2 2834.07 1424.5 2834.49 1425.82 2834.91 1427.14 2835.49 1428.3 2836.24 1429.28L2836.41 1429.53 2835.33 1429.53C2832.24 1429.49 2829.78 1428.56 2827.97 1426.74 2826.16 1424.92 2825.23 1422.47 2825.19 1419.37L2825.19 1376.17C2825.18 1374.91 2824.95 1373.63 2824.51 1372.34 2824.06 1371.05 2823.46 1369.88 2822.71 1368.82ZM2367.97 1368.66 2369.13 1368.66C2372.18 1368.7 2374.63 1369.64 2376.46 1371.47 2378.29 1373.31 2379.23 1375.75 2379.27 1378.82L2379.27 1398.31C2380.03 1394.15 2381.43 1390.93 2383.48 1388.64 2385.53 1386.36 2388.42 1385.21 2392.14 1385.17 2397.31 1385.27 2401.49 1387.35 2404.69 1391.4 2407.89 1395.45 2409.54 1400.89 2409.63 1407.72 2409.63 1414.52 2407.84 1419.98 2404.24 1424.1 2400.64 1428.21 2395.24 1430.33 2388.02 1430.44 2385.32 1430.43 2382.92 1430.11 2380.79 1429.49 2378.66 1428.86 2376.89 1427.96 2375.48 1426.8L2371.44 1429.53 2370.61 1429.53 2370.61 1376.25C2370.6 1374.95 2370.37 1373.65 2369.93 1372.35 2369.49 1371.05 2368.89 1369.87 2368.14 1368.82ZM2285.94 1339.91C2264.05 1347.99 2242.76 1362.95 2222.07 1384.79 2201.38 1406.62 2191.04 1424.24 2191.04 1437.65 2191.04 1439.42 2191.21 1440.31 2191.55 1440.31 2202.71 1440.31 2234.17 1406.84 2285.94 1339.91ZM2782.72 1334.62C2771.93 1348.79 2756.56 1366.22 2736.62 1386.9 2724.77 1406.39 2717.37 1420.24 2714.4 1428.46L2713.22 1433.55 2713.88 1433.38C2719.88 1430.77 2732.13 1419.02 2750.61 1398.12 2771.74 1374.25 2782.31 1355.14 2782.31 1340.78 2782.31 1338.15 2782.44 1336.1 2782.72 1334.62ZM2464.36 1258.39C2443.28 1280.13 2432.74 1297.7 2432.74 1311.11 2432.74 1314.71 2434.34 1316.51 2437.53 1316.51 2446.05 1316.51 2459.94 1306.81 2479.19 1287.4 2468.24 1285.35 2462.76 1277.54 2462.76 1263.97 2462.76 1260.45 2463.29 1258.59 2464.36 1258.39ZM3282.43 1238.3C3274.55 1238.3 3260.64 1248.7 3240.69 1269.51 3230.72 1279.92 3223.24 1288.79 3218.25 1296.14L3210.78 1313.58 3210.5 1313.73C3210.68 1313.73 3210.77 1313.69 3210.77 1313.61L3210.78 1313.58 3225.54 1305.69C3232.42 1300.33 3241.17 1292.29 3251.79 1281.58 3273.03 1260.14 3283.68 1246.28 3283.73 1239.98 3283.73 1238.86 3283.29 1238.3 3282.43 1238.3ZM3135.52 1236.11C3129.01 1236.11 3114.11 1247.19 3090.83 1269.35 3067.54 1291.51 3055.9 1305.87 3055.9 1312.43 3055.9 1313.3 3056.2 1313.73 3056.8 1313.73 3063.16 1313.73 3078.15 1302.86 3101.76 1281.12 3125.36 1259.38 3137.18 1245.2 3137.21 1238.57 3137.21 1236.93 3136.65 1236.11 3135.52 1236.11ZM1928.49 1236.11C1921.98 1236.11 1907.08 1247.19 1883.8 1269.35 1860.51 1291.51 1848.87 1305.87 1848.87 1312.43 1848.87 1313.3 1849.17 1313.73 1849.77 1313.73 1856.13 1313.73 1871.12 1302.86 1894.72 1281.12 1918.33 1259.38 1930.15 1245.2 1930.18 1238.57 1930.18 1236.93 1929.62 1236.11 1928.49 1236.11ZM1546.79 1236.11C1540.28 1236.11 1525.38 1247.19 1502.09 1269.35 1478.81 1291.51 1467.17 1305.87 1467.17 1312.43 1467.17 1313.3 1467.47 1313.73 1468.07 1313.73 1474.43 1313.73 1489.41 1302.86 1513.02 1281.12 1536.63 1259.38 1548.45 1245.2 1548.48 1238.57 1548.48 1236.93 1547.91 1236.11 1546.79 1236.11ZM2503.43 1235.11C2498.4 1235.11 2493.02 1238.69 2487.28 1245.84 2481.54 1252.99 2478.67 1259.39 2478.67 1265.03 2478.67 1270.25 2481.17 1273.49 2486.18 1274.77 2489.77 1271.13 2493.68 1265.97 2497.91 1259.27 2503.24 1250.06 2505.9 1243.17 2505.9 1238.58 2505.9 1236.27 2505.08 1235.11 2503.43 1235.11ZM2830.49 1234.12C2820.1 1234.12 2802.55 1245.18 2777.83 1267.31 2753.11 1289.45 2740.76 1305.21 2740.76 1314.61 2740.76 1314.95 2740.8 1315.12 2740.89 1315.12 2750.61 1315.12 2768.09 1304.2 2793.34 1282.36 2818.59 1260.52 2831.21 1245 2831.21 1235.79 2831.21 1234.68 2830.97 1234.12 2830.49 1234.12ZM1094.25 1205.66 1063.04 1206.41 1039 1235.11 1071.63 1234.05ZM1095.28 1139.58C1100.53 1139.58 1103.16 1142.08 1103.16 1147.07 1103.16 1149.55 1093.15 1162.91 1073.13 1187.15L1104.72 1185.7 1123.71 1161.01C1134.52 1146.99 1142.14 1139.98 1146.57 1139.98 1151.69 1139.98 1154.25 1142.41 1154.25 1147.27 1154.25 1151.27 1144.37 1163.83 1124.62 1184.96L1135.25 1184.56C1142.22 1184.56 1145.7 1187.19 1145.7 1192.46 1145.7 1200.2 1140.25 1204.66 1129.33 1205.86L1114.24 1205.46 1091.68 1233.72 1100.44 1233.59C1109.41 1233.41 1113.89 1236.48 1113.89 1242.8 1113.89 1250.94 1102.93 1254.95 1081.01 1254.82L1034.05 1324.85C1031.34 1330.57 1028.23 1333.43 1024.74 1333.43 1019.23 1333.43 1016.48 1330.61 1016.48 1324.96 1016.48 1321.86 1021.82 1311.93 1032.5 1295.15L1061.31 1255.02 1028.29 1255.58C1015.47 1273.85 1000.88 1296.65 984.539 1323.98 979.629 1332.14 974.814 1336.22 970.095 1336.22 965.364 1336.22 963 1333.72 963 1328.72 963 1321.44 978.144 1297.14 1008.43 1255.81L994.908 1256C986.226 1256.13 981.886 1253.7 981.886 1248.7 981.886 1241.24 993.995 1236.96 1018.21 1235.86L1041.97 1206.85C1042.54 1206.85 1040.24 1206.98 1035.07 1207.25L1023.88 1207.45C1015.77 1207.45 1011.71 1204.69 1011.71 1199.17 1011.71 1193.24 1018.91 1189.66 1033.33 1188.42L1051.83 1187.87 1070.79 1162.65C1082.39 1147.27 1090.56 1139.58 1095.28 1139.58ZM1541.91 1056.59C1555.22 1056.59 1561.88 1062.92 1561.88 1075.58 1561.88 1085.59 1558.07 1096.3 1550.45 1107.7 1544.26 1116.63 1509.65 1154.21 1446.61 1220.41 1396.09 1276.68 1370.83 1309.35 1370.83 1318.42 1370.83 1319.53 1373.34 1320.28 1378.38 1320.67L1378.53 1320.79 1379.71 1319.56C1391.29 1317.71 1407.59 1308.55 1428.62 1292.08L1453.78 1272.37 1494.1 1240.22C1513.44 1226.86 1530.08 1220.19 1544.02 1220.19 1556.23 1220.19 1562.73 1225.07 1563.54 1234.84 1565.41 1229.98 1567.86 1227.55 1570.89 1227.55 1577.95 1227.55 1581.48 1230.66 1581.48 1236.87 1581.48 1242.35 1571.5 1256.76 1551.56 1280.07 1531.61 1303.39 1521.64 1316.51 1521.64 1319.44 1521.64 1319.61 1523.76 1319.76 1528 1319.89L1532.67 1321.74 1536.39 1319.62C1545.57 1317.36 1552.18 1315.12 1556.23 1312.89 1564.99 1308.3 1582.36 1295.66 1608.36 1274.97 1620.27 1265.67 1637.06 1251.21 1658.71 1231.58 1668 1221.86 1675.04 1217 1679.83 1217 1689.89 1217 1694.92 1220.66 1694.92 1227.99 1694.92 1234.84 1687.58 1245.9 1672.91 1261.19 1697.4 1235.18 1715.57 1222.18 1727.41 1222.18 1731.94 1222.18 1736.17 1223.67 1740.1 1226.67 1744.04 1229.67 1746.01 1233.52 1746.01 1238.25 1746.01 1244.24 1742.5 1250.52 1735.48 1257.08 1757.91 1231.16 1777.21 1218.19 1793.37 1218.19 1804.87 1218.19 1810.62 1223.04 1810.62 1232.74 1810.62 1242.88 1799.95 1258.91 1778.61 1280.81 1757.27 1302.72 1746.6 1315.38 1746.6 1318.8 1746.6 1319.61 1748.86 1320.05 1753.36 1320.12L1757.21 1321.5 1761.42 1319.56C1772.99 1317.71 1789.3 1308.55 1810.32 1292.08L1835.48 1272.37 1875.8 1240.22C1895.14 1226.86 1911.78 1220.19 1925.72 1220.19 1937.93 1220.19 1944.44 1225.07 1945.24 1234.84 1947.11 1229.98 1949.57 1227.55 1952.6 1227.55 1959.65 1227.55 1963.18 1230.66 1963.18 1236.87 1963.18 1242.35 1953.21 1256.76 1933.26 1280.07 1913.31 1303.39 1903.34 1316.51 1903.34 1319.44 1903.34 1319.61 1905.46 1319.76 1909.7 1319.89 1913.94 1320.02 1916.06 1322.41 1916.06 1327.06 1916.06 1332.37 1910.27 1335.02 1898.67 1335.02 1887.34 1335.02 1881.67 1329.85 1881.67 1319.52 1881.67 1312.62 1885.21 1305.22 1892.28 1297.31L1874.33 1317.2C1861.97 1326.43 1851.79 1331.04 1843.78 1331.04 1829.94 1331.04 1823.02 1324.05 1823.02 1310.07 1823.02 1303.29 1824.52 1297.72 1827.51 1293.36 1796.48 1320.74 1773.9 1334.43 1759.76 1334.43L1756.02 1333.13 1751.38 1334.53C1749.44 1334.86 1747.18 1335.02 1744.59 1335.02 1731.75 1335.02 1725.33 1329.2 1725.33 1317.55 1725.33 1306.36 1734.64 1290.17 1753.26 1268.99 1767.23 1253.11 1775.96 1242.78 1779.45 1238L1779.96 1237.14 1779.3 1237.26C1771.39 1239.88 1756.28 1251.66 1733.95 1272.59 1712.48 1292.68 1695.7 1309.52 1683.59 1323.1 1678.41 1330.91 1673.65 1334.82 1669.32 1334.82 1661.6 1334.82 1657.74 1331.15 1657.74 1323.81 1657.74 1317.99 1667.94 1303.69 1688.35 1280.9 1703.66 1263.81 1713.23 1251.91 1717.06 1245.2L1718.77 1240.74 1716.52 1241.2C1709.66 1243.6 1696.05 1254.4 1675.67 1273.6 1655.32 1292.84 1640.92 1307.93 1632.48 1318.85 1625.09 1328.44 1618.22 1333.23 1611.88 1333.23 1604.81 1333.23 1601.28 1329.95 1601.28 1323.39 1601.28 1317.5 1610.59 1302.93 1629.22 1279.67L1659.89 1247.06 1604.86 1297.33C1572.38 1322.06 1549.37 1334.43 1535.83 1334.43 1533.72 1334.43 1532.14 1333.88 1531.09 1332.78L1530.94 1332.32 1530.01 1333.03C1527.11 1334.36 1522.77 1335.02 1516.97 1335.02 1505.64 1335.02 1499.97 1329.85 1499.97 1319.52 1499.97 1312.62 1503.5 1305.22 1510.58 1297.31L1492.62 1317.2C1480.27 1326.43 1470.08 1331.04 1462.07 1331.04 1448.24 1331.04 1441.32 1324.05 1441.32 1310.07 1441.32 1303.29 1442.82 1297.72 1445.81 1293.36 1414.78 1320.74 1392.19 1334.43 1378.05 1334.43L1377.91 1334.28 1369.88 1335.82C1356.07 1335.82 1349.16 1329.23 1349.16 1316.04 1349.16 1295.4 1373.71 1257.67 1422.81 1202.84 1440.2 1183.45 1472.44 1150.1 1519.55 1102.81 1531.07 1091.27 1538.27 1082.54 1541.15 1076.62L1542.49 1071.99 1539.12 1072.71C1528.58 1076.43 1505.42 1093.18 1469.64 1122.96 1436.66 1150.43 1411.95 1172.41 1395.48 1188.89 1379.54 1204.83 1358.93 1226.99 1333.64 1255.36 1286.74 1308.07 1261.95 1334.43 1259.25 1334.43 1256.24 1334.43 1253.01 1332.82 1249.56 1329.61 1246.11 1326.4 1244.39 1323.24 1244.39 1320.11 1244.39 1314.08 1271.99 1278.44 1327.2 1213.21 1375.5 1156.13 1402.67 1120.44 1408.7 1106.13L1409.96 1101.4 1403.84 1103.27C1395.61 1107.07 1381.38 1116.58 1361.13 1131.8 1335.89 1150.86 1308.06 1174.9 1277.64 1203.91L1198.1 1282.7 1171.11 1311.81C1154.88 1329.27 1145.56 1338.01 1143.16 1338.01 1140.21 1338.01 1137.07 1336.89 1133.75 1334.67 1128.65 1331.44 1126.1 1328.08 1126.1 1324.59 1126.1 1319.31 1142.74 1298.04 1176.02 1260.78L1267.06 1158.48C1299.13 1120.64 1315.16 1097.65 1315.16 1089.52 1315.16 1088.79 1314.8 1088.43 1314.07 1088.43 1305.74 1088.43 1287.12 1100.15 1258.21 1123.59 1236.15 1141.51 1204.67 1173.18 1163.76 1218.61 1160.4 1222.31 1157.3 1224.17 1154.45 1224.17 1148.93 1224.17 1146.18 1221.74 1146.18 1216.87 1146.18 1212.47 1157.55 1199 1180.29 1176.48 1197.35 1153.57 1218.36 1131.81 1243.32 1111.18 1276.16 1084.07 1300.21 1070.52 1315.45 1070.52 1327.85 1070.52 1334.05 1077.11 1334.05 1090.28 1334.05 1108.85 1310.66 1144.94 1263.88 1198.54 1339.88 1122.61 1388.62 1084.65 1410.09 1084.65 1422.48 1084.65 1428.68 1090.91 1428.68 1103.43 1428.68 1119.88 1410.17 1149.9 1373.15 1193.47 1459.35 1102.22 1515.61 1056.59 1541.91 1056.59ZM2830.44 1053.4C2858.81 1053.4 2873 1062.66 2873 1081.18 2873 1096.11 2860.57 1113.23 2835.7 1132.54 2812 1150.9 2792.38 1160.08 2776.82 1160.08 2762.48 1160.08 2755.31 1154.72 2755.31 1144.01 2755.31 1135.88 2764.73 1126.62 2783.56 1116.23 2792.72 1107.65 2801.28 1103.36 2809.25 1103.36 2814.51 1103.36 2817.14 1106.24 2817.14 1112.02L2794.83 1124.16C2788.76 1127.46 2784.16 1130.08 2781.06 1131.99L2778.8 1133.49 2782.95 1132.87C2791.71 1130.6 2803.9 1124.91 2819.51 1115.82 2840.99 1103.28 2851.73 1093.49 2851.73 1086.42 2851.73 1081.53 2843.95 1079.08 2828.41 1079.08 2808.18 1079.08 2779.28 1085.03 2741.72 1096.92 2716.24 1105 2694.06 1113.52 2675.17 1122.46 2643.51 1137.33 2627.68 1150.26 2627.68 1161.25 2627.68 1167.18 2636.84 1171.84 2655.15 1175.24L2718.67 1183.44C2743.96 1187.22 2759.07 1192.52 2763.99 1199.34 2771.45 1209.17 2775.19 1218.45 2775.19 1227.17L2771.16 1239.36 2798.34 1222.72C2807.42 1218.78 2815.91 1216.8 2823.82 1216.8 2838.95 1216.8 2846.52 1222.74 2846.52 1234.6 2846.52 1239.41 2845.28 1243.05 2842.81 1245.54 2847.14 1246.69 2849.3 1250 2849.3 1255.45 2849.3 1257.4 2830.55 1278.89 2793.03 1319.9L2803.41 1319.9 2804.57 1320.31 2805.71 1319.77C2810.6 1318.85 2815.43 1317.68 2820.22 1316.28 2829.06 1311.35 2845.47 1299.44 2869.45 1280.57 2880.78 1271.73 2897.04 1258.23 2918.22 1240.08 2921.95 1236.2 2927.97 1230.91 2936.28 1224.2 2940.46 1221.52 2944.27 1220.19 2947.74 1220.19 2958.06 1220.19 2963.22 1223.98 2963.22 1231.57 2963.22 1237.6 2954.11 1250.68 2935.88 1270.81 2922.21 1285.9 2913.67 1297.48 2910.25 1305.53L2908.76 1311.53 2910.84 1311.04C2918.86 1307.79 2934.64 1293.16 2958.18 1267.15 2985.07 1237.43 3000.92 1222.57 3005.72 1222.57 3008.73 1222.57 3011.51 1223.94 3014.06 1226.69 3016.61 1229.43 3017.89 1232.24 3017.89 1235.14 3017.89 1239.19 3007.88 1252.82 2987.87 1276.04 2967.86 1299.25 2957.85 1313.63 2957.85 1319.2 2957.85 1319.66 2960.04 1319.96 2964.41 1320.08L2966 1320.69 2968.45 1319.56C2980.03 1317.71 2996.33 1308.55 3017.35 1292.08L3042.51 1272.37 3082.83 1240.22C3102.17 1226.86 3118.81 1220.19 3132.76 1220.19 3144.96 1220.19 3151.47 1225.07 3152.27 1234.84 3154.14 1229.98 3156.6 1227.55 3159.63 1227.55 3166.68 1227.55 3170.21 1230.66 3170.21 1236.87 3170.21 1242.35 3160.24 1256.76 3140.29 1280.07 3120.34 1303.39 3110.37 1316.51 3110.37 1319.44 3110.37 1319.61 3112.49 1319.76 3116.73 1319.89L3118.42 1320.56 3120.04 1319.62C3129.79 1317.22 3140.05 1313.48 3150.81 1308.4 3159.9 1301.66 3175.59 1288.55 3197.9 1269.07 3220.2 1249.6 3237.52 1236.22 3249.87 1228.94 3259.08 1223.5 3267.5 1220.78 3275.13 1220.78 3289.31 1220.78 3296.53 1225.56 3296.8 1235.13 3311.71 1211.75 3331.3 1188.14 3355.57 1164.31 3394.95 1115.85 3418.95 1091.62 3427.59 1091.62 3434.53 1091.62 3438 1095.28 3438 1102.61 3438 1107.56 3432.35 1115.96 3421.05 1127.84 3401.26 1148.42 3372.08 1181.38 3333.51 1226.71 3286.54 1281.89 3263.05 1312.65 3263.05 1319 3263.05 1319.47 3265.17 1319.76 3269.41 1319.89 3273.66 1320.02 3275.78 1322.41 3275.78 1327.06 3275.78 1332.37 3271.28 1335.02 3262.29 1335.02 3249.41 1335.02 3242.97 1329.46 3242.97 1318.34 3242.97 1310.8 3247.23 1301.58 3255.75 1290.67 3234 1317.98 3217.12 1331.64 3205.11 1331.64 3192.45 1331.64 3186.12 1324.99 3186.12 1311.68 3186.12 1305.08 3188.98 1297.06 3194.7 1287.6L3164.37 1315.01C3145.3 1327.96 3130.33 1334.43 3119.47 1334.43L3116.87 1333.55 3113.31 1334.53C3111.14 1334.86 3108.6 1335.02 3105.7 1335.02 3094.37 1335.02 3088.7 1329.85 3088.7 1319.52 3088.7 1312.62 3092.24 1305.22 3099.31 1297.31L3081.36 1317.2C3069 1326.43 3058.82 1331.04 3050.81 1331.04 3036.97 1331.04 3030.05 1324.05 3030.05 1310.07 3030.05 1303.29 3031.55 1297.72 3034.54 1293.36 3003.51 1320.74 2980.93 1334.43 2966.79 1334.43L2964.88 1333.77 2963.11 1334.34C2961.37 1334.66 2959.33 1334.82 2957 1334.82 2943.39 1334.82 2936.58 1329.33 2936.58 1318.34 2936.58 1311.7 2939.3 1304.83 2944.75 1297.72 2925.92 1319.8 2910.59 1330.84 2898.77 1330.84 2888.06 1330.84 2882.7 1325.03 2882.7 1313.42 2882.7 1302 2887.54 1289.5 2897.23 1275.93L2921.91 1252.31 2873.33 1297.21C2840.73 1322.02 2817.6 1334.43 2803.93 1334.43L2803.26 1334.2 2801.77 1334.63C2799.91 1334.89 2797.74 1334.95 2795.26 1334.82 2796.43 1336.09 2797.02 1338.14 2797.02 1340.98 2797.02 1355.91 2785.5 1377.63 2762.46 1406.12 2739.05 1435.28 2720.42 1449.86 2706.56 1449.86 2696.62 1449.86 2691.65 1444.11 2691.65 1432.62 2691.65 1416.44 2705.48 1391.93 2733.14 1359.07L2784.93 1302.21C2763.52 1323.02 2747.36 1333.43 2736.44 1333.43 2722.09 1333.43 2714.91 1326.51 2714.91 1312.67L2722.76 1294.15 2706.82 1305.9C2693.59 1313.69 2679.19 1320.38 2663.62 1325.96 2634.28 1336.38 2604.13 1341.59 2573.16 1341.59 2529.19 1341.59 2507.2 1327.83 2507.2 1300.31 2507.2 1283.88 2518.83 1270.04 2542.08 1258.78 2564.34 1245.92 2584.11 1239.49 2601.4 1239.49 2609.51 1239.49 2613.56 1242.44 2613.56 1248.34 2613.56 1252.86 2609.65 1255.68 2601.81 1256.81 2586.44 1259.21 2572.36 1263.25 2559.56 1268.92 2538.83 1278.13 2528.47 1287.56 2528.47 1297.19 2528.47 1308.35 2543.11 1313.93 2572.39 1313.93 2598.04 1313.93 2625.55 1308.8 2654.93 1298.54 2685.02 1288 2709.59 1274.63 2728.65 1258.43 2746.69 1243.05 2755.7 1231.92 2755.7 1225.06 2755.7 1219.49 2744.07 1215.34 2720.79 1212.62 2678.22 1207.64 2653.94 1204.46 2647.95 1203.08 2621.18 1196.55 2607.8 1184.28 2607.8 1166.28 2607.8 1144.63 2623.42 1124.32 2654.68 1105.35 2679.53 1090.21 2711.13 1077.45 2749.47 1067.05 2783.19 1057.95 2810.18 1053.4 2830.44 1053.4ZM2167.84 940.015 2165.59 942.175 2166.83 940.041ZM2648.29 874.031C2669.17 874.435 2688.01 878.92 2704.83 887.485 2727.24 898.906 2739.51 914.767 2741.62 935.07 2742.75 945.935 2740.15 955.927 2733.83 965.047 2727.5 974.166 2718.95 979.286 2708.17 980.409 2700.11 981.249 2692.9 979.189 2686.54 974.23 2680.18 969.272 2676.6 962.845 2675.78 954.947 2674.86 946.183 2677.29 938.542 2683.07 932.023 2688.84 925.503 2695.49 921.852 2703.01 921.067L2710.32 921.843 2705.93 915.737C2701.41 912.256 2694.79 908.685 2686.09 905.023 2668.68 897.697 2649.05 895.172 2627.21 897.446 2555.74 904.889 2483.62 945.424 2410.84 1019.05 2347.16 1083.47 2271.56 1181.17 2184.04 1312.16L2184.02 1312.19 2196.32 1306.52C2207.35 1299.73 2219.95 1290.53 2234.12 1278.9L2268.43 1250.64 2290.43 1231.15C2303.35 1219.99 2311.07 1214.41 2313.6 1214.41 2317.9 1214.41 2322.05 1215.9 2326.02 1218.87 2330 1221.85 2331.99 1226.06 2331.99 1231.52L2300.23 1268.52C2285.4 1286.18 2276.12 1299.23 2272.41 1307.67L2270.71 1314.03 2273.33 1313.47C2281.69 1310.39 2298.76 1296.52 2324.55 1271.88 2346.64 1250.77 2365 1231.9 2379.65 1215.29 2383.46 1210.99 2386.61 1208.84 2389.09 1208.84 2392.39 1208.84 2395.85 1210.04 2399.49 1212.44 2403.13 1214.84 2404.95 1217.89 2404.95 1221.59 2404.95 1223.87 2404.1 1224.1 2402.41 1222.28 2377.7 1252.78 2351.48 1285.45 2323.76 1320.3L2333.77 1319.9 2334.56 1320.28 2335.57 1319.72C2343.39 1318.31 2350.72 1315.96 2357.56 1312.67 2365.52 1307.78 2380.5 1296.6 2402.51 1279.13L2452.71 1237.83C2463.79 1228.06 2470.94 1223.17 2474.18 1223.17 2478.57 1223.17 2482.28 1225.04 2485.31 1228.77 2491.73 1223.05 2498.29 1220.19 2504.99 1220.19 2516.6 1220.19 2522.4 1226.26 2522.4 1238.41 2522.4 1253.57 2510.71 1273.8 2487.31 1299.1 2463.54 1324.64 2443.96 1337.41 2428.57 1337.41 2412.66 1337.41 2404.71 1329.13 2404.71 1312.55 2404.71 1304.56 2408.94 1294.5 2417.38 1282.39L2383.21 1312.56C2362.29 1327.14 2346.32 1334.43 2335.28 1334.43L2332.68 1333.55 2325.95 1335.41 2315.26 1335.91 2261.49 1402.56C2228.42 1440.33 2204.41 1459.21 2189.44 1459.21 2180.3 1459.21 2175.73 1453.52 2175.73 1442.14 2175.73 1421.6 2188.81 1398.28 2214.96 1372.16 2241.11 1346.05 2267.61 1329.95 2294.45 1323.86L2333.17 1279.35 2307.69 1307.09C2287.62 1323.72 2273.57 1332.04 2265.52 1332.04 2254.7 1332.04 2249.29 1324.92 2249.29 1310.69 2249.29 1299.83 2254.31 1287.23 2264.36 1272.88L2265.54 1271.66 2240.97 1292.81C2224.68 1305.75 2213.62 1314.14 2207.79 1317.99 2199.63 1323.47 2192.17 1327.58 2185.43 1330.32L2169.76 1333.87 2145.8 1370.33 2040.57 1553.73 2022.83 1543.95C2034.1 1520.94 2043.04 1499.21 2049.65 1478.75 2056.26 1458.3 2062.02 1418.6 2066.93 1359.63 2071.84 1300.67 2077.34 1255.37 2083.46 1223.74 2089.57 1192.11 2100.91 1152.59 2117.49 1105.17 2119.56 1099.24 2121.6 1093.56 2123.59 1088.12L2125.98 1081.73 2076.73 1161.19C1988.94 1299.83 1905.87 1405.72 1827.54 1478.87 1749.2 1552.02 1674.01 1592.35 1601.97 1599.85 1567.7 1603.42 1538.89 1598.66 1515.54 1585.57 1492.19 1572.48 1479.21 1553.45 1476.62 1528.48 1474.88 1511.72 1478.97 1496.37 1488.9 1482.42 1498.82 1468.48 1511.23 1460.73 1526.12 1459.18 1535.88 1458.17 1544.74 1460.62 1552.7 1466.55 1560.67 1472.48 1565.14 1480.18 1566.12 1489.66 1567.07 1498.73 1564.71 1506.68 1559.05 1513.5 1553.38 1520.31 1545.8 1524.21 1536.29 1525.21 1524.63 1526.42 1515.68 1523.64 1509.44 1516.86L1504.84 1509.86 1504.46 1510.12C1503.13 1512.15 1502.85 1516.93 1503.63 1524.44 1505.46 1542.08 1515.24 1555.89 1532.96 1565.88 1550.68 1575.87 1573.49 1579.41 1601.39 1576.5 1659.47 1570.45 1721.74 1539.99 1788.23 1485.11 1854.71 1430.22 1928.32 1342.23 2009.05 1221.13 2089.79 1100.04 2144.4 1014.8 2172.88 965.435 2181.23 950.559 2189.54 938.749 2197.83 930.007L2213.36 936.585C2181.6 984.304 2160.16 1064.56 2149.02 1177.35L2143.3 1227.38C2136.78 1286.74 2120.22 1352.09 2093.63 1423.43L2088.24 1436.63 2153.21 1330.06C2242.83 1184.85 2325.32 1074.66 2400.67 999.499 2476.02 924.338 2551.37 882.833 2626.73 874.986 2634.14 874.213 2641.33 873.894 2648.29 874.031Z" fill="#FFFFFF" fill-rule="evenodd"/></g></svg>