<svg width="825" height="242" xmlns="http://www.w3.org/2000/svg" xmlns:xlink="http://www.w3.org/1999/xlink" xml:space="preserve" overflow="hidden">
    <defs>
        <clipPath id="clip0">
            <rect x="1788" y="1918" width="825" height="242" />
        </clipPath>
    </defs>
    <g clip-path="url(#clip0)" transform="translate(-1788 -1918)">
        <path d="M2228.98 2073.09C2221.68 2075.78 2214.59 2080.76 2207.69 2088.03 2200.79 2095.3 2197.35 2101.16 2197.35 2105.62 2197.35 2106.21 2197.4 2106.51 2197.52 2106.51 2201.24 2106.51 2211.72 2095.37 2228.98 2073.09ZM2394.57 2071.33C2390.98 2076.05 2385.85 2081.85 2379.21 2088.73 2375.26 2095.22 2372.79 2099.83 2371.8 2102.57L2371.41 2104.26 2371.62 2104.2C2373.63 2103.33 2377.71 2099.42 2383.87 2092.47 2390.91 2084.52 2394.44 2078.16 2394.44 2073.38 2394.44 2072.5 2394.48 2071.82 2394.57 2071.33ZM2288.45 2045.95C2281.43 2053.19 2277.91 2059.04 2277.91 2063.5 2277.91 2064.7 2278.45 2065.3 2279.51 2065.3 2282.35 2065.3 2286.98 2062.07 2293.4 2055.61 2289.75 2054.93 2287.92 2052.33 2287.92 2047.81 2287.92 2046.64 2288.1 2046.02 2288.45 2045.95ZM2561.14 2039.27C2558.52 2039.27 2553.88 2042.73 2547.23 2049.66 2543.91 2053.12 2541.41 2056.07 2539.75 2058.52L2537.26 2064.32 2537.17 2064.37C2537.23 2064.37 2537.26 2064.36 2537.26 2064.33L2537.26 2064.32 2542.18 2061.7C2544.47 2059.92 2547.39 2057.24 2550.93 2053.67 2558.01 2046.54 2561.56 2041.92 2561.58 2039.83 2561.58 2039.45 2561.43 2039.27 2561.14 2039.27ZM2512.17 2038.54C2510 2038.54 2505.04 2042.22 2497.28 2049.6 2489.51 2056.98 2485.63 2061.76 2485.63 2063.94 2485.63 2064.23 2485.73 2064.37 2485.93 2064.37 2488.05 2064.37 2493.05 2060.76 2500.92 2053.52 2508.79 2046.28 2512.73 2041.56 2512.74 2039.36 2512.74 2038.81 2512.55 2038.54 2512.17 2038.54ZM2109.83 2038.54C2107.66 2038.54 2102.69 2042.22 2094.93 2049.6 2087.17 2056.98 2083.29 2061.76 2083.29 2063.94 2083.29 2064.23 2083.39 2064.37 2083.59 2064.37 2085.71 2064.37 2090.71 2060.76 2098.57 2053.52 2106.44 2046.28 2110.38 2041.56 2110.39 2039.36 2110.39 2038.81 2110.21 2038.54 2109.83 2038.54ZM1982.6 2038.54C1980.43 2038.54 1975.46 2042.22 1967.7 2049.6 1959.94 2056.98 1956.06 2061.76 1956.06 2063.94 1956.06 2064.23 1956.16 2064.37 1956.36 2064.37 1958.48 2064.37 1963.47 2060.76 1971.34 2053.52 1979.21 2046.28 1983.15 2041.56 1983.16 2039.36 1983.16 2038.81 1982.97 2038.54 1982.6 2038.54ZM2301.48 2038.21C2299.8 2038.21 2298.01 2039.4 2296.09 2041.78 2294.18 2044.16 2293.22 2046.29 2293.22 2048.17 2293.22 2049.9 2294.06 2050.98 2295.73 2051.41 2296.92 2050.2 2298.23 2048.48 2299.64 2046.25 2301.41 2043.18 2302.3 2040.89 2302.3 2039.36 2302.3 2038.59 2302.03 2038.21 2301.48 2038.21ZM2410.5 2037.87C2407.03 2037.87 2401.18 2041.56 2392.94 2048.92 2384.7 2056.29 2380.59 2061.54 2380.59 2064.67 2380.59 2064.78 2380.6 2064.84 2380.63 2064.84 2383.87 2064.84 2389.7 2061.2 2398.11 2053.93 2406.53 2046.66 2410.74 2041.5 2410.74 2038.43 2410.74 2038.06 2410.66 2037.87 2410.5 2037.87ZM1831.75 2028.4 1821.35 2028.65 1813.33 2038.21 1824.21 2037.85ZM1832.09 2006.4C1833.84 2006.4 1834.72 2007.24 1834.72 2008.9 1834.72 2009.72 1831.38 2014.17 1824.71 2022.24L1835.24 2021.76 1841.57 2013.54C1845.17 2008.87 1847.71 2006.54 1849.19 2006.54 1850.9 2006.54 1851.75 2007.35 1851.75 2008.96 1851.75 2010.3 1848.46 2014.48 1841.87 2021.51L1845.42 2021.38C1847.74 2021.38 1848.9 2022.25 1848.9 2024.01 1848.9 2026.58 1847.08 2028.07 1843.44 2028.47L1838.41 2028.33 1830.89 2037.74 1833.81 2037.7C1836.8 2037.64 1838.3 2038.66 1838.3 2040.76 1838.3 2043.47 1834.64 2044.81 1827.34 2044.76L1811.68 2068.08C1810.78 2069.98 1809.74 2070.93 1808.58 2070.93 1806.74 2070.93 1805.83 2069.99 1805.83 2068.11 1805.83 2067.08 1807.61 2063.77 1811.17 2058.19L1820.77 2044.83 1809.76 2045.02C1805.49 2051.1 1800.63 2058.69 1795.18 2067.79 1793.54 2070.5 1791.94 2071.86 1790.36 2071.86 1788.79 2071.86 1788 2071.03 1788 2069.37 1788 2066.94 1793.05 2058.85 1803.14 2045.1L1798.64 2045.16C1795.74 2045.2 1794.3 2044.39 1794.3 2042.73 1794.3 2040.24 1798.33 2038.82 1806.4 2038.45L1814.32 2028.8C1814.51 2028.8 1813.75 2028.84 1812.02 2028.93L1808.29 2029C1805.59 2029 1804.24 2028.08 1804.24 2026.24 1804.24 2024.27 1806.64 2023.07 1811.44 2022.66L1817.61 2022.48 1823.93 2014.08C1827.8 2008.96 1830.52 2006.4 1832.09 2006.4ZM1980.97 1978.78C1985.41 1978.78 1987.63 1980.89 1987.63 1985.1 1987.63 1988.43 1986.36 1992 1983.82 1995.79 1981.75 1998.77 1970.22 2011.27 1949.2 2033.31 1932.36 2052.04 1923.94 2062.92 1923.94 2065.94 1923.94 2066.31 1924.78 2066.56 1926.46 2066.69L1926.51 2066.73 1926.9 2066.32C1930.76 2065.7 1936.2 2062.65 1943.21 2057.17L1951.59 2050.61 1965.03 2039.9C1971.48 2035.46 1977.03 2033.24 1981.67 2033.24 1985.74 2033.24 1987.91 2034.86 1988.18 2038.11 1988.8 2036.5 1989.62 2035.69 1990.63 2035.69 1992.98 2035.69 1994.16 2036.72 1994.16 2038.79 1994.16 2040.62 1990.83 2045.41 1984.19 2053.17 1977.54 2060.93 1974.21 2065.3 1974.21 2066.28 1974.21 2066.33 1974.92 2066.38 1976.33 2066.43L1977.89 2067.04 1979.13 2066.34C1982.19 2065.58 1984.39 2064.84 1985.74 2064.1 1988.66 2062.57 1994.45 2058.36 2003.12 2051.47 2007.09 2048.38 2012.69 2043.56 2019.9 2037.03 2023 2033.79 2025.35 2032.18 2026.94 2032.18 2030.3 2032.18 2031.97 2033.4 2031.97 2035.83 2031.97 2038.11 2029.53 2041.8 2024.64 2046.89 2032.8 2038.23 2038.86 2033.9 2042.8 2033.9 2044.31 2033.9 2045.72 2034.4 2047.03 2035.39 2048.35 2036.39 2049 2037.68 2049 2039.25 2049 2041.24 2047.83 2043.33 2045.49 2045.52 2052.97 2036.89 2059.4 2032.57 2064.79 2032.57 2068.62 2032.57 2070.54 2034.19 2070.54 2037.41 2070.54 2040.79 2066.98 2046.13 2059.87 2053.42 2052.76 2060.71 2049.2 2064.92 2049.2 2066.06 2049.2 2066.33 2049.95 2066.48 2051.45 2066.5L2052.74 2066.96 2054.14 2066.32C2058 2065.7 2063.43 2062.65 2070.44 2057.17L2078.83 2050.61 2092.27 2039.9C2098.71 2035.46 2104.26 2033.24 2108.91 2033.24 2112.98 2033.24 2115.15 2034.86 2115.41 2038.11 2116.04 2036.5 2116.86 2035.69 2117.87 2035.69 2120.22 2035.69 2121.39 2036.72 2121.39 2038.79 2121.39 2040.62 2118.07 2045.41 2111.42 2053.17 2104.77 2060.93 2101.45 2065.3 2101.45 2066.28 2101.45 2066.33 2102.15 2066.38 2103.57 2066.43 2104.98 2066.47 2105.69 2067.26 2105.69 2068.81 2105.69 2070.58 2103.76 2071.46 2099.89 2071.46 2096.11 2071.46 2094.22 2069.74 2094.22 2066.3 2094.22 2064.01 2095.4 2061.54 2097.76 2058.91L2091.78 2065.53C2087.66 2068.6 2084.26 2070.14 2081.59 2070.14 2076.98 2070.14 2074.67 2067.81 2074.67 2063.16 2074.67 2060.9 2075.17 2059.05 2076.17 2057.59 2065.83 2066.71 2058.3 2071.26 2053.59 2071.26L2052.34 2070.83 2050.79 2071.3C2050.15 2071.41 2049.39 2071.46 2048.53 2071.46 2044.25 2071.46 2042.11 2069.52 2042.11 2065.65 2042.11 2061.92 2045.21 2056.53 2051.42 2049.48 2056.08 2044.2 2058.99 2040.76 2060.15 2039.17L2060.32 2038.88 2060.1 2038.92C2057.46 2039.79 2052.43 2043.71 2044.98 2050.68 2037.83 2057.37 2032.23 2062.97 2028.2 2067.49 2026.47 2070.1 2024.88 2071.4 2023.44 2071.4 2020.87 2071.4 2019.58 2070.17 2019.58 2067.73 2019.58 2065.79 2022.98 2061.03 2029.78 2053.45 2034.89 2047.76 2038.08 2043.8 2039.35 2041.56L2039.92 2040.08 2039.17 2040.23C2036.89 2041.03 2032.35 2044.63 2025.56 2051.02 2018.77 2057.42 2013.97 2062.44 2011.16 2066.08 2008.7 2069.27 2006.41 2070.87 2004.29 2070.87 2001.94 2070.87 2000.76 2069.77 2000.76 2067.59 2000.76 2065.63 2003.86 2060.78 2010.07 2053.04L2020.3 2042.18 2001.95 2058.92C1991.13 2067.15 1983.46 2071.26 1978.94 2071.26 1978.24 2071.26 1977.71 2071.08 1977.36 2070.72L1977.31 2070.56 1977 2070.8C1976.04 2071.24 1974.59 2071.46 1972.66 2071.46 1968.88 2071.46 1966.99 2069.74 1966.99 2066.3 1966.99 2064.01 1968.17 2061.54 1970.53 2058.91L1964.54 2065.53C1960.42 2068.6 1957.03 2070.14 1954.36 2070.14 1949.75 2070.14 1947.44 2067.81 1947.44 2063.16 1947.44 2060.9 1947.94 2059.05 1948.94 2057.59 1938.59 2066.71 1931.06 2071.26 1926.35 2071.26L1926.3 2071.21 1923.63 2071.73C1919.02 2071.73 1916.72 2069.53 1916.72 2065.14 1916.72 2058.27 1924.9 2045.71 1941.27 2027.46 1947.06 2021.01 1957.81 2009.91 1973.52 1994.17 1977.36 1990.32 1979.76 1987.42 1980.72 1985.45L1981.16 1983.91 1980.04 1984.15C1976.53 1985.38 1968.81 1990.96 1956.88 2000.87 1945.89 2010.02 1937.65 2017.33 1932.16 2022.82 1926.85 2028.13 1919.98 2035.5 1911.55 2044.94 1895.91 2062.49 1887.65 2071.26 1886.75 2071.26 1885.75 2071.26 1884.67 2070.73 1883.52 2069.66 1882.37 2068.59 1881.8 2067.54 1881.8 2066.5 1881.8 2064.49 1891 2052.63 1909.4 2030.91 1925.5 2011.91 1934.56 2000.03 1936.57 1995.27L1936.99 1993.7 1934.95 1994.32C1932.2 1995.58 1927.46 1998.75 1920.71 2003.81 1912.3 2010.16 1903.02 2018.16 1892.88 2027.82L1866.37 2054.05 1857.37 2063.73C1851.96 2069.55 1848.85 2072.46 1848.05 2072.46 1847.07 2072.46 1846.02 2072.09 1844.92 2071.35 1843.22 2070.27 1842.37 2069.15 1842.37 2067.99 1842.37 2066.23 1847.91 2059.15 1859.01 2046.75L1889.35 2012.69C1900.04 2000.1 1905.39 1992.45 1905.39 1989.74 1905.39 1989.5 1905.27 1989.38 1905.02 1989.38 1902.25 1989.38 1896.04 1993.28 1886.4 2001.08 1879.05 2007.05 1868.56 2017.59 1854.92 2032.71 1853.8 2033.94 1852.77 2034.56 1851.82 2034.56 1849.98 2034.56 1849.06 2033.75 1849.06 2032.13 1849.06 2030.67 1852.85 2026.19 1860.43 2018.69 1866.12 2011.06 1873.12 2003.82 1881.44 1996.95 1892.39 1987.93 1900.4 1983.42 1905.48 1983.42 1909.62 1983.42 1911.68 1985.61 1911.68 1990 1911.68 1996.18 1903.89 2008.19 1888.29 2026.03 1913.63 2000.76 1929.87 1988.12 1937.03 1988.12 1941.16 1988.12 1943.23 1990.2 1943.23 1994.37 1943.23 1999.85 1937.06 2009.84 1924.72 2024.35 1953.45 1993.97 1972.2 1978.78 1980.97 1978.78ZM2410.48 1977.72C2419.94 1977.72 2424.67 1980.8 2424.67 1986.97 2424.67 1991.94 2420.52 1997.63 2412.23 2004.06 2404.33 2010.17 2397.79 2013.23 2392.61 2013.23 2387.83 2013.23 2385.44 2011.45 2385.44 2007.88 2385.44 2005.17 2388.58 2002.09 2394.85 1998.63 2397.91 1995.78 2400.76 1994.35 2403.42 1994.35 2405.17 1994.35 2406.05 1995.31 2406.05 1997.23L2398.61 2001.27C2396.59 2002.37 2395.05 2003.24 2394.02 2003.88L2393.27 2004.38 2394.65 2004.17C2397.57 2003.41 2401.63 2001.52 2406.84 1998.49 2414 1994.32 2417.58 1991.06 2417.58 1988.71 2417.58 1987.08 2414.98 1986.27 2409.8 1986.27 2403.06 1986.27 2393.43 1988.24 2380.91 1992.21 2372.41 1994.89 2365.02 1997.73 2358.72 2000.71 2348.17 2005.66 2342.89 2009.96 2342.89 2013.62 2342.89 2015.59 2345.95 2017.14 2352.05 2018.28L2373.22 2021.01C2381.65 2022.26 2386.69 2024.03 2388.33 2026.3 2390.82 2029.57 2392.06 2032.66 2392.06 2035.56L2390.72 2039.62 2399.78 2034.08C2402.81 2032.77 2405.64 2032.11 2408.27 2032.11 2413.32 2032.11 2415.84 2034.09 2415.84 2038.04 2415.84 2039.63 2415.43 2040.85 2414.6 2041.68 2416.05 2042.06 2416.77 2043.16 2416.77 2044.98 2416.77 2045.63 2410.52 2052.78 2398.01 2066.43L2401.47 2066.43 2401.86 2066.57 2402.24 2066.39C2403.87 2066.08 2405.48 2065.69 2407.07 2065.22 2410.02 2063.58 2415.49 2059.62 2423.48 2053.34 2427.26 2050.39 2432.68 2045.9 2439.74 2039.86 2440.98 2038.57 2442.99 2036.81 2445.76 2034.57 2447.15 2033.68 2448.42 2033.24 2449.58 2033.24 2453.02 2033.24 2454.74 2034.5 2454.74 2037.03 2454.74 2039.03 2451.7 2043.39 2445.63 2050.09 2441.07 2055.11 2438.22 2058.96 2437.08 2061.64L2436.59 2063.64 2437.28 2063.48C2439.95 2062.4 2445.21 2057.53 2453.06 2048.87 2462.02 2038.98 2467.31 2034.03 2468.91 2034.03 2469.91 2034.03 2470.84 2034.49 2471.69 2035.4 2472.54 2036.31 2472.96 2037.25 2472.96 2038.21 2472.96 2039.56 2469.63 2044.1 2462.96 2051.83 2456.29 2059.55 2452.95 2064.34 2452.95 2066.2 2452.95 2066.35 2453.68 2066.45 2455.14 2066.49L2455.67 2066.69 2456.48 2066.32C2460.34 2065.7 2465.78 2062.65 2472.78 2057.17L2481.17 2050.61 2494.61 2039.9C2501.06 2035.46 2506.6 2033.24 2511.25 2033.24 2515.32 2033.24 2517.49 2034.86 2517.76 2038.11 2518.38 2036.5 2519.2 2035.69 2520.21 2035.69 2522.56 2035.69 2523.74 2036.72 2523.74 2038.79 2523.74 2040.62 2520.41 2045.41 2513.76 2053.17 2507.11 2060.93 2503.79 2065.3 2503.79 2066.28 2503.79 2066.33 2504.5 2066.38 2505.91 2066.43L2506.47 2066.65 2507.01 2066.34C2510.26 2065.54 2513.68 2064.29 2517.27 2062.6 2520.3 2060.36 2525.53 2055.99 2532.97 2049.51 2540.4 2043.03 2546.17 2038.57 2550.29 2036.15 2553.36 2034.34 2556.17 2033.44 2558.71 2033.44 2563.44 2033.44 2565.84 2035.03 2565.93 2038.21 2570.9 2030.43 2577.43 2022.57 2585.52 2014.64 2598.65 1998.51 2606.65 1990.44 2609.53 1990.44 2611.84 1990.44 2613 1991.66 2613 1994.1 2613 1995.75 2611.12 1998.54 2607.35 2002.5 2600.75 2009.35 2591.03 2020.32 2578.17 2035.41 2562.51 2053.78 2554.68 2064.02 2554.68 2066.13 2554.68 2066.28 2555.39 2066.38 2556.8 2066.43 2558.22 2066.47 2558.93 2067.26 2558.93 2068.81 2558.93 2070.58 2557.43 2071.46 2554.43 2071.46 2550.14 2071.46 2547.99 2069.61 2547.99 2065.91 2547.99 2063.4 2549.41 2060.33 2552.25 2056.7 2545 2065.79 2539.37 2070.34 2535.37 2070.34 2531.15 2070.34 2529.04 2068.12 2529.04 2063.69 2529.04 2061.5 2529.99 2058.82 2531.9 2055.68L2521.79 2064.8C2515.43 2069.11 2510.44 2071.26 2506.82 2071.26L2505.96 2070.97 2504.77 2071.3C2504.05 2071.41 2503.2 2071.46 2502.23 2071.46 2498.46 2071.46 2496.57 2069.74 2496.57 2066.3 2496.57 2064.01 2497.75 2061.54 2500.1 2058.91L2494.12 2065.53C2490 2068.6 2486.61 2070.14 2483.94 2070.14 2479.32 2070.14 2477.02 2067.81 2477.02 2063.16 2477.02 2060.9 2477.52 2059.05 2478.51 2057.59 2468.17 2066.71 2460.64 2071.26 2455.93 2071.26L2455.29 2071.04 2454.7 2071.24C2454.12 2071.34 2453.44 2071.4 2452.67 2071.4 2448.13 2071.4 2445.86 2069.57 2445.86 2065.91 2445.86 2063.7 2446.77 2061.41 2448.58 2059.04 2442.3 2066.4 2437.2 2070.07 2433.26 2070.07 2429.69 2070.07 2427.9 2068.14 2427.9 2064.27 2427.9 2060.47 2429.51 2056.31 2432.74 2051.79L2440.97 2043.93 2424.78 2058.88C2413.91 2067.13 2406.2 2071.26 2401.64 2071.26L2401.42 2071.19 2400.92 2071.33C2400.3 2071.42 2399.58 2071.44 2398.75 2071.4 2399.14 2071.82 2399.34 2072.5 2399.34 2073.45 2399.34 2078.42 2395.5 2085.64 2387.82 2095.13 2380.02 2104.84 2373.81 2109.69 2369.19 2109.69 2365.87 2109.69 2364.22 2107.78 2364.22 2103.95 2364.22 2098.57 2368.83 2090.41 2378.05 2079.47L2395.31 2060.54C2388.17 2067.47 2382.79 2070.93 2379.15 2070.93 2374.36 2070.93 2371.97 2068.63 2371.97 2064.02L2374.59 2057.86 2369.27 2061.77C2364.86 2064.36 2360.06 2066.59 2354.87 2068.45 2345.09 2071.92 2335.04 2073.65 2324.72 2073.65 2310.06 2073.65 2302.73 2069.07 2302.73 2059.91 2302.73 2054.44 2306.61 2049.83 2314.36 2046.08 2321.78 2041.8 2328.37 2039.66 2334.13 2039.66 2336.84 2039.66 2338.19 2040.65 2338.19 2042.61 2338.19 2044.11 2336.88 2045.05 2334.27 2045.43 2329.15 2046.23 2324.45 2047.57 2320.19 2049.46 2313.28 2052.53 2309.82 2055.66 2309.82 2058.87 2309.82 2062.58 2314.7 2064.44 2324.46 2064.44 2333.01 2064.44 2342.18 2062.73 2351.98 2059.32 2362.01 2055.81 2370.2 2051.36 2376.55 2045.97 2382.56 2040.85 2385.57 2037.14 2385.57 2034.86 2385.57 2033 2381.69 2031.62 2373.93 2030.72 2359.74 2029.06 2351.65 2028 2349.65 2027.54 2340.73 2025.37 2336.27 2021.28 2336.27 2015.29 2336.27 2008.09 2341.47 2001.32 2351.89 1995.01 2360.18 1989.97 2370.71 1985.72 2383.49 1982.26 2394.73 1979.23 2403.73 1977.72 2410.48 1977.72ZM2189.61 1939.97 2188.86 1940.69 2189.28 1939.98ZM2349.76 1918.01C2356.72 1918.14 2363 1919.64 2368.61 1922.49 2376.08 1926.29 2380.17 1931.57 2380.87 1938.33 2381.25 1941.95 2380.38 1945.27 2378.27 1948.31 2376.17 1951.34 2373.32 1953.05 2369.72 1953.42 2367.04 1953.7 2364.63 1953.01 2362.51 1951.36 2360.39 1949.71 2359.2 1947.57 2358.92 1944.95 2358.62 1942.03 2359.43 1939.48 2361.35 1937.31 2363.28 1935.14 2365.49 1933.93 2368 1933.67L2370.44 1933.93 2368.98 1931.89C2367.47 1930.73 2365.26 1929.55 2362.36 1928.33 2356.56 1925.89 2350.02 1925.05 2342.74 1925.8 2318.91 1928.28 2294.87 1941.78 2270.61 1966.28 2249.39 1987.73 2224.19 2020.25 2195.01 2063.85L2195.01 2063.86 2199.11 2061.98C2202.78 2059.72 2206.98 2056.65 2211.71 2052.78L2223.14 2043.37 2230.48 2036.89C2234.78 2033.17 2237.36 2031.32 2238.2 2031.32 2239.63 2031.32 2241.02 2031.81 2242.34 2032.8 2243.67 2033.79 2244.33 2035.19 2244.33 2037.01L2233.74 2049.32C2228.8 2055.2 2225.71 2059.55 2224.47 2062.36L2223.9 2064.48 2224.78 2064.29C2227.56 2063.26 2233.25 2058.65 2241.85 2050.44 2249.21 2043.42 2255.33 2037.14 2260.22 2031.61 2261.49 2030.18 2262.54 2029.46 2263.36 2029.46 2264.46 2029.46 2265.62 2029.86 2266.83 2030.66 2268.04 2031.46 2268.65 2032.47 2268.65 2033.7 2268.65 2034.46 2268.37 2034.54 2267.8 2033.94 2259.57 2044.09 2250.83 2054.96 2241.59 2066.56L2244.92 2066.43 2245.19 2066.56 2245.52 2066.37C2248.13 2065.9 2250.57 2065.12 2252.85 2064.02 2255.51 2062.39 2260.5 2058.67 2267.84 2052.86L2284.57 2039.11C2288.26 2035.86 2290.65 2034.23 2291.73 2034.23 2293.19 2034.23 2294.43 2034.85 2295.44 2036.09 2297.58 2034.19 2299.76 2033.24 2302 2033.24 2305.87 2033.24 2307.8 2035.26 2307.8 2039.3 2307.8 2044.35 2303.9 2051.08 2296.1 2059.5 2288.18 2068.01 2281.65 2072.26 2276.52 2072.26 2271.22 2072.26 2268.57 2069.5 2268.57 2063.98 2268.57 2061.32 2269.98 2057.97 2272.79 2053.94L2261.4 2063.99C2254.43 2068.84 2249.11 2071.26 2245.43 2071.26L2244.56 2070.97 2242.32 2071.59 2238.75 2071.76 2220.83 2093.94C2209.81 2106.52 2201.8 2112.8 2196.81 2112.8 2193.77 2112.8 2192.24 2110.91 2192.24 2107.12 2192.24 2100.28 2196.6 2092.52 2205.32 2083.83 2214.04 2075.13 2222.87 2069.77 2231.82 2067.75L2244.72 2052.93 2236.23 2062.17C2229.54 2067.7 2224.86 2070.47 2222.17 2070.47 2218.57 2070.47 2216.76 2068.1 2216.76 2063.36 2216.76 2059.75 2218.44 2055.55 2221.79 2050.78L2222.18 2050.37 2213.99 2057.41C2208.56 2061.72 2204.87 2064.51 2202.93 2065.79 2200.21 2067.62 2197.72 2068.98 2195.48 2069.9L2190.25 2071.08 2182.27 2083.22 2147.19 2144.26 2141.28 2141.01C2145.03 2133.35 2148.01 2126.12 2150.22 2119.31 2152.42 2112.5 2154.34 2099.28 2155.98 2079.65 2157.61 2060.03 2159.45 2044.95 2161.49 2034.42 2163.52 2023.89 2167.3 2010.73 2172.83 1994.95 2173.52 1992.98 2174.2 1991.09 2174.86 1989.28L2175.66 1987.15 2159.24 2013.6C2129.98 2059.75 2102.29 2095 2076.18 2119.35 2050.07 2143.7 2025 2157.12 2000.99 2159.62 1989.57 2160.81 1979.96 2159.22 1972.18 2154.86 1964.4 2150.51 1960.07 2144.17 1959.21 2135.86 1958.63 2130.28 1959.99 2125.17 1963.3 2120.53 1966.61 2115.89 1970.74 2113.31 1975.71 2112.79 1978.96 2112.45 1981.91 2113.27 1984.57 2115.25 1987.22 2117.22 1988.71 2119.78 1989.04 2122.94 1989.36 2125.96 1988.57 2128.6 1986.68 2130.87 1984.79 2133.14 1982.27 2134.44 1979.1 2134.77 1975.21 2135.17 1972.22 2134.25 1970.15 2131.99L1968.61 2129.66 1968.49 2129.75C1968.04 2130.43 1967.95 2132.01 1968.21 2134.52 1968.82 2140.39 1972.08 2144.98 1977.99 2148.31 1983.89 2151.63 1991.5 2152.81 2000.8 2151.85 2020.16 2149.83 2040.91 2139.69 2063.07 2121.42 2085.24 2103.15 2109.77 2073.86 2136.68 2033.55 2163.6 1993.24 2181.8 1964.87 2191.29 1948.44 2194.08 1943.48 2196.85 1939.55 2199.61 1936.64L2204.79 1938.83C2194.2 1954.72 2187.05 1981.43 2183.34 2018.98L2181.43 2035.63C2179.26 2055.39 2173.74 2077.15 2164.88 2100.89L2163.08 2105.29 2184.74 2069.81C2214.61 2021.47 2242.11 1984.8 2267.22 1959.78 2292.34 1934.76 2317.46 1920.94 2342.58 1918.33 2345.05 1918.07 2347.44 1917.97 2349.76 1918.01Z" fill="#FFFFFF" fill-rule="evenodd" />
    </g>
</svg>