<svg width="2139" height="329" xmlns="http://www.w3.org/2000/svg" xmlns:xlink="http://www.w3.org/1999/xlink" xml:space="preserve" overflow="hidden"><defs><clipPath id="clip0"><rect x="949" y="1073" width="2139" height="329"/></clipPath></defs><g clip-path="url(#clip0)" transform="translate(-949 -1073)"><path d="M1389.98 1271.73C1382.68 1274.43 1375.59 1279.43 1368.69 1286.73 1361.79 1294.03 1358.35 1299.92 1358.35 1304.4 1358.35 1304.99 1358.4 1305.29 1358.52 1305.29 1362.24 1305.29 1372.72 1294.1 1389.98 1271.73ZM1555.57 1269.96C1551.98 1274.7 1546.85 1280.52 1540.21 1287.44 1536.26 1293.95 1533.79 1298.58 1532.8 1301.33L1532.41 1303.03 1532.63 1302.97C1534.63 1302.1 1538.71 1298.17 1544.87 1291.19 1551.91 1283.21 1555.44 1276.82 1555.44 1272.02 1555.44 1271.14 1555.48 1270.46 1555.57 1269.96ZM1449.45 1244.48C1442.43 1251.75 1438.91 1257.62 1438.91 1262.1 1438.91 1263.31 1439.45 1263.91 1440.51 1263.91 1443.35 1263.91 1447.98 1260.67 1454.4 1254.18 1450.75 1253.49 1448.92 1250.88 1448.92 1246.35 1448.92 1245.17 1449.1 1244.55 1449.45 1244.48ZM1722.14 1237.77C1719.52 1237.77 1714.88 1241.24 1708.23 1248.2 1704.91 1251.68 1702.41 1254.65 1700.75 1257.1L1698.26 1262.93 1698.17 1262.98C1698.23 1262.98 1698.26 1262.97 1698.26 1262.94L1698.26 1262.93 1703.18 1260.29C1705.47 1258.5 1708.39 1255.81 1711.93 1252.23 1719.01 1245.07 1722.56 1240.43 1722.58 1238.33 1722.58 1237.95 1722.43 1237.77 1722.14 1237.77ZM1673.17 1237.03C1671 1237.03 1666.04 1240.74 1658.28 1248.15 1650.51 1255.55 1646.63 1260.35 1646.63 1262.55 1646.63 1262.83 1646.73 1262.98 1646.93 1262.98 1649.05 1262.98 1654.05 1259.35 1661.92 1252.08 1669.79 1244.81 1673.73 1240.07 1673.74 1237.86 1673.74 1237.31 1673.55 1237.03 1673.17 1237.03ZM1270.83 1237.03C1268.66 1237.03 1263.69 1240.74 1255.93 1248.15 1248.17 1255.55 1244.29 1260.35 1244.29 1262.55 1244.29 1262.83 1244.39 1262.98 1244.59 1262.98 1246.71 1262.98 1251.71 1259.35 1259.57 1252.08 1267.45 1244.81 1271.38 1240.07 1271.39 1237.86 1271.39 1237.31 1271.21 1237.03 1270.83 1237.03ZM1143.6 1237.03C1141.43 1237.03 1136.46 1240.74 1128.7 1248.15 1120.94 1255.55 1117.06 1260.35 1117.06 1262.55 1117.06 1262.83 1117.16 1262.98 1117.36 1262.98 1119.48 1262.98 1124.47 1259.35 1132.34 1252.08 1140.21 1244.81 1144.15 1240.07 1144.16 1237.86 1144.16 1237.31 1143.97 1237.03 1143.6 1237.03ZM1462.48 1236.7C1460.8 1236.7 1459.01 1237.9 1457.09 1240.29 1455.18 1242.68 1454.22 1244.82 1454.22 1246.7 1454.22 1248.45 1455.06 1249.53 1456.73 1249.96 1457.92 1248.74 1459.23 1247.02 1460.64 1244.78 1462.41 1241.7 1463.3 1239.39 1463.3 1237.86 1463.3 1237.09 1463.03 1236.7 1462.48 1236.7ZM1571.5 1236.37C1568.03 1236.37 1562.18 1240.07 1553.94 1247.47 1545.7 1254.86 1541.59 1260.13 1541.59 1263.28 1541.59 1263.39 1541.6 1263.44 1541.63 1263.44 1544.87 1263.44 1550.7 1259.79 1559.11 1252.49 1567.53 1245.19 1571.74 1240.01 1571.74 1236.93 1571.74 1236.56 1571.66 1236.37 1571.5 1236.37ZM992.75 1226.86 982.348 1227.11 974.335 1236.7 985.211 1236.35ZM993.092 1204.77C994.843 1204.77 995.719 1205.6 995.719 1207.27 995.719 1208.1 992.382 1212.57 985.709 1220.67L996.241 1220.18 1002.57 1211.93C1006.17 1207.25 1008.71 1204.9 1010.19 1204.9 1011.9 1204.9 1012.75 1205.72 1012.75 1207.34 1012.75 1208.68 1009.46 1212.88 1002.87 1219.94L1006.42 1219.8C1008.74 1219.8 1009.9 1220.69 1009.9 1222.45 1009.9 1225.03 1008.08 1226.52 1004.44 1226.92L999.413 1226.79 991.894 1236.24 994.812 1236.19C997.802 1236.13 999.297 1237.16 999.297 1239.27 999.297 1241.99 995.644 1243.33 988.337 1243.29L972.685 1266.7C971.779 1268.61 970.744 1269.56 969.58 1269.56 967.744 1269.56 966.826 1268.62 966.826 1266.73 966.826 1265.7 968.606 1262.38 972.166 1256.77L981.769 1243.35 970.765 1243.54C966.489 1249.65 961.627 1257.27 956.18 1266.4 954.543 1269.13 952.938 1270.5 951.365 1270.5 949.788 1270.5 949 1269.66 949 1267.99 949 1265.56 954.048 1257.43 964.144 1243.62L959.636 1243.68C956.742 1243.73 955.296 1242.91 955.296 1241.24 955.296 1238.75 959.332 1237.32 967.404 1236.95L975.323 1227.26C975.513 1227.26 974.746 1227.3 973.023 1227.39L969.294 1227.45C966.589 1227.45 965.236 1226.53 965.236 1224.69 965.236 1222.71 967.638 1221.51 972.443 1221.09L978.612 1220.91 984.931 1212.48C988.798 1207.34 991.519 1204.77 993.092 1204.77ZM1141.97 1177.03C1146.41 1177.03 1148.63 1179.15 1148.63 1183.38 1148.63 1186.72 1147.36 1190.3 1144.82 1194.11 1142.75 1197.1 1131.22 1209.66 1110.2 1231.79 1093.36 1250.59 1084.94 1261.51 1084.94 1264.55 1084.94 1264.92 1085.78 1265.17 1087.46 1265.3L1087.51 1265.34 1087.9 1264.93C1091.76 1264.31 1097.2 1261.25 1104.21 1255.74L1112.59 1249.16 1126.03 1238.41C1132.48 1233.94 1138.03 1231.71 1142.67 1231.71 1146.74 1231.71 1148.91 1233.35 1149.18 1236.61 1149.8 1234.99 1150.62 1234.17 1151.63 1234.17 1153.98 1234.17 1155.16 1235.21 1155.16 1237.29 1155.16 1239.12 1151.83 1243.94 1145.19 1251.73 1138.54 1259.52 1135.21 1263.91 1135.21 1264.89 1135.21 1264.95 1135.92 1265 1137.33 1265.04L1138.89 1265.66 1140.13 1264.95C1143.19 1264.19 1145.39 1263.44 1146.74 1262.7 1149.66 1261.17 1155.45 1256.94 1164.12 1250.02 1168.09 1246.92 1173.69 1242.08 1180.9 1235.52 1184 1232.27 1186.35 1230.65 1187.94 1230.65 1191.3 1230.65 1192.97 1231.87 1192.97 1234.32 1192.97 1236.61 1190.53 1240.31 1185.64 1245.42 1193.8 1236.72 1199.86 1232.38 1203.8 1232.38 1205.31 1232.38 1206.72 1232.88 1208.03 1233.88 1209.35 1234.88 1210 1236.17 1210 1237.75 1210 1239.75 1208.83 1241.85 1206.49 1244.05 1213.97 1235.38 1220.4 1231.05 1225.79 1231.05 1229.62 1231.05 1231.54 1232.67 1231.54 1235.91 1231.54 1239.3 1227.98 1244.66 1220.87 1251.98 1213.76 1259.3 1210.2 1263.53 1210.2 1264.67 1210.2 1264.95 1210.95 1265.09 1212.45 1265.12L1213.74 1265.58 1215.14 1264.93C1219 1264.31 1224.43 1261.25 1231.44 1255.74L1239.83 1249.16 1253.27 1238.41C1259.71 1233.94 1265.26 1231.71 1269.91 1231.71 1273.98 1231.71 1276.15 1233.35 1276.41 1236.61 1277.04 1234.99 1277.86 1234.17 1278.87 1234.17 1281.22 1234.17 1282.39 1235.21 1282.39 1237.29 1282.39 1239.12 1279.07 1243.94 1272.42 1251.73 1265.77 1259.52 1262.45 1263.91 1262.45 1264.89 1262.45 1264.95 1263.15 1265 1264.57 1265.04 1265.98 1265.08 1266.69 1265.88 1266.69 1267.44 1266.69 1269.21 1264.76 1270.1 1260.89 1270.1 1257.11 1270.1 1255.22 1268.37 1255.22 1264.91 1255.22 1262.61 1256.4 1260.14 1258.76 1257.49L1252.78 1264.14C1248.66 1267.22 1245.26 1268.77 1242.59 1268.77 1237.98 1268.77 1235.67 1266.43 1235.67 1261.76 1235.67 1259.49 1236.17 1257.63 1237.17 1256.17 1226.83 1265.32 1219.3 1269.9 1214.59 1269.9L1213.34 1269.46 1211.8 1269.93C1211.15 1270.04 1210.39 1270.1 1209.53 1270.1 1205.25 1270.1 1203.11 1268.15 1203.11 1264.26 1203.11 1260.52 1206.21 1255.1 1212.42 1248.03 1217.08 1242.72 1219.99 1239.26 1221.15 1237.67L1221.32 1237.38 1221.1 1237.42C1218.46 1238.3 1213.43 1242.23 1205.98 1249.23 1198.83 1255.94 1193.23 1261.57 1189.2 1266.11 1187.47 1268.72 1185.88 1270.03 1184.44 1270.03 1181.87 1270.03 1180.58 1268.8 1180.58 1266.35 1180.58 1264.4 1183.98 1259.62 1190.78 1252.01 1195.89 1246.3 1199.08 1242.32 1200.35 1240.07L1200.92 1238.58 1200.17 1238.74C1197.89 1239.54 1193.35 1243.15 1186.56 1249.57 1179.77 1256 1174.97 1261.04 1172.16 1264.69 1169.7 1267.9 1167.41 1269.5 1165.29 1269.5 1162.94 1269.5 1161.76 1268.4 1161.76 1266.21 1161.76 1264.24 1164.86 1259.37 1171.07 1251.6L1181.3 1240.7 1162.95 1257.5C1152.13 1265.76 1144.46 1269.9 1139.94 1269.9 1139.24 1269.9 1138.71 1269.71 1138.36 1269.35L1138.31 1269.19 1138 1269.43C1137.04 1269.88 1135.59 1270.1 1133.66 1270.1 1129.88 1270.1 1127.99 1268.37 1127.99 1264.91 1127.99 1262.61 1129.17 1260.14 1131.53 1257.49L1125.54 1264.14C1121.42 1267.22 1118.03 1268.77 1115.36 1268.77 1110.75 1268.77 1108.44 1266.43 1108.44 1261.76 1108.44 1259.49 1108.94 1257.63 1109.94 1256.17 1099.59 1265.32 1092.07 1269.9 1087.35 1269.9L1087.3 1269.85 1084.63 1270.36C1080.02 1270.36 1077.72 1268.16 1077.72 1263.75 1077.72 1256.85 1085.9 1244.24 1102.27 1225.91 1108.07 1219.43 1118.81 1208.29 1134.52 1192.48 1138.36 1188.62 1140.76 1185.7 1141.72 1183.73L1142.16 1182.18 1141.04 1182.42C1137.53 1183.66 1129.81 1189.26 1117.88 1199.22 1106.89 1208.4 1098.65 1215.74 1093.16 1221.25 1087.85 1226.58 1080.98 1233.99 1072.55 1243.47 1056.91 1261.09 1048.65 1269.9 1047.75 1269.9 1046.75 1269.9 1045.67 1269.36 1044.52 1268.29 1043.37 1267.22 1042.8 1266.16 1042.8 1265.11 1042.8 1263.1 1052 1251.19 1070.4 1229.38 1086.5 1210.3 1095.56 1198.37 1097.57 1193.59L1097.99 1192.01 1095.95 1192.63C1093.21 1193.9 1088.46 1197.08 1081.71 1202.17 1073.3 1208.54 1064.02 1216.58 1053.88 1226.27L1027.37 1252.61 1018.37 1262.34C1012.96 1268.18 1009.85 1271.09 1009.05 1271.09 1008.07 1271.09 1007.02 1270.72 1005.92 1269.98 1004.22 1268.9 1003.37 1267.78 1003.37 1266.61 1003.37 1264.84 1008.91 1257.73 1020.01 1245.28L1050.35 1211.09C1061.04 1198.44 1066.39 1190.76 1066.39 1188.04 1066.39 1187.79 1066.27 1187.67 1066.02 1187.67 1063.25 1187.67 1057.04 1191.59 1047.4 1199.42 1040.05 1205.41 1029.56 1216 1015.92 1231.18 1014.8 1232.42 1013.77 1233.04 1012.82 1233.04 1010.98 1233.04 1010.06 1232.23 1010.06 1230.61 1010.06 1229.13 1013.85 1224.63 1021.43 1217.1 1027.12 1209.45 1034.12 1202.17 1042.44 1195.28 1053.39 1186.22 1061.4 1181.69 1066.48 1181.69 1070.62 1181.69 1072.68 1183.89 1072.68 1188.29 1072.68 1194.5 1064.89 1206.56 1049.29 1224.48 1074.63 1199.1 1090.87 1186.41 1098.03 1186.41 1102.16 1186.41 1104.23 1188.5 1104.23 1192.69 1104.23 1198.19 1098.06 1208.22 1085.72 1222.78 1114.45 1192.28 1133.2 1177.03 1141.97 1177.03ZM1571.48 1175.97C1580.94 1175.97 1585.67 1179.06 1585.67 1185.25 1585.67 1190.24 1581.52 1195.96 1573.23 1202.42 1565.33 1208.55 1558.79 1211.62 1553.61 1211.62 1548.83 1211.62 1546.44 1209.83 1546.44 1206.25 1546.44 1203.53 1549.58 1200.44 1555.85 1196.97 1558.91 1194.1 1561.76 1192.66 1564.42 1192.66 1566.17 1192.66 1567.05 1193.63 1567.05 1195.56L1559.61 1199.62C1557.59 1200.72 1556.05 1201.59 1555.02 1202.23L1554.27 1202.73 1555.65 1202.53C1558.57 1201.77 1562.63 1199.87 1567.84 1196.83 1575 1192.64 1578.58 1189.36 1578.58 1187 1578.58 1185.37 1575.99 1184.55 1570.8 1184.55 1564.06 1184.55 1554.43 1186.54 1541.91 1190.51 1533.41 1193.21 1526.02 1196.06 1519.73 1199.05 1509.17 1204.02 1503.89 1208.34 1503.89 1212.01 1503.89 1213.99 1506.95 1215.55 1513.05 1216.69L1534.22 1219.43C1542.65 1220.69 1547.69 1222.47 1549.33 1224.74 1551.82 1228.03 1553.06 1231.13 1553.06 1234.05L1551.72 1238.12 1560.78 1232.56C1563.81 1231.24 1566.64 1230.58 1569.27 1230.58 1574.32 1230.58 1576.84 1232.57 1576.84 1236.53 1576.84 1238.14 1576.43 1239.35 1575.6 1240.19 1577.05 1240.57 1577.77 1241.68 1577.77 1243.5 1577.77 1244.15 1571.52 1251.33 1559.01 1265.04L1562.47 1265.04 1562.86 1265.18 1563.24 1265C1564.87 1264.69 1566.48 1264.3 1568.07 1263.83 1571.02 1262.18 1576.49 1258.2 1584.48 1251.9 1588.26 1248.94 1593.68 1244.43 1600.74 1238.36 1601.98 1237.07 1603.99 1235.3 1606.76 1233.05 1608.15 1232.16 1609.42 1231.71 1610.58 1231.71 1614.02 1231.71 1615.74 1232.98 1615.74 1235.52 1615.74 1237.53 1612.7 1241.9 1606.63 1248.63 1602.07 1253.68 1599.22 1257.55 1598.09 1260.24L1597.59 1262.24 1598.28 1262.08C1600.95 1260.99 1606.21 1256.1 1614.06 1247.41 1623.02 1237.48 1628.31 1232.51 1629.91 1232.51 1630.91 1232.51 1631.84 1232.97 1632.69 1233.89 1633.54 1234.8 1633.96 1235.74 1633.96 1236.71 1633.96 1238.07 1630.63 1242.62 1623.96 1250.38 1617.29 1258.14 1613.95 1262.95 1613.95 1264.81 1613.95 1264.96 1614.68 1265.06 1616.14 1265.1L1616.67 1265.31 1617.48 1264.93C1621.34 1264.31 1626.78 1261.25 1633.78 1255.74L1642.17 1249.16 1655.61 1238.41C1662.06 1233.94 1667.6 1231.71 1672.25 1231.71 1676.32 1231.71 1678.49 1233.35 1678.76 1236.61 1679.38 1234.99 1680.2 1234.17 1681.21 1234.17 1683.56 1234.17 1684.74 1235.21 1684.74 1237.29 1684.74 1239.12 1681.41 1243.94 1674.76 1251.73 1668.12 1259.52 1664.79 1263.91 1664.79 1264.89 1664.79 1264.95 1665.5 1265 1666.91 1265.04L1667.47 1265.26 1668.01 1264.95C1671.26 1264.15 1674.68 1262.9 1678.27 1261.2 1681.3 1258.94 1686.53 1254.56 1693.97 1248.05 1701.4 1241.54 1707.17 1237.07 1711.29 1234.64 1714.36 1232.82 1717.17 1231.91 1719.71 1231.91 1724.44 1231.91 1726.84 1233.51 1726.93 1236.71 1731.9 1228.89 1738.43 1221 1746.53 1213.04 1759.65 1196.84 1767.65 1188.74 1770.53 1188.74 1772.84 1188.74 1774 1189.96 1774 1192.41 1774 1194.07 1772.12 1196.88 1768.35 1200.85 1761.76 1207.73 1752.03 1218.74 1739.17 1233.89 1723.51 1252.34 1715.68 1262.62 1715.68 1264.74 1715.68 1264.9 1716.39 1265 1717.81 1265.04 1719.22 1265.08 1719.93 1265.88 1719.93 1267.44 1719.93 1269.21 1718.43 1270.1 1715.43 1270.1 1711.14 1270.1 1708.99 1268.24 1708.99 1264.52 1708.99 1262 1710.41 1258.92 1713.25 1255.27 1706 1264.4 1700.37 1268.97 1696.37 1268.97 1692.15 1268.97 1690.04 1266.74 1690.04 1262.29 1690.04 1260.09 1690.99 1257.41 1692.9 1254.24L1682.79 1263.41C1676.43 1267.73 1671.45 1269.9 1667.82 1269.9L1666.96 1269.6 1665.77 1269.93C1665.05 1270.04 1664.2 1270.1 1663.23 1270.1 1659.46 1270.1 1657.57 1268.37 1657.57 1264.91 1657.57 1262.61 1658.75 1260.14 1661.1 1257.49L1655.12 1264.14C1651 1267.22 1647.61 1268.77 1644.94 1268.77 1640.32 1268.77 1638.02 1266.43 1638.02 1261.76 1638.02 1259.49 1638.52 1257.63 1639.51 1256.17 1629.17 1265.32 1621.64 1269.9 1616.93 1269.9L1616.29 1269.68 1615.71 1269.87C1615.12 1269.98 1614.44 1270.03 1613.67 1270.03 1609.13 1270.03 1606.86 1268.19 1606.86 1264.52 1606.86 1262.3 1607.77 1260 1609.58 1257.63 1603.31 1265.01 1598.2 1268.7 1594.26 1268.7 1590.69 1268.7 1588.9 1266.76 1588.9 1262.88 1588.9 1259.06 1590.51 1254.88 1593.74 1250.34L1601.97 1242.45 1585.78 1257.46C1574.91 1265.75 1567.2 1269.9 1562.64 1269.9L1562.42 1269.82 1561.92 1269.97C1561.3 1270.05 1560.58 1270.07 1559.75 1270.03 1560.14 1270.45 1560.34 1271.14 1560.34 1272.09 1560.34 1277.08 1556.5 1284.34 1548.82 1293.86 1541.02 1303.61 1534.81 1308.48 1530.19 1308.48 1526.87 1308.48 1525.22 1306.56 1525.22 1302.72 1525.22 1297.31 1529.83 1289.12 1539.05 1278.14L1556.31 1259.13C1549.17 1266.09 1543.79 1269.56 1540.15 1269.56 1535.36 1269.56 1532.97 1267.25 1532.97 1262.63L1535.59 1256.44 1530.27 1260.36C1525.86 1262.97 1521.06 1265.2 1515.87 1267.07 1506.09 1270.55 1496.04 1272.29 1485.72 1272.29 1471.06 1272.29 1463.73 1267.69 1463.73 1258.49 1463.73 1253 1467.61 1248.38 1475.36 1244.61 1482.78 1240.31 1489.37 1238.17 1495.13 1238.17 1497.84 1238.17 1499.19 1239.15 1499.19 1241.12 1499.19 1242.64 1497.88 1243.58 1495.27 1243.95 1490.15 1244.76 1485.45 1246.11 1481.19 1248 1474.28 1251.08 1470.82 1254.23 1470.82 1257.45 1470.82 1261.18 1475.7 1263.05 1485.46 1263.05 1494.01 1263.05 1503.18 1261.33 1512.98 1257.9 1523.01 1254.38 1531.2 1249.91 1537.55 1244.5 1543.56 1239.35 1546.57 1235.64 1546.57 1233.34 1546.57 1231.48 1542.69 1230.09 1534.93 1229.18 1520.74 1227.52 1512.65 1226.46 1510.65 1225.99 1501.73 1223.81 1497.27 1219.71 1497.27 1213.69 1497.27 1206.46 1502.47 1199.67 1512.89 1193.33 1521.18 1188.27 1531.71 1184 1544.49 1180.53 1555.73 1177.49 1564.73 1175.97 1571.48 1175.97ZM1350.61 1138.07 1349.86 1138.79 1350.28 1138.07ZM1510.76 1116.01C1517.72 1116.15 1524 1117.64 1529.61 1120.51 1537.08 1124.32 1541.17 1129.63 1541.87 1136.41 1542.25 1140.04 1541.38 1143.38 1539.28 1146.43 1537.17 1149.48 1534.32 1151.19 1530.72 1151.57 1528.04 1151.85 1525.63 1151.16 1523.51 1149.5 1521.4 1147.84 1520.2 1145.7 1519.93 1143.06 1519.62 1140.13 1520.43 1137.57 1522.36 1135.39 1524.28 1133.21 1526.5 1131.99 1529 1131.73L1531.44 1131.99 1529.98 1129.95C1528.47 1128.79 1526.26 1127.59 1523.36 1126.37 1517.56 1123.92 1511.02 1123.08 1503.74 1123.84 1479.91 1126.32 1455.87 1139.87 1431.61 1164.48 1410.39 1186.02 1385.19 1218.67 1356.01 1262.46L1356.01 1262.47 1360.11 1260.57C1363.78 1258.3 1367.98 1255.22 1372.71 1251.34L1384.14 1241.89 1391.48 1235.38C1395.78 1231.65 1398.36 1229.78 1399.2 1229.78 1400.63 1229.78 1402.02 1230.28 1403.34 1231.27 1404.67 1232.27 1405.33 1233.68 1405.33 1235.5L1394.74 1247.87C1389.8 1253.77 1386.71 1258.13 1385.47 1260.96L1384.9 1263.08 1385.78 1262.89C1388.56 1261.86 1394.25 1257.23 1402.85 1248.99 1410.21 1241.94 1416.33 1235.63 1421.22 1230.08 1422.49 1228.64 1423.54 1227.92 1424.36 1227.92 1425.46 1227.92 1426.62 1228.32 1427.83 1229.12 1429.04 1229.92 1429.65 1230.94 1429.65 1232.18 1429.65 1232.94 1429.37 1233.02 1428.8 1232.41 1420.57 1242.61 1411.83 1253.53 1402.59 1265.17L1405.92 1265.04 1406.19 1265.17 1406.52 1264.98C1409.13 1264.51 1411.57 1263.72 1413.85 1262.63 1416.51 1260.99 1421.5 1257.25 1428.84 1251.42L1445.57 1237.61C1449.26 1234.34 1451.65 1232.71 1452.73 1232.71 1454.19 1232.71 1455.43 1233.33 1456.44 1234.58 1458.58 1232.67 1460.76 1231.71 1463 1231.71 1466.87 1231.71 1468.8 1233.74 1468.8 1237.8 1468.8 1242.87 1464.9 1249.63 1457.1 1258.09 1449.18 1266.63 1442.65 1270.9 1437.52 1270.9 1432.22 1270.9 1429.57 1268.13 1429.57 1262.59 1429.57 1259.91 1430.98 1256.55 1433.79 1252.5L1422.4 1262.59C1415.43 1267.46 1410.11 1269.9 1406.43 1269.9L1405.56 1269.61 1403.32 1270.22 1399.75 1270.39 1381.83 1292.67C1370.81 1305.3 1362.8 1311.61 1357.81 1311.61 1354.77 1311.61 1353.24 1309.71 1353.24 1305.9 1353.24 1299.04 1357.6 1291.24 1366.32 1282.51 1375.04 1273.78 1383.87 1268.4 1392.82 1266.37L1405.72 1251.49 1397.23 1260.76C1390.54 1266.32 1385.86 1269.1 1383.17 1269.1 1379.57 1269.1 1377.76 1266.72 1377.76 1261.96 1377.76 1258.33 1379.44 1254.12 1382.79 1249.32L1383.18 1248.92 1374.99 1255.99C1369.56 1260.31 1365.87 1263.12 1363.93 1264.4 1361.21 1266.24 1358.72 1267.61 1356.48 1268.52L1351.25 1269.71 1343.27 1281.9 1308.19 1343.2 1302.28 1339.93C1306.03 1332.24 1309.01 1324.98 1311.22 1318.14 1313.42 1311.3 1315.34 1298.03 1316.98 1278.32 1318.61 1258.61 1320.45 1243.47 1322.49 1232.9 1324.52 1222.33 1328.3 1209.12 1333.83 1193.27 1334.52 1191.29 1335.2 1189.39 1335.86 1187.57L1336.66 1185.44 1320.24 1211.99C1290.98 1258.33 1263.29 1293.73 1237.18 1318.18 1211.07 1342.63 1186 1356.11 1161.99 1358.62 1150.57 1359.81 1140.96 1358.22 1133.18 1353.84 1125.4 1349.47 1121.07 1343.11 1120.21 1334.76 1119.63 1329.16 1120.99 1324.03 1124.3 1319.37 1127.61 1314.7 1131.74 1312.11 1136.71 1311.6 1139.96 1311.26 1142.91 1312.08 1145.57 1314.06 1148.22 1316.04 1149.71 1318.62 1150.04 1321.78 1150.36 1324.82 1149.57 1327.47 1147.68 1329.75 1145.79 1332.03 1143.27 1333.33 1140.1 1333.67 1136.21 1334.07 1133.23 1333.14 1131.15 1330.88L1129.62 1328.54 1129.49 1328.62C1129.04 1329.3 1128.95 1330.9 1129.21 1333.41 1129.82 1339.3 1133.08 1343.92 1138.99 1347.26 1144.89 1350.6 1152.5 1351.78 1161.8 1350.81 1181.16 1348.79 1201.91 1338.61 1224.08 1320.26 1246.24 1301.92 1270.77 1272.51 1297.68 1232.03 1324.6 1191.55 1342.8 1163.06 1352.29 1146.56 1355.08 1141.59 1357.85 1137.64 1360.61 1134.72L1365.79 1136.92C1355.2 1152.87 1348.05 1179.69 1344.34 1217.39L1342.43 1234.12C1340.26 1253.96 1334.74 1275.8 1325.88 1299.65L1324.08 1304.06 1345.74 1268.44C1375.61 1219.9 1403.11 1183.07 1428.22 1157.95 1453.34 1132.83 1478.46 1118.95 1503.58 1116.33 1506.05 1116.07 1508.44 1115.96 1510.76 1116.01Z" fill="#FFFFFF" fill-rule="evenodd"/><path d="M2223.74 1221.34 2223.02 1223.71C2222.05 1226.43 2220.94 1229.08 2219.72 1231.64L2219 1232.97 2219.72 1231.64C2220.94 1229.08 2222.05 1226.43 2223.02 1223.71ZM2247.62 1180.31C2240.92 1180.03 2234.29 1180.44 2227.81 1181.46L2227.05 1181.62 2218.23 1183.46C2211.92 1185.1 2205.82 1187.34 2199.99 1190.13L2199.83 1190.22 2202.31 1193.9C2208.26 1201.9 2216.15 1208.51 2225.5 1212.95L2225.98 1213.15 2227.23 1206.75C2228.04 1201.03 2228.27 1195.34 2227.93 1189.74L2227.05 1181.62 2227.81 1181.46C2234.29 1180.44 2240.92 1180.03 2247.62 1180.31L2248.69 1180.4 2249.57 1188.46C2249.98 1195.47 2249.7 1202.6 2248.68 1209.77L2246.94 1218.7 2249.9 1218.97C2268.53 1219.73 2286.25 1212.05 2298.46 1198.73L2299.65 1197.29 2299.65 1197.29 2299.65 1197.29 2295.92 1194.78C2287.42 1189.65 2278.01 1185.7 2267.86 1183.19 2264.48 1182.36 2261.1 1181.71 2257.72 1181.23L2248.69 1180.4ZM2196.72 1128.84 2196.72 1128.84 2196.09 1130.01C2194.3 1133.74 2192.87 1137.71 2191.84 1141.88 2189.77 1150.21 2189.49 1158.57 2190.77 1166.55L2191.81 1171.52 2191.81 1171.52 2192 1172.46C2193.53 1178.28 2195.89 1183.83 2198.98 1188.94 2195.89 1183.83 2193.53 1178.28 2192 1172.46L2191.81 1171.52 2201.92 1167.26C2205.58 1165.92 2209.31 1164.75 2213.09 1163.77L2221.41 1162.03 2219.65 1157.88C2214.9 1148.01 2208.28 1139.08 2200.12 1131.65ZM2202.87 1119.01 2202.42 1119.55 2200.82 1121.92 2202.42 1119.55ZM2145.77 1109.4C2105.95 1107.78 2069.14 1134.2 2059.2 1174.29 2047.83 1220.11 2075.86 1266.44 2121.8 1277.77L2122.35 1277.88 2122.34 1276.14C2122.67 1268.1 2123.81 1259.98 2125.82 1251.87 2132.86 1223.48 2149.41 1199.93 2171.26 1183.77L2172.6 1182.87 2173.46 1185.61C2175.32 1190.66 2177.66 1195.51 2180.44 1200.1L2181.5 1201.68 2175.91 1206.24C2161.48 1219.23 2150.64 1236.51 2145.62 1256.76 2143.95 1263.5 2143 1270.26 2142.73 1276.95L2142.76 1280.19 2138.98 1280.22C2136.13 1280.11 2133.27 1279.85 2130.41 1279.44L2122.35 1277.88 2122.35 1277.88 2130.41 1279.44C2133.27 1279.85 2136.13 1280.11 2138.98 1280.22L2142.76 1280.19 2147.46 1280.15C2175.51 1278.49 2201.15 1263.06 2215.7 1239.08L2218.71 1233.5 2223.96 1235.68C2226.63 1236.63 2229.38 1237.46 2232.19 1238.15L2239.82 1239.63 2239.27 1240.95C2222.41 1276.28 2187.4 1299.44 2148.74 1301.72L2144.95 1301.76 2143.88 1296.7C2143.37 1293.47 2143.01 1290.2 2142.82 1286.91 2143.01 1290.2 2143.37 1293.47 2143.88 1296.7L2144.95 1301.76 2145.89 1306.26C2154.93 1340.83 2182.17 1369.5 2219.37 1378.68 2273.5 1392.03 2328.23 1359.1 2341.62 1305.12 2349.99 1271.38 2340.23 1237.4 2318.52 1213.41L2316.25 1211.13 2314.46 1213.28C2296.19 1233.23 2268.74 1243.78 2240.64 1239.79L2239.82 1239.63 2243.41 1231.02C2244.63 1227.61 2245.69 1224.11 2246.58 1220.52L2246.94 1218.7 2246.94 1218.7 2246.58 1220.52C2245.69 1224.11 2244.63 1227.61 2243.41 1231.02L2239.82 1239.63 2232.19 1238.15C2229.38 1237.46 2226.63 1236.63 2223.96 1235.68L2218.71 1233.5 2218.71 1233.5 2216.17 1232.45C2203.57 1226.46 2192.94 1217.55 2184.93 1206.78L2181.5 1201.68 2180.44 1200.1C2177.66 1195.51 2175.32 1190.66 2173.46 1185.61L2172.6 1182.87 2171.04 1177.89C2167.62 1164.82 2167.33 1150.73 2170.82 1136.69 2172.21 1131.07 2174.14 1125.73 2176.54 1120.71L2178.38 1117.29 2178.38 1117.29 2171.35 1114.38C2168.63 1113.4 2165.82 1112.56 2162.95 1111.85 2157.21 1110.43 2151.46 1109.63 2145.77 1109.4ZM2146.63 1087.8C2153.76 1088.09 2160.96 1089.1 2168.16 1090.88 2175.35 1092.65 2182.19 1095.11 2188.63 1098.17L2191.12 1099.51 2190.28 1100.35C2186.62 1104.34 2183.33 1108.7 2180.48 1113.41 2183.33 1108.7 2186.62 1104.34 2190.28 1100.35L2191.12 1099.51 2197.99 1103.19C2201 1105.01 2203.9 1106.97 2206.69 1109.05L2209.69 1111.52 2209.69 1111.52 2214.72 1115.68C2227.5 1127.32 2237.27 1141.89 2243.2 1158.02L2243.83 1160.01 2248.43 1159.97C2256.49 1160.3 2264.63 1161.44 2272.76 1163.44 2284.96 1166.45 2296.27 1171.21 2306.48 1177.37L2310.21 1179.88 2310.21 1179.88 2316.33 1183.99C2319.48 1186.35 2322.51 1188.85 2325.4 1191.48L2327.72 1193.81 2333.65 1199.76C2359.75 1228.61 2371.48 1269.45 2361.42 1310 2345.32 1374.89 2279.54 1414.48 2214.48 1398.43 2169.75 1387.39 2137.01 1352.93 2126.14 1311.38L2123.79 1300.14 2116.59 1298.75C2059.04 1284.55 2023.93 1226.5 2038.17 1169.1 2050.63 1118.87 2096.74 1085.78 2146.63 1087.8ZM2251.53 1073C2258.46 1072.94 2265.51 1073.74 2272.55 1075.47 2317.59 1086.59 2345.07 1132.01 2333.92 1176.94 2332.53 1182.55 2330.6 1187.89 2328.2 1192.92L2327.72 1193.81 2325.4 1191.48C2322.51 1188.85 2319.48 1186.35 2316.33 1183.99L2310.21 1179.88 2311.06 1177.85C2311.77 1175.87 2312.39 1173.83 2312.9 1171.75 2321.17 1138.41 2300.78 1104.69 2267.35 1096.44 2246.45 1091.28 2225.41 1097.3 2210.55 1110.67L2209.69 1111.52 2206.69 1109.05C2203.9 1106.97 2201 1105.01 2197.99 1103.19L2191.12 1099.51 2196.02 1094.65C2211.04 1081.13 2230.74 1073.2 2251.53 1073Z" fill="#FFFFFF" fill-rule="evenodd"/><path d="M2856.37 1218.87C2852.1 1218.87 2848.38 1220.04 2845.2 1222.39 2842.02 1224.73 2839.07 1228.94 2836.35 1235.03 2833.62 1241.11 2832.26 1247.19 2832.26 1253.25 2832.26 1256.47 2832.8 1258.79 2833.89 1260.21 2834.98 1261.63 2836.41 1262.34 2838.16 1262.34 2841.43 1262.34 2844.94 1260.58 2848.69 1257.05 2852.43 1253.52 2855.18 1248.44 2856.94 1241.81L2862.84 1219.65C2860.28 1219.13 2858.12 1218.87 2856.37 1218.87ZM2707.06 1218.09C2704.74 1218.09 2701.98 1219.48 2698.78 1222.28 2695.58 1225.07 2692.56 1230.01 2689.71 1237.09 2686.87 1244.17 2685.44 1251.12 2685.44 1257.94 2685.44 1260.49 2686.26 1262.64 2687.9 1264.36 2689.53 1266.09 2691.44 1266.96 2693.62 1266.96 2698.89 1266.96 2703.58 1262.8 2707.7 1254.49 2711.83 1246.18 2713.89 1237.91 2713.89 1229.67 2713.89 1225.92 2713.11 1222.87 2711.55 1220.5 2710.45 1218.89 2708.96 1218.09 2707.06 1218.09ZM3010.17 1215.32C3006.14 1215.32 3002.24 1218.19 2998.47 1223.95 2994.7 1229.7 2992.82 1237.65 2992.82 1247.78 2992.82 1253.93 2993.98 1258.79 2996.3 1262.34 2998.01 1264.94 3000.29 1266.25 3003.13 1266.25 3007.11 1266.25 3010.74 1263.78 3014.01 1258.86 3018.19 1252.47 3020.27 1244.53 3020.27 1235.06 3020.27 1227.96 3019.31 1222.89 3017.39 1219.86 3015.47 1216.83 3013.06 1215.32 3010.17 1215.32ZM3077.33 1209.99C3080.84 1209.99 3083.5 1210.65 3085.3 1211.98 3087.1 1213.31 3088 1214.92 3088 1216.81 3088 1218.28 3087.53 1219.47 3086.58 1220.4 3085.63 1221.32 3084.3 1221.78 3082.6 1221.78 3080.94 1221.78 3078.8 1221.02 3076.19 1219.51 3073.49 1217.9 3071.24 1217.09 3069.44 1217.09 3067.11 1217.09 3064.8 1218.15 3062.5 1220.25 3060.2 1222.35 3058.01 1226.43 3055.93 1232.48 3053.84 1238.54 3052.8 1244.61 3052.8 1250.71 3052.8 1255.2 3053.67 1258.68 3055.43 1261.14 3056.71 1263.03 3058.51 1263.97 3060.83 1263.97 3066.38 1263.97 3072.99 1260.75 3080.67 1254.31L3082.17 1258.43C3070.88 1267.29 3061.35 1271.72 3053.58 1271.72 3049.45 1271.72 3046.46 1270.25 3044.58 1267.31 3042.71 1264.38 3041.77 1260.66 3041.77 1256.16 3041.77 1248.68 3043.76 1240.98 3047.75 1233.08 3051.73 1225.17 3056.57 1219.11 3062.25 1214.89 3066.71 1211.62 3071.74 1209.99 3077.33 1209.99ZM3016.22 1209.99C3020.86 1209.99 3024.73 1211.84 3027.81 1215.53 3030.89 1219.22 3032.43 1224.36 3032.43 1230.94 3032.43 1241.46 3028.73 1250.89 3021.34 1259.25 3013.94 1267.61 3006.12 1271.79 2997.87 1271.79 2992.8 1271.79 2988.71 1270.13 2985.6 1266.81 2982.5 1263.5 2980.94 1258.98 2980.94 1253.25 2980.94 1243.3 2983.79 1234.12 2989.48 1225.69 2996.64 1215.22 3005.55 1209.99 3016.22 1209.99ZM2963.61 1209.99C2967.83 1209.99 2971.09 1210.81 2973.39 1212.44 2975.69 1214.07 2976.84 1215.96 2976.84 1218.09 2976.84 1219.37 2976.36 1220.48 2975.38 1221.43 2974.41 1222.37 2973.24 1222.85 2971.86 1222.85 2970.96 1222.85 2970.18 1222.65 2969.52 1222.24 2968.85 1221.84 2967.9 1220.83 2966.67 1219.22 2964.35 1216.15 2962.05 1214.61 2959.77 1214.61 2957.83 1214.61 2956.11 1215.35 2954.62 1216.84 2953.12 1218.33 2952.38 1220.19 2952.38 1222.41 2952.38 1224.35 2952.85 1226.23 2953.8 1228.05 2954.75 1229.87 2957.14 1232.82 2960.98 1236.88 2966.25 1242.46 2968.88 1247.76 2968.88 1252.77 2968.88 1257.79 2966.74 1262.17 2962.48 1265.93 2958.21 1269.69 2952.71 1271.57 2945.98 1271.57 2940.33 1271.57 2936.14 1270.43 2933.39 1268.13 2930.64 1265.83 2929.26 1263 2929.26 1259.64 2929.26 1257.98 2929.79 1256.61 2930.83 1255.52 2931.87 1254.43 2933.15 1253.89 2934.67 1253.89 2936 1253.89 2937.13 1254.33 2938.08 1255.2 2939.03 1256.08 2939.5 1257.11 2939.5 1258.29 2939.5 1258.76 2939.47 1259.38 2939.41 1260.14 2939.38 1260.75 2939.36 1261.27 2939.36 1261.7 2939.36 1263.26 2940.02 1264.59 2941.35 1265.68 2942.62 1266.77 2944.37 1267.31 2946.59 1267.31 2949.14 1267.31 2951.39 1266.87 2953.32 1266 2955.26 1265.12 2956.77 1263.8 2957.86 1262.03 2958.95 1260.25 2959.49 1258.49 2959.49 1256.74 2959.49 1255.04 2958.98 1253.34 2957.96 1251.63 2956.94 1249.93 2954.65 1247.12 2951.1 1243.19 2946.17 1237.7 2943.7 1232.43 2943.7 1227.37 2943.7 1222.74 2945.57 1218.68 2949.32 1215.2 2953.06 1211.73 2957.83 1209.99 2963.61 1209.99ZM2915.06 1209.99C2919.28 1209.99 2922.54 1210.81 2924.84 1212.44 2927.14 1214.07 2928.29 1215.96 2928.29 1218.09 2928.29 1219.37 2927.81 1220.48 2926.83 1221.43 2925.86 1222.37 2924.69 1222.85 2923.31 1222.85 2922.41 1222.85 2921.63 1222.65 2920.97 1222.24 2920.3 1221.84 2919.35 1220.83 2918.12 1219.22 2915.8 1216.15 2913.5 1214.61 2911.22 1214.61 2909.28 1214.61 2907.56 1215.35 2906.07 1216.84 2904.57 1218.33 2903.83 1220.19 2903.83 1222.41 2903.83 1224.35 2904.3 1226.23 2905.25 1228.05 2906.2 1229.87 2908.59 1232.82 2912.43 1236.88 2917.69 1242.46 2920.33 1247.76 2920.33 1252.77 2920.33 1257.79 2918.19 1262.17 2913.93 1265.93 2909.66 1269.69 2904.16 1271.57 2897.43 1271.57 2891.78 1271.57 2887.59 1270.43 2884.84 1268.13 2882.09 1265.83 2880.71 1263 2880.71 1259.64 2880.71 1257.98 2881.23 1256.61 2882.28 1255.52 2883.32 1254.43 2884.6 1253.89 2886.12 1253.89 2887.45 1253.89 2888.58 1254.33 2889.53 1255.2 2890.48 1256.08 2890.95 1257.11 2890.95 1258.29 2890.95 1258.76 2890.92 1259.38 2890.86 1260.14 2890.83 1260.75 2890.81 1261.27 2890.81 1261.7 2890.81 1263.26 2891.47 1264.59 2892.8 1265.68 2894.07 1266.77 2895.82 1267.31 2898.04 1267.31 2900.59 1267.31 2902.84 1266.87 2904.77 1266 2906.71 1265.12 2908.22 1263.8 2909.31 1262.03 2910.4 1260.25 2910.94 1258.49 2910.94 1256.74 2910.94 1255.04 2910.43 1253.34 2909.41 1251.63 2908.39 1249.93 2906.1 1247.12 2902.55 1243.19 2897.62 1237.7 2895.15 1232.43 2895.15 1227.37 2895.15 1222.74 2897.02 1218.68 2900.77 1215.2 2904.51 1211.73 2909.28 1209.99 2915.06 1209.99ZM2755.28 1209.78C2756.28 1209.78 2757.03 1209.99 2757.53 1210.42 2758.03 1210.84 2758.28 1211.43 2758.28 1212.19 2758.28 1213.14 2757.9 1214.96 2757.14 1217.66 2756.05 1221.64 2755.29 1224.79 2754.86 1227.11 2766.21 1215.55 2774.89 1209.78 2780.9 1209.78 2782.46 1209.78 2783.64 1210.2 2784.44 1211.06 2785.25 1211.91 2785.65 1213.26 2785.65 1215.1 2785.65 1217.09 2784.94 1220.48 2783.52 1225.26 2788.93 1219.63 2793.63 1215.64 2797.61 1213.29 2801.6 1210.95 2804.7 1209.78 2806.93 1209.78 2808.93 1209.78 2810.47 1210.35 2811.56 1211.48 2812.65 1212.62 2813.2 1214.37 2813.2 1216.74 2813.2 1218.16 2812.96 1219.84 2812.49 1221.78 2812.01 1223.72 2810.28 1229.64 2807.29 1239.54 2803.55 1251.8 2801.68 1259.12 2801.68 1261.49 2801.68 1263.1 2802.34 1263.9 2803.67 1263.9 2804.57 1263.9 2805.45 1263.62 2806.3 1263.05 2809.1 1261.06 2811.96 1258.6 2814.9 1255.66L2817.25 1258.22C2816.26 1259.02 2814.38 1260.68 2811.63 1263.19 2807.84 1266.6 2805.23 1268.73 2803.81 1269.58 2801.06 1271.19 2798.74 1272 2796.84 1272 2795.42 1272 2794.16 1271.3 2793.07 1269.9 2791.98 1268.51 2791.44 1266.58 2791.44 1264.12 2791.44 1261.84 2791.77 1259.18 2792.43 1256.12 2793.09 1253.07 2795.04 1246.22 2798.26 1235.56 2800.68 1227.56 2801.89 1222.7 2801.89 1221 2801.89 1219.39 2801.18 1218.59 2799.76 1218.59 2798.57 1218.59 2796.98 1219.18 2794.99 1220.36 2790.91 1222.82 2787.5 1225.83 2784.75 1229.38 2782.85 1231.84 2781.19 1235.75 2779.77 1241.1 2776.6 1252.8 2774.22 1262.34 2772.66 1269.73L2762.56 1269.73 2773.16 1226.33C2773.92 1223.2 2774.3 1221.4 2774.3 1220.93 2774.3 1220.17 2774.11 1219.59 2773.73 1219.19 2773.35 1218.79 2772.8 1218.59 2772.09 1218.59 2770.82 1218.59 2768.83 1219.58 2766.13 1221.57 2761.44 1224.93 2758.07 1228.19 2756.01 1231.33 2753.95 1234.48 2752.19 1239.28 2750.72 1245.72L2745.26 1269.73 2735.04 1269.73 2743.07 1235.85C2745.45 1226.04 2746.63 1220.72 2746.63 1219.86 2746.63 1218.77 2746.2 1218.23 2745.35 1218.23 2743.5 1218.23 2739.73 1220.93 2734.04 1226.33L2731.91 1223.49C2736.6 1218.8 2741.06 1215.34 2745.29 1213.12 2749.52 1210.89 2752.85 1209.78 2755.28 1209.78ZM2876.35 1207.79 2871.02 1225.76C2868.88 1232.91 2866.87 1241.15 2864.97 1250.48 2863.93 1255.54 2863.41 1258.81 2863.41 1260.28 2863.41 1261.75 2864 1262.48 2865.19 1262.48 2865.94 1262.48 2867.15 1261.98 2868.81 1260.99 2871.75 1259.24 2874.57 1257.06 2877.28 1254.46L2879.55 1257.23C2874.15 1262.15 2870.68 1265.13 2869.17 1266.18 2866.13 1268.26 2863.24 1269.8 2860.49 1270.79 2858.69 1271.46 2856.94 1271.79 2855.23 1271.79 2854 1271.79 2853.07 1271.5 2852.45 1270.93 2851.84 1270.37 2851.53 1269.54 2851.53 1268.45 2851.53 1267.74 2851.72 1266.77 2852.1 1265.54L2854.94 1255.88C2850.87 1260.75 2846.01 1264.94 2840.37 1268.45 2836.9 1270.63 2833.73 1271.72 2830.83 1271.72 2828.08 1271.72 2825.98 1270.74 2824.51 1268.8 2822.51 1266.2 2821.52 1262.79 2821.52 1258.58 2821.52 1253.56 2822.86 1247.97 2825.54 1241.81 2828.22 1235.66 2831.81 1230.07 2836.31 1225.05 2840.81 1220.03 2845.56 1216.34 2850.53 1213.97 2854.38 1212.17 2859.31 1211.27 2865.33 1211.27 2866.84 1211.27 2868.39 1211.36 2869.95 1211.55L2871.66 1208.78ZM2654.09 1194.73 2648.98 1214.61 2663.71 1214.61 2662.57 1219.65 2647.83 1219.65 2641.63 1243.45C2639.66 1250.6 2638.67 1255.57 2638.67 1258.36 2638.67 1259.64 2638.94 1260.56 2639.49 1261.13 2640.04 1261.7 2640.78 1261.98 2641.73 1261.98 2643.2 1261.98 2645.45 1261.11 2648.49 1259.36 2652.47 1257.04 2656.26 1254.41 2659.87 1251.47L2662.57 1254.74C2652.18 1262.55 2645.24 1267.34 2641.73 1269.09 2638.22 1270.84 2635.4 1271.72 2633.27 1271.72 2631.51 1271.72 2630.13 1271.08 2629.11 1269.8 2628.09 1268.52 2627.58 1266.44 2627.58 1263.55 2627.58 1260.14 2628.48 1254.93 2630.28 1247.92L2637.52 1219.65 2626 1219.65 2627.28 1214.61 2638.81 1214.61 2642.8 1199.05ZM2720.51 1170C2723.21 1170 2725.19 1170.46 2726.44 1171.39 2727.7 1172.31 2728.33 1173.55 2728.33 1175.11 2728.33 1176.53 2727.76 1177.72 2726.62 1178.67 2725.48 1179.61 2723.87 1180.09 2721.78 1180.09 2720.22 1180.09 2717.51 1179.73 2713.67 1179.02 2711.96 1178.69 2710.45 1178.52 2709.12 1178.52 2706.75 1178.52 2704.83 1179.8 2703.36 1182.36 2702.26 1184.35 2700.77 1189.39 2698.87 1197.49L2693.05 1222.42C2696.9 1218.21 2700.68 1215.12 2704.4 1213.15 2708.12 1211.19 2711.4 1210.2 2714.25 1210.2 2717.57 1210.2 2720.22 1211.53 2722.21 1214.18 2724.2 1216.83 2725.2 1220.83 2725.2 1226.18 2725.2 1233.95 2723.37 1241.55 2719.72 1248.99 2716.07 1256.42 2711.56 1262.08 2706.18 1265.96 2700.79 1269.85 2695.54 1271.79 2690.42 1271.79 2686.06 1271.79 2682.58 1270.51 2679.97 1267.95 2677.36 1265.39 2676.06 1262.08 2676.06 1258.01 2676.06 1254.74 2676.7 1250.19 2677.98 1244.37L2686.37 1206.79C2688.41 1197.61 2690.97 1190.61 2694.05 1185.8 2697.13 1181 2701.19 1177.16 2706.21 1174.3 2711.24 1171.43 2716 1170 2720.51 1170Z" fill="#FFFFFF" fill-rule="evenodd"/></g></svg>