<svg width="1942" height="416" xmlns="http://www.w3.org/2000/svg" xmlns:xlink="http://www.w3.org/1999/xlink" xml:space="preserve" overflow="hidden"><defs><clipPath id="clip0"><rect x="1229" y="848" width="1942" height="416"/></clipPath></defs><g clip-path="url(#clip0)" transform="translate(-1229 -848)"><path d="M2245.15 1126.45C2233.58 1130.71 2222.33 1138.59 2211.4 1150.09 2200.47 1161.6 2195 1170.88 2195 1177.94 2195 1178.88 2195.09 1179.34 2195.27 1179.34 2201.17 1179.34 2217.79 1161.71 2245.15 1126.45ZM2507.69 1123.67C2501.99 1131.13 2493.87 1140.31 2483.33 1151.21 2477.07 1161.48 2473.16 1168.77 2471.59 1173.1L2470.96 1175.78 2471.31 1175.69C2474.49 1174.32 2480.96 1168.13 2490.73 1157.12 2501.89 1144.54 2507.48 1134.47 2507.48 1126.91 2507.48 1125.53 2507.55 1124.44 2507.69 1123.67ZM2339.44 1083.5C2328.31 1094.96 2322.74 1104.22 2322.74 1111.28 2322.74 1113.18 2323.58 1114.13 2325.27 1114.13 2329.77 1114.13 2337.11 1109.01 2347.28 1098.79 2341.5 1097.71 2338.6 1093.59 2338.6 1086.44 2338.6 1084.59 2338.88 1083.61 2339.44 1083.5ZM2771.78 1072.92C2767.62 1072.92 2760.27 1078.4 2749.73 1089.36 2744.45 1094.85 2740.5 1099.52 2737.86 1103.39L2733.92 1112.58 2733.77 1112.66C2733.86 1112.66 2733.91 1112.64 2733.91 1112.59L2733.92 1112.58 2741.72 1108.42C2745.36 1105.6 2749.98 1101.37 2755.59 1095.72 2766.82 1084.43 2772.44 1077.12 2772.47 1073.81 2772.47 1073.22 2772.24 1072.92 2771.78 1072.92ZM2694.14 1071.77C2690.7 1071.77 2682.83 1077.6 2670.52 1089.28 2658.22 1100.95 2652.07 1108.52 2652.07 1111.98 2652.07 1112.43 2652.22 1112.66 2652.54 1112.66 2655.9 1112.66 2663.82 1106.93 2676.3 1095.48 2688.78 1084.03 2695.02 1076.56 2695.04 1073.07 2695.04 1072.2 2694.74 1071.77 2694.14 1071.77ZM2056.25 1071.77C2052.81 1071.77 2044.93 1077.6 2032.63 1089.28 2020.32 1100.95 2014.17 1108.52 2014.17 1111.98 2014.17 1112.43 2014.33 1112.66 2014.64 1112.66 2018.01 1112.66 2025.93 1106.93 2038.4 1095.48 2050.88 1084.03 2057.12 1076.56 2057.14 1073.07 2057.14 1072.2 2056.84 1071.77 2056.25 1071.77ZM1854.52 1071.77C1851.08 1071.77 1843.21 1077.6 1830.9 1089.28 1818.6 1100.95 1812.44 1108.52 1812.44 1111.98 1812.44 1112.43 1812.6 1112.66 1812.92 1112.66 1816.28 1112.66 1824.2 1106.93 1836.68 1095.48 1849.16 1084.03 1855.4 1076.56 1855.42 1073.07 1855.42 1072.2 1855.12 1071.77 1854.52 1071.77ZM2360.09 1071.24C2357.44 1071.24 2354.59 1073.13 2351.56 1076.89 2348.52 1080.66 2347.01 1084.03 2347.01 1087.01 2347.01 1089.75 2348.33 1091.46 2350.98 1092.14 2352.88 1090.22 2354.94 1087.5 2357.17 1083.97 2359.99 1079.12 2361.4 1075.49 2361.4 1073.07 2361.4 1071.85 2360.96 1071.24 2360.09 1071.24ZM2532.94 1070.72C2527.45 1070.72 2518.17 1076.55 2505.11 1088.21 2492.05 1099.87 2485.52 1108.17 2485.52 1113.13 2485.52 1113.3 2485.54 1113.39 2485.59 1113.39 2490.72 1113.39 2499.96 1107.64 2513.31 1096.13 2526.65 1084.63 2533.32 1076.45 2533.32 1071.6 2533.32 1071.01 2533.19 1070.72 2532.94 1070.72ZM1615.36 1055.72 1598.87 1056.12 1586.17 1071.24 1603.41 1070.68ZM1615.91 1020.91C1618.68 1020.91 1620.07 1022.23 1620.07 1024.86 1620.07 1026.17 1614.78 1033.21 1604.2 1045.97L1620.9 1045.21 1630.93 1032.2C1636.64 1024.82 1640.67 1021.12 1643.01 1021.12 1645.72 1021.12 1647.07 1022.4 1647.07 1024.96 1647.07 1027.07 1641.85 1033.69 1631.41 1044.82L1637.03 1044.61C1640.71 1044.61 1642.55 1046 1642.55 1048.77 1642.55 1052.85 1639.67 1055.2 1633.9 1055.83L1625.93 1055.62 1614.01 1070.51 1618.63 1070.44C1623.37 1070.35 1625.74 1071.96 1625.74 1075.29 1625.74 1079.58 1619.95 1081.69 1608.37 1081.62L1583.55 1118.52C1582.11 1121.53 1580.47 1123.04 1578.63 1123.04 1575.72 1123.04 1574.26 1121.55 1574.26 1118.58 1574.26 1116.94 1577.08 1111.71 1582.73 1102.87L1597.95 1081.73 1580.51 1082.02C1573.73 1091.65 1566.02 1103.66 1557.38 1118.06 1554.79 1122.36 1552.24 1124.51 1549.75 1124.51 1547.25 1124.51 1546 1123.19 1546 1120.56 1546 1116.72 1554 1103.92 1570.01 1082.15L1562.86 1082.25C1558.27 1082.32 1555.98 1081.03 1555.98 1078.4 1555.98 1074.47 1562.38 1072.22 1575.18 1071.64L1587.73 1056.35C1588.03 1056.35 1586.82 1056.42 1584.09 1056.56L1578.18 1056.67C1573.89 1056.67 1571.74 1055.21 1571.74 1052.31 1571.74 1049.18 1575.55 1047.3 1583.17 1046.64L1592.95 1046.35 1602.97 1033.06C1609.1 1024.96 1613.41 1020.91 1615.91 1020.91ZM1851.94 977.191C1858.98 977.191 1862.5 980.526 1862.5 987.197 1862.5 992.47 1860.48 998.11 1856.46 1004.12 1853.19 1008.82 1834.89 1028.62 1801.58 1063.5 1774.88 1093.14 1761.53 1110.35 1761.53 1115.13 1761.53 1115.72 1762.86 1116.11 1765.52 1116.32L1765.6 1116.38 1766.23 1115.73C1772.35 1114.76 1780.96 1109.93 1792.07 1101.25L1805.37 1090.87 1826.68 1073.93C1836.9 1066.9 1845.69 1063.38 1853.06 1063.38 1859.51 1063.38 1862.95 1065.95 1863.38 1071.1 1864.36 1068.54 1865.66 1067.26 1867.26 1067.26 1870.99 1067.26 1872.86 1068.89 1872.86 1072.17 1872.86 1075.06 1867.59 1082.64 1857.04 1094.93 1846.5 1107.21 1841.23 1114.12 1841.23 1115.67 1841.23 1115.76 1842.35 1115.84 1844.59 1115.91L1847.06 1116.88 1849.03 1115.76C1853.88 1114.57 1857.37 1113.39 1859.51 1112.22 1864.14 1109.8 1873.32 1103.14 1887.06 1092.24 1893.36 1087.34 1902.23 1079.72 1913.67 1069.38 1918.58 1064.26 1922.3 1061.7 1924.83 1061.7 1930.15 1061.7 1932.81 1063.63 1932.81 1067.49 1932.81 1071.1 1928.93 1076.93 1921.18 1084.98 1934.12 1071.28 1943.72 1064.43 1949.98 1064.43 1952.37 1064.43 1954.61 1065.22 1956.69 1066.79 1958.77 1068.37 1959.81 1070.41 1959.81 1072.89 1959.81 1076.05 1957.95 1079.36 1954.24 1082.82 1966.1 1069.16 1976.3 1062.33 1984.84 1062.33 1990.91 1062.33 1993.95 1064.88 1993.95 1069.99 1993.95 1075.34 1988.32 1083.78 1977.04 1095.32 1965.76 1106.86 1960.12 1113.53 1960.12 1115.33 1960.12 1115.76 1961.31 1115.99 1963.69 1116.03L1965.73 1116.75 1967.95 1115.73C1974.07 1114.76 1982.69 1109.93 1993.8 1101.25L2007.09 1090.87 2028.4 1073.93C2038.62 1066.9 2047.42 1063.38 2054.79 1063.38 2061.24 1063.38 2064.67 1065.95 2065.1 1071.1 2066.09 1068.54 2067.39 1067.26 2068.99 1067.26 2072.72 1067.26 2074.58 1068.89 2074.58 1072.17 2074.58 1075.06 2069.31 1082.64 2058.77 1094.93 2048.23 1107.21 2042.96 1114.12 2042.96 1115.67 2042.96 1115.76 2044.08 1115.84 2046.32 1115.91 2048.56 1115.97 2049.68 1117.23 2049.68 1119.68 2049.68 1122.48 2046.62 1123.88 2040.49 1123.88 2034.5 1123.88 2031.5 1121.15 2031.5 1115.71 2031.5 1112.08 2033.37 1108.18 2037.11 1104.01L2027.62 1114.49C2021.09 1119.35 2015.71 1121.78 2011.48 1121.78 2004.17 1121.78 2000.51 1118.1 2000.51 1110.73 2000.51 1107.16 2001.3 1104.23 2002.88 1101.93 1986.48 1116.35 1974.55 1123.56 1967.07 1123.56L1965.1 1122.88 1962.65 1123.62C1961.62 1123.79 1960.43 1123.88 1959.06 1123.88 1952.27 1123.88 1948.88 1120.81 1948.88 1114.67 1948.88 1108.78 1953.8 1100.25 1963.64 1089.09 1971.02 1080.72 1975.64 1075.28 1977.48 1072.76L1977.75 1072.31 1977.4 1072.38C1973.22 1073.75 1965.23 1079.96 1953.44 1090.99 1942.09 1101.57 1933.22 1110.44 1926.82 1117.59 1924.08 1121.71 1921.57 1123.77 1919.28 1123.77 1915.2 1123.77 1913.16 1121.84 1913.16 1117.97 1913.16 1114.91 1918.55 1107.37 1929.34 1095.37 1937.43 1086.36 1942.49 1080.09 1944.51 1076.56L1945.41 1074.21 1944.23 1074.45C1940.6 1075.71 1933.41 1081.4 1922.64 1091.52 1911.88 1101.66 1904.27 1109.6 1899.81 1115.36 1895.9 1120.41 1892.27 1122.93 1888.92 1122.93 1885.19 1122.93 1883.32 1121.21 1883.32 1117.75 1883.32 1114.65 1888.24 1106.97 1898.09 1094.72L1914.3 1077.54 1885.21 1104.02C1868.05 1117.05 1855.89 1123.56 1848.73 1123.56 1847.62 1123.56 1846.78 1123.27 1846.23 1122.7L1846.15 1122.46 1845.66 1122.83C1844.13 1123.53 1841.83 1123.88 1838.76 1123.88 1832.77 1123.88 1829.78 1121.15 1829.78 1115.71 1829.78 1112.08 1831.65 1108.18 1835.39 1104.01L1825.9 1114.49C1819.37 1119.35 1813.99 1121.78 1809.75 1121.78 1802.44 1121.78 1798.79 1118.1 1798.79 1110.73 1798.79 1107.16 1799.58 1104.23 1801.16 1101.93 1784.76 1116.35 1772.82 1123.56 1765.35 1123.56L1765.27 1123.48 1761.03 1124.3C1753.73 1124.3 1750.08 1120.82 1750.08 1113.88 1750.08 1103.01 1763.05 1083.13 1789 1054.24 1798.19 1044.02 1815.23 1026.46 1840.13 1001.54 1846.22 995.462 1850.02 990.862 1851.54 987.745L1852.25 985.306 1850.47 985.684C1844.9 987.646 1832.66 996.471 1813.75 1012.16 1796.32 1026.63 1783.26 1038.21 1774.56 1046.89 1766.14 1055.29 1755.24 1066.96 1741.88 1081.91 1717.09 1109.68 1703.99 1123.56 1702.56 1123.56 1700.97 1123.56 1699.27 1122.72 1697.44 1121.03 1695.62 1119.34 1694.71 1117.67 1694.71 1116.02 1694.71 1112.84 1709.3 1094.07 1738.47 1059.7 1764 1029.63 1778.36 1010.83 1781.55 1003.29L1782.21 1000.8 1778.98 1001.78C1774.63 1003.79 1767.11 1008.8 1756.41 1016.81 1743.07 1026.86 1728.36 1039.52 1712.28 1054.8L1670.25 1096.31 1655.98 1111.65C1647.4 1120.85 1642.48 1125.45 1641.21 1125.45 1639.65 1125.45 1637.99 1124.86 1636.24 1123.69 1633.54 1121.99 1632.19 1120.22 1632.19 1118.38 1632.19 1115.6 1640.99 1104.39 1658.58 1084.77L1706.69 1030.87C1723.64 1010.93 1732.11 998.824 1732.11 994.54 1732.11 994.158 1731.92 993.967 1731.54 993.967 1727.13 993.967 1717.29 1000.14 1702.02 1012.49 1690.36 1021.93 1673.72 1038.61 1652.1 1062.55 1650.32 1064.5 1648.68 1065.48 1647.18 1065.48 1644.26 1065.48 1642.81 1064.19 1642.81 1061.63 1642.81 1059.31 1648.82 1052.22 1660.83 1040.35 1669.85 1028.29 1680.96 1016.82 1694.14 1005.95 1711.5 991.671 1724.21 984.53 1732.26 984.53 1738.82 984.53 1742.09 988.001 1742.09 994.943 1742.09 1004.73 1729.73 1023.74 1705.01 1051.98 1745.18 1011.98 1770.93 991.975 1782.28 991.975 1788.83 991.975 1792.1 995.272 1792.1 1001.87 1792.1 1010.54 1782.32 1026.35 1762.76 1049.31 1808.31 1001.23 1838.04 977.191 1851.94 977.191ZM2532.91 975.513C2547.91 975.513 2555.41 980.392 2555.41 990.15 2555.41 998.014 2548.84 1007.03 2535.69 1017.21 2523.17 1026.88 2512.8 1031.71 2504.58 1031.71 2497 1031.71 2493.21 1028.89 2493.21 1023.24 2493.21 1018.96 2498.19 1014.09 2508.14 1008.61 2512.98 1004.09 2517.5 1001.83 2521.72 1001.83 2524.49 1001.83 2525.88 1003.35 2525.88 1006.39L2514.1 1012.79C2510.88 1014.53 2508.46 1015.91 2506.81 1016.92L2505.62 1017.7 2507.81 1017.38C2512.44 1016.18 2518.89 1013.19 2527.14 1008.39 2538.49 1001.79 2544.16 996.63 2544.16 992.91 2544.16 990.329 2540.06 989.039 2531.84 989.039 2521.15 989.039 2505.88 992.173 2486.03 998.441 2472.56 1002.7 2460.84 1007.18 2450.86 1011.89 2434.12 1019.73 2425.76 1026.54 2425.76 1032.33 2425.76 1035.45 2430.6 1037.91 2440.28 1039.7L2473.84 1044.02C2487.21 1046.01 2495.19 1048.8 2497.79 1052.4 2501.74 1057.58 2503.71 1062.46 2503.71 1067.06L2501.59 1073.48 2515.95 1064.71C2520.75 1062.64 2525.24 1061.6 2529.41 1061.6 2537.41 1061.6 2541.41 1064.72 2541.41 1070.97 2541.41 1073.5 2540.76 1075.42 2539.45 1076.73 2541.74 1077.34 2542.88 1079.08 2542.88 1081.96 2542.88 1082.99 2532.97 1094.3 2513.14 1115.91L2518.63 1115.91 2519.24 1116.13 2519.85 1115.84C2522.43 1115.36 2524.98 1114.74 2527.51 1114 2532.18 1111.4 2540.86 1105.13 2553.53 1095.19 2559.52 1090.53 2568.11 1083.42 2579.3 1073.86 2581.27 1071.82 2584.46 1069.03 2588.85 1065.49 2591.06 1064.08 2593.07 1063.38 2594.9 1063.38 2600.36 1063.38 2603.08 1065.38 2603.08 1069.37 2603.08 1072.55 2598.27 1079.44 2588.64 1090.05 2581.42 1098 2576.9 1104.1 2575.09 1108.34L2574.31 1111.5 2575.41 1111.24C2579.64 1109.53 2587.98 1101.82 2600.42 1088.12 2614.64 1072.47 2623.01 1064.64 2625.55 1064.64 2627.14 1064.64 2628.61 1065.36 2629.96 1066.8 2631.3 1068.25 2631.98 1069.73 2631.98 1071.26 2631.98 1073.39 2626.69 1080.57 2616.11 1092.8 2605.54 1105.03 2600.25 1112.61 2600.25 1115.54 2600.25 1115.78 2601.4 1115.94 2603.71 1116.01L2604.55 1116.33 2605.85 1115.73C2611.97 1114.76 2620.58 1109.93 2631.69 1101.25L2644.99 1090.87 2666.3 1073.93C2676.52 1066.9 2685.32 1063.38 2692.68 1063.38 2699.14 1063.38 2702.57 1065.95 2703 1071.1 2703.99 1068.54 2705.28 1067.26 2706.88 1067.26 2710.61 1067.26 2712.48 1068.89 2712.48 1072.17 2712.48 1075.06 2707.21 1082.64 2696.67 1094.93 2686.12 1107.21 2680.85 1114.12 2680.85 1115.67 2680.85 1115.76 2681.97 1115.84 2684.22 1115.91L2685.11 1116.26 2685.96 1115.76C2691.12 1114.5 2696.54 1112.53 2702.22 1109.85 2707.03 1106.3 2715.32 1099.39 2727.11 1089.13 2738.9 1078.88 2748.05 1071.83 2754.57 1067.99 2759.44 1065.12 2763.9 1063.69 2767.93 1063.69 2775.42 1063.69 2779.24 1066.21 2779.38 1071.25 2787.26 1058.93 2797.61 1046.5 2810.44 1033.94 2831.25 1008.41 2843.93 995.645 2848.5 995.645 2852.17 995.645 2854 997.576 2854 1001.44 2854 1004.04 2851.01 1008.47 2845.04 1014.73 2834.59 1025.57 2819.17 1042.94 2798.78 1066.81 2773.95 1095.89 2761.54 1112.09 2761.54 1115.44 2761.54 1115.68 2762.66 1115.84 2764.91 1115.9 2767.15 1115.97 2768.27 1117.23 2768.27 1119.68 2768.27 1122.48 2765.89 1123.88 2761.14 1123.88 2754.33 1123.88 2750.93 1120.95 2750.93 1115.09 2750.93 1111.12 2753.18 1106.26 2757.68 1100.51 2746.19 1114.9 2737.27 1122.09 2730.92 1122.09 2724.23 1122.09 2720.88 1118.59 2720.88 1111.58 2720.88 1108.1 2722.4 1103.88 2725.42 1098.89L2709.39 1113.34C2699.31 1120.15 2691.4 1123.56 2685.66 1123.56L2684.29 1123.1 2682.41 1123.62C2681.26 1123.79 2679.92 1123.88 2678.39 1123.88 2672.4 1123.88 2669.4 1121.15 2669.4 1115.71 2669.4 1112.08 2671.27 1108.18 2675.01 1104.01L2665.52 1114.49C2658.99 1119.35 2653.61 1121.78 2649.38 1121.78 2642.06 1121.78 2638.41 1118.1 2638.41 1110.73 2638.41 1107.16 2639.2 1104.23 2640.78 1101.93 2624.38 1116.35 2612.45 1123.56 2604.97 1123.56L2603.96 1123.21 2603.03 1123.52C2602.11 1123.69 2601.03 1123.77 2599.8 1123.77 2592.6 1123.77 2589.01 1120.88 2589.01 1115.09 2589.01 1111.59 2590.45 1107.97 2593.33 1104.22 2583.37 1115.86 2575.27 1121.68 2569.03 1121.68 2563.36 1121.68 2560.53 1118.61 2560.53 1112.49 2560.53 1106.48 2563.09 1099.89 2568.21 1092.74L2581.25 1080.3 2555.58 1103.96C2538.35 1117.03 2526.13 1123.56 2518.9 1123.56L2518.55 1123.44 2517.76 1123.67C2516.78 1123.81 2515.63 1123.84 2514.32 1123.77 2514.94 1124.44 2515.25 1125.52 2515.25 1127.02 2515.25 1134.88 2509.16 1146.32 2496.99 1161.33 2484.62 1176.69 2474.77 1184.38 2467.44 1184.38 2462.19 1184.38 2459.57 1181.35 2459.57 1175.29 2459.57 1166.77 2466.87 1153.86 2481.49 1136.55L2508.86 1106.59C2497.55 1117.56 2489.01 1123.04 2483.24 1123.04 2475.65 1123.04 2471.86 1119.39 2471.86 1112.1L2476.01 1102.34 2467.58 1108.54C2460.59 1112.64 2452.98 1116.16 2444.75 1119.1 2429.25 1124.59 2413.31 1127.34 2396.95 1127.34 2373.71 1127.34 2362.09 1120.09 2362.09 1105.59 2362.09 1096.93 2368.23 1089.64 2380.52 1083.71 2392.28 1076.94 2402.73 1073.55 2411.87 1073.55 2416.15 1073.55 2418.3 1075.1 2418.3 1078.21 2418.3 1080.59 2416.23 1082.08 2412.09 1082.67 2403.97 1083.94 2396.52 1086.07 2389.76 1089.05 2378.8 1093.91 2373.33 1098.87 2373.33 1103.95 2373.33 1109.82 2381.06 1112.76 2396.54 1112.76 2410.09 1112.76 2424.63 1110.06 2440.16 1104.65 2456.06 1099.1 2469.05 1092.06 2479.12 1083.53 2488.65 1075.42 2493.42 1069.56 2493.42 1065.94 2493.42 1063.01 2487.27 1060.83 2474.97 1059.39 2452.47 1056.77 2439.64 1055.1 2436.47 1054.37 2422.32 1050.92 2415.25 1044.46 2415.25 1034.98 2415.25 1023.57 2423.51 1012.87 2440.03 1002.88 2453.16 994.905 2469.86 988.179 2490.12 982.705 2507.94 977.91 2522.21 975.513 2532.91 975.513ZM2182.74 915.778 2181.55 916.916 2182.21 915.792ZM2436.65 881.016C2447.68 881.229 2457.64 883.592 2466.53 888.104 2478.38 894.121 2484.86 902.477 2485.97 913.173 2486.57 918.897 2485.2 924.161 2481.85 928.966 2478.51 933.769 2473.99 936.467 2468.3 937.059 2464.04 937.501 2460.22 936.416 2456.87 933.803 2453.51 931.191 2451.61 927.805 2451.18 923.645 2450.69 919.028 2451.98 915.002 2455.03 911.568 2458.08 908.133 2461.59 906.209 2465.57 905.796L2469.43 906.205 2467.11 902.988C2464.72 901.154 2461.23 899.272 2456.63 897.343 2447.43 893.484 2437.05 892.154 2425.51 893.352 2387.74 897.273 2349.62 918.628 2311.16 957.415 2277.51 991.353 2237.55 1042.83 2191.3 1111.83L2191.29 1111.85 2197.79 1108.86C2203.62 1105.29 2210.28 1100.44 2217.77 1094.31L2235.9 1079.42 2247.53 1069.15C2254.35 1063.28 2258.43 1060.34 2259.77 1060.34 2262.05 1060.34 2264.24 1061.12 2266.34 1062.69 2268.44 1064.25 2269.49 1066.47 2269.49 1069.35L2252.71 1088.84C2244.87 1098.14 2239.96 1105.02 2238.01 1109.47L2237.1 1112.82 2238.49 1112.52C2242.91 1110.9 2251.93 1103.59 2265.56 1090.61 2277.23 1079.49 2286.94 1069.55 2294.68 1060.8 2296.69 1058.53 2298.36 1057.4 2299.67 1057.4 2301.41 1057.4 2303.24 1058.03 2305.16 1059.3 2307.09 1060.56 2308.05 1062.17 2308.05 1064.12 2308.05 1065.32 2307.6 1065.44 2306.71 1064.48 2293.65 1080.55 2279.79 1097.76 2265.14 1116.12L2270.43 1115.91 2270.85 1116.11 2271.38 1115.81C2275.51 1115.07 2279.39 1113.83 2283.01 1112.1 2287.21 1109.52 2295.13 1103.63 2306.76 1094.43L2333.29 1072.67C2339.14 1067.52 2342.92 1064.95 2344.63 1064.95 2346.95 1064.95 2348.92 1065.93 2350.52 1067.9 2353.91 1064.89 2357.38 1063.38 2360.92 1063.38 2367.05 1063.38 2370.12 1066.58 2370.12 1072.98 2370.12 1080.96 2363.94 1091.62 2351.58 1104.95 2339.01 1118.41 2328.67 1125.14 2320.53 1125.14 2312.13 1125.14 2307.92 1120.77 2307.92 1112.04 2307.92 1107.83 2310.15 1102.53 2314.62 1096.15L2296.56 1112.05C2285.51 1119.72 2277.06 1123.56 2271.23 1123.56L2269.86 1123.1 2266.3 1124.08 2260.65 1124.35 2232.23 1159.46C2214.76 1179.36 2202.06 1189.3 2194.16 1189.3 2189.32 1189.3 2186.91 1186.31 2186.91 1180.31 2186.91 1169.49 2193.82 1157.2 2207.64 1143.44 2221.46 1129.68 2235.46 1121.2 2249.65 1118L2270.12 1094.55 2256.65 1109.16C2246.04 1117.92 2238.62 1122.3 2234.36 1122.3 2228.64 1122.3 2225.78 1118.56 2225.78 1111.06 2225.78 1105.34 2228.44 1098.7 2233.75 1091.14L2234.37 1090.5 2221.39 1101.64C2212.78 1108.46 2206.93 1112.88 2203.85 1114.9 2199.54 1117.79 2195.6 1119.95 2192.04 1121.4L2183.76 1123.27 2171.09 1142.48 2115.48 1239.1 2106.1 1233.94C2112.06 1221.82 2116.79 1210.37 2120.28 1199.6 2123.77 1188.82 2126.81 1167.91 2129.41 1136.84 2132 1105.78 2134.91 1081.91 2138.14 1065.25 2141.37 1048.59 2147.37 1027.77 2156.13 1002.79 2157.23 999.664 2158.3 996.67 2159.35 993.805L2160.62 990.439 2134.59 1032.3C2088.19 1105.33 2044.29 1161.12 2002.89 1199.66 1961.5 1238.2 1921.76 1259.44 1883.69 1263.4 1865.58 1265.28 1850.35 1262.77 1838.01 1255.87 1825.67 1248.97 1818.81 1238.95 1817.44 1225.79 1816.52 1216.97 1818.68 1208.88 1823.93 1201.53 1829.17 1194.19 1835.73 1190.1 1843.6 1189.29 1848.76 1188.75 1853.44 1190.05 1857.65 1193.17 1861.86 1196.29 1864.22 1200.35 1864.74 1205.34 1865.24 1210.12 1863.99 1214.31 1861 1217.9 1858.01 1221.49 1854 1223.55 1848.98 1224.07 1842.81 1224.71 1838.08 1223.24 1834.79 1219.67L1832.36 1215.99 1832.15 1216.12C1831.45 1217.19 1831.3 1219.71 1831.72 1223.67 1832.68 1232.96 1837.85 1240.23 1847.21 1245.5 1856.58 1250.76 1868.63 1252.63 1883.38 1251.09 1914.07 1247.91 1946.98 1231.86 1982.12 1202.94 2017.25 1174.03 2056.15 1127.68 2098.82 1063.88 2141.49 1000.08 2170.35 955.178 2185.4 929.17 2189.82 921.333 2194.21 915.111 2198.59 910.506L2206.8 913.971C2190.01 939.111 2178.68 981.391 2172.79 1040.81L2169.77 1067.17C2166.33 1098.44 2157.58 1132.87 2143.52 1170.45L2140.67 1177.41 2175.01 1121.26C2222.37 1044.76 2265.96 986.713 2305.79 947.116 2345.61 907.519 2385.43 885.654 2425.26 881.519 2429.17 881.112 2432.97 880.945 2436.65 881.016Z" fill="#FFFFFF" fill-rule="evenodd"/><path d="M1842.75 904.009C1838.61 903.885 1836.09 904.172 1835.19 904.873 1834.29 905.572 1833.93 907.43 1834.11 910.446L1834.11 928.973C1833.92 935.161 1834.69 940.016 1836.42 943.535 1838.16 947.054 1841.99 948.847 1847.93 948.912 1853.75 948.804 1858.16 946.783 1861.16 942.848 1864.16 938.913 1865.66 933.712 1865.68 927.246 1865.66 920.301 1863.73 914.721 1859.87 910.505 1856 906.289 1850.3 904.124 1842.75 904.009ZM2625.06 877.977C2624.25 879.756 2623.28 882.162 2622.14 885.197 2620.99 888.23 2619.82 891.578 2618.62 895.24L2614.7 907.011C2613.97 909.06 2613.86 910.375 2614.35 910.953 2614.84 911.532 2616.05 911.787 2618 911.719L2631.65 911.719C2633.44 911.784 2634.57 911.535 2635.04 910.973 2635.52 910.411 2635.43 909.142 2634.79 907.168L2630.71 894.456C2629.6 891.023 2628.56 887.845 2627.59 884.922 2626.62 881.999 2625.77 879.684 2625.06 877.977ZM2725.83 858.655C2722.73 858.517 2720.8 858.909 2720.03 859.832 2719.27 860.755 2718.95 863.031 2719.07 866.661L2719.07 897.278C2718.9 899.93 2719.36 901.612 2720.46 902.321 2721.57 903.031 2724.35 903.339 2728.81 903.244 2731.59 903.247 2733.92 902.888 2735.78 902.165 2737.64 901.442 2739.3 900.336 2740.75 898.848 2742.15 897.552 2743.43 895.551 2744.58 892.842 2745.73 890.134 2746.33 886.483 2746.4 881.891 2746.31 874.741 2744.41 869.102 2740.71 864.974 2737 860.846 2732.04 858.739 2725.83 858.655ZM1841.65 858.655C1838.1 858.563 1835.92 859.06 1835.11 860.146 1834.29 861.232 1833.96 863.457 1834.11 866.819L1834.11 892.727C1833.94 894.696 1834.31 895.94 1835.21 896.456 1836.1 896.973 1838.51 897.195 1842.43 897.123 1849.11 896.96 1853.89 895.128 1856.77 891.628 1859.64 888.128 1861.04 883.941 1860.97 879.067 1860.84 872.24 1858.97 867.13 1855.37 863.738 1851.77 860.346 1847.19 858.651 1841.65 858.655ZM3024.16 856.614C3014.47 856.82 3007.11 860.921 3002.07 868.916 2997.04 876.912 2994.51 887.566 2994.48 900.879 2994.45 905.778 2994.93 911.07 2995.93 916.758 2996.94 922.446 2998.64 927.866 3001.05 933.019 3003.47 938.172 3006.77 942.396 3010.97 945.689 3015.17 948.983 3020.46 950.685 3026.82 950.796 3033.65 950.705 3039.17 948.654 3043.38 944.645 3047.58 940.635 3050.64 935.213 3052.56 928.378 3054.48 921.543 3055.43 913.842 3055.4 905.274 3055.38 896.223 3054.12 888.042 3051.63 880.729 3049.14 873.416 3045.56 867.595 3040.91 863.265 3036.26 858.935 3030.67 856.718 3024.16 856.614ZM2255.55 851.469C2259.78 851.625 2263.87 851.735 2267.83 851.799 2271.78 851.863 2275.64 851.894 2279.4 851.891 2286.74 851.908 2294.65 851.768 2303.11 851.469 2303.73 852.055 2304.04 852.975 2304.04 854.23 2304.04 855.485 2303.73 856.405 2303.11 856.99L2298.71 857.776C2296.33 858.109 2294.55 858.68 2293.37 859.488 2292.2 860.297 2291.42 861.855 2291.05 864.162 2290.67 866.469 2290.5 870.036 2290.53 874.862L2290.53 932.547C2290.5 937.374 2290.67 940.941 2291.05 943.248 2291.42 945.554 2292.2 947.112 2293.37 947.921 2294.55 948.73 2296.33 949.301 2298.71 949.634L2303.11 950.42C2303.72 951.005 2304 951.925 2303.96 953.18 2303.91 954.435 2303.58 955.355 2302.95 955.94 2298.72 955.785 2294.65 955.675 2290.76 955.611 2286.86 955.547 2283.07 955.516 2279.4 955.518 2275.64 955.516 2271.78 955.547 2267.83 955.611 2263.87 955.675 2259.78 955.785 2255.55 955.94 2254.92 955.355 2254.61 954.435 2254.61 953.18 2254.61 951.925 2254.92 951.005 2255.55 950.42L2259.94 949.634C2262.32 949.301 2264.09 948.73 2265.27 947.921 2266.45 947.112 2267.22 945.554 2267.59 943.248 2267.97 940.941 2268.14 937.374 2268.11 932.547L2268.11 874.862C2268.14 870.036 2267.97 866.469 2267.59 864.162 2267.22 861.855 2266.45 860.297 2265.27 859.488 2264.09 858.68 2262.32 858.109 2259.94 857.776L2255.55 856.99C2254.92 856.405 2254.61 855.485 2254.61 854.23 2254.61 852.975 2254.92 852.055 2255.55 851.469ZM2129.89 851.469C2133.76 851.625 2137.67 851.735 2141.64 851.799 2145.6 851.863 2149.48 851.894 2153.27 851.891 2156.83 851.894 2160.48 851.863 2164.23 851.799 2167.97 851.735 2171.59 851.625 2175.08 851.469 2175.71 852.055 2176.02 852.975 2176.02 854.23 2176.02 855.486 2175.71 856.406 2175.08 856.99L2171.78 857.463C2168.51 857.675 2166.38 858.818 2165.4 860.892 2164.42 862.966 2163.99 867.518 2164.09 874.55L2164.09 892.734C2163.96 894.919 2164.25 896.271 2164.97 896.791 2165.69 897.31 2167.59 897.525 2170.68 897.437L2203.35 897.437C2206.51 897.525 2208.43 897.31 2209.12 896.791 2209.8 896.271 2210.08 894.919 2209.94 892.734L2209.94 874.55C2209.98 869.772 2209.82 866.23 2209.47 863.925 2209.12 861.62 2208.37 860.063 2207.22 859.257 2206.07 858.449 2204.31 857.904 2201.93 857.619L2197.69 856.99C2197.06 856.406 2196.75 855.486 2196.75 854.23 2196.75 852.975 2197.06 852.055 2197.69 851.469 2201.99 851.625 2206.11 851.735 2210.04 851.799 2213.96 851.863 2217.8 851.894 2221.55 851.891 2225.38 851.894 2229.12 851.863 2232.78 851.799 2236.44 851.735 2240.07 851.625 2243.67 851.469 2244.3 852.055 2244.61 852.975 2244.61 854.23 2244.61 855.486 2244.3 856.406 2243.67 856.99L2240.53 857.463C2238.16 857.749 2236.38 858.308 2235.2 859.141 2234.03 859.973 2233.25 861.554 2232.88 863.884 2232.51 866.214 2232.33 869.769 2232.37 874.55L2232.37 932.858C2232.33 937.634 2232.51 941.165 2232.88 943.45 2233.25 945.735 2234.03 947.279 2235.2 948.084 2236.38 948.888 2238.16 949.457 2240.53 949.791L2244.3 950.419C2244.93 951.004 2245.24 951.924 2245.24 953.18 2245.24 954.435 2244.93 955.355 2244.3 955.94 2240.37 955.785 2236.5 955.675 2232.68 955.611 2228.87 955.547 2225.16 955.516 2221.55 955.518 2213.71 955.501 2206.02 955.642 2198.48 955.94 2197.85 955.355 2197.54 954.435 2197.54 953.18 2197.54 951.924 2197.85 951.004 2198.48 950.419L2201.93 949.947C2205.43 949.735 2207.66 948.592 2208.65 946.518 2209.63 944.444 2210.06 939.891 2209.94 932.858L2209.94 910.282C2210.08 908.172 2209.8 906.866 2209.12 906.363 2208.43 905.859 2206.51 905.65 2203.35 905.735L2170.68 905.735C2167.59 905.65 2165.69 905.859 2164.97 906.363 2164.25 906.866 2163.96 908.172 2164.09 910.282L2164.09 932.858C2164.05 937.64 2164.22 941.194 2164.59 943.519 2164.96 945.845 2165.72 947.413 2166.88 948.223 2168.03 949.033 2169.77 949.555 2172.1 949.791L2177.12 950.419C2177.75 951.004 2178.06 951.924 2178.06 953.18 2178.06 954.435 2177.75 955.355 2177.12 955.94 2172.65 955.785 2168.44 955.675 2164.48 955.611 2160.53 955.547 2156.79 955.516 2153.27 955.518 2145.71 955.501 2137.92 955.642 2129.89 955.94 2129.26 955.355 2128.95 954.435 2128.95 953.18 2128.95 951.924 2129.26 951.004 2129.89 950.419L2133.65 949.947C2137.15 949.735 2139.38 948.592 2140.37 946.518 2141.35 944.444 2141.78 939.891 2141.66 932.858L2141.66 874.55C2141.78 867.518 2141.35 862.966 2140.37 860.892 2139.38 858.818 2137.15 857.675 2133.65 857.463L2129.89 856.99C2129.26 856.406 2128.95 855.486 2128.95 854.23 2128.95 852.975 2129.26 852.055 2129.89 851.469ZM1991.76 851.469C1995.99 851.625 2000.08 851.735 2004.04 851.799 2007.99 851.863 2011.85 851.894 2015.61 851.891 2022.95 851.908 2030.85 851.768 2039.31 851.469 2039.93 852.055 2040.24 852.975 2040.24 854.23 2040.24 855.485 2039.93 856.405 2039.31 856.99L2034.92 857.776C2032.54 858.109 2030.76 858.68 2029.58 859.488 2028.4 860.297 2027.63 861.855 2027.25 864.162 2026.88 866.469 2026.71 870.036 2026.74 874.862L2026.74 932.547C2026.71 937.374 2026.88 940.941 2027.25 943.248 2027.63 945.554 2028.4 947.112 2029.58 947.921 2030.76 948.73 2032.54 949.301 2034.92 949.634L2039.31 950.42C2039.93 951.005 2040.21 951.925 2040.17 953.18 2040.12 954.435 2039.79 955.355 2039.16 955.94 2034.93 955.785 2030.86 955.675 2026.96 955.611 2023.07 955.547 2019.28 955.516 2015.61 955.518 2011.85 955.516 2007.99 955.547 2004.04 955.611 2000.08 955.675 1995.99 955.785 1991.76 955.94 1991.13 955.355 1990.81 954.435 1990.81 953.18 1990.81 951.925 1991.13 951.005 1991.76 950.42L1996.15 949.634C1998.53 949.301 2000.3 948.73 2001.48 947.921 2002.65 947.112 2003.43 945.554 2003.8 943.248 2004.18 940.941 2004.35 937.374 2004.31 932.547L2004.31 874.862C2004.35 870.036 2004.18 866.469 2003.8 864.162 2003.43 861.855 2002.65 860.297 2001.48 859.488 2000.3 858.68 1998.53 858.109 1996.15 857.776L1991.76 856.99C1991.13 856.405 1990.81 855.485 1990.81 854.23 1990.81 852.975 1991.13 852.055 1991.76 851.469ZM1684.52 851.469C1688.3 851.625 1692.12 851.735 1695.98 851.799 1699.83 851.863 1703.65 851.894 1707.43 851.891 1711.27 851.894 1715.11 851.863 1718.94 851.799 1722.77 851.735 1726.57 851.625 1730.34 851.469 1730.97 852.048 1731.28 852.942 1731.28 854.151 1731.28 855.361 1730.97 856.255 1730.34 856.833L1726.57 857.462C1724.25 857.798 1722.51 858.381 1721.35 859.211 1720.2 860.041 1719.44 861.611 1719.07 863.922 1718.7 866.234 1718.53 869.78 1718.56 874.56L1718.56 910.795C1718.44 917.05 1718.91 923.103 1719.97 928.956 1721.04 934.81 1723.43 939.643 1727.15 943.458 1730.86 947.271 1736.64 949.247 1744.47 949.383 1751.12 949.299 1756.37 947.515 1760.2 944.033 1764.04 940.549 1766.76 935.873 1768.36 930.002 1769.97 924.131 1770.74 917.573 1770.69 910.325L1770.69 891.344C1770.7 884.844 1770.53 878.982 1770.16 873.756 1769.8 868.531 1769.19 864.825 1768.34 862.639 1767.61 861.037 1766.44 859.887 1764.84 859.187 1763.25 858.488 1761.38 857.965 1759.23 857.619L1754.99 856.833C1754.38 856.117 1754.11 855.183 1754.17 854.033 1754.23 852.883 1754.5 852.028 1754.99 851.469 1759.18 851.625 1762.94 851.735 1766.28 851.799 1769.61 851.863 1772.86 851.894 1776.02 851.891 1781.79 851.908 1787.65 851.768 1793.59 851.469 1794.08 852.028 1794.36 852.883 1794.42 854.033 1794.47 855.183 1794.2 856.117 1793.59 856.833L1790.77 857.462C1788.72 857.883 1786.97 858.452 1785.53 859.168 1784.09 859.884 1783.01 861.04 1782.29 862.639 1781.44 864.825 1780.83 868.531 1780.47 873.756 1780.1 878.982 1779.93 884.844 1779.94 891.344L1779.94 908.913C1780.06 916.341 1779.46 923.289 1778.15 929.756 1776.85 936.223 1774.1 941.877 1769.91 946.716 1766.39 950.408 1761.93 953.209 1756.54 955.117 1751.15 957.026 1745.25 957.986 1738.82 957.995 1732.83 958.06 1727.22 957.46 1721.98 956.194 1716.74 954.929 1711.99 952.606 1707.74 949.226 1703.69 945.867 1700.73 941.252 1698.88 935.383 1697.02 929.514 1696.11 922.312 1696.14 913.776L1696.14 874.56C1696.17 869.785 1696 866.264 1695.63 863.998 1695.26 861.732 1694.5 860.198 1693.34 859.397 1692.19 858.595 1690.45 858.003 1688.13 857.619L1684.21 856.833C1683.56 856.255 1683.24 855.361 1683.24 854.151 1683.25 852.942 1683.67 852.048 1684.52 851.469ZM1334.15 851.469C1338.02 851.625 1341.94 851.735 1345.9 851.799 1349.87 851.863 1353.74 851.894 1357.53 851.891 1361.09 851.894 1364.75 851.863 1368.49 851.799 1372.23 851.735 1375.85 851.625 1379.34 851.469 1379.97 852.055 1380.28 852.975 1380.28 854.23 1380.28 855.486 1379.97 856.406 1379.34 856.99L1376.04 857.463C1372.77 857.675 1370.64 858.818 1369.66 860.892 1368.69 862.966 1368.25 867.518 1368.35 874.55L1368.35 892.734C1368.22 894.919 1368.52 896.271 1369.23 896.791 1369.95 897.31 1371.85 897.525 1374.95 897.437L1407.61 897.437C1410.77 897.525 1412.69 897.31 1413.38 896.791 1414.07 896.271 1414.34 894.919 1414.2 892.734L1414.2 874.55C1414.24 869.772 1414.08 866.23 1413.73 863.925 1413.38 861.62 1412.63 860.063 1411.48 859.257 1410.33 858.449 1408.57 857.904 1406.2 857.619L1401.96 856.99C1401.33 856.406 1401.01 855.486 1401.01 854.23 1401.01 852.975 1401.33 852.055 1401.96 851.469 1406.26 851.625 1410.37 851.735 1414.3 851.799 1418.22 851.863 1422.06 851.894 1425.81 851.891 1429.64 851.894 1433.39 851.863 1437.05 851.799 1440.7 851.735 1444.33 851.625 1447.93 851.469 1448.56 852.055 1448.87 852.975 1448.87 854.23 1448.87 855.486 1448.56 856.406 1447.93 856.99L1444.79 857.463C1442.42 857.749 1440.64 858.308 1439.47 859.141 1438.29 859.973 1437.52 861.554 1437.14 863.884 1436.77 866.214 1436.6 869.769 1436.63 874.55L1436.63 932.858C1436.6 937.634 1436.77 941.165 1437.14 943.45 1437.52 945.735 1438.29 947.279 1439.47 948.084 1440.64 948.888 1442.42 949.457 1444.79 949.791L1448.56 950.419C1449.19 951.004 1449.5 951.924 1449.5 953.18 1449.5 954.435 1449.19 955.355 1448.56 955.94 1444.63 955.785 1440.76 955.675 1436.95 955.611 1433.14 955.547 1429.42 955.516 1425.81 955.518 1417.97 955.501 1410.28 955.642 1402.74 955.94 1402.11 955.355 1401.8 954.435 1401.8 953.18 1401.8 951.924 1402.11 951.004 1402.74 950.419L1406.2 949.947C1409.69 949.735 1411.93 948.592 1412.91 946.518 1413.89 944.444 1414.32 939.891 1414.2 932.858L1414.2 910.282C1414.34 908.172 1414.07 906.866 1413.38 906.363 1412.69 905.859 1410.77 905.65 1407.61 905.735L1374.95 905.735C1371.85 905.65 1369.95 905.859 1369.23 906.363 1368.52 906.866 1368.22 908.172 1368.35 910.282L1368.35 932.858C1368.32 937.64 1368.49 941.194 1368.86 943.519 1369.22 945.845 1369.99 947.413 1371.14 948.223 1372.3 949.033 1374.03 949.555 1376.36 949.791L1381.38 950.419C1382.01 951.004 1382.33 951.924 1382.33 953.18 1382.33 954.435 1382.01 955.355 1381.38 955.94 1376.91 955.785 1372.7 955.675 1368.75 955.611 1364.79 955.547 1361.05 955.516 1357.53 955.518 1349.97 955.501 1342.18 955.642 1334.15 955.94 1333.52 955.355 1333.21 954.435 1333.21 953.18 1333.21 951.924 1333.52 951.004 1334.15 950.419L1337.92 949.947C1341.41 949.735 1343.65 948.592 1344.63 946.518 1345.61 944.444 1346.04 939.891 1345.92 932.858L1345.92 874.55C1346.04 867.518 1345.61 862.966 1344.63 860.892 1343.65 858.818 1341.41 857.675 1337.92 857.463L1334.15 856.99C1333.52 856.406 1333.21 855.486 1333.21 854.23 1333.21 852.975 1333.52 852.055 1334.15 851.469ZM3170.69 851.455C3170.68 852.985 3170.69 856.084 3170.73 860.753 3170.76 865.42 3170.85 870.48 3171 875.93 3170.59 876.79 3169.76 877.268 3168.49 877.363 3167.22 877.457 3166.07 877.189 3165.04 876.558 3164.19 873.358 3163.41 870.767 3162.7 868.784 3161.99 866.801 3161.25 865.309 3160.47 864.308 3159.16 862.649 3157.26 861.373 3154.77 860.48 3152.29 859.587 3149.06 859.135 3145.09 859.125L3132.86 859.125C3130.39 859.011 3128.88 859.318 3128.34 860.048 3127.8 860.778 3127.58 862.616 3127.69 865.565L3127.69 893.977C3127.61 896.03 3127.81 897.347 3128.3 897.927 3128.79 898.506 3130.05 898.762 3132.08 898.693L3144.15 898.693C3148.17 898.807 3150.94 898.303 3152.47 897.18 3154 896.057 3155.1 893.627 3155.75 889.891L3156.53 886.121C3157.2 885.43 3158.22 885.107 3159.59 885.153 3160.95 885.199 3161.93 885.572 3162.52 886.275 3162.37 888.804 3162.26 891.488 3162.19 894.329 3162.13 897.169 3162.1 900.086 3162.1 903.077 3162.1 905.997 3162.13 908.851 3162.19 911.636 3162.26 914.421 3162.37 917.002 3162.52 919.376 3161.93 920.088 3160.95 920.467 3159.59 920.512 3158.22 920.558 3157.2 920.232 3156.53 919.533L3155.75 915.77C3155.1 912.112 3154 909.708 3152.47 908.559 3150.94 907.409 3148.17 906.886 3144.15 906.991L3132.08 906.991C3130.05 906.922 3128.79 907.177 3128.3 907.755 3127.81 908.333 3127.61 909.646 3127.69 911.694L3127.69 932.859C3127.66 937.638 3127.83 941.179 3128.2 943.479 3128.57 945.779 3129.33 947.322 3130.48 948.107 3131.63 948.891 3133.37 949.4 3135.68 949.634L3141.48 950.42C3142.03 951.005 3142.31 951.925 3142.31 953.18 3142.31 954.435 3142.03 955.355 3141.48 955.94 3136.66 955.785 3132.24 955.675 3128.2 955.611 3124.16 955.547 3120.28 955.516 3116.56 955.518 3112.97 955.516 3109.17 955.547 3105.14 955.611 3101.12 955.675 3096.77 955.785 3092.08 955.94 3091.45 955.355 3091.14 954.435 3091.14 953.18 3091.14 951.925 3091.45 951.005 3092.08 950.42L3097.26 949.634C3099.58 949.351 3101.32 948.819 3102.47 948.037 3103.63 947.255 3104.39 945.724 3104.76 943.444 3105.13 941.164 3105.3 937.636 3105.27 932.859L3105.27 874.541C3105.3 869.763 3105.13 866.21 3104.76 863.881 3104.39 861.552 3103.63 859.971 3102.47 859.139 3101.32 858.308 3099.58 857.749 3097.26 857.462L3094.12 856.99C3093.41 856.386 3093.07 855.425 3093.1 854.111 3093.13 852.796 3093.58 851.915 3094.43 851.469 3097.84 851.627 3101.43 851.744 3105.2 851.821 3108.98 851.898 3112.76 851.933 3116.56 851.926L3149.48 851.926C3154.62 851.926 3159.14 851.886 3163.03 851.808 3166.92 851.729 3169.47 851.612 3170.69 851.455ZM2312.53 851.455C2316.26 851.611 2319.98 851.725 2323.71 851.798 2327.43 851.871 2330.92 851.907 2334.17 851.906 2336.85 851.907 2339.3 851.871 2341.53 851.798 2343.76 851.725 2345.7 851.611 2347.36 851.455 2348.24 854.977 2350.99 859.719 2355.6 865.681 2360.21 871.644 2366.1 878.824 2373.27 887.223L2386.45 902.763C2389.88 906.828 2392.8 910.275 2395.23 913.103 2397.65 915.932 2399.75 918.241 2401.53 920.03 2401.83 919.225 2402.01 918.205 2402.08 916.969 2402.14 915.733 2402.17 914.399 2402.16 912.966L2402.16 891.304C2402.17 884.81 2401.99 878.963 2401.63 873.763 2401.26 868.563 2400.65 864.835 2399.8 862.579 2399.07 860.966 2397.9 859.796 2396.31 859.067 2394.71 858.337 2392.84 857.834 2390.69 857.556L2386.45 856.929C2385.85 856.212 2385.57 855.261 2385.63 854.075 2385.69 852.889 2385.96 852.016 2386.45 851.455 2390.64 851.611 2394.4 851.725 2397.74 851.798 2401.08 851.871 2404.32 851.907 2407.48 851.906 2410.37 851.907 2413.26 851.871 2416.15 851.798 2419.04 851.725 2422.01 851.611 2425.05 851.455 2425.54 852.016 2425.82 852.889 2425.88 854.075 2425.94 855.261 2425.66 856.212 2425.05 856.929L2422.23 857.398C2420.18 857.683 2418.43 858.213 2416.99 858.988 2415.55 859.763 2414.47 860.96 2413.75 862.579 2412.9 864.835 2412.29 868.563 2411.93 873.763 2411.56 878.963 2411.39 884.81 2411.4 891.304L2411.4 928.805C2411.39 933.997 2411.4 938.836 2411.44 943.322 2411.47 947.807 2411.56 951.391 2411.71 954.072 2411.08 955.046 2409.87 955.883 2408.09 956.583 2406.3 957.282 2404.43 957.649 2402.47 957.681 2402.33 957.537 2401.11 955.825 2398.82 952.544 2396.52 949.263 2393.5 945.279 2389.75 940.593L2353.48 895.699C2348.96 890.134 2345.32 885.686 2342.57 882.357 2339.82 879.028 2337.75 876.778 2336.37 875.607 2335.99 876.349 2335.76 877.494 2335.68 879.041 2335.6 880.588 2335.57 882.792 2335.58 885.653L2335.58 916.105C2335.57 922.6 2335.75 928.447 2336.11 933.647 2336.48 938.847 2337.08 942.575 2337.94 944.831 2338.68 946.443 2339.86 947.614 2341.49 948.344 2343.12 949.072 2344.97 949.576 2347.04 949.854L2351.44 950.481C2352.05 951.198 2352.32 952.149 2352.26 953.335 2352.21 954.521 2351.93 955.394 2351.44 955.955 2347.25 955.799 2343.47 955.685 2340.1 955.612 2336.73 955.539 2333.5 955.503 2330.41 955.504 2324.64 955.498 2318.78 955.648 2312.84 955.955 2312.35 955.394 2312.08 954.521 2312.02 953.335 2311.96 952.149 2312.23 951.198 2312.84 950.481L2315.51 950.011C2317.65 949.658 2319.46 949.109 2320.94 948.363 2322.43 947.617 2323.5 946.44 2324.14 944.831 2324.99 942.575 2325.57 938.847 2325.89 933.647 2326.21 928.447 2326.36 922.6 2326.34 916.105L2326.34 876.235C2326.35 872.04 2326.29 869.011 2326.14 867.151 2326 865.29 2325.7 863.87 2325.24 862.893 2324.66 861.552 2323.7 860.427 2322.36 859.518 2321.01 858.609 2318.99 857.955 2316.3 857.556L2311.9 856.929C2311.35 856.183 2311.12 855.173 2311.21 853.899 2311.31 852.625 2311.75 851.81 2312.53 851.455ZM1900.51 851.455C1908.67 851.762 1916.51 851.912 1924.04 851.906 1927.81 851.907 1931.64 851.871 1935.53 851.798 1939.42 851.725 1943.33 851.611 1947.26 851.455 1947.89 852.035 1948.2 852.948 1948.2 854.192 1948.2 855.437 1947.89 856.349 1947.26 856.929L1943.18 857.556C1940.86 857.841 1939.12 858.387 1937.97 859.196 1936.81 860.004 1936.05 861.562 1935.68 863.87 1935.31 866.178 1935.14 869.725 1935.18 874.51L1935.18 929.445C1935.16 933.134 1935.35 936.226 1935.75 938.722 1936.14 941.219 1936.84 943.097 1937.84 944.357 1938.7 945.689 1940.25 946.677 1942.48 947.322 1944.71 947.967 1948.6 948.288 1954.17 948.285 1958.84 948.391 1962.68 948.126 1965.7 947.488 1968.72 946.85 1971.46 945.201 1973.92 942.539 1976.38 939.878 1979.11 935.565 1982.11 929.601 1982.84 928.84 1983.85 928.567 1985.15 928.781 1986.45 928.996 1987.42 929.58 1988.07 930.531 1987.78 933.339 1987.25 936.433 1986.46 939.814 1985.68 943.195 1984.82 946.358 1983.88 949.301 1982.94 952.244 1982.09 954.462 1981.32 955.955 1976.98 955.798 1971.5 955.68 1964.9 955.602 1958.3 955.524 1951.69 955.484 1945.07 955.484L1924.04 955.484C1920.46 955.484 1916.64 955.524 1912.59 955.602 1908.54 955.68 1904.09 955.798 1899.25 955.955 1898.53 955.374 1898.12 954.457 1898.01 953.203 1897.91 951.95 1898.16 951.022 1898.78 950.42L1904.74 949.634C1907.07 949.401 1908.8 948.893 1909.96 948.109 1911.11 947.326 1911.87 945.786 1912.24 943.489 1912.61 941.193 1912.78 937.659 1912.75 932.888L1912.75 874.51C1912.78 869.722 1912.61 866.164 1912.24 863.835 1911.87 861.507 1911.11 859.937 1909.96 859.126 1908.81 858.315 1907.07 857.791 1904.74 857.556L1900.19 856.929C1899.4 856.349 1899.02 855.437 1899.05 854.192 1899.09 852.948 1899.57 852.035 1900.51 851.455ZM1841.02 851.455C1848.52 851.442 1854.88 851.898 1860.1 852.825 1865.32 853.75 1869.63 855.224 1873.04 857.246 1876.45 859.281 1879.09 861.956 1880.98 865.27 1882.88 868.583 1883.84 872.554 1883.87 877.183 1883.76 881.554 1882.74 885.111 1880.8 887.854 1878.86 890.597 1876.65 892.677 1874.18 894.094 1871.7 895.511 1869.6 896.416 1867.87 896.81 1867.06 896.97 1866.34 897.198 1865.72 897.495 1865.09 897.792 1864.77 898.137 1864.73 898.532 1864.74 898.77 1864.93 898.998 1865.3 899.217 1865.68 899.435 1866.22 899.624 1866.93 899.784 1873.3 901.081 1878.67 903.851 1883.05 908.095 1887.42 912.338 1889.73 918.25 1889.99 925.833 1889.91 933.036 1888.11 938.805 1884.58 943.141 1881.05 947.477 1876.73 950.497 1871.64 952.199 1866.61 953.868 1861.36 954.951 1855.9 955.447 1850.43 955.942 1845.27 956.164 1840.39 956.112 1837.53 956.086 1834.69 955.981 1831.89 955.799 1829.09 955.616 1826.54 955.511 1824.23 955.484 1820.41 955.484 1816.52 955.524 1812.54 955.602 1808.57 955.68 1804.36 955.798 1799.91 955.955 1799.28 955.346 1798.97 954.374 1798.97 953.041 1798.97 951.708 1799.28 950.854 1799.91 950.48L1804.46 949.54C1806.78 949.151 1808.52 948.551 1809.67 947.737 1810.83 946.924 1811.59 945.405 1811.96 943.179 1812.33 940.953 1812.5 937.526 1812.46 932.898L1812.46 877.496C1812.5 872.295 1812.39 868.427 1812.14 865.895 1811.89 863.362 1811.27 861.658 1810.28 860.783 1809.29 859.908 1807.72 859.355 1805.56 859.126L1801.32 858.498C1800.58 857.93 1800.22 856.913 1800.22 855.446 1800.23 853.979 1800.8 853.118 1801.95 852.864 1807.81 852.462 1813.85 852.13 1820.07 851.866 1826.29 851.602 1833.27 851.464 1841.02 851.455ZM1627.96 851.455C1634.59 851.468 1640.22 851.833 1644.86 852.55 1649.51 853.268 1653.45 854.259 1656.7 855.524 1661.68 857.279 1666.06 860.349 1669.85 864.734 1673.64 869.119 1675.63 875.093 1675.83 882.654 1675.72 889.038 1674.33 894.192 1671.66 898.115 1668.99 902.038 1665.72 905.015 1661.85 907.046 1657.98 909.077 1654.19 910.447 1650.48 911.154 1646.77 911.862 1643.82 912.192 1641.62 912.144 1640.7 912.148 1639.84 912.141 1639.05 912.125 1638.26 912.108 1637.45 912.062 1636.6 911.987 1635.96 911.526 1635.59 910.84 1635.48 909.929 1635.37 909.017 1635.59 908.291 1636.13 907.752 1642.49 905.654 1646.73 902.439 1648.87 898.105 1651.01 893.772 1652 888.674 1651.84 882.811 1651.85 878.859 1651.16 875.052 1649.76 871.39 1648.37 867.728 1646.19 864.71 1643.22 862.338 1640.26 859.966 1636.43 858.738 1631.73 858.655 1628.93 858.596 1627.18 859.145 1626.49 860.302 1625.79 861.459 1625.49 863.577 1625.6 866.655L1625.6 932.85C1625.57 937.631 1625.74 941.175 1626.11 943.482 1626.48 945.788 1627.24 947.345 1628.39 948.152 1629.55 948.96 1631.29 949.506 1633.61 949.791L1638.64 950.577C1639.5 951.086 1639.94 951.961 1639.94 953.199 1639.94 954.438 1639.5 955.352 1638.64 955.94 1634.26 955.785 1630.1 955.675 1626.16 955.611 1622.21 955.547 1618.37 955.516 1614.62 955.518 1610.88 955.516 1607.08 955.547 1603.21 955.611 1599.35 955.675 1595.31 955.785 1591.09 955.94 1590.21 955.352 1589.73 954.438 1589.64 953.199 1589.55 951.961 1589.92 951.086 1590.77 950.577L1595.17 949.791C1597.49 949.457 1599.23 948.887 1600.38 948.082 1601.54 947.278 1602.3 945.733 1602.67 943.447 1603.04 941.16 1603.21 937.628 1603.18 932.85L1603.18 877.321C1603.21 872.12 1603.1 868.231 1602.85 865.656 1602.6 863.08 1601.98 861.341 1600.99 860.439 1600 859.536 1598.43 858.994 1596.27 858.812L1591.4 858.185C1590.69 857.689 1590.35 856.841 1590.38 855.642 1590.41 854.441 1590.86 853.516 1591.72 852.864 1596.91 852.462 1602.54 852.13 1608.6 851.866 1614.67 851.602 1621.12 851.464 1627.96 851.455ZM1537.63 851.455C1537.74 852.91 1538 855.963 1538.42 860.615 1538.84 865.266 1539.26 870.318 1539.67 875.769 1539.26 876.639 1538.41 877.136 1537.12 877.261 1535.84 877.385 1534.76 877.097 1533.87 876.397 1532.99 873.613 1532.03 871.134 1531 868.958 1529.97 866.783 1528.93 865.128 1527.9 863.993 1526.43 862.484 1524.45 861.3 1521.96 860.44 1519.47 859.58 1516.32 859.141 1512.5 859.125L1499.97 859.125C1497.49 859.017 1495.98 859.312 1495.44 860.008 1494.9 860.705 1494.69 862.452 1494.8 865.249L1494.8 892.727C1494.71 894.846 1494.92 896.181 1495.4 896.73 1495.89 897.28 1497.15 897.516 1499.18 897.437L1510 897.437C1513.95 897.549 1516.7 897.052 1518.26 895.946 1519.82 894.84 1520.93 892.459 1521.59 888.801L1522.38 884.876C1523.06 884.244 1524.07 883.937 1525.42 883.953 1526.76 883.97 1527.7 884.33 1528.22 885.033 1528.06 887.552 1527.95 890.208 1527.89 893 1527.82 895.792 1527.79 898.681 1527.79 901.665 1527.79 904.649 1527.82 907.537 1527.89 910.329 1527.95 913.122 1528.06 915.777 1528.22 918.296 1527.7 919.009 1526.76 919.389 1525.42 919.435 1524.07 919.48 1523.06 919.153 1522.38 918.453L1521.59 914.528C1520.93 910.864 1519.82 908.457 1518.26 907.306 1516.7 906.154 1513.95 905.631 1510 905.735L1499.18 905.735C1497.15 905.644 1495.89 905.866 1495.4 906.403 1494.92 906.939 1494.71 908.339 1494.8 910.603L1494.8 929.287C1494.78 932.901 1494.97 935.957 1495.34 938.452 1495.72 940.948 1496.38 942.865 1497.3 944.203 1498.17 945.609 1499.73 946.643 1502 947.304 1504.28 947.964 1508.19 948.291 1513.76 948.285 1518.24 948.388 1522.02 948.129 1525.08 947.505 1528.15 946.882 1530.93 945.273 1533.43 942.679 1535.94 940.085 1538.59 935.882 1541.4 930.072 1542.15 929.231 1543.2 928.911 1544.54 929.11 1545.88 929.31 1546.77 929.892 1547.21 930.857 1546.97 933.659 1546.47 936.724 1545.71 940.053 1544.95 943.382 1544.1 946.492 1543.16 949.384 1542.23 952.275 1541.38 954.465 1540.62 955.955 1536.27 955.798 1530.79 955.68 1524.18 955.602 1517.58 955.524 1510.97 955.484 1504.36 955.484L1483.97 955.484C1480.29 955.484 1476.32 955.524 1472.07 955.602 1467.82 955.68 1462.79 955.798 1456.99 955.955 1456.36 955.364 1456.04 954.427 1456.04 953.145 1456.04 951.862 1456.36 950.954 1456.99 950.421L1464.35 949.32C1466.68 949.039 1468.42 948.522 1469.57 947.77 1470.73 947.018 1471.49 945.525 1471.86 943.293 1472.23 941.06 1472.4 937.582 1472.37 932.858L1472.37 874.393C1472.4 869.723 1472.23 866.278 1471.86 864.058 1471.49 861.838 1470.73 860.333 1469.57 859.541 1468.42 858.75 1466.68 858.161 1464.35 857.776L1460.42 856.99C1459.73 856.405 1459.41 855.484 1459.47 854.229 1459.54 852.973 1459.96 852.053 1460.73 851.469 1464.44 851.627 1468.19 851.744 1471.99 851.821 1475.79 851.898 1479.57 851.933 1483.35 851.926L1516.58 851.926C1521.73 851.926 1526.24 851.886 1530.11 851.808 1533.99 851.729 1536.49 851.612 1537.63 851.455ZM3025.41 849.415C3041.99 849.666 3055.26 854.653 3065.2 864.375 3075.14 874.097 3080.24 887.05 3080.5 903.234 3080.25 920.487 3075.02 933.891 3064.83 943.447 3054.63 953.002 3040.97 957.852 3023.84 957.995 3013.23 957.942 3003.85 955.748 2995.7 951.414 2987.54 947.079 2981.14 940.922 2976.49 932.942 2971.84 924.963 2969.47 915.478 2969.38 904.49 2969.47 894.025 2971.88 884.661 2976.62 876.398 2981.36 868.134 2987.92 861.597 2996.3 856.787 3004.69 851.977 3014.39 849.519 3025.41 849.415ZM2635.26 849.415C2636.26 849.399 2637.04 849.627 2637.59 850.101 2638.15 850.575 2638.57 851.393 2638.87 852.554 2639.47 854.744 2640.31 857.503 2641.4 860.832 2642.49 864.16 2644 868.568 2645.93 874.054L2667.27 935.531C2668.79 940.166 2670.23 943.548 2671.59 945.677 2672.95 947.806 2675.02 949.072 2677.79 949.477L2683.75 950.42C2684 950.678 2684.19 951.032 2684.32 951.482L2684.48 952.572 2684.64 951.482C2684.79 951.032 2685.03 950.678 2685.34 950.42L2689.58 949.634C2691.9 949.299 2693.64 948.732 2694.8 947.933 2695.95 947.133 2696.71 945.603 2697.08 943.34 2697.45 941.078 2697.62 937.584 2697.59 932.86L2697.59 877.338C2697.62 872.186 2697.51 868.342 2697.26 865.807 2697.01 863.271 2696.39 861.556 2695.4 860.661 2694.41 859.765 2692.84 859.201 2690.68 858.968L2686.44 858.342C2685.65 857.82 2685.27 856.907 2685.3 855.603 2685.34 854.298 2685.82 853.385 2686.76 852.864 2692.59 852.462 2698.69 852.13 2705.04 851.866 2711.38 851.602 2718.26 851.464 2725.67 851.455 2732.42 851.464 2738.47 851.954 2743.83 852.922 2749.18 853.89 2753.39 855.28 2756.44 857.089 2761 859.763 2764.43 863.045 2766.75 866.937 2769.07 870.829 2770.24 875.29 2770.24 880.321 2770 887.19 2768.13 892.411 2764.64 895.982 2761.14 899.554 2757.47 902.183 2753.62 903.87 2752.85 904.248 2752.42 904.704 2752.34 905.239 2752.26 905.774 2752.42 906.465 2752.83 907.313 2757.9 917.746 2762.31 926.111 2766.05 932.407 2769.79 938.703 2773.49 943.419 2777.15 946.556 2779.23 948.172 2781.19 949.297 2783.05 949.932 2783.99 950.249 2784.83 950.493 2785.6 950.663L2786.76 950.825 2787 950.481 2789.83 950.011C2793.67 949.498 2796.12 948.524 2797.19 947.089 2798.26 945.655 2798.94 942.603 2799.25 937.933 2799.64 933.992 2800.04 928.854 2800.45 922.521 2800.85 916.188 2801.29 909.247 2801.76 901.698 2802.08 896.309 2802.34 890.773 2802.54 885.09 2802.75 879.407 2802.85 874.381 2802.86 870.011 2802.85 865.652 2802.01 862.606 2800.35 860.874 2798.69 859.142 2796.28 858.057 2793.13 857.619L2789.67 856.99C2789.04 856.237 2788.74 855.219 2788.79 853.934 2788.84 852.649 2789.29 851.828 2790.14 851.469 2792.82 851.625 2795.82 851.735 2799.15 851.799 2802.47 851.863 2806.06 851.894 2809.91 851.891 2812.46 851.903 2814.97 851.893 2817.42 851.858 2819.88 851.824 2822.5 851.694 2825.29 851.469 2825.37 856.237 2826.57 861.292 2828.9 866.635 2831.22 871.978 2834.15 878.28 2837.69 885.541L2848.05 907.658C2848.89 909.453 2850.2 912.021 2852 915.364 2853.79 918.707 2855.3 921.472 2856.53 923.658 2857.53 921.845 2858.72 919.55 2860.1 916.776 2861.49 914.001 2863.23 910.335 2865.32 905.776L2873.33 888.521C2875.82 883.228 2877.93 878.634 2879.66 874.739 2881.39 870.845 2882.89 867.097 2884.17 863.495 2885.45 859.894 2886.65 855.885 2887.78 851.469 2891.34 851.763 2894.45 851.912 2897.11 851.917 2899.77 851.922 2902.25 851.913 2904.56 851.891 2907.22 851.894 2910.17 851.863 2913.4 851.799 2916.64 851.735 2919.7 851.625 2922.61 851.469 2923.46 852.015 2923.91 852.856 2923.96 853.993 2924.01 855.13 2923.71 856.129 2923.08 856.99L2918.52 857.776C2915.31 858.207 2912.91 859.188 2911.32 860.717 2909.74 862.247 2908.95 865.031 2908.95 869.07 2908.95 879.729 2908.99 889.017 2909.07 896.934 2909.14 904.85 2909.28 912.07 2909.46 918.592 2909.64 925.115 2909.89 931.614 2910.2 938.09 2910.25 941.687 2910.71 944.452 2911.56 946.384 2912.41 948.315 2914.32 949.472 2917.27 949.854L2922.29 950.481C2922.93 951.217 2923.23 952.208 2923.19 953.453 2923.16 954.697 2922.76 955.532 2921.98 955.955 2918.4 955.799 2914.85 955.685 2911.32 955.612 2907.8 955.539 2904.14 955.503 2900.32 955.504 2896.74 955.503 2892.93 955.539 2888.89 955.612 2884.85 955.685 2880.92 955.799 2877.1 955.955 2876.16 955.453 2875.65 954.58 2875.57 953.335 2875.49 952.091 2875.84 951.139 2876.63 950.481L2881.34 949.854C2884.8 949.524 2886.91 948.538 2887.66 946.894 2888.41 945.25 2888.71 942.106 2888.56 937.462L2888.25 896.672 2888.25 878.793 2887.93 878.793C2882.06 891.356 2876.15 904.145 2870.19 917.159 2864.24 930.173 2858.64 943.315 2853.39 956.584 2853 956.904 2852.53 957.165 2852 957.368 2851.46 957.57 2850.88 957.675 2850.25 957.681 2849.52 957.681 2848.78 957.603 2848.03 957.446 2847.28 957.289 2846.66 957.054 2846.17 956.74 2843.99 950.033 2840.83 941.926 2836.69 932.419 2832.56 922.912 2828.27 913.353 2823.83 903.742 2819.4 894.131 2815.65 885.815 2812.57 878.796L2812.26 878.796C2811.95 883.766 2811.71 888.1 2811.53 891.796 2811.36 895.492 2811.24 899.315 2811.16 903.266 2811.08 908.61 2811.01 914.59 2810.95 921.207 2810.88 927.825 2810.85 933.609 2810.85 938.56 2810.76 942.39 2811.17 945.083 2812.1 946.639 2813.03 948.194 2815.02 949.161 2818.07 949.541L2824.2 950.481C2824.81 951.139 2825.07 952.091 2824.98 953.335 2824.89 954.58 2824.52 955.453 2823.89 955.955 2820.95 955.799 2817.88 955.685 2814.68 955.612 2811.48 955.539 2808.38 955.503 2805.37 955.504 2802.82 955.503 2800.03 955.539 2796.97 955.612 2793.92 955.685 2790.81 955.799 2787.63 955.955L2786.9 955.312 2782.98 956.133C2780.74 956.338 2778.38 956.436 2775.89 956.426 2768.74 956.447 2762.73 955.114 2757.85 952.427 2752.97 949.739 2748.84 945.568 2745.44 939.915 2742.96 935.786 2740.74 931.737 2738.79 927.765 2736.84 923.794 2734.97 919.744 2733.2 915.616 2732.27 913.535 2731.14 912.092 2729.8 911.286 2728.47 910.479 2726.82 910.094 2724.88 910.13 2722.23 910.078 2720.58 910.26 2719.91 910.678 2719.25 911.096 2718.97 912.063 2719.07 913.578L2719.07 932.86C2719.04 937.584 2719.21 941.078 2719.58 943.34 2719.95 945.603 2720.71 947.133 2721.86 947.933 2723.02 948.732 2724.75 949.299 2727.08 949.634L2731.31 950.42C2731.86 950.936 2732.14 951.836 2732.14 953.121 2732.14 954.406 2731.86 955.345 2731.31 955.94 2727.18 955.785 2723.24 955.675 2719.49 955.611 2715.73 955.547 2711.98 955.516 2708.25 955.518 2704.38 955.516 2700.6 955.547 2696.92 955.611 2693.24 955.675 2689.38 955.785 2685.34 955.94 2685.03 955.643 2684.79 955.259 2684.64 954.789L2684.48 953.711 2684.35 954.789C2684.19 955.259 2683.94 955.643 2683.6 955.94 2679.8 955.785 2675.85 955.675 2671.75 955.611 2667.64 955.547 2663.53 955.516 2659.43 955.518 2655.56 955.516 2651.95 955.547 2648.6 955.611 2645.24 955.675 2641.79 955.785 2638.24 955.94 2637.37 955.375 2636.88 954.494 2636.79 953.299 2636.7 952.103 2637.08 951.143 2637.93 950.42L2642.95 949.634C2644.71 949.308 2645.86 948.903 2646.42 948.42 2646.98 947.937 2647.24 947.453 2647.19 946.97 2647.18 946.408 2646.92 945.22 2646.4 943.405 2645.89 941.59 2645.15 939.226 2644.2 936.314L2639.97 922.837C2639.65 921.623 2638.99 920.839 2637.97 920.487 2636.95 920.134 2635.1 919.978 2632.43 920.017L2614.86 920.017C2613.05 919.961 2611.84 920.111 2611.21 920.467 2610.58 920.823 2610.07 921.718 2609.68 923.151L2603.87 941.329C2603.41 942.857 2603.11 944.032 2602.97 944.854 2602.83 945.677 2602.76 946.382 2602.77 946.97 2602.73 947.443 2603.13 947.907 2603.95 948.36 2604.77 948.815 2606.26 949.239 2608.42 949.634L2613.13 950.42C2613.63 951.084 2613.89 952.043 2613.92 953.299 2613.94 954.554 2613.58 955.435 2612.82 955.94 2610.06 955.795 2607.14 955.704 2604.05 955.67 2600.96 955.636 2597.76 955.585 2594.46 955.518 2591.9 955.536 2589.44 955.606 2587.08 955.73 2584.72 955.853 2581.79 955.923 2578.29 955.94 2577.45 955.375 2577.02 954.494 2577 953.299 2576.98 952.103 2577.25 951.143 2577.82 950.42L2582.06 949.947C2583.94 949.797 2585.67 949.197 2587.26 948.146 2588.84 947.094 2590.3 945.083 2591.63 942.112 2592.94 939.03 2594.36 935.478 2595.91 931.457 2597.45 927.435 2599.27 922.63 2601.36 917.042L2615.49 878.762C2617.35 873.89 2618.88 869.901 2620.08 866.796 2621.27 863.689 2621.78 861.034 2621.61 858.831 2624.14 858.171 2626.41 857.102 2628.42 855.622 2630.44 854.143 2632.04 852.76 2633.25 851.473 2634.46 850.185 2635.13 849.499 2635.26 849.415ZM2497.43 849.415C2506.03 849.571 2512.76 850.198 2517.62 851.294 2522.47 852.391 2526.1 853.02 2528.5 853.181 2528.7 855.693 2528.93 859.294 2529.18 863.982 2529.44 868.67 2529.94 873.486 2530.69 878.429 2530.24 879.295 2529.3 879.76 2527.89 879.823 2526.47 879.885 2525.42 879.528 2524.73 878.75 2519.69 863.993 2509.86 856.614 2495.23 856.614 2486.92 856.717 2480.01 858.814 2474.53 862.906 2469.04 866.997 2464.94 872.467 2462.23 879.314 2459.52 886.162 2458.17 893.771 2458.17 902.142 2458.28 913.302 2459.99 922.356 2463.3 929.306 2466.6 936.255 2470.86 941.429 2476.07 944.828 2479.91 947.276 2483.71 948.898 2487.48 949.696 2491.25 950.495 2494.62 950.861 2497.59 950.796 2501.96 950.936 2504.88 950.223 2506.36 948.656 2507.84 947.089 2508.53 943.825 2508.42 938.862L2508.42 928.969C2508.54 924.889 2508.07 922.213 2507.01 920.941 2505.95 919.668 2503.59 918.837 2499.94 918.448L2493.03 917.507C2492.17 916.927 2491.74 916.014 2491.74 914.77 2491.74 913.525 2492.17 912.612 2493.03 912.032 2498.54 912.188 2503.39 912.303 2507.6 912.375 2511.8 912.448 2515.79 912.484 2519.56 912.484 2523.37 912.484 2527.07 912.448 2530.66 912.375 2534.24 912.303 2537.39 912.188 2540.11 912.032 2540.74 912.612 2541.05 913.525 2541.05 914.77 2541.05 916.014 2540.74 916.927 2540.11 917.507L2536.5 918.134C2534.2 918.399 2532.67 919.242 2531.91 920.666 2531.14 922.089 2530.79 924.857 2530.85 928.969L2530.85 937.763C2530.8 941.041 2530.98 943.515 2531.38 945.184 2531.78 946.852 2532.7 947.833 2534.15 948.128 2534.46 948.528 2534.58 949.172 2534.5 950.06 2534.42 950.948 2534.15 951.553 2533.67 951.875 2532.31 952.09 2530.68 952.365 2528.77 952.7 2526.86 953.035 2524.84 953.547 2522.69 954.239 2520.79 954.827 2518.22 955.407 2515.01 955.978 2511.79 956.549 2508.39 957.024 2504.81 957.404 2501.23 957.784 2497.93 957.981 2494.92 957.995 2489.66 958.041 2484.56 957.676 2479.63 956.899 2474.7 956.123 2469.48 954.663 2463.98 952.517 2454.66 948.728 2447.22 942.731 2441.65 934.526 2436.08 926.321 2433.22 916.521 2433.08 905.125 2433.05 895.221 2435.3 886.181 2439.82 878.005 2444.35 869.828 2451.3 863.064 2460.69 857.713 2466.05 854.832 2471.84 852.725 2478.06 851.391 2484.27 850.057 2490.73 849.399 2497.43 849.415ZM2090.17 849.415C2092.79 849.402 2095.64 849.585 2098.71 849.963 2101.78 850.341 2104.89 850.993 2108.06 851.919 2109.06 852.225 2109.97 852.473 2110.79 852.663 2111.61 852.852 2112.47 853.021 2113.39 853.171 2114.06 854.955 2114.69 857.81 2115.27 861.736 2115.86 865.663 2116.18 870.286 2116.22 875.607 2115.71 876.549 2114.76 877.059 2113.39 877.138 2112.02 877.216 2110.92 876.863 2110.1 876.078 2109.21 873.318 2107.87 870.449 2106.06 867.474 2104.25 864.498 2101.96 861.968 2099.19 859.881 2096.42 857.795 2093.15 856.706 2089.38 856.614 2084.18 856.732 2080.21 858.184 2077.48 860.97 2074.75 863.756 2073.38 867.17 2073.36 871.212 2073.46 874.862 2074.87 878.236 2077.56 881.337 2080.26 884.437 2083.62 887.027 2087.66 889.106L2098.02 894.6C2101.36 896.301 2104.71 898.516 2108.08 901.246 2111.45 903.975 2114.28 907.376 2116.56 911.448 2118.85 915.521 2120.04 920.422 2120.14 926.151 2119.97 935.925 2116.34 943.646 2109.25 949.313 2102.16 954.981 2092.61 957.875 2080.59 957.995 2073.36 957.865 2067.52 957.108 2063.07 955.726 2058.62 954.343 2055.56 953.117 2053.92 952.048 2052.4 950.146 2051.19 946.812 2050.29 942.044 2049.38 937.276 2048.92 932.136 2048.89 926.622 2049.54 925.602 2050.52 925.053 2051.82 924.974 2053.11 924.896 2054.13 925.288 2054.86 926.151 2055.93 929.668 2057.74 933.309 2060.28 937.075 2062.82 940.842 2065.93 944.041 2069.61 946.674 2073.29 949.307 2077.37 950.68 2081.84 950.796 2087.64 950.626 2091.92 948.965 2094.68 945.812 2097.45 942.659 2098.83 939.036 2098.81 934.942 2098.72 930.718 2097.57 927.027 2095.36 923.867 2093.16 920.707 2090.43 917.992 2087.17 915.722 2083.92 913.451 2080.68 911.539 2077.44 909.983 2073.59 908.114 2069.87 905.783 2066.28 902.99 2062.69 900.196 2059.73 896.853 2057.39 892.961 2055.05 889.069 2053.84 884.54 2053.76 879.374 2053.78 870.366 2056.99 863.156 2063.37 857.743 2069.75 852.33 2078.68 849.555 2090.17 849.415ZM1236.38 848.002C1237.19 847.976 1237.92 848.185 1238.57 848.63 1238.72 849.935 1239.53 850.817 1240.99 851.278 1242.45 851.739 1246.04 851.955 1251.76 851.926L1310.13 851.926C1315.17 851.988 1318.64 851.824 1320.55 851.434 1322.46 851.045 1323.7 850.055 1324.26 848.465 1324.56 848.311 1324.86 848.195 1325.16 848.118 1325.46 848.041 1325.84 848.002 1326.3 848.002 1326.79 848.018 1327.26 848.14 1327.71 848.369 1328.16 848.596 1328.48 848.834 1328.65 849.081 1327.85 851.987 1327.22 856.035 1326.77 861.227 1326.32 866.418 1326.16 871.364 1326.3 876.066 1325.76 876.782 1324.8 877.194 1323.4 877.302 1322 877.409 1321.03 877.155 1320.49 876.537 1319.37 871.419 1317.73 867.262 1315.59 864.066 1313.44 860.87 1309.53 859.223 1303.85 859.125L1294.44 859.125C1292.61 859.06 1291.43 859.309 1290.9 859.87 1290.37 860.432 1290.14 861.701 1290.2 863.675L1290.2 932.85C1290.17 937.632 1290.33 941.174 1290.7 943.475 1291.07 945.777 1291.83 947.321 1292.99 948.106 1294.14 948.891 1295.88 949.4 1298.2 949.634L1304.48 950.42C1305.03 951.005 1305.31 951.925 1305.31 953.18 1305.31 954.435 1305.03 955.355 1304.48 955.94 1299.41 955.785 1294.84 955.675 1290.75 955.611 1286.66 955.547 1282.87 955.516 1279.38 955.518 1275.66 955.516 1271.64 955.547 1267.34 955.611 1263.03 955.675 1258.15 955.785 1252.7 955.94 1252.07 955.355 1251.76 954.435 1251.76 953.18 1251.76 951.925 1252.07 951.005 1252.7 950.42L1259.77 949.634C1263.19 949.503 1265.41 948.431 1266.42 946.418 1267.43 944.405 1267.88 939.882 1267.77 932.85L1267.77 863.675C1267.85 861.838 1267.69 860.609 1267.3 859.988 1266.91 859.367 1265.81 859.08 1264 859.125L1254.27 859.125C1248.74 859.148 1244.65 860.671 1242.01 863.694 1239.36 866.717 1236.96 871.103 1234.81 876.851 1233.8 877.331 1232.71 877.469 1231.55 877.262 1230.39 877.056 1229.54 876.449 1229 875.439 1230.59 869.975 1231.73 864.944 1232.41 860.347 1233.1 855.748 1233.69 851.895 1234.18 848.787 1234.83 848.29 1235.57 848.029 1236.38 848.002Z" fill="#FFFFFF" fill-rule="evenodd"/></g></svg>