<svg width="3300" height="383"
  xmlns="http://www.w3.org/2000/svg"
  xmlns:xlink="http://www.w3.org/1999/xlink" xml:space="preserve" overflow="hidden">
  <defs>
    <clipPath id="clip0">
      <rect x="550" y="1480" width="3300" height="383"/>
    </clipPath>
  </defs>
  <g clip-path="url(#clip0)" transform="translate(-550 -1480)">
    <path d="M3241.58 1725.45C3230.02 1729.71 3218.77 1737.59 3207.85 1749.09 3196.92 1760.6 3191.46 1769.88 3191.46 1776.94 3191.46 1777.88 3191.55 1778.34 3191.73 1778.34 3197.62 1778.34 3214.24 1760.71 3241.58 1725.45ZM3503.93 1722.67C3498.24 1730.13 3490.12 1739.31 3479.59 1750.21 3473.33 1760.48 3469.42 1767.77 3467.86 1772.1L3467.23 1774.78 3467.58 1774.69C3470.75 1773.32 3477.22 1767.13 3486.98 1756.12 3498.14 1743.54 3503.72 1733.47 3503.72 1725.91 3503.72 1724.53 3503.79 1723.44 3503.93 1722.67ZM3335.8 1682.5C3324.67 1693.96 3319.11 1703.22 3319.11 1710.28 3319.11 1712.18 3319.95 1713.13 3321.64 1713.13 3326.14 1713.13 3333.47 1708.01 3343.64 1697.79 3337.85 1696.71 3334.96 1692.59 3334.96 1685.44 3334.96 1683.59 3335.24 1682.61 3335.8 1682.5ZM3767.84 1671.92C3763.68 1671.92 3756.33 1677.4 3745.8 1688.36 3740.53 1693.85 3736.58 1698.52 3733.95 1702.39L3730 1711.58 3729.85 1711.66C3729.95 1711.66 3729.99 1711.64 3729.99 1711.59L3730 1711.58 3737.8 1707.42C3741.43 1704.6 3746.05 1700.37 3751.66 1694.72 3762.88 1683.43 3768.5 1676.12 3768.53 1672.81 3768.53 1672.22 3768.3 1671.92 3767.84 1671.92ZM3690.26 1670.77C3686.82 1670.77 3678.95 1676.6 3666.65 1688.28 3654.36 1699.95 3648.21 1707.52 3648.21 1710.98 3648.21 1711.43 3648.37 1711.66 3648.68 1711.66 3652.04 1711.66 3659.96 1705.93 3672.42 1694.48 3684.89 1683.03 3691.13 1675.56 3691.15 1672.07 3691.15 1671.2 3690.85 1670.77 3690.26 1670.77ZM3052.8 1670.77C3049.36 1670.77 3041.5 1676.6 3029.2 1688.28 3016.9 1699.95 3010.75 1707.52 3010.75 1710.98 3010.75 1711.43 3010.91 1711.66 3011.23 1711.66 3014.59 1711.66 3022.5 1705.93 3034.97 1694.48 3047.44 1683.03 3053.68 1675.56 3053.7 1672.07 3053.7 1671.2 3053.4 1670.77 3052.8 1670.77ZM2851.22 1670.77C2847.78 1670.77 2839.91 1676.6 2827.62 1688.28 2815.32 1699.95 2809.17 1707.52 2809.17 1710.98 2809.17 1711.43 2809.33 1711.66 2809.65 1711.66 2813.01 1711.66 2820.92 1705.93 2833.39 1694.48 2845.86 1683.03 2852.1 1675.56 2852.11 1672.07 2852.11 1671.2 2851.81 1670.77 2851.22 1670.77ZM3356.44 1670.24C3353.78 1670.24 3350.94 1672.13 3347.91 1675.89 3344.88 1679.66 3343.36 1683.03 3343.36 1686.01 3343.36 1688.75 3344.68 1690.46 3347.33 1691.14 3349.23 1689.22 3351.29 1686.5 3353.52 1682.97 3356.34 1678.12 3357.74 1674.49 3357.74 1672.07 3357.74 1670.85 3357.31 1670.24 3356.44 1670.24ZM3529.16 1669.72C3523.68 1669.72 3514.41 1675.55 3501.35 1687.21 3488.3 1698.87 3481.77 1707.17 3481.77 1712.13 3481.77 1712.3 3481.8 1712.39 3481.84 1712.39 3486.98 1712.39 3496.21 1706.64 3509.54 1695.13 3522.88 1683.63 3529.55 1675.45 3529.55 1670.6 3529.55 1670.01 3529.42 1669.72 3529.16 1669.72ZM1163.98 1663.57C1159.84 1663.45 1157.32 1663.73 1156.42 1664.43 1155.52 1665.13 1155.16 1666.99 1155.34 1670L1155.34 1688.52C1155.15 1694.7 1155.92 1699.55 1157.66 1703.07 1159.39 1706.58 1163.23 1708.38 1169.17 1708.44 1174.99 1708.33 1179.41 1706.31 1182.4 1702.38 1185.4 1698.45 1186.91 1693.25 1186.92 1686.79 1186.91 1679.85 1184.97 1674.28 1181.11 1670.06 1177.24 1665.85 1171.54 1663.69 1163.98 1663.57ZM2612.23 1654.72 2595.75 1655.12 2583.05 1670.24 2600.28 1669.68ZM1946.59 1637.56C1945.79 1639.34 1944.81 1641.74 1943.67 1644.77 1942.53 1647.8 1941.36 1651.15 1940.16 1654.81L1936.23 1666.57C1935.51 1668.62 1935.39 1669.93 1935.88 1670.51 1936.37 1671.09 1937.59 1671.34 1939.53 1671.27L1953.19 1671.27C1954.98 1671.34 1956.11 1671.09 1956.58 1670.53 1957.06 1669.97 1956.97 1668.7 1956.33 1666.73L1952.25 1654.02C1951.14 1650.59 1950.1 1647.42 1949.12 1644.5 1948.15 1641.58 1947.31 1639.26 1946.59 1637.56ZM2612.77 1619.91C2615.54 1619.91 2616.93 1621.23 2616.93 1623.86 2616.93 1625.17 2611.65 1632.21 2601.07 1644.97L2617.76 1644.21 2627.79 1631.2C2633.49 1623.82 2637.52 1620.12 2639.86 1620.12 2642.56 1620.12 2643.91 1621.4 2643.91 1623.96 2643.91 1626.07 2638.7 1632.69 2628.27 1643.82L2633.88 1643.61C2637.56 1643.61 2639.4 1645 2639.4 1647.77 2639.4 1651.85 2636.52 1654.2 2630.76 1654.83L2622.78 1654.62 2610.87 1669.51 2615.49 1669.44C2620.23 1669.35 2622.6 1670.96 2622.6 1674.29 2622.6 1678.58 2616.81 1680.69 2605.24 1680.62L2580.44 1717.52C2579 1720.53 2577.36 1722.04 2575.52 1722.04 2572.61 1722.04 2571.16 1720.55 2571.16 1717.58 2571.16 1715.94 2573.98 1710.71 2579.62 1701.87L2594.83 1680.73 2577.4 1681.02C2570.62 1690.65 2562.92 1702.66 2554.29 1717.06 2551.69 1721.36 2549.15 1723.51 2546.66 1723.51 2544.16 1723.51 2542.91 1722.19 2542.91 1719.56 2542.91 1715.72 2550.91 1702.92 2566.91 1681.15L2559.76 1681.25C2555.18 1681.32 2552.89 1680.03 2552.89 1677.4 2552.89 1673.47 2559.28 1671.22 2572.07 1670.64L2584.62 1655.35C2584.92 1655.35 2583.7 1655.42 2580.97 1655.56L2575.07 1655.67C2570.78 1655.67 2568.64 1654.21 2568.64 1651.31 2568.64 1648.18 2572.44 1646.3 2580.05 1645.64L2589.83 1645.35 2599.84 1632.06C2605.97 1623.96 2610.28 1619.91 2612.77 1619.91ZM2047.4 1618.25C2044.3 1618.11 2042.37 1618.51 2041.6 1619.43 2040.84 1620.35 2040.52 1622.62 2040.64 1626.25L2040.64 1656.85C2040.47 1659.5 2040.93 1661.18 2042.04 1661.88 2043.14 1662.59 2045.92 1662.9 2050.38 1662.81 2053.17 1662.81 2055.49 1662.45 2057.36 1661.73 2059.22 1661.01 2060.88 1659.9 2062.33 1658.41 2063.73 1657.12 2065.01 1655.12 2066.16 1652.41 2067.31 1649.71 2067.92 1646.06 2067.98 1641.47 2067.89 1634.33 2065.99 1628.69 2062.29 1624.57 2058.58 1620.44 2053.62 1618.34 2047.4 1618.25ZM1162.88 1618.25C1159.34 1618.16 1157.16 1618.66 1156.34 1619.74 1155.53 1620.83 1155.19 1623.05 1155.34 1626.41L1155.34 1652.3C1155.17 1654.27 1155.54 1655.51 1156.44 1656.02 1157.34 1656.54 1159.75 1656.76 1163.67 1656.69 1170.35 1656.53 1175.13 1654.7 1178.01 1651.2 1180.88 1647.7 1182.28 1643.52 1182.21 1638.65 1182.08 1631.83 1180.22 1626.72 1176.61 1623.33 1173.01 1619.94 1168.43 1618.25 1162.88 1618.25ZM2345.84 1616.21C2336.15 1616.42 2328.79 1620.52 2323.75 1628.51 2318.72 1636.49 2316.18 1647.14 2316.16 1660.44 2316.12 1665.34 2316.61 1670.63 2317.61 1676.31 2318.61 1681.99 2320.32 1687.41 2322.73 1692.56 2325.15 1697.71 2328.45 1701.93 2332.66 1705.22 2336.86 1708.51 2342.14 1710.21 2348.51 1710.32 2355.34 1710.23 2360.86 1708.18 2365.07 1704.18 2369.28 1700.17 2372.34 1694.75 2374.26 1687.92 2376.18 1681.09 2377.13 1673.4 2377.1 1664.84 2377.08 1655.79 2375.82 1647.62 2373.33 1640.31 2370.83 1633 2367.26 1627.18 2362.6 1622.86 2357.95 1618.53 2352.36 1616.32 2345.84 1616.21ZM1576.94 1611.07C1581.18 1611.23 1585.27 1611.34 1589.23 1611.4 1593.18 1611.46 1597.04 1611.5 1600.8 1611.49 1608.15 1611.51 1616.05 1611.37 1624.52 1611.07 1625.14 1611.66 1625.45 1612.58 1625.45 1613.83 1625.45 1615.08 1625.14 1616 1624.52 1616.59L1620.12 1617.37C1617.74 1617.71 1615.96 1618.28 1614.78 1619.08 1613.6 1619.89 1612.83 1621.45 1612.45 1623.75 1612.08 1626.06 1611.91 1629.62 1611.94 1634.45L1611.94 1692.09C1611.91 1696.91 1612.08 1700.47 1612.45 1702.78 1612.83 1705.09 1613.6 1706.64 1614.78 1707.45 1615.96 1708.26 1617.74 1708.83 1620.12 1709.16L1624.52 1709.95C1625.13 1710.53 1625.42 1711.45 1625.37 1712.71 1625.32 1713.96 1624.99 1714.88 1624.36 1715.46 1620.13 1715.31 1616.06 1715.2 1612.16 1715.13 1608.27 1715.07 1604.48 1715.04 1600.8 1715.04 1597.04 1715.04 1593.18 1715.07 1589.23 1715.13 1585.27 1715.2 1581.18 1715.31 1576.94 1715.46 1576.31 1714.88 1576 1713.96 1576 1712.71 1576 1711.45 1576.31 1710.53 1576.94 1709.95L1581.34 1709.16C1583.71 1708.83 1585.49 1708.26 1586.67 1707.45 1587.84 1706.64 1588.62 1705.09 1588.99 1702.78 1589.37 1700.47 1589.54 1696.91 1589.5 1692.09L1589.5 1634.45C1589.54 1629.62 1589.37 1626.06 1588.99 1623.75 1588.62 1621.45 1587.84 1619.89 1586.67 1619.08 1585.49 1618.28 1583.71 1617.71 1581.34 1617.37L1576.94 1616.59C1576.31 1616 1576 1615.08 1576 1613.83 1576 1612.58 1576.31 1611.66 1576.94 1611.07ZM1451.23 1611.07C1455.1 1611.23 1459.02 1611.34 1462.99 1611.4 1466.95 1611.46 1470.83 1611.5 1474.62 1611.49 1478.19 1611.5 1481.84 1611.46 1485.59 1611.4 1489.33 1611.34 1492.95 1611.23 1496.44 1611.07 1497.07 1611.66 1497.38 1612.58 1497.38 1613.83 1497.38 1615.08 1497.07 1616 1496.44 1616.59L1493.14 1617.06C1489.87 1617.27 1487.74 1618.41 1486.76 1620.49 1485.78 1622.56 1485.34 1627.11 1485.45 1634.13L1485.45 1652.31C1485.32 1654.49 1485.61 1655.84 1486.33 1656.36 1487.05 1656.88 1488.95 1657.09 1492.04 1657L1524.72 1657C1527.88 1657.09 1529.8 1656.88 1530.49 1656.36 1531.18 1655.84 1531.45 1654.49 1531.32 1652.31L1531.32 1634.13C1531.35 1629.36 1531.19 1625.82 1530.85 1623.52 1530.5 1621.21 1529.75 1619.66 1528.59 1618.85 1527.44 1618.05 1525.68 1617.5 1523.3 1617.22L1519.06 1616.59C1518.44 1616 1518.12 1615.08 1518.12 1613.83 1518.12 1612.58 1518.44 1611.66 1519.06 1611.07 1523.37 1611.23 1527.48 1611.34 1531.41 1611.4 1535.34 1611.46 1539.18 1611.5 1542.93 1611.49 1546.76 1611.5 1550.51 1611.46 1554.17 1611.4 1557.83 1611.34 1561.46 1611.23 1565.06 1611.07 1565.69 1611.66 1566 1612.58 1566 1613.83 1566 1615.08 1565.69 1616 1565.06 1616.59L1561.92 1617.06C1559.54 1617.35 1557.77 1617.9 1556.59 1618.74 1555.41 1619.57 1554.64 1621.15 1554.26 1623.48 1553.89 1625.8 1553.72 1629.36 1553.75 1634.13L1553.75 1692.4C1553.72 1697.17 1553.89 1700.7 1554.26 1702.98 1554.64 1705.27 1555.41 1706.81 1556.59 1707.61 1557.77 1708.42 1559.54 1708.98 1561.92 1709.32L1565.69 1709.95C1566.31 1710.53 1566.63 1711.45 1566.63 1712.7 1566.63 1713.96 1566.31 1714.88 1565.69 1715.46 1561.75 1715.31 1557.88 1715.2 1554.07 1715.13 1550.26 1715.07 1546.54 1715.04 1542.93 1715.04 1535.08 1715.02 1527.39 1715.16 1519.85 1715.46 1519.22 1714.88 1518.91 1713.96 1518.91 1712.7 1518.91 1711.45 1519.22 1710.53 1519.85 1709.95L1523.3 1709.47C1526.8 1709.26 1529.04 1708.12 1530.02 1706.05 1531 1703.98 1531.43 1699.43 1531.32 1692.4L1531.32 1669.84C1531.45 1667.73 1531.18 1666.43 1530.49 1665.92 1529.8 1665.42 1527.88 1665.21 1524.72 1665.3L1492.04 1665.3C1488.95 1665.21 1487.05 1665.42 1486.33 1665.92 1485.61 1666.43 1485.32 1667.73 1485.45 1669.84L1485.45 1692.4C1485.41 1697.18 1485.58 1700.73 1485.95 1703.05 1486.32 1705.38 1487.08 1706.94 1488.24 1707.75 1489.39 1708.56 1491.13 1709.08 1493.46 1709.32L1498.48 1709.95C1499.11 1710.53 1499.43 1711.45 1499.43 1712.7 1499.43 1713.96 1499.11 1714.88 1498.48 1715.46 1494.01 1715.31 1489.8 1715.2 1485.84 1715.13 1481.88 1715.07 1478.14 1715.04 1474.62 1715.04 1467.06 1715.02 1459.27 1715.16 1451.23 1715.46 1450.6 1714.88 1450.29 1713.96 1450.29 1712.7 1450.29 1711.45 1450.6 1710.53 1451.23 1709.95L1455 1709.47C1458.5 1709.26 1460.73 1708.12 1461.71 1706.05 1462.7 1703.98 1463.13 1699.43 1463.01 1692.4L1463.01 1634.13C1463.13 1627.11 1462.7 1622.56 1461.71 1620.49 1460.73 1618.41 1458.5 1617.27 1455 1617.06L1451.23 1616.59C1450.6 1616 1450.29 1615.08 1450.29 1613.83 1450.29 1612.58 1450.6 1611.66 1451.23 1611.07ZM1313.05 1611.07C1317.28 1611.23 1321.38 1611.34 1325.33 1611.4 1329.29 1611.46 1333.15 1611.5 1336.91 1611.49 1344.26 1611.51 1352.16 1611.37 1360.62 1611.07 1361.25 1611.66 1361.55 1612.58 1361.55 1613.83 1361.55 1615.08 1361.25 1616 1360.62 1616.59L1356.22 1617.37C1353.85 1617.71 1352.07 1618.28 1350.89 1619.08 1349.71 1619.89 1348.93 1621.45 1348.56 1623.75 1348.18 1626.06 1348.01 1629.62 1348.05 1634.45L1348.05 1692.09C1348.01 1696.91 1348.18 1700.47 1348.56 1702.78 1348.93 1705.09 1349.71 1706.64 1350.89 1707.45 1352.07 1708.26 1353.85 1708.83 1356.22 1709.16L1360.62 1709.95C1361.24 1710.53 1361.52 1711.45 1361.48 1712.71 1361.43 1713.96 1361.1 1714.88 1360.47 1715.46 1356.23 1715.31 1352.17 1715.2 1348.27 1715.13 1344.37 1715.07 1340.58 1715.04 1336.91 1715.04 1333.15 1715.04 1329.29 1715.07 1325.33 1715.13 1321.38 1715.2 1317.28 1715.31 1313.05 1715.46 1312.42 1714.88 1312.11 1713.96 1312.11 1712.71 1312.11 1711.45 1312.42 1710.53 1313.05 1709.95L1317.45 1709.16C1319.82 1708.83 1321.6 1708.26 1322.77 1707.45 1323.95 1706.64 1324.73 1705.09 1325.1 1702.78 1325.47 1700.47 1325.64 1696.91 1325.61 1692.09L1325.61 1634.45C1325.64 1629.62 1325.47 1626.06 1325.1 1623.75 1324.73 1621.45 1323.95 1619.89 1322.77 1619.08 1321.6 1618.28 1319.82 1617.71 1317.45 1617.37L1313.05 1616.59C1312.42 1616 1312.11 1615.08 1312.11 1613.83 1312.11 1612.58 1312.42 1611.66 1313.05 1611.07ZM1005.69 1611.07C1009.48 1611.23 1013.3 1611.34 1017.15 1611.4 1021.01 1611.46 1024.83 1611.5 1028.61 1611.49 1032.46 1611.5 1036.3 1611.46 1040.13 1611.4 1043.96 1611.34 1047.76 1611.23 1051.53 1611.07 1052.16 1611.65 1052.47 1612.54 1052.47 1613.75 1052.47 1614.96 1052.16 1615.85 1051.53 1616.43L1047.76 1617.06C1045.44 1617.39 1043.7 1617.98 1042.54 1618.81 1041.39 1619.64 1040.62 1621.21 1040.26 1623.51 1039.89 1625.82 1039.72 1629.37 1039.75 1634.14L1039.75 1670.35C1039.63 1676.6 1040.1 1682.65 1041.16 1688.5 1042.23 1694.35 1044.62 1699.18 1048.34 1702.99 1052.05 1706.8 1057.83 1708.77 1065.67 1708.91 1072.32 1708.83 1077.57 1707.04 1081.41 1703.56 1085.24 1700.08 1087.97 1695.41 1089.57 1689.54 1091.17 1683.68 1091.95 1677.12 1091.9 1669.88L1091.9 1650.92C1091.91 1644.42 1091.73 1638.56 1091.37 1633.34 1091.01 1628.12 1090.4 1624.42 1089.55 1622.23 1088.81 1620.63 1087.65 1619.48 1086.05 1618.78 1084.45 1618.08 1082.58 1617.56 1080.43 1617.22L1076.19 1616.43C1075.58 1615.71 1075.31 1614.78 1075.37 1613.63 1075.43 1612.48 1075.7 1611.63 1076.19 1611.07 1080.38 1611.23 1084.14 1611.34 1087.48 1611.4 1090.82 1611.46 1094.07 1611.5 1097.23 1611.49 1103.01 1611.51 1108.87 1611.37 1114.81 1611.07 1115.3 1611.63 1115.57 1612.48 1115.63 1613.63 1115.69 1614.78 1115.42 1615.71 1114.81 1616.43L1111.98 1617.06C1109.93 1617.48 1108.18 1618.05 1106.74 1618.76 1105.3 1619.48 1104.22 1620.63 1103.5 1622.23 1102.65 1624.42 1102.04 1628.12 1101.68 1633.34 1101.31 1638.56 1101.14 1644.42 1101.15 1650.92L1101.15 1668.47C1101.27 1675.89 1100.67 1682.84 1099.36 1689.3 1098.06 1695.76 1095.31 1701.41 1091.12 1706.25 1087.59 1709.94 1083.13 1712.73 1077.74 1714.64 1072.35 1716.55 1066.44 1717.51 1060.01 1717.52 1054.02 1717.58 1048.41 1716.98 1043.17 1715.72 1037.93 1714.45 1033.18 1712.13 1028.92 1708.75 1024.87 1705.4 1021.92 1700.79 1020.06 1694.92 1018.2 1689.06 1017.29 1681.86 1017.31 1673.33L1017.31 1634.14C1017.35 1629.37 1017.18 1625.85 1016.81 1623.59 1016.44 1621.33 1015.68 1619.79 1014.52 1618.99 1013.37 1618.19 1011.63 1617.6 1009.31 1617.22L1005.38 1616.43C1004.74 1615.85 1004.41 1614.96 1004.42 1613.75 1004.42 1612.54 1004.85 1611.65 1005.69 1611.07ZM655.191 1611.07C659.061 1611.23 662.979 1611.34 666.946 1611.4 670.912 1611.46 674.79 1611.5 678.578 1611.49 682.144 1611.5 685.799 1611.46 689.544 1611.4 693.289 1611.34 696.908 1611.23 700.4 1611.07 701.028 1611.66 701.342 1612.58 701.342 1613.83 701.342 1615.08 701.028 1616 700.4 1616.59L697.101 1617.06C693.825 1617.27 691.698 1618.41 690.719 1620.49 689.74 1622.56 689.302 1627.11 689.403 1634.13L689.403 1652.31C689.276 1654.49 689.57 1655.84 690.287 1656.36 691.004 1656.88 692.908 1657.09 696.001 1657L728.677 1657C731.839 1657.09 733.763 1656.88 734.45 1656.36 735.137 1655.84 735.413 1654.49 735.275 1652.31L735.275 1634.13C735.31 1629.36 735.153 1625.82 734.804 1623.52 734.454 1621.21 733.704 1619.66 732.552 1618.85 731.4 1618.05 729.637 1617.5 727.263 1617.22L723.021 1616.59C722.393 1616 722.079 1615.08 722.079 1613.83 722.079 1612.58 722.393 1611.66 723.021 1611.07 727.325 1611.23 731.441 1611.34 735.369 1611.4 739.297 1611.46 743.136 1611.5 746.885 1611.49 750.719 1611.5 754.465 1611.46 758.125 1611.4 761.784 1611.34 765.414 1611.23 769.016 1611.07 769.644 1611.66 769.958 1612.58 769.958 1613.83 769.958 1615.08 769.644 1616 769.016 1616.59L765.876 1617.06C763.501 1617.35 761.725 1617.9 760.548 1618.74 759.372 1619.57 758.596 1621.15 758.222 1623.48 757.848 1625.8 757.677 1629.36 757.71 1634.13L757.71 1692.4C757.677 1697.17 757.848 1700.7 758.222 1702.98 758.596 1705.27 759.372 1706.81 760.548 1707.61 761.725 1708.42 763.501 1708.98 765.876 1709.32L769.644 1709.95C770.272 1710.53 770.587 1711.45 770.587 1712.7 770.587 1713.96 770.272 1714.88 769.644 1715.46 765.712 1715.31 761.84 1715.2 758.027 1715.13 754.214 1715.07 750.5 1715.04 746.885 1715.04 739.04 1715.02 731.347 1715.16 723.807 1715.46 723.178 1714.88 722.865 1713.96 722.865 1712.7 722.865 1711.45 723.178 1710.53 723.807 1709.95L727.263 1709.47C730.758 1709.26 732.997 1708.12 733.979 1706.05 734.961 1703.98 735.393 1699.43 735.275 1692.4L735.275 1669.84C735.413 1667.73 735.137 1666.43 734.45 1665.92 733.763 1665.42 731.839 1665.21 728.677 1665.3L696.001 1665.3C692.908 1665.21 691.004 1665.42 690.287 1665.92 689.57 1666.43 689.276 1667.73 689.403 1669.84L689.403 1692.4C689.371 1697.18 689.54 1700.73 689.91 1703.05 690.279 1705.38 691.041 1706.94 692.196 1707.75 693.351 1708.56 695.091 1709.08 697.415 1709.32L702.442 1709.95C703.07 1710.53 703.385 1711.45 703.385 1712.7 703.385 1713.96 703.07 1714.88 702.442 1715.46 697.972 1715.31 693.757 1715.2 689.8 1715.13 685.842 1715.07 682.101 1715.04 678.578 1715.04 671.021 1715.02 663.225 1715.16 655.191 1715.46 654.563 1714.88 654.249 1713.96 654.249 1712.7 654.249 1711.45 654.563 1710.53 655.191 1709.95L658.96 1709.47C662.454 1709.26 664.691 1708.12 665.673 1706.05 666.654 1703.98 667.086 1699.43 666.968 1692.4L666.968 1634.13C667.086 1627.11 666.654 1622.56 665.673 1620.49 664.691 1618.41 662.454 1617.27 658.96 1617.06L655.191 1616.59C654.563 1616 654.249 1615.08 654.249 1613.83 654.249 1612.58 654.563 1611.66 655.191 1611.07ZM2492.43 1611.06C2492.42 1612.59 2492.44 1615.68 2492.47 1620.35 2492.5 1625.01 2492.59 1630.07 2492.74 1635.51 2492.34 1636.37 2491.5 1636.85 2490.23 1636.94 2488.96 1637.04 2487.81 1636.77 2486.78 1636.14 2485.93 1632.94 2485.15 1630.35 2484.44 1628.37 2483.73 1626.39 2482.99 1624.9 2482.21 1623.9 2480.9 1622.24 2479 1620.97 2476.51 1620.07 2474.02 1619.18 2470.79 1618.73 2466.82 1618.72L2454.59 1618.72C2452.11 1618.61 2450.6 1618.91 2450.07 1619.64 2449.53 1620.37 2449.31 1622.21 2449.42 1625.16L2449.42 1653.55C2449.34 1655.6 2449.54 1656.91 2450.03 1657.49 2450.51 1658.07 2451.77 1658.33 2453.81 1658.26L2465.88 1658.26C2469.9 1658.37 2472.68 1657.87 2474.21 1656.75 2475.74 1655.62 2476.83 1653.2 2477.48 1649.46L2478.27 1645.7C2478.94 1645.01 2479.96 1644.68 2481.33 1644.73 2482.69 1644.77 2483.67 1645.15 2484.26 1645.85 2484.11 1648.38 2484 1651.06 2483.94 1653.9 2483.87 1656.74 2483.84 1659.65 2483.84 1662.64 2483.84 1665.56 2483.87 1668.41 2483.94 1671.19 2484 1673.98 2484.11 1676.55 2484.26 1678.93 2483.67 1679.64 2482.69 1680.02 2481.33 1680.06 2479.96 1680.11 2478.94 1679.78 2478.27 1679.08L2477.48 1675.32C2476.83 1671.67 2475.74 1669.27 2474.21 1668.12 2472.68 1666.97 2469.9 1666.45 2465.88 1666.55L2453.81 1666.55C2451.77 1666.48 2450.51 1666.74 2450.03 1667.31 2449.54 1667.89 2449.34 1669.2 2449.42 1671.25L2449.42 1692.4C2449.39 1697.18 2449.56 1700.71 2449.92 1703.01 2450.29 1705.31 2451.05 1706.85 2452.21 1707.64 2453.36 1708.42 2455.1 1708.93 2457.42 1709.16L2463.22 1709.95C2463.76 1710.53 2464.04 1711.45 2464.04 1712.71 2464.04 1713.96 2463.76 1714.88 2463.22 1715.46 2458.4 1715.31 2453.97 1715.2 2449.93 1715.13 2445.89 1715.07 2442.01 1715.04 2438.28 1715.04 2434.69 1715.04 2430.89 1715.07 2426.86 1715.13 2422.84 1715.2 2418.48 1715.31 2413.79 1715.46 2413.17 1714.88 2412.85 1713.96 2412.85 1712.71 2412.85 1711.45 2413.17 1710.53 2413.79 1709.95L2418.98 1709.16C2421.3 1708.88 2423.04 1708.35 2424.19 1707.57 2425.35 1706.78 2426.11 1705.25 2426.48 1702.98 2426.85 1700.7 2427.02 1697.17 2426.98 1692.4L2426.98 1634.13C2427.02 1629.35 2426.85 1625.8 2426.48 1623.47 2426.11 1621.15 2425.35 1619.57 2424.19 1618.74 2423.04 1617.9 2421.3 1617.35 2418.98 1617.06L2415.84 1616.59C2415.12 1615.98 2414.78 1615.02 2414.81 1613.71 2414.85 1612.4 2415.29 1611.52 2416.15 1611.07 2419.55 1611.23 2423.15 1611.35 2426.92 1611.42 2430.7 1611.5 2434.49 1611.53 2438.28 1611.53L2471.21 1611.53C2476.36 1611.53 2480.88 1611.49 2484.77 1611.41 2488.66 1611.33 2491.21 1611.21 2492.43 1611.06ZM1633.94 1611.06C1637.67 1611.21 1641.4 1611.33 1645.13 1611.4 1648.86 1611.47 1652.34 1611.51 1655.6 1611.51 1658.27 1611.51 1660.73 1611.47 1662.96 1611.4 1665.18 1611.33 1667.13 1611.21 1668.79 1611.06 1669.67 1614.58 1672.42 1619.31 1677.03 1625.27 1681.65 1631.23 1687.54 1638.41 1694.7 1646.8L1707.9 1662.33C1711.32 1666.39 1714.25 1669.83 1716.67 1672.66 1719.1 1675.49 1721.2 1677.79 1722.98 1679.58 1723.28 1678.78 1723.46 1677.76 1723.53 1676.52 1723.59 1675.29 1723.62 1673.95 1723.61 1672.52L1723.61 1650.88C1723.62 1644.39 1723.44 1638.54 1723.08 1633.35 1722.71 1628.15 1722.1 1624.43 1721.25 1622.17 1720.52 1620.56 1719.35 1619.39 1717.75 1618.66 1716.16 1617.93 1714.29 1617.43 1712.14 1617.15L1707.9 1616.53C1707.29 1615.81 1707.01 1614.86 1707.07 1613.67 1707.13 1612.49 1707.41 1611.62 1707.9 1611.06 1712.08 1611.21 1715.85 1611.33 1719.19 1611.4 1722.53 1611.47 1725.77 1611.51 1728.93 1611.51 1731.82 1611.51 1734.71 1611.47 1737.6 1611.4 1740.49 1611.33 1743.46 1611.21 1746.51 1611.06 1747 1611.62 1747.28 1612.49 1747.34 1613.67 1747.4 1614.86 1747.12 1615.81 1746.51 1616.53L1743.69 1617C1741.63 1617.28 1739.89 1617.81 1738.44 1618.58 1737 1619.36 1735.92 1620.55 1735.21 1622.17 1734.35 1624.43 1733.74 1628.15 1733.38 1633.35 1733.02 1638.54 1732.84 1644.39 1732.85 1650.88L1732.85 1688.35C1732.84 1693.54 1732.86 1698.37 1732.89 1702.85 1732.92 1707.34 1733.01 1710.92 1733.16 1713.6 1732.53 1714.57 1731.33 1715.41 1729.54 1716.11 1727.75 1716.8 1725.88 1717.17 1723.92 1717.2 1723.78 1717.06 1722.56 1715.35 1720.27 1712.07 1717.97 1708.79 1714.95 1704.81 1711.2 1700.13L1674.91 1655.27C1670.39 1649.71 1666.75 1645.26 1664 1641.94 1661.24 1638.61 1659.17 1636.36 1657.79 1635.19 1657.42 1635.93 1657.19 1637.08 1657.1 1638.62 1657.02 1640.17 1656.99 1642.37 1657.01 1645.23L1657.01 1675.66C1657 1682.15 1657.17 1687.99 1657.54 1693.19 1657.9 1698.38 1658.51 1702.11 1659.36 1704.36 1660.11 1705.97 1661.29 1707.14 1662.92 1707.87 1664.54 1708.6 1666.39 1709.1 1668.47 1709.38L1672.87 1710.01C1673.48 1710.72 1673.75 1711.67 1673.7 1712.86 1673.64 1714.05 1673.36 1714.92 1672.87 1715.48 1668.68 1715.32 1664.89 1715.21 1661.52 1715.14 1658.15 1715.06 1654.93 1715.03 1651.84 1715.03 1646.06 1715.02 1640.2 1715.17 1634.26 1715.48 1633.77 1714.92 1633.49 1714.05 1633.43 1712.86 1633.37 1711.67 1633.65 1710.72 1634.26 1710.01L1636.93 1709.54C1639.06 1709.19 1640.88 1708.64 1642.36 1707.89 1643.85 1707.15 1644.92 1705.97 1645.56 1704.36 1646.41 1702.11 1646.99 1698.38 1647.31 1693.19 1647.63 1687.99 1647.78 1682.15 1647.76 1675.66L1647.76 1635.82C1647.77 1631.63 1647.71 1628.6 1647.57 1626.74 1647.42 1624.88 1647.12 1623.46 1646.66 1622.49 1646.08 1621.15 1645.12 1620.02 1643.78 1619.11 1642.43 1618.21 1640.41 1617.55 1637.71 1617.15L1633.31 1616.53C1632.76 1615.78 1632.53 1614.77 1632.63 1613.5 1632.72 1612.23 1633.16 1611.41 1633.94 1611.06ZM1221.76 1611.06C1229.93 1611.36 1237.78 1611.51 1245.31 1611.51 1249.08 1611.51 1252.91 1611.47 1256.8 1611.4 1260.69 1611.33 1264.61 1611.21 1268.54 1611.06 1269.17 1611.64 1269.48 1612.55 1269.48 1613.79 1269.48 1615.04 1269.17 1615.95 1268.54 1616.53L1264.46 1617.15C1262.13 1617.44 1260.39 1617.98 1259.24 1618.79 1258.08 1619.6 1257.32 1621.16 1256.95 1623.46 1256.58 1625.77 1256.41 1629.31 1256.45 1634.09L1256.45 1688.99C1256.43 1692.67 1256.62 1695.76 1257.02 1698.26 1257.41 1700.75 1258.11 1702.63 1259.12 1703.89 1259.97 1705.22 1261.52 1706.21 1263.75 1706.85 1265.98 1707.5 1269.88 1707.82 1275.45 1707.81 1280.12 1707.92 1283.97 1707.65 1286.99 1707.02 1290.01 1706.38 1292.75 1704.73 1295.21 1702.07 1297.67 1699.41 1300.4 1695.1 1303.4 1689.14 1304.13 1688.38 1305.14 1688.11 1306.44 1688.32 1307.74 1688.54 1308.71 1689.12 1309.36 1690.07 1309.08 1692.88 1308.54 1695.97 1307.75 1699.35 1306.97 1702.73 1306.11 1705.89 1305.17 1708.83 1304.22 1711.77 1303.37 1713.99 1302.61 1715.48 1298.27 1715.32 1292.79 1715.2 1286.18 1715.13 1279.58 1715.05 1272.96 1715.01 1266.34 1715.01L1245.31 1715.01C1241.73 1715.01 1237.91 1715.05 1233.85 1715.13 1229.8 1715.2 1225.35 1715.32 1220.51 1715.48 1219.79 1714.9 1219.38 1713.98 1219.27 1712.73 1219.16 1711.48 1219.42 1710.55 1220.04 1709.95L1226 1709.16C1228.33 1708.93 1230.07 1708.42 1231.22 1707.64 1232.37 1706.85 1233.14 1705.32 1233.51 1703.02 1233.88 1700.73 1234.04 1697.2 1234.01 1692.43L1234.01 1634.09C1234.04 1629.31 1233.88 1625.75 1233.51 1623.43 1233.14 1621.1 1232.37 1619.53 1231.22 1618.72 1230.07 1617.91 1228.33 1617.39 1226 1617.15L1221.45 1616.53C1220.66 1615.95 1220.28 1615.04 1220.31 1613.79 1220.34 1612.55 1220.83 1611.64 1221.76 1611.06ZM1162.25 1611.06C1169.76 1611.04 1176.12 1611.5 1181.34 1612.43 1186.56 1613.35 1190.88 1614.82 1194.29 1616.84 1197.69 1618.88 1200.34 1621.55 1202.23 1624.86 1204.13 1628.17 1205.09 1632.14 1205.12 1636.77 1205.01 1641.13 1203.99 1644.69 1202.05 1647.43 1200.11 1650.17 1197.9 1652.25 1195.43 1653.66 1192.95 1655.08 1190.84 1655.98 1189.12 1656.38 1188.3 1656.54 1187.58 1656.77 1186.96 1657.06 1186.34 1657.36 1186.01 1657.7 1185.98 1658.1 1185.98 1658.34 1186.17 1658.56 1186.55 1658.78 1186.92 1659 1187.47 1659.19 1188.18 1659.35 1194.55 1660.65 1199.92 1663.41 1204.3 1667.65 1208.67 1671.89 1210.99 1677.8 1211.24 1685.38 1211.16 1692.58 1209.36 1698.34 1205.83 1702.67 1202.3 1707.01 1197.98 1710.02 1192.88 1711.72 1187.85 1713.39 1182.6 1714.47 1177.14 1714.97 1171.67 1715.47 1166.5 1715.69 1161.62 1715.63 1158.76 1715.61 1155.93 1715.5 1153.12 1715.32 1150.32 1715.14 1147.77 1715.03 1145.46 1715.01 1141.64 1715.01 1137.74 1715.05 1133.76 1715.13 1129.79 1715.2 1125.58 1715.32 1121.13 1715.48 1120.5 1714.87 1120.18 1713.9 1120.18 1712.57 1120.18 1711.23 1120.5 1710.38 1121.13 1710.01L1125.68 1709.07C1128 1708.68 1129.74 1708.08 1130.9 1707.27 1132.05 1706.45 1132.81 1704.94 1133.18 1702.71 1133.55 1700.49 1133.72 1697.06 1133.69 1692.44L1133.69 1637.08C1133.73 1631.88 1133.62 1628.02 1133.36 1625.49 1133.11 1622.96 1132.49 1621.25 1131.5 1620.38 1130.52 1619.5 1128.94 1618.95 1126.78 1618.72L1122.54 1618.09C1121.8 1617.53 1121.43 1616.51 1121.44 1615.04 1121.45 1613.58 1122.02 1612.72 1123.17 1612.46 1129.04 1612.06 1135.08 1611.73 1141.3 1611.47 1147.52 1611.2 1154.5 1611.07 1162.25 1611.06ZM949.111 1611.06C955.741 1611.07 961.378 1611.43 966.023 1612.15 970.668 1612.87 974.614 1613.86 977.861 1615.12 982.846 1616.88 987.232 1619.94 991.021 1624.33 994.809 1628.71 996.803 1634.68 997.003 1642.23 996.89 1648.61 995.498 1653.76 992.827 1657.68 990.156 1661.6 986.886 1664.58 983.016 1666.61 979.146 1668.64 975.355 1670 971.643 1670.71 967.931 1671.42 964.978 1671.75 962.783 1671.7 961.856 1671.7 960.999 1671.7 960.21 1671.68 959.42 1671.66 958.602 1671.62 957.754 1671.54 957.116 1671.08 956.742 1670.4 956.634 1669.49 956.526 1668.58 956.742 1667.85 957.283 1667.31 963.643 1665.21 967.893 1662 970.031 1657.67 972.169 1653.34 973.157 1648.25 972.997 1642.39 973.011 1638.44 972.32 1634.64 970.925 1630.98 969.53 1627.32 967.35 1624.3 964.383 1621.93 961.417 1619.56 957.584 1618.33 952.882 1618.25 950.083 1618.19 948.335 1618.74 947.638 1619.9 946.94 1621.05 946.646 1623.17 946.754 1626.25L946.754 1692.39C946.722 1697.17 946.891 1700.71 947.26 1703.01 947.63 1705.32 948.392 1706.87 949.547 1707.68 950.703 1708.49 952.443 1709.03 954.768 1709.32L959.797 1710.1C960.661 1710.61 961.093 1711.49 961.093 1712.72 961.093 1713.96 960.661 1714.88 959.797 1715.46 955.416 1715.31 951.254 1715.2 947.308 1715.13 943.363 1715.07 939.518 1715.04 935.771 1715.04 932.026 1715.04 928.22 1715.07 924.355 1715.13 920.49 1715.2 916.448 1715.31 912.227 1715.46 911.351 1714.88 910.866 1713.96 910.775 1712.72 910.683 1711.49 911.063 1710.61 911.913 1710.1L916.31 1709.32C918.634 1708.98 920.373 1708.42 921.527 1707.61 922.681 1706.81 923.443 1705.26 923.813 1702.98 924.182 1700.69 924.35 1697.16 924.319 1692.39L924.319 1636.9C924.356 1631.71 924.247 1627.82 923.993 1625.25 923.739 1622.67 923.119 1620.94 922.132 1620.03 921.145 1619.13 919.571 1618.59 917.409 1618.41L912.542 1617.78C911.829 1617.29 911.488 1616.44 911.521 1615.24 911.554 1614.04 911.998 1613.12 912.856 1612.46 918.047 1612.06 923.679 1611.73 929.75 1611.47 935.821 1611.2 942.275 1611.07 949.111 1611.06ZM858.751 1611.06C858.856 1612.51 859.118 1615.56 859.537 1620.21 859.955 1624.86 860.374 1629.91 860.793 1635.35 860.374 1636.22 859.524 1636.72 858.241 1636.84 856.959 1636.97 855.873 1636.68 854.983 1635.98 854.106 1633.2 853.151 1630.72 852.117 1628.55 851.083 1626.37 850.049 1624.72 849.014 1623.58 847.541 1622.08 845.56 1620.89 843.07 1620.04 840.581 1619.18 837.428 1618.74 833.613 1618.72L821.071 1618.72C818.592 1618.61 817.083 1618.91 816.544 1619.6 816.005 1620.3 815.79 1622.05 815.898 1624.84L815.898 1652.3C815.816 1654.42 816.019 1655.75 816.505 1656.3 816.992 1656.85 818.253 1657.08 820.287 1657L831.105 1657C835.057 1657.12 837.813 1656.62 839.375 1655.51 840.936 1654.41 842.046 1652.03 842.706 1648.37L843.492 1644.45C844.169 1643.82 845.182 1643.51 846.529 1643.53 847.877 1643.55 848.81 1643.91 849.33 1644.61 849.174 1647.13 849.064 1649.78 849 1652.57 848.936 1655.36 848.906 1658.25 848.908 1661.23 848.906 1664.21 848.936 1667.1 849 1669.89 849.064 1672.68 849.174 1675.33 849.33 1677.85 848.81 1678.56 847.877 1678.94 846.529 1678.99 845.182 1679.03 844.169 1678.7 843.492 1678L842.706 1674.08C842.046 1670.42 840.936 1668.02 839.375 1666.87 837.813 1665.71 835.057 1665.19 831.105 1665.3L820.287 1665.3C818.253 1665.2 816.992 1665.43 816.505 1665.96 816.019 1666.5 815.816 1667.9 815.898 1670.16L815.898 1688.83C815.885 1692.44 816.067 1695.49 816.446 1697.99 816.825 1700.48 817.479 1702.4 818.406 1703.73 819.268 1705.14 820.836 1706.17 823.109 1706.83 825.382 1707.49 829.302 1707.82 834.867 1707.81 839.353 1707.92 843.129 1707.66 846.194 1707.03 849.26 1706.41 852.045 1704.8 854.551 1702.21 857.057 1699.62 859.713 1695.42 862.52 1689.61 863.272 1688.77 864.32 1688.45 865.661 1688.65 867.002 1688.85 867.892 1689.43 868.33 1690.4 868.092 1693.2 867.592 1696.26 866.83 1699.59 866.068 1702.91 865.219 1706.02 864.282 1708.91 863.346 1711.8 862.497 1713.99 861.735 1715.48 857.386 1715.32 851.907 1715.2 845.298 1715.13 838.689 1715.05 832.076 1715.01 825.461 1715.01L805.072 1715.01C801.388 1715.01 797.419 1715.05 793.163 1715.13 788.908 1715.2 783.878 1715.32 778.074 1715.48 777.445 1714.89 777.131 1713.95 777.131 1712.67 777.131 1711.39 777.445 1710.48 778.074 1709.95L785.44 1708.85C787.768 1708.57 789.51 1708.05 790.666 1707.3 791.822 1706.55 792.586 1705.06 792.955 1702.83 793.326 1700.59 793.494 1697.12 793.463 1692.4L793.463 1633.98C793.494 1629.31 793.326 1625.87 792.955 1623.65 792.586 1621.43 791.822 1619.93 790.666 1619.14 789.51 1618.35 787.768 1617.76 785.44 1617.37L781.514 1616.59C780.818 1616 780.501 1615.08 780.562 1613.83 780.624 1612.57 781.044 1611.65 781.823 1611.07 785.529 1611.23 789.282 1611.35 793.082 1611.42 796.882 1611.5 800.669 1611.53 804.445 1611.53L837.689 1611.53C842.842 1611.53 847.355 1611.49 851.228 1611.41 855.102 1611.33 857.61 1611.21 858.751 1611.06ZM2347.1 1609.02C2363.69 1609.27 2376.96 1614.25 2386.9 1623.97 2396.85 1633.68 2401.95 1646.63 2402.21 1662.8 2401.96 1680.04 2396.73 1693.43 2386.53 1702.98 2376.33 1712.53 2362.66 1717.37 2345.53 1717.52 2334.92 1717.46 2325.53 1715.27 2317.37 1710.94 2309.21 1706.61 2302.81 1700.46 2298.16 1692.48 2293.51 1684.51 2291.14 1675.03 2291.05 1664.05 2291.13 1653.59 2293.55 1644.24 2298.29 1635.98 2303.03 1627.72 2309.59 1621.19 2317.98 1616.38 2326.37 1611.58 2336.07 1609.12 2347.1 1609.02ZM1956.8 1609.02C1957.8 1609 1958.58 1609.23 1959.13 1609.7 1959.69 1610.18 1960.11 1610.99 1960.41 1612.15 1961.01 1614.34 1961.85 1617.1 1962.94 1620.43 1964.03 1623.75 1965.54 1628.16 1967.47 1633.64L1988.83 1695.07C1990.34 1699.7 1991.78 1703.08 1993.14 1705.21 1994.5 1707.33 1996.57 1708.6 1999.34 1709L2005.31 1709.95C2005.56 1710.2 2005.75 1710.56 2005.88 1711.01L2006.04 1712.1 2006.19 1711.01C2006.35 1710.56 2006.59 1710.2 2006.9 1709.95L2011.14 1709.16C2013.46 1708.83 2015.2 1708.26 2016.36 1707.46 2017.51 1706.66 2018.27 1705.13 2018.64 1702.87 2019.01 1700.61 2019.18 1697.12 2019.15 1692.4L2019.15 1636.92C2019.19 1631.77 2019.08 1627.93 2018.82 1625.4 2018.57 1622.86 2017.95 1621.15 2016.96 1620.26 2015.98 1619.36 2014.4 1618.8 2012.24 1618.56L2008 1617.94C2007.21 1617.42 2006.83 1616.5 2006.86 1615.2 2006.89 1613.9 2007.38 1612.99 2008.31 1612.46 2014.16 1612.06 2020.25 1611.73 2026.6 1611.47 2032.95 1611.2 2039.83 1611.07 2047.24 1611.06 2054 1611.07 2060.05 1611.56 2065.41 1612.52 2070.76 1613.49 2074.97 1614.88 2078.03 1616.69 2082.58 1619.36 2086.02 1622.64 2088.34 1626.53 2090.66 1630.42 2091.83 1634.87 2091.83 1639.9 2091.59 1646.77 2089.72 1651.98 2086.22 1655.55 2082.73 1659.12 2079.05 1661.75 2075.2 1663.43 2074.43 1663.81 2074.01 1664.27 2073.93 1664.8 2073.85 1665.33 2074.01 1666.03 2074.42 1666.87 2079.49 1677.3 2083.9 1685.66 2087.64 1691.95 2091.38 1698.24 2095.08 1702.95 2098.74 1706.09 2100.82 1707.7 2102.79 1708.83 2104.65 1709.46 2105.58 1709.78 2106.43 1710.02 2107.2 1710.19L2108.36 1710.35 2108.6 1710.01 2111.43 1709.54C2115.27 1709.03 2117.72 1708.05 2118.79 1706.62 2119.86 1705.19 2120.55 1702.14 2120.85 1697.47 2121.24 1693.53 2121.64 1688.4 2122.05 1682.07 2122.46 1675.74 2122.89 1668.8 2123.36 1661.26 2123.68 1655.88 2123.95 1650.34 2124.15 1644.67 2124.35 1638.99 2124.46 1633.97 2124.46 1629.6 2124.45 1625.24 2123.61 1622.2 2121.95 1620.47 2120.29 1618.74 2117.88 1617.65 2114.73 1617.22L2111.27 1616.59C2110.63 1615.84 2110.34 1614.82 2110.39 1613.53 2110.44 1612.25 2110.89 1611.43 2111.74 1611.07 2114.42 1611.23 2117.42 1611.34 2120.75 1611.4 2124.08 1611.46 2127.66 1611.5 2131.51 1611.49 2134.07 1611.51 2136.58 1611.49 2139.03 1611.46 2141.49 1611.43 2144.11 1611.3 2146.9 1611.07 2146.98 1615.83 2148.19 1620.89 2150.51 1626.23 2152.83 1631.56 2155.77 1637.86 2159.31 1645.12L2169.67 1667.22C2170.51 1669.01 2171.82 1671.58 2173.62 1674.92 2175.42 1678.26 2176.93 1681.02 2178.16 1683.21 2179.15 1681.39 2180.34 1679.1 2181.73 1676.33 2183.12 1673.56 2184.86 1669.89 2186.95 1665.34L2194.96 1648.09C2197.45 1642.81 2199.56 1638.22 2201.29 1634.32 2203.02 1630.43 2204.53 1626.69 2205.81 1623.09 2207.08 1619.49 2208.29 1615.48 2209.41 1611.07 2212.98 1611.36 2216.09 1611.51 2218.75 1611.52 2221.41 1611.52 2223.89 1611.51 2226.2 1611.49 2228.86 1611.5 2231.81 1611.46 2235.05 1611.4 2238.28 1611.34 2241.35 1611.23 2244.25 1611.07 2245.11 1611.62 2245.56 1612.46 2245.61 1613.59 2245.66 1614.73 2245.36 1615.73 2244.73 1616.59L2240.17 1617.37C2236.96 1617.8 2234.55 1618.78 2232.97 1620.31 2231.38 1621.84 2230.59 1624.62 2230.59 1628.66 2230.59 1639.31 2230.63 1648.59 2230.71 1656.5 2230.79 1664.41 2230.92 1671.63 2231.1 1678.14 2231.29 1684.66 2231.54 1691.15 2231.85 1697.63 2231.9 1701.22 2232.35 1703.98 2233.2 1705.91 2234.06 1707.84 2235.96 1709 2238.92 1709.38L2243.94 1710.01C2244.57 1710.74 2244.88 1711.73 2244.84 1712.98 2244.81 1714.22 2244.4 1715.05 2243.63 1715.48 2240.04 1715.32 2236.49 1715.21 2232.97 1715.14 2229.45 1715.06 2225.78 1715.03 2221.96 1715.03 2218.38 1715.03 2214.57 1715.06 2210.53 1715.14 2206.49 1715.21 2202.56 1715.32 2198.73 1715.48 2197.79 1714.98 2197.28 1714.1 2197.2 1712.86 2197.12 1711.62 2197.48 1710.67 2198.26 1710.01L2202.97 1709.38C2206.44 1709.05 2208.54 1708.07 2209.3 1706.42 2210.05 1704.78 2210.35 1701.64 2210.2 1697L2209.88 1656.24 2209.88 1638.37 2209.57 1638.37C2203.69 1650.93 2197.78 1663.71 2191.82 1676.71 2185.86 1689.72 2180.26 1702.85 2175.01 1716.11 2174.62 1716.43 2174.15 1716.69 2173.62 1716.89 2173.09 1717.09 2172.5 1717.2 2171.87 1717.2 2171.14 1717.2 2170.4 1717.12 2169.65 1716.97 2168.9 1716.81 2168.28 1716.58 2167.79 1716.26 2165.61 1709.56 2162.45 1701.46 2158.31 1691.96 2154.17 1682.46 2149.88 1672.91 2145.45 1663.3 2141.01 1653.7 2137.25 1645.39 2134.18 1638.38L2133.86 1638.38C2133.55 1643.34 2133.31 1647.67 2133.14 1651.37 2132.97 1655.06 2132.84 1658.88 2132.77 1662.83 2132.69 1668.17 2132.61 1674.14 2132.55 1680.76 2132.49 1687.37 2132.46 1693.15 2132.45 1698.1 2132.36 1701.92 2132.78 1704.61 2133.71 1706.17 2134.64 1707.72 2136.63 1708.69 2139.68 1709.07L2145.81 1710.01C2146.42 1710.67 2146.68 1711.62 2146.59 1712.86 2146.5 1714.1 2146.14 1714.98 2145.5 1715.48 2142.56 1715.32 2139.48 1715.21 2136.29 1715.14 2133.09 1715.06 2129.98 1715.03 2126.97 1715.03 2124.43 1715.03 2121.63 1715.06 2118.57 1715.14 2115.52 1715.21 2112.4 1715.32 2109.23 1715.48L2108.49 1714.83 2104.57 1715.66C2102.34 1715.86 2099.98 1715.96 2097.49 1715.95 2090.33 1715.97 2084.32 1714.64 2079.44 1711.95 2074.56 1709.27 2070.42 1705.1 2067.02 1699.45 2064.54 1695.32 2062.32 1691.28 2060.37 1687.31 2058.42 1683.34 2056.55 1679.29 2054.77 1675.17 2053.85 1673.09 2052.72 1671.65 2051.38 1670.84 2050.04 1670.04 2048.4 1669.65 2046.45 1669.69 2043.81 1669.64 2042.15 1669.82 2041.49 1670.24 2040.82 1670.65 2040.54 1671.62 2040.64 1673.13L2040.64 1692.4C2040.61 1697.12 2040.78 1700.61 2041.15 1702.87 2041.52 1705.13 2042.28 1706.66 2043.43 1707.46 2044.59 1708.26 2046.33 1708.83 2048.65 1709.16L2052.89 1709.95C2053.44 1710.46 2053.71 1711.36 2053.71 1712.65 2053.71 1713.93 2053.44 1714.87 2052.89 1715.46 2048.76 1715.31 2044.81 1715.2 2041.06 1715.13 2037.3 1715.07 2033.55 1715.04 2029.82 1715.04 2025.94 1715.04 2022.16 1715.07 2018.48 1715.13 2014.8 1715.2 2010.94 1715.31 2006.9 1715.46 2006.59 1715.17 2006.35 1714.78 2006.19 1714.31L2006.04 1713.24 2005.91 1714.31C2005.75 1714.78 2005.5 1715.17 2005.15 1715.46 2001.36 1715.31 1997.41 1715.2 1993.3 1715.13 1989.19 1715.07 1985.08 1715.04 1980.98 1715.04 1977.11 1715.04 1973.5 1715.07 1970.14 1715.13 1966.79 1715.2 1963.33 1715.31 1959.78 1715.46 1958.9 1714.9 1958.42 1714.02 1958.33 1712.82 1958.24 1711.63 1958.62 1710.67 1959.47 1709.95L1964.49 1709.16C1966.25 1708.84 1967.41 1708.43 1967.96 1707.95 1968.52 1707.47 1968.78 1706.98 1968.73 1706.5 1968.72 1705.94 1968.46 1704.75 1967.95 1702.94 1967.43 1701.12 1966.7 1698.76 1965.75 1695.85L1961.51 1682.39C1961.19 1681.17 1960.53 1680.39 1959.51 1680.04 1958.49 1679.68 1956.64 1679.53 1953.97 1679.57L1936.39 1679.57C1934.58 1679.51 1933.37 1679.66 1932.74 1680.02 1932.11 1680.37 1931.6 1681.27 1931.21 1682.7L1925.4 1700.86C1924.94 1702.39 1924.64 1703.56 1924.5 1704.39 1924.35 1705.21 1924.29 1705.91 1924.3 1706.5 1924.26 1706.97 1924.65 1707.44 1925.48 1707.89 1926.3 1708.34 1927.79 1708.77 1929.95 1709.16L1934.66 1709.95C1935.16 1710.61 1935.42 1711.57 1935.45 1712.82 1935.47 1714.08 1935.11 1714.96 1934.35 1715.46 1931.59 1715.32 1928.67 1715.23 1925.58 1715.19 1922.48 1715.16 1919.29 1715.11 1915.98 1715.04 1913.42 1715.06 1910.96 1715.13 1908.6 1715.25 1906.24 1715.38 1903.31 1715.45 1899.81 1715.46 1898.96 1714.9 1898.53 1714.02 1898.51 1712.82 1898.49 1711.63 1898.77 1710.67 1899.34 1709.95L1903.58 1709.47C1905.46 1709.32 1907.19 1708.72 1908.78 1707.67 1910.36 1706.62 1911.82 1704.61 1913.15 1701.65 1914.46 1698.57 1915.89 1695.02 1917.43 1691 1918.97 1686.98 1920.79 1682.18 1922.89 1676.59L1937.02 1638.34C1938.88 1633.48 1940.41 1629.49 1941.61 1626.39 1942.81 1623.28 1943.32 1620.63 1943.14 1618.43 1945.67 1617.77 1947.95 1616.7 1949.96 1615.22 1951.97 1613.74 1953.58 1612.36 1954.79 1611.07 1956 1609.79 1956.67 1609.1 1956.8 1609.02ZM1818.92 1609.02C1827.52 1609.17 1834.25 1609.8 1839.11 1610.9 1843.96 1611.99 1847.59 1612.62 1850 1612.78 1850.19 1615.29 1850.42 1618.89 1850.68 1623.57 1850.94 1628.26 1851.44 1633.07 1852.19 1638.01 1851.74 1638.88 1850.8 1639.34 1849.39 1639.4 1847.97 1639.47 1846.92 1639.11 1846.23 1638.33 1841.19 1623.59 1831.35 1616.21 1816.72 1616.21 1808.4 1616.31 1801.49 1618.41 1796.01 1622.5 1790.52 1626.59 1786.42 1632.05 1783.71 1638.89 1780.99 1645.74 1779.64 1653.34 1779.64 1661.71 1779.75 1672.86 1781.46 1681.9 1784.77 1688.85 1788.08 1695.79 1792.34 1700.96 1797.55 1704.36 1801.39 1706.8 1805.19 1708.43 1808.96 1709.22 1812.74 1710.02 1816.11 1710.39 1819.07 1710.32 1823.44 1710.46 1826.37 1709.75 1827.85 1708.18 1829.33 1706.62 1830.02 1703.36 1829.91 1698.4L1829.91 1688.51C1830.03 1684.44 1829.56 1681.76 1828.5 1680.49 1827.44 1679.22 1825.08 1678.39 1821.43 1678L1814.52 1677.06C1813.65 1676.48 1813.22 1675.57 1813.22 1674.32 1813.22 1673.08 1813.65 1672.17 1814.52 1671.59 1820.02 1671.74 1824.88 1671.86 1829.09 1671.93 1833.29 1672 1837.28 1672.04 1841.05 1672.04 1844.87 1672.04 1848.57 1672 1852.16 1671.93 1855.74 1671.86 1858.89 1671.74 1861.61 1671.59 1862.24 1672.17 1862.56 1673.08 1862.56 1674.32 1862.56 1675.57 1862.24 1676.48 1861.61 1677.06L1858 1677.69C1855.71 1677.95 1854.17 1678.79 1853.41 1680.22 1852.64 1681.64 1852.29 1684.4 1852.35 1688.51L1852.35 1697.3C1852.3 1700.58 1852.48 1703.05 1852.88 1704.71 1853.28 1706.38 1854.2 1707.36 1855.65 1707.66 1855.96 1708.06 1856.08 1708.7 1856 1709.59 1855.92 1710.47 1855.65 1711.08 1855.17 1711.4 1853.81 1711.62 1852.18 1711.89 1850.27 1712.23 1848.36 1712.56 1846.33 1713.07 1844.19 1713.76 1842.28 1714.35 1839.72 1714.93 1836.5 1715.5 1833.28 1716.07 1829.88 1716.55 1826.3 1716.93 1822.71 1717.3 1819.41 1717.5 1816.4 1717.52 1811.14 1717.56 1806.04 1717.2 1801.11 1716.42 1796.18 1715.65 1790.96 1714.19 1785.46 1712.04 1776.13 1708.26 1768.69 1702.26 1763.11 1694.06 1757.54 1685.87 1754.68 1676.07 1754.54 1664.69 1754.51 1654.79 1756.76 1645.76 1761.29 1637.59 1765.81 1629.42 1772.77 1622.66 1782.16 1617.31 1787.53 1614.43 1793.32 1612.33 1799.54 1610.99 1805.75 1609.66 1812.21 1609 1818.92 1609.02ZM1411.5 1609.02C1414.12 1609.01 1416.97 1609.19 1420.04 1609.57 1423.11 1609.94 1426.23 1610.6 1429.4 1611.52 1430.39 1611.83 1431.3 1612.07 1432.12 1612.26 1432.94 1612.45 1433.81 1612.62 1434.73 1612.77 1435.4 1614.55 1436.03 1617.41 1436.61 1621.33 1437.2 1625.25 1437.52 1629.87 1437.56 1635.19 1437.05 1636.13 1436.1 1636.64 1434.73 1636.72 1433.36 1636.8 1432.26 1636.45 1431.44 1635.66 1430.55 1632.9 1429.2 1630.04 1427.39 1627.06 1425.58 1624.09 1423.29 1621.56 1420.52 1619.48 1417.75 1617.39 1414.48 1616.3 1410.71 1616.21 1405.51 1616.33 1401.54 1617.78 1398.81 1620.56 1396.08 1623.35 1394.7 1626.76 1394.68 1630.8 1394.79 1634.45 1396.19 1637.82 1398.89 1640.92 1401.58 1644.01 1404.95 1646.6 1408.98 1648.68L1419.36 1654.17C1422.69 1655.87 1426.04 1658.08 1429.41 1660.81 1432.78 1663.54 1435.61 1666.94 1437.9 1671 1440.19 1675.07 1441.38 1679.97 1441.48 1685.7 1441.31 1695.46 1437.68 1703.18 1430.59 1708.84 1423.5 1714.5 1413.94 1717.4 1401.91 1717.52 1394.69 1717.39 1388.85 1716.63 1384.39 1715.25 1379.93 1713.87 1376.88 1712.64 1375.23 1711.57 1373.72 1709.67 1372.51 1706.34 1371.6 1701.58 1370.69 1696.81 1370.23 1691.68 1370.21 1686.17 1370.86 1685.15 1371.83 1684.6 1373.13 1684.52 1374.43 1684.44 1375.44 1684.83 1376.17 1685.7 1377.25 1689.21 1379.06 1692.85 1381.6 1696.61 1384.14 1700.38 1387.26 1703.57 1390.93 1706.2 1394.61 1708.83 1398.69 1710.21 1403.17 1710.32 1408.96 1710.15 1413.25 1708.49 1416.02 1705.34 1418.79 1702.19 1420.16 1698.57 1420.14 1694.48 1420.05 1690.26 1418.9 1686.57 1416.7 1683.41 1414.49 1680.26 1411.76 1677.54 1408.5 1675.27 1405.25 1673.01 1402 1671.1 1398.77 1669.54 1394.92 1667.67 1391.2 1665.34 1387.6 1662.55 1384.01 1659.76 1381.04 1656.42 1378.71 1652.53 1376.37 1648.64 1375.16 1644.12 1375.07 1638.95 1375.1 1629.95 1378.3 1622.75 1384.69 1617.34 1391.07 1611.93 1400.01 1609.16 1411.5 1609.02ZM557.38 1607.61C558.191 1607.58 558.924 1607.79 559.579 1608.23 559.726 1609.54 560.53 1610.42 561.993 1610.88 563.455 1611.34 567.047 1611.56 572.769 1611.53L631.163 1611.53C636.198 1611.59 639.672 1611.43 641.586 1611.04 643.5 1610.65 644.737 1609.66 645.296 1608.07 645.597 1607.91 645.898 1607.8 646.199 1607.72 646.5 1607.65 646.88 1607.61 647.338 1607.61 647.828 1607.62 648.299 1607.74 648.751 1607.97 649.202 1608.2 649.516 1608.44 649.693 1608.68 648.888 1611.59 648.26 1615.63 647.808 1620.82 647.357 1626.01 647.2 1630.95 647.338 1635.65 646.801 1636.36 645.833 1636.78 644.432 1636.88 643.032 1636.99 642.064 1636.74 641.527 1636.12 640.402 1631.01 638.766 1626.85 636.62 1623.66 634.474 1620.46 630.562 1618.82 624.883 1618.72L615.461 1618.72C613.635 1618.66 612.457 1618.9 611.928 1619.47 611.398 1620.03 611.162 1621.29 611.221 1623.27L611.221 1692.39C611.189 1697.17 611.358 1700.71 611.727 1703.01 612.097 1705.31 612.858 1706.85 614.013 1707.63 615.167 1708.42 616.906 1708.93 619.23 1709.16L625.511 1709.95C626.06 1710.53 626.335 1711.45 626.335 1712.71 626.335 1713.96 626.06 1714.88 625.511 1715.46 620.44 1715.31 615.861 1715.2 611.773 1715.13 607.686 1715.07 603.893 1715.04 600.396 1715.04 596.676 1715.04 592.661 1715.07 588.351 1715.13 584.041 1715.2 579.161 1715.31 573.711 1715.46 573.083 1714.88 572.769 1713.96 572.769 1712.71 572.769 1711.45 573.083 1710.53 573.711 1709.95L580.777 1709.16C584.202 1709.03 586.42 1707.96 587.431 1705.95 588.442 1703.94 588.894 1699.42 588.786 1692.39L588.786 1623.27C588.864 1621.43 588.707 1620.2 588.315 1619.58 587.922 1618.96 586.823 1618.68 585.017 1618.72L575.282 1618.72C569.749 1618.74 565.66 1620.27 563.014 1623.29 560.367 1626.31 557.966 1630.69 555.81 1636.43 554.803 1636.91 553.716 1637.05 552.552 1636.84 551.387 1636.64 550.537 1636.03 550 1635.02 551.59 1629.56 552.728 1624.54 553.415 1619.94 554.102 1615.35 554.691 1611.5 555.182 1608.39 555.836 1607.89 556.569 1607.63 557.38 1607.61ZM2848.64 1576.19C2855.67 1576.19 2859.19 1579.53 2859.19 1586.2 2859.19 1591.47 2857.18 1597.11 2853.16 1603.12 2849.89 1607.82 2831.61 1627.62 2798.32 1662.5 2771.63 1692.14 2758.29 1709.35 2758.29 1714.13 2758.29 1714.72 2759.62 1715.11 2762.28 1715.32L2762.36 1715.38 2762.99 1714.73C2769.1 1713.76 2777.71 1708.93 2788.81 1700.25L2802.1 1689.87 2823.4 1672.93C2833.61 1665.9 2842.4 1662.38 2849.76 1662.38 2856.21 1662.38 2859.64 1664.95 2860.07 1670.1 2861.06 1667.54 2862.35 1666.26 2863.95 1666.26 2867.68 1666.26 2869.54 1667.89 2869.54 1671.17 2869.54 1674.06 2864.27 1681.64 2853.74 1693.93 2843.21 1706.21 2837.94 1713.12 2837.94 1714.67 2837.94 1714.76 2839.06 1714.84 2841.3 1714.91L2843.77 1715.88 2845.73 1714.76C2850.58 1713.57 2854.07 1712.39 2856.21 1711.22 2860.83 1708.8 2870.01 1702.14 2883.74 1691.24 2890.03 1686.34 2898.89 1678.72 2910.33 1668.38 2915.23 1663.26 2918.95 1660.7 2921.48 1660.7 2926.79 1660.7 2929.45 1662.63 2929.45 1666.49 2929.45 1670.1 2925.57 1675.93 2917.83 1683.98 2930.76 1670.28 2940.36 1663.43 2946.61 1663.43 2949 1663.43 2951.23 1664.22 2953.31 1665.79 2955.39 1667.37 2956.43 1669.41 2956.43 1671.89 2956.43 1675.05 2954.58 1678.36 2950.87 1681.82 2962.72 1668.16 2972.91 1661.33 2981.44 1661.33 2987.52 1661.33 2990.55 1663.88 2990.55 1668.99 2990.55 1674.34 2984.92 1682.78 2973.65 1694.32 2962.38 1705.86 2956.75 1712.53 2956.75 1714.33 2956.75 1714.76 2957.94 1714.99 2960.32 1715.03L2962.35 1715.75 2964.57 1714.73C2970.68 1713.76 2979.29 1708.93 2990.4 1700.25L3003.68 1689.87 3024.98 1672.93C3035.19 1665.9 3043.98 1662.38 3051.34 1662.38 3057.79 1662.38 3061.23 1664.95 3061.65 1670.1 3062.64 1667.54 3063.93 1666.26 3065.53 1666.26 3069.26 1666.26 3071.12 1667.89 3071.12 1671.17 3071.12 1674.06 3065.86 1681.64 3055.32 1693.93 3044.79 1706.21 3039.52 1713.12 3039.52 1714.67 3039.52 1714.76 3040.64 1714.84 3042.88 1714.91 3045.12 1714.97 3046.24 1716.23 3046.24 1718.68 3046.24 1721.48 3043.18 1722.88 3037.06 1722.88 3031.07 1722.88 3028.08 1720.15 3028.08 1714.71 3028.08 1711.08 3029.95 1707.18 3033.68 1703.01L3024.2 1713.49C3017.67 1718.35 3012.3 1720.78 3008.07 1720.78 3000.76 1720.78 2997.1 1717.1 2997.1 1709.73 2997.1 1706.16 2997.9 1703.23 2999.48 1700.93 2983.09 1715.35 2971.16 1722.56 2963.69 1722.56L2961.72 1721.88 2959.27 1722.62C2958.25 1722.79 2957.05 1722.88 2955.68 1722.88 2948.9 1722.88 2945.51 1719.81 2945.51 1713.67 2945.51 1707.78 2950.43 1699.25 2960.26 1688.09 2967.64 1679.72 2972.25 1674.28 2974.09 1671.76L2974.36 1671.31 2974.01 1671.38C2969.84 1672.75 2961.85 1678.96 2950.06 1689.99 2938.73 1700.57 2929.86 1709.44 2923.47 1716.59 2920.73 1720.71 2918.22 1722.77 2915.93 1722.77 2911.85 1722.77 2909.82 1720.84 2909.82 1716.97 2909.82 1713.91 2915.2 1706.37 2925.98 1694.37 2934.07 1685.36 2939.12 1679.09 2941.14 1675.56L2942.05 1673.21 2940.86 1673.45C2937.24 1674.71 2930.05 1680.4 2919.29 1690.52 2908.54 1700.66 2900.93 1708.6 2896.48 1714.36 2892.57 1719.41 2888.95 1721.93 2885.6 1721.93 2881.86 1721.93 2880 1720.21 2880 1716.75 2880 1713.65 2884.92 1705.97 2894.75 1693.72L2910.95 1676.54 2881.89 1703.02C2864.74 1716.05 2852.59 1722.56 2845.43 1722.56 2844.32 1722.56 2843.49 1722.27 2842.93 1721.7L2842.85 1721.46 2842.36 1721.83C2840.83 1722.53 2838.53 1722.88 2835.47 1722.88 2829.49 1722.88 2826.49 1720.15 2826.49 1714.71 2826.49 1711.08 2828.36 1707.18 2832.1 1703.01L2822.62 1713.49C2816.09 1718.35 2810.71 1720.78 2806.48 1720.78 2799.18 1720.78 2795.52 1717.1 2795.52 1709.73 2795.52 1706.16 2796.31 1703.23 2797.89 1700.93 2781.5 1715.35 2769.58 1722.56 2762.11 1722.56L2762.03 1722.48 2757.79 1723.3C2750.5 1723.3 2746.85 1719.82 2746.85 1712.88 2746.85 1702.01 2759.81 1682.13 2785.75 1653.24 2794.93 1643.02 2811.96 1625.46 2836.84 1600.54 2842.92 1594.46 2846.72 1589.86 2848.24 1586.74L2848.95 1584.31 2847.17 1584.68C2841.6 1586.65 2829.37 1595.47 2810.47 1611.16 2793.06 1625.63 2780.01 1637.21 2771.31 1645.89 2762.9 1654.29 2752.01 1665.96 2738.65 1680.91 2713.89 1708.68 2700.79 1722.56 2699.37 1722.56 2697.78 1722.56 2696.07 1721.72 2694.25 1720.03 2692.43 1718.34 2691.52 1716.67 2691.52 1715.02 2691.52 1711.84 2706.1 1693.07 2735.25 1658.7 2760.76 1628.63 2775.11 1609.83 2778.29 1602.29L2778.96 1599.8 2775.73 1600.78C2771.38 1602.79 2763.86 1607.8 2753.17 1615.81 2739.84 1625.86 2725.15 1638.52 2709.08 1653.8L2667.07 1695.31 2652.82 1710.65C2644.25 1719.85 2639.33 1724.45 2638.06 1724.45 2636.5 1724.45 2634.84 1723.86 2633.09 1722.69 2630.4 1720.99 2629.05 1719.22 2629.05 1717.38 2629.05 1714.6 2637.84 1703.39 2655.41 1683.77L2703.49 1629.87C2720.43 1609.93 2728.89 1597.82 2728.89 1593.54 2728.89 1593.16 2728.7 1592.97 2728.32 1592.97 2723.92 1592.97 2714.08 1599.14 2698.82 1611.49 2687.17 1620.93 2670.54 1637.61 2648.94 1661.55 2647.16 1663.5 2645.52 1664.48 2644.02 1664.48 2641.11 1664.48 2639.65 1663.19 2639.65 1660.63 2639.65 1658.31 2645.66 1651.22 2657.67 1639.35 2666.68 1627.28 2677.77 1615.82 2690.95 1604.95 2708.3 1590.67 2721 1583.53 2729.05 1583.53 2735.59 1583.53 2738.87 1587 2738.87 1593.94 2738.87 1603.73 2726.52 1622.74 2701.81 1650.98 2741.95 1610.98 2767.69 1590.97 2779.03 1590.97 2785.57 1590.97 2788.84 1594.27 2788.84 1600.87 2788.84 1609.54 2779.07 1625.35 2759.52 1648.31 2805.04 1600.23 2834.75 1576.19 2848.64 1576.19ZM3529.13 1574.51C3544.12 1574.51 3551.61 1579.39 3551.61 1589.15 3551.61 1597.01 3545.05 1606.03 3531.92 1616.21 3519.4 1625.88 3509.04 1630.71 3500.82 1630.71 3493.25 1630.71 3489.46 1627.89 3489.46 1622.24 3489.46 1617.96 3494.43 1613.09 3504.38 1607.61 3509.22 1603.09 3513.74 1600.83 3517.95 1600.83 3520.72 1600.83 3522.11 1602.35 3522.11 1605.39L3510.33 1611.79C3507.12 1613.53 3504.7 1614.91 3503.06 1615.92L3501.87 1616.7 3504.05 1616.38C3508.68 1615.18 3515.12 1612.19 3523.37 1607.39 3534.71 1600.79 3540.38 1595.63 3540.38 1591.91 3540.38 1589.33 3536.28 1588.04 3528.07 1588.04 3517.38 1588.04 3502.12 1591.17 3482.28 1597.44 3468.82 1601.7 3457.11 1606.18 3447.14 1610.89 3430.42 1618.73 3422.06 1625.54 3422.06 1631.33 3422.06 1634.45 3426.89 1636.91 3436.57 1638.7L3470.11 1643.02C3483.47 1645.01 3491.44 1647.8 3494.04 1651.39 3497.99 1656.58 3499.96 1661.46 3499.96 1666.06L3497.83 1672.48 3512.19 1663.71C3516.98 1661.64 3521.47 1660.6 3525.64 1660.6 3533.63 1660.6 3537.63 1663.72 3537.63 1669.97 3537.63 1672.5 3536.98 1674.42 3535.67 1675.73 3537.96 1676.34 3539.1 1678.08 3539.1 1680.96 3539.1 1681.99 3529.19 1693.3 3509.38 1714.91L3514.86 1714.91 3515.48 1715.13 3516.08 1714.84C3518.66 1714.36 3521.21 1713.74 3523.74 1713 3528.41 1710.4 3537.07 1704.13 3549.74 1694.19 3555.72 1689.53 3564.31 1682.42 3575.49 1672.86 3577.46 1670.82 3580.64 1668.03 3585.03 1664.49 3587.24 1663.08 3589.26 1662.38 3591.09 1662.38 3596.53 1662.38 3599.26 1664.38 3599.26 1668.37 3599.26 1671.55 3594.45 1678.44 3584.82 1689.05 3577.61 1697 3573.09 1703.1 3571.29 1707.34L3570.5 1710.5 3571.6 1710.24C3575.84 1708.53 3584.17 1700.82 3596.6 1687.12 3610.8 1671.47 3619.17 1663.64 3621.71 1663.64 3623.3 1663.64 3624.77 1664.36 3626.11 1665.8 3627.46 1667.25 3628.13 1668.73 3628.13 1670.26 3628.13 1672.39 3622.85 1679.57 3612.28 1691.8 3601.71 1704.03 3596.43 1711.61 3596.43 1714.54 3596.43 1714.78 3597.58 1714.94 3599.89 1715.01L3600.73 1715.33 3602.02 1714.73C3608.14 1713.76 3616.75 1708.93 3627.85 1700.25L3641.14 1689.87 3662.43 1672.93C3672.65 1665.9 3681.43 1662.38 3688.8 1662.38 3695.24 1662.38 3698.68 1664.95 3699.1 1670.1 3700.09 1667.54 3701.39 1666.26 3702.99 1666.26 3706.71 1666.26 3708.58 1667.89 3708.58 1671.17 3708.58 1674.06 3703.31 1681.64 3692.78 1693.93 3682.24 1706.21 3676.97 1713.12 3676.97 1714.67 3676.97 1714.76 3678.09 1714.84 3680.33 1714.91L3681.23 1715.26 3682.08 1714.76C3687.23 1713.5 3692.65 1711.53 3698.33 1708.85 3703.13 1705.3 3711.42 1698.39 3723.2 1688.13 3734.98 1677.87 3744.13 1670.83 3750.64 1666.99 3755.51 1664.12 3759.96 1662.69 3763.99 1662.69 3771.47 1662.69 3775.29 1665.21 3775.43 1670.25 3783.3 1657.93 3793.65 1645.5 3806.47 1632.94 3827.26 1607.41 3839.94 1594.64 3844.5 1594.64 3848.17 1594.64 3850 1596.58 3850 1600.44 3850 1603.04 3847.02 1607.47 3841.05 1613.73 3830.6 1624.57 3815.19 1641.94 3794.82 1665.81 3770.01 1694.88 3757.61 1711.09 3757.61 1714.44 3757.61 1714.68 3758.73 1714.84 3760.97 1714.9 3763.21 1714.97 3764.33 1716.23 3764.33 1718.68 3764.33 1721.48 3761.95 1722.88 3757.2 1722.88 3750.4 1722.88 3747 1719.95 3747 1714.09 3747 1710.12 3749.25 1705.26 3753.75 1699.51 3742.27 1713.9 3733.35 1721.09 3727.01 1721.09 3720.32 1721.09 3716.98 1717.59 3716.98 1710.58 3716.98 1707.1 3718.49 1702.88 3721.51 1697.89L3705.49 1712.34C3695.42 1719.15 3687.52 1722.56 3681.78 1722.56L3680.4 1722.1 3678.53 1722.62C3677.38 1722.79 3676.04 1722.88 3674.51 1722.88 3668.52 1722.88 3665.53 1720.15 3665.53 1714.71 3665.53 1711.08 3667.4 1707.18 3671.13 1703.01L3661.65 1713.49C3655.13 1718.35 3649.75 1720.78 3645.52 1720.78 3638.21 1720.78 3634.56 1717.1 3634.56 1709.73 3634.56 1706.16 3635.35 1703.23 3636.93 1700.93 3620.54 1715.35 3608.61 1722.56 3601.15 1722.56L3600.14 1722.21 3599.21 1722.52C3598.28 1722.69 3597.21 1722.77 3595.98 1722.77 3588.79 1722.77 3585.19 1719.88 3585.19 1714.09 3585.19 1710.59 3586.63 1706.97 3589.51 1703.22 3579.56 1714.86 3571.47 1720.68 3565.23 1720.68 3559.57 1720.68 3556.74 1717.61 3556.74 1711.49 3556.74 1705.48 3559.3 1698.89 3564.41 1691.74L3577.44 1679.3 3551.79 1702.96C3534.57 1716.03 3522.36 1722.56 3515.14 1722.56L3514.78 1722.44 3514 1722.67C3513.02 1722.81 3511.87 1722.84 3510.56 1722.77 3511.18 1723.44 3511.49 1724.52 3511.49 1726.02 3511.49 1733.88 3505.4 1745.32 3493.24 1760.33 3480.87 1775.69 3471.03 1783.38 3463.71 1783.38 3458.47 1783.38 3455.84 1780.35 3455.84 1774.29 3455.84 1765.77 3463.14 1752.86 3477.75 1735.55L3505.1 1705.59C3493.8 1716.56 3485.26 1722.04 3479.5 1722.04 3471.92 1722.04 3468.13 1718.39 3468.13 1711.1L3472.27 1701.34 3463.85 1707.54C3456.86 1711.64 3449.26 1715.16 3441.04 1718.1 3425.54 1723.59 3409.62 1726.34 3393.27 1726.34 3370.04 1726.34 3358.43 1719.09 3358.43 1704.59 3358.43 1695.93 3364.57 1688.64 3376.85 1682.71 3388.6 1675.94 3399.05 1672.55 3408.18 1672.55 3412.46 1672.55 3414.6 1674.1 3414.6 1677.21 3414.6 1679.59 3412.53 1681.08 3408.4 1681.67 3400.28 1682.94 3392.84 1685.07 3386.08 1688.05 3375.14 1692.91 3369.66 1697.87 3369.66 1702.95 3369.66 1708.82 3377.4 1711.76 3392.86 1711.76 3406.4 1711.76 3420.93 1709.06 3436.45 1703.65 3452.34 1698.1 3465.32 1691.06 3475.38 1682.53 3484.91 1674.42 3489.67 1668.56 3489.67 1664.94 3489.67 1662.01 3483.52 1659.83 3471.23 1658.39 3448.75 1655.77 3435.93 1654.1 3432.76 1653.37 3418.63 1649.92 3411.56 1643.46 3411.56 1633.98 3411.56 1622.57 3419.81 1611.87 3436.32 1601.88 3449.44 1593.9 3466.13 1587.18 3486.38 1581.7 3504.19 1576.91 3518.44 1574.51 3529.13 1574.51ZM3179.21 1514.78 3178.02 1515.92 3178.68 1514.79ZM3432.94 1480.02C3443.97 1480.23 3453.92 1482.59 3462.8 1487.1 3474.64 1493.12 3481.11 1501.48 3482.23 1512.17 3482.82 1517.9 3481.45 1523.16 3478.11 1527.97 3474.78 1532.77 3470.26 1535.47 3464.57 1536.06 3460.31 1536.5 3456.5 1535.42 3453.14 1532.8 3449.79 1530.19 3447.89 1526.81 3447.46 1522.64 3446.98 1518.03 3448.26 1514 3451.31 1510.57 3454.35 1507.13 3457.87 1505.21 3461.84 1504.8L3465.7 1505.2 3463.38 1501.99C3460.99 1500.15 3457.5 1498.27 3452.9 1496.34 3443.71 1492.48 3433.34 1491.15 3421.81 1492.35 3384.06 1496.27 3345.97 1517.63 3307.54 1556.41 3273.91 1590.35 3233.98 1641.83 3187.76 1710.83L3187.75 1710.85 3194.25 1707.86C3200.08 1704.29 3206.73 1699.44 3214.21 1693.31L3232.33 1678.42 3243.95 1668.15C3250.77 1662.28 3254.85 1659.34 3256.18 1659.34 3258.46 1659.34 3260.65 1660.12 3262.75 1661.69 3264.85 1663.25 3265.9 1665.47 3265.9 1668.35L3249.13 1687.84C3241.29 1697.14 3236.39 1704.02 3234.44 1708.47L3233.53 1711.82 3234.92 1711.52C3239.33 1709.9 3248.35 1702.59 3261.97 1689.61 3273.63 1678.49 3283.33 1668.55 3291.07 1659.8 3293.08 1657.53 3294.74 1656.4 3296.05 1656.4 3297.79 1656.4 3299.63 1657.03 3301.55 1658.3 3303.47 1659.56 3304.43 1661.17 3304.43 1663.12 3304.43 1664.32 3303.98 1664.44 3303.09 1663.48 3290.04 1679.55 3276.19 1696.76 3261.55 1715.12L3266.84 1714.91 3267.25 1715.11 3267.79 1714.81C3271.92 1714.07 3275.79 1712.83 3279.4 1711.1 3283.61 1708.52 3291.52 1702.63 3303.14 1693.43L3329.65 1671.67C3335.5 1666.52 3339.28 1663.95 3340.99 1663.95 3343.31 1663.95 3345.27 1664.93 3346.87 1666.9 3350.26 1663.89 3353.73 1662.38 3357.26 1662.38 3363.39 1662.38 3366.46 1665.58 3366.46 1671.98 3366.46 1679.96 3360.28 1690.62 3347.93 1703.95 3335.37 1717.41 3325.03 1724.14 3316.9 1724.14 3308.5 1724.14 3304.3 1719.77 3304.3 1711.04 3304.3 1706.83 3306.53 1701.53 3311 1695.15L3292.95 1711.05C3281.9 1718.72 3273.46 1722.56 3267.64 1722.56L3266.26 1722.1 3262.71 1723.08 3257.06 1723.35 3228.67 1758.46C3211.2 1778.36 3198.52 1788.3 3190.62 1788.3 3185.79 1788.3 3183.37 1785.31 3183.37 1779.31 3183.37 1768.49 3190.28 1756.2 3204.09 1742.44 3217.9 1728.68 3231.9 1720.2 3246.07 1717L3266.52 1693.55 3253.07 1708.16C3242.47 1716.92 3235.04 1721.3 3230.8 1721.3 3225.08 1721.3 3222.22 1717.56 3222.22 1710.06 3222.22 1704.34 3224.87 1697.7 3230.18 1690.14L3230.8 1689.5 3217.83 1700.64C3209.22 1707.46 3203.38 1711.88 3200.31 1713.9 3196 1716.79 3192.06 1718.96 3188.5 1720.4L3180.22 1722.27 3167.57 1741.48 3111.99 1838.1 3102.63 1832.94C3108.58 1820.82 3113.3 1809.37 3116.79 1798.6 3120.28 1787.82 3123.32 1766.91 3125.91 1735.84 3128.51 1704.78 3131.42 1680.91 3134.64 1664.25 3137.87 1647.59 3143.86 1626.77 3152.62 1601.79 3153.71 1598.66 3154.79 1595.67 3155.84 1592.8L3157.1 1589.44 3131.09 1631.3C3084.73 1704.33 3040.86 1760.12 2999.49 1798.66 2958.12 1837.2 2918.41 1858.44 2880.36 1862.4 2862.26 1864.28 2847.05 1861.77 2834.72 1854.87 2822.38 1847.97 2815.53 1837.95 2814.16 1824.79 2813.24 1815.97 2815.4 1807.88 2820.65 1800.53 2825.89 1793.19 2832.44 1789.1 2840.31 1788.29 2845.46 1787.75 2850.14 1789.05 2854.34 1792.17 2858.55 1795.29 2860.91 1799.35 2861.43 1804.34 2861.93 1809.12 2860.68 1813.31 2857.69 1816.9 2854.7 1820.49 2850.7 1822.55 2845.68 1823.07 2839.52 1823.71 2834.79 1822.24 2831.5 1818.67L2829.07 1814.99 2828.87 1815.12C2828.16 1816.19 2828.02 1818.71 2828.43 1822.67 2829.4 1831.96 2834.56 1839.23 2843.92 1844.5 2853.28 1849.76 2865.32 1851.62 2880.06 1850.09 2910.73 1846.91 2943.62 1830.86 2978.73 1801.94 3013.84 1773.03 3052.71 1726.68 3095.35 1662.88 3137.99 1599.08 3166.83 1554.18 3181.87 1528.17 3186.28 1520.33 3190.67 1514.11 3195.04 1509.51L3203.25 1512.97C3186.48 1538.11 3175.15 1580.39 3169.27 1639.81L3166.25 1666.17C3162.81 1697.44 3154.06 1731.87 3140.02 1769.45L3137.17 1776.41 3171.48 1720.26C3218.81 1643.76 3262.37 1585.71 3302.17 1546.12 3341.96 1506.52 3381.76 1484.65 3421.56 1480.52 3425.47 1480.11 3429.26 1479.94 3432.94 1480.02Z" fill="#FFFFFF" fill-rule="evenodd"/>
  </g>
</svg>