<svg width="825" height="93"
  xmlns="http://www.w3.org/2000/svg"
  xmlns:xlink="http://www.w3.org/1999/xlink" xml:space="preserve" overflow="hidden">
  <defs>
    <clipPath id="clip0">
      <rect x="1243" y="748" width="825" height="93"/>
    </clipPath>
  </defs>
  <g clip-path="url(#clip0)" transform="translate(-1243 -748)">
    <path d="M1904.28 792.692C1900.38 792.692 1896.98 793.757 1894.07 795.889 1891.17 798.02 1888.47 801.852 1885.98 807.384 1883.49 812.917 1882.24 818.439 1882.24 823.95 1882.24 826.878 1882.74 828.988 1883.74 830.279 1884.74 831.571 1886.04 832.217 1887.64 832.217 1890.63 832.217 1893.83 830.613 1897.26 827.405 1900.68 824.198 1903.19 819.58 1904.8 813.552L1910.19 793.402C1907.85 792.929 1905.88 792.692 1904.28 792.692ZM1539.8 792.692C1535.9 792.692 1532.5 793.757 1529.6 795.889 1526.7 798.02 1524 801.852 1521.51 807.384 1519.02 812.917 1517.77 818.439 1517.77 823.95 1517.77 826.878 1518.27 828.988 1519.27 830.279 1520.26 831.571 1521.56 832.217 1523.17 832.217 1526.16 832.217 1529.36 830.613 1532.78 827.405 1536.21 824.198 1538.72 819.58 1540.32 813.552L1545.72 793.402C1543.38 792.929 1541.41 792.692 1539.8 792.692ZM1274.85 792.692C1270.95 792.692 1267.54 793.757 1264.64 795.889 1261.74 798.02 1259.04 801.852 1256.55 807.384 1254.06 812.917 1252.81 818.439 1252.81 823.95 1252.81 826.878 1253.31 828.988 1254.31 830.279 1255.3 831.571 1256.6 832.217 1258.21 832.217 1261.2 832.217 1264.4 830.613 1267.83 827.405 1271.25 824.198 1273.76 819.58 1275.37 813.552L1280.76 793.402C1278.42 792.929 1276.45 792.692 1274.85 792.692ZM1810.7 791.981C1808.58 791.981 1806.06 793.251 1803.13 795.792 1800.21 798.332 1797.45 802.821 1794.85 809.257 1792.25 815.694 1790.95 822.013 1790.95 828.213 1790.95 830.538 1791.69 832.486 1793.19 834.057 1794.68 835.629 1796.43 836.415 1798.42 836.415 1803.23 836.415 1807.52 832.637 1811.29 825.08 1815.06 817.524 1816.94 810 1816.94 802.508 1816.94 799.107 1816.23 796.33 1814.8 794.177 1813.8 792.713 1812.44 791.981 1810.7 791.981ZM1403.94 791.981C1401.81 791.981 1399.29 793.251 1396.37 795.792 1393.44 798.332 1390.68 802.821 1388.08 809.257 1385.48 815.694 1384.18 822.013 1384.18 828.213 1384.18 830.538 1384.93 832.486 1386.42 834.057 1387.92 835.629 1389.66 836.415 1391.65 836.415 1396.46 836.415 1400.75 832.637 1404.52 825.08 1408.29 817.524 1410.18 810 1410.18 802.508 1410.18 799.107 1409.46 796.33 1408.03 794.177 1407.03 792.713 1405.67 791.981 1403.94 791.981ZM2019.78 791.013C2016.87 791.013 2014.04 792.145 2011.26 794.409 2008.49 796.673 2005.81 801.061 2003.24 807.572 2000.66 814.084 1999.37 819.754 1999.37 824.584 1999.37 826.783 1999.97 828.583 2001.16 829.985 2002.35 831.387 2003.7 832.088 2005.22 832.088 2007.04 832.088 2009.12 831.29 2011.46 829.694 2014.79 827.323 2017.44 824.433 2019.39 821.027 2020.56 818.87 2022.14 813.588 2024.13 805.178L2027.12 792.177C2023.65 791.401 2021.21 791.013 2019.78 791.013ZM1676.73 789.463C1673.05 789.463 1669.48 792.078 1666.04 797.31 1662.59 802.541 1660.87 809.763 1660.87 818.977 1660.87 824.574 1661.93 828.988 1664.06 832.217 1665.62 834.585 1667.7 835.769 1670.29 835.769 1673.93 835.769 1677.25 833.53 1680.24 829.052 1684.05 823.24 1685.96 816.028 1685.96 807.417 1685.96 800.958 1685.08 796.352 1683.33 793.596 1681.57 790.84 1679.37 789.463 1676.73 789.463ZM1736.13 784.619C1739.34 784.619 1741.76 785.222 1743.41 786.427 1745.06 787.633 1745.88 789.097 1745.88 790.819 1745.88 792.154 1745.45 793.241 1744.58 794.08 1743.71 794.92 1742.5 795.34 1740.94 795.34 1739.43 795.34 1737.48 794.651 1735.09 793.273 1732.62 791.809 1730.56 791.077 1728.92 791.077 1726.8 791.077 1724.68 792.034 1722.58 793.947 1720.48 795.859 1718.48 799.568 1716.57 805.07 1714.66 810.574 1713.71 816.098 1713.71 821.643 1713.71 825.727 1714.51 828.887 1716.12 831.123 1717.29 832.842 1718.93 833.702 1721.05 833.702 1726.12 833.702 1732.17 830.774 1739.19 824.919L1740.55 828.665C1730.24 836.716 1721.53 840.742 1714.43 840.742 1710.66 840.742 1707.92 839.407 1706.2 836.738 1704.49 834.068 1703.64 830.688 1703.64 826.598 1703.64 819.795 1705.46 812.799 1709.1 805.608 1712.74 798.418 1717.15 792.907 1722.35 789.075 1726.43 786.104 1731.02 784.619 1736.13 784.619ZM1682.25 784.619C1686.5 784.619 1690.03 786.298 1692.85 789.656 1695.66 793.015 1697.07 797.686 1697.07 803.671 1697.07 813.229 1693.69 821.808 1686.93 829.407 1680.17 837.007 1673.02 840.806 1665.49 840.806 1660.85 840.806 1657.11 839.299 1654.27 836.286 1651.44 833.272 1650.02 829.16 1650.02 823.95 1650.02 814.909 1652.62 806.556 1657.82 798.892 1664.36 789.376 1672.5 784.619 1682.25 784.619ZM1636.25 784.619C1640.11 784.619 1643.09 785.362 1645.19 786.847 1647.29 788.332 1648.34 790.044 1648.34 791.981 1648.34 793.144 1647.9 794.156 1647.01 795.017 1646.12 795.878 1645.05 796.308 1643.79 796.308 1642.97 796.308 1642.26 796.125 1641.65 795.759 1641.04 795.393 1640.18 794.479 1639.05 793.015 1636.93 790.216 1634.83 788.817 1632.75 788.817 1630.97 788.817 1629.4 789.494 1628.03 790.849 1626.67 792.203 1625.99 793.891 1625.99 795.912 1625.99 797.675 1626.42 799.385 1627.29 801.04 1628.15 802.696 1630.34 805.373 1633.85 809.071 1638.66 814.145 1641.06 818.961 1641.06 823.519 1641.06 828.078 1639.11 832.066 1635.22 835.485 1631.32 838.903 1626.29 840.613 1620.14 840.613 1614.98 840.613 1611.15 839.569 1608.63 837.48 1606.12 835.392 1604.86 832.82 1604.86 829.763 1604.86 828.256 1605.34 827.007 1606.29 826.017 1607.25 825.027 1608.42 824.531 1609.8 824.531 1611.02 824.531 1612.06 824.93 1612.92 825.726 1613.79 826.523 1614.22 827.459 1614.22 828.535 1614.22 828.966 1614.19 829.526 1614.14 830.215 1614.11 830.774 1614.09 831.248 1614.09 831.635 1614.09 833.056 1614.7 834.262 1615.91 835.252 1617.07 836.242 1618.67 836.738 1620.7 836.738 1623.03 836.738 1625.08 836.34 1626.85 835.544 1628.62 834.749 1630 833.545 1631 831.932 1631.99 830.32 1632.49 828.718 1632.49 827.127 1632.49 825.579 1632.02 824.031 1631.09 822.482 1630.16 820.934 1628.07 818.375 1624.82 814.807 1620.31 809.818 1618.06 805.024 1618.06 800.423 1618.06 796.208 1619.77 792.52 1623.19 789.36 1626.61 786.199 1630.97 784.619 1636.25 784.619ZM1593.96 784.619C1597.82 784.619 1600.8 785.362 1602.9 786.847 1605 788.332 1606.05 790.044 1606.05 791.981 1606.05 793.144 1605.61 794.156 1604.72 795.017 1603.83 795.878 1602.76 796.308 1601.5 796.308 1600.68 796.308 1599.96 796.125 1599.36 795.759 1598.75 795.393 1597.88 794.479 1596.76 793.015 1594.63 790.216 1592.53 788.817 1590.45 788.817 1588.68 788.817 1587.1 789.494 1585.74 790.849 1584.37 792.203 1583.69 793.891 1583.69 795.912 1583.69 797.675 1584.13 799.385 1584.99 801.04 1585.86 802.696 1588.05 805.373 1591.56 809.071 1596.37 814.145 1598.77 818.961 1598.77 823.519 1598.77 828.078 1596.82 832.066 1592.92 835.485 1589.02 838.903 1584 840.613 1577.84 840.613 1572.69 840.613 1568.85 839.569 1566.34 837.48 1563.83 835.392 1562.57 832.82 1562.57 829.763 1562.57 828.256 1563.05 827.007 1564 826.017 1564.95 825.027 1566.12 824.531 1567.51 824.531 1568.72 824.531 1569.76 824.93 1570.63 825.726 1571.5 826.523 1571.93 827.459 1571.93 828.535 1571.93 828.966 1571.9 829.526 1571.84 830.215 1571.81 830.774 1571.8 831.248 1571.8 831.635 1571.8 833.056 1572.4 834.262 1573.61 835.252 1574.78 836.242 1576.38 836.738 1578.4 836.738 1580.74 836.738 1582.79 836.34 1584.56 835.544 1586.33 834.749 1587.71 833.545 1588.7 831.932 1589.69 830.32 1590.19 828.718 1590.19 827.127 1590.19 825.579 1589.73 824.031 1588.79 822.482 1587.86 820.934 1585.77 818.375 1582.52 814.807 1578.02 809.818 1575.76 805.024 1575.76 800.423 1575.76 796.208 1577.48 792.52 1580.9 789.36 1584.32 786.199 1588.68 784.619 1593.96 784.619ZM1951.37 784.425C1952.28 784.425 1952.99 784.619 1953.51 785.006 1954.03 785.394 1954.29 785.846 1954.29 786.363 1954.29 786.75 1954.19 787.439 1953.97 788.429L1951.04 801.427C1955.45 796.557 1960.99 792.01 1967.65 787.786 1971.2 785.589 1974.12 784.49 1976.41 784.49 1978.1 784.49 1979.42 785.028 1980.37 786.104 1981.32 787.181 1981.79 788.731 1981.79 790.754 1981.79 792.089 1981.6 793.596 1981.21 795.275 1980.52 798.074 1978.71 804.166 1975.77 813.552 1973.01 822.336 1971.63 828.169 1971.63 831.054 1971.63 831.937 1971.76 832.599 1972.02 833.04 1972.28 833.482 1972.65 833.702 1973.12 833.702 1974.38 833.702 1976.35 832.497 1979.04 830.086 1980.94 828.363 1982.85 826.77 1984.76 825.306L1986.38 827.631C1982.39 832.001 1978.26 835.515 1973.97 838.172 1971.24 839.885 1968.98 840.742 1967.21 840.742 1965.56 840.742 1964.28 840.15 1963.37 838.966 1962.46 837.782 1962.01 835.855 1962.01 833.186 1962.01 829.354 1964.41 819.817 1969.22 804.575 1970.7 799.15 1971.43 795.986 1971.43 795.081 1971.43 793.747 1970.63 793.079 1969.03 793.079 1967.29 793.079 1965.06 793.985 1962.33 795.796 1958.26 798.469 1954.86 801.616 1952.13 805.238 1950.4 807.566 1948.95 811.274 1947.78 816.362L1942.51 838.933 1932.83 838.933C1934.65 832.466 1936.23 826.279 1937.57 820.372L1943.36 795.796C1943.57 794.804 1943.68 794.093 1943.68 793.662 1943.68 792.499 1943.25 791.917 1942.38 791.917 1941.69 791.917 1940.69 792.372 1939.39 793.284 1936.71 795.064 1934.19 797.235 1931.85 799.796L1929.64 797.535C1935.19 792.256 1939.62 788.752 1942.91 787.021 1946.21 785.29 1949.03 784.425 1951.37 784.425ZM1448.52 784.425C1449.43 784.425 1450.12 784.619 1450.57 785.006 1451.03 785.394 1451.26 785.932 1451.26 786.621 1451.26 787.482 1450.91 789.14 1450.22 791.594 1449.22 795.211 1448.53 798.074 1448.14 800.183 1458.51 789.678 1466.44 784.425 1471.92 784.425 1473.35 784.425 1474.43 784.812 1475.17 785.588 1475.9 786.363 1476.27 787.59 1476.27 789.269 1476.27 791.077 1475.62 794.156 1474.32 798.504 1479.26 793.381 1483.56 789.753 1487.2 787.622 1490.84 785.491 1493.68 784.425 1495.72 784.425 1497.54 784.425 1498.95 784.942 1499.95 785.975 1500.94 787.008 1501.44 788.602 1501.44 790.754 1501.44 792.046 1501.23 793.574 1500.79 795.34 1500.36 797.105 1498.78 802.487 1496.05 811.485 1492.63 822.637 1490.91 829.289 1490.91 831.442 1490.91 832.906 1491.52 833.638 1492.73 833.638 1493.56 833.638 1494.36 833.379 1495.14 832.863 1497.69 831.054 1500.32 828.815 1503 826.146L1505.15 828.471C1504.24 829.203 1502.53 830.71 1500.01 832.992 1496.55 836.092 1494.16 838.029 1492.86 838.804 1490.35 840.268 1488.23 841 1486.49 841 1485.2 841 1484.05 840.365 1483.05 839.095 1482.05 837.825 1481.56 836.07 1481.56 833.831 1481.56 831.765 1481.86 829.343 1482.47 826.566 1483.07 823.789 1484.85 817.556 1487.79 807.869 1490 800.592 1491.11 796.179 1491.11 794.629 1491.11 793.165 1490.46 792.433 1489.16 792.433 1488.08 792.433 1486.62 792.972 1484.81 794.048 1481.08 796.287 1477.96 799.021 1475.45 802.25 1473.71 804.489 1472.2 808.041 1470.9 812.906 1467.99 823.541 1465.83 832.217 1464.4 838.933L1455.17 838.933 1464.85 799.473C1465.55 796.631 1465.89 794.995 1465.89 794.565 1465.89 793.876 1465.72 793.348 1465.37 792.982 1465.03 792.616 1464.53 792.433 1463.88 792.433 1462.71 792.433 1460.9 793.338 1458.43 795.146 1454.15 798.203 1451.07 801.163 1449.19 804.026 1447.3 806.889 1445.69 811.249 1444.35 817.104L1439.36 838.933 1430.02 838.933 1437.36 808.127C1439.53 799.215 1440.61 794.371 1440.61 793.596 1440.61 792.606 1440.22 792.11 1439.44 792.11 1437.75 792.11 1434.31 794.565 1429.11 799.473L1427.16 796.89C1431.45 792.627 1435.52 789.484 1439.39 787.461 1443.25 785.437 1446.3 784.425 1448.52 784.425ZM1922.54 782.617 1917.66 798.956C1915.71 805.458 1913.87 812.949 1912.14 821.431 1911.19 826.038 1910.71 829.009 1910.71 830.344 1910.71 831.679 1911.25 832.346 1912.34 832.346 1913.03 832.346 1914.13 831.894 1915.65 830.99 1918.34 829.397 1920.91 827.416 1923.38 825.048L1925.46 827.567C1920.52 832.045 1917.36 834.757 1915.98 835.704 1913.2 837.599 1910.56 838.998 1908.05 839.902 1906.4 840.505 1904.8 840.806 1903.24 840.806 1902.11 840.806 1901.27 840.548 1900.7 840.031 1900.14 839.515 1899.86 838.761 1899.86 837.771 1899.86 837.125 1900.03 836.242 1900.38 835.123L1902.98 826.34C1899.25 830.774 1894.81 834.585 1889.65 837.771 1886.49 839.752 1883.59 840.742 1880.95 840.742 1878.43 840.742 1876.5 839.859 1875.16 838.094 1873.34 835.726 1872.43 832.626 1872.43 828.794 1872.43 824.23 1873.66 819.149 1876.1 813.552 1878.55 807.955 1881.83 802.874 1885.95 798.31 1890.07 793.747 1894.4 790.388 1898.95 788.236 1902.46 786.599 1906.96 785.781 1912.47 785.781 1913.85 785.781 1915.26 785.867 1916.69 786.04L1918.25 783.521ZM1558.07 782.617 1553.19 798.956C1551.24 805.458 1549.4 812.949 1547.67 821.431 1546.71 826.038 1546.24 829.009 1546.24 830.344 1546.24 831.679 1546.78 832.346 1547.86 832.346 1548.56 832.346 1549.66 831.894 1551.18 830.99 1553.86 829.397 1556.44 827.416 1558.91 825.048L1560.99 827.567C1556.05 832.045 1552.89 834.757 1551.5 835.704 1548.73 837.599 1546.09 838.998 1543.57 839.902 1541.93 840.505 1540.32 840.806 1538.76 840.806 1537.64 840.806 1536.79 840.548 1536.23 840.031 1535.67 839.515 1535.38 838.761 1535.38 837.771 1535.38 837.125 1535.56 836.242 1535.9 835.123L1538.5 826.34C1534.78 830.774 1530.34 834.585 1525.18 837.771 1522.02 839.752 1519.11 840.742 1516.47 840.742 1513.96 840.742 1512.03 839.859 1510.69 838.094 1508.87 835.726 1507.96 832.626 1507.96 828.794 1507.96 824.23 1509.18 819.149 1511.63 813.552 1514.08 807.955 1517.36 802.874 1521.48 798.31 1525.59 793.747 1529.93 790.388 1534.47 788.236 1537.98 786.599 1542.49 785.781 1547.99 785.781 1549.38 785.781 1550.79 785.867 1552.22 786.04L1553.78 783.521ZM1293.11 782.617 1288.23 798.956C1286.28 805.458 1284.44 812.949 1282.71 821.431 1281.76 826.038 1281.28 829.009 1281.28 830.344 1281.28 831.679 1281.82 832.346 1282.9 832.346 1283.6 832.346 1284.7 831.894 1286.22 830.99 1288.91 829.397 1291.48 827.416 1293.95 825.048L1296.03 827.567C1291.09 832.045 1287.93 834.757 1286.54 835.704 1283.77 837.599 1281.13 838.998 1278.62 839.902 1276.97 840.505 1275.37 840.806 1273.81 840.806 1272.68 840.806 1271.83 840.548 1271.27 840.031 1270.71 839.515 1270.43 838.761 1270.43 837.771 1270.43 837.125 1270.6 836.242 1270.95 835.123L1273.55 826.34C1269.82 830.774 1265.38 834.585 1260.22 837.771 1257.06 839.752 1254.16 840.742 1251.51 840.742 1249 840.742 1247.07 839.859 1245.73 838.094 1243.91 835.726 1243 832.626 1243 828.794 1243 824.23 1244.22 819.149 1246.67 813.552 1249.12 807.955 1252.4 802.874 1256.52 798.31 1260.63 793.747 1264.97 790.388 1269.52 788.236 1273.03 786.599 1277.53 785.781 1283.03 785.781 1284.42 785.781 1285.83 785.867 1287.26 786.04L1288.82 783.521ZM1875.97 781.39C1877.27 781.39 1878.35 781.809 1879.22 782.649 1880.09 783.489 1880.52 784.468 1880.52 785.588 1880.52 786.75 1880.1 787.74 1879.26 788.558 1878.41 789.376 1876.3 790.345 1872.93 791.465 1869.72 792.542 1867.11 793.834 1865.1 795.341 1863.09 796.848 1860.88 799.153 1858.48 802.254 1856.07 805.355 1854.39 808.057 1853.44 810.36 1852.48 812.663 1851.03 818.012 1849.08 826.406L1846.14 838.933 1836.46 838.933 1841.01 821.561C1843.22 813.036 1845.15 804.941 1846.79 797.277 1847.18 795.383 1847.38 794.199 1847.38 793.725 1847.38 792.692 1846.9 792.175 1845.95 792.175 1845.3 792.175 1844.3 792.616 1842.96 793.499 1841.62 794.382 1839.19 796.567 1835.68 800.054L1833.67 797.794C1837.82 793.359 1841.97 790.033 1846.11 787.816 1850.24 785.598 1853.42 784.49 1855.62 784.49 1856.4 784.49 1857.02 784.673 1857.48 785.039 1857.93 785.405 1858.16 785.867 1858.16 786.427 1858.16 786.99 1857.87 788.482 1857.3 790.906L1854.48 802.525C1858.86 795.653 1863.81 789.774 1869.32 784.89 1871.97 782.557 1874.19 781.39 1875.97 781.39ZM1357.6 770.74 1352.93 788.817 1366.39 788.817 1365.35 793.402 1351.88 793.402 1346.21 815.046C1344.41 821.543 1343.51 826.061 1343.51 828.6 1343.51 829.763 1343.76 830.602 1344.26 831.119 1344.76 831.635 1345.44 831.894 1346.3 831.894 1347.65 831.894 1349.71 831.097 1352.48 829.504 1356.12 827.395 1359.58 825.005 1362.88 822.336L1365.35 825.306C1355.86 832.411 1349.51 836.759 1346.3 838.352 1343.1 839.945 1340.52 840.742 1338.57 840.742 1336.97 840.742 1335.7 840.161 1334.77 838.998 1333.84 837.836 1333.37 835.941 1333.37 833.315 1333.37 830.215 1334.2 825.479 1335.84 819.106L1342.46 793.402 1331.93 793.402 1333.1 788.817 1343.64 788.817 1347.28 774.673ZM1822.99 748.258C1825.46 748.258 1827.27 748.678 1828.41 749.518 1829.56 750.357 1830.14 751.488 1830.14 752.908 1830.14 754.2 1829.62 755.276 1828.57 756.138 1827.53 756.999 1826.06 757.429 1824.15 757.429 1822.72 757.429 1820.25 757.106 1816.74 756.461 1815.18 756.159 1813.79 756.008 1812.58 756.008 1810.41 756.008 1808.66 757.171 1807.31 759.496 1806.32 761.304 1804.95 765.89 1803.22 773.252L1797.9 795.921C1801.41 792.089 1804.86 789.28 1808.27 787.493 1811.67 785.706 1814.67 784.812 1817.27 784.812 1820.3 784.812 1822.73 786.018 1824.55 788.429 1826.37 790.84 1827.28 794.479 1827.28 799.344 1827.28 806.405 1825.61 813.315 1822.27 820.075 1818.94 826.835 1814.81 831.98 1809.89 835.511 1804.97 839.041 1800.17 840.806 1795.5 840.806 1791.51 840.806 1788.32 839.644 1785.94 837.319 1783.56 834.994 1782.37 831.98 1782.37 828.277 1782.37 825.306 1782.95 821.173 1784.12 815.877L1791.79 781.713C1793.65 773.36 1795.99 766.998 1798.81 762.628 1801.63 758.258 1805.33 754.771 1809.92 752.166 1814.52 749.561 1818.87 748.258 1822.99 748.258ZM1416.22 748.258C1418.69 748.258 1420.5 748.678 1421.65 749.518 1422.79 750.357 1423.37 751.488 1423.37 752.908 1423.37 754.2 1422.85 755.276 1421.81 756.138 1420.77 756.999 1419.29 757.429 1417.39 757.429 1415.96 757.429 1413.49 757.106 1409.97 756.461 1408.41 756.159 1407.03 756.008 1405.81 756.008 1403.65 756.008 1401.89 757.171 1400.55 759.496 1399.55 761.304 1398.18 765.89 1396.45 773.252L1391.13 795.921C1394.64 792.089 1398.1 789.28 1401.5 787.493 1404.9 785.706 1407.9 784.812 1410.5 784.812 1413.53 784.812 1415.96 786.018 1417.78 788.429 1419.6 790.84 1420.51 794.479 1420.51 799.344 1420.51 806.405 1418.84 813.315 1415.51 820.075 1412.17 826.835 1408.04 831.98 1403.12 835.511 1398.21 839.041 1393.41 840.806 1388.73 840.806 1384.74 840.806 1381.56 839.644 1379.18 837.319 1376.79 834.994 1375.6 831.98 1375.6 828.277 1375.6 825.306 1376.19 821.173 1377.36 815.877L1385.02 781.713C1386.89 773.36 1389.23 766.998 1392.04 762.628 1394.86 758.258 1398.56 754.771 1403.16 752.166 1407.75 749.561 1412.1 748.258 1416.22 748.258ZM2062.28 748C2064.01 748 2065.4 748.452 2066.44 749.356 2067.48 750.26 2068 751.401 2068 752.779 2068 754.114 2067.52 755.201 2066.57 756.041 2065.61 756.88 2064.31 757.3 2062.66 757.3 2061.57 757.3 2059.55 757.085 2056.6 756.654 2053.65 756.224 2051.63 756.008 2050.54 756.008 2049.02 756.008 2047.69 756.47 2046.53 757.394 2045.38 758.318 2044.29 760.306 2043.24 763.357 2042.55 765.294 2040.98 771.474 2038.52 781.895L2029.32 820.91C2028.25 825.518 2027.71 828.576 2027.71 830.083 2027.71 831.721 2028.33 832.54 2029.59 832.54 2030.37 832.54 2031.28 832.259 2032.32 831.699 2033.79 830.881 2036.65 828.836 2040.9 825.565L2042.72 828.019C2036.91 832.884 2032.6 836.113 2029.79 837.706 2025.89 839.902 2022.81 841 2020.56 841 2019.52 841 2018.67 840.709 2018.02 840.128 2017.37 839.547 2017.05 838.89 2017.05 838.158 2017.05 837.426 2017.29 836.221 2017.76 834.542L2020.04 826.651C2014.84 832.209 2010.5 835.98 2007.04 837.962 2003.57 839.944 2000.45 840.936 1997.68 840.936 1995.38 840.936 1993.46 839.933 1991.9 837.929 1990.34 835.924 1989.56 832.983 1989.56 829.104 1989.56 822.982 1991.67 815.945 1995.89 807.992 2000.12 800.04 2004.82 794.156 2010 790.341 2015.17 786.526 2019.91 784.619 2024.2 784.619 2025.15 784.619 2026.58 784.77 2028.49 785.071 2030.52 776.69 2032.47 770.576 2034.33 766.729 2036.2 762.882 2038.6 759.562 2041.55 756.768 2044.49 753.974 2047.86 751.814 2051.65 750.289 2055.45 748.763 2058.99 748 2062.28 748Z" fill="#FFFFFF" fill-rule="evenodd"/>
  </g>
</svg>