<svg width="825" height="79"
  xmlns="http://www.w3.org/2000/svg"
  xmlns:xlink="http://www.w3.org/1999/xlink" xml:space="preserve" overflow="hidden">
  <defs>
    <clipPath id="clip0">
      <rect x="1253" y="916" width="825" height="79"/>
    </clipPath>
  </defs>
  <g clip-path="url(#clip0)" transform="translate(-1253 -916)">
    <path d="M1945.09 944.375C1942.64 944.375 1940.5 945.048 1938.68 946.396 1936.86 947.743 1935.16 950.165 1933.6 953.663 1932.03 957.16 1931.25 960.651 1931.25 964.135 1931.25 965.986 1931.57 967.319 1932.19 968.136 1932.82 968.952 1933.63 969.361 1934.64 969.361 1936.52 969.361 1938.53 968.347 1940.68 966.319 1942.83 964.291 1944.41 961.372 1945.41 957.562L1948.8 944.824C1947.33 944.525 1946.09 944.375 1945.09 944.375ZM1621.23 944.375C1618.78 944.375 1616.65 945.048 1614.82 946.396 1613 947.743 1611.31 950.165 1609.74 953.663 1608.18 957.16 1607.4 960.651 1607.4 964.135 1607.4 965.986 1607.71 967.319 1608.33 968.136 1608.96 968.952 1609.78 969.361 1610.78 969.361 1612.66 969.361 1614.67 968.347 1616.82 966.319 1618.97 964.291 1620.55 961.372 1621.56 957.562L1624.94 944.824C1623.47 944.525 1622.24 944.375 1621.23 944.375ZM1426.22 944.375C1423.77 944.375 1421.63 945.048 1419.81 946.396 1417.99 947.743 1416.3 950.165 1414.73 953.663 1413.17 957.16 1412.38 960.651 1412.38 964.135 1412.38 965.986 1412.7 967.319 1413.32 968.136 1413.95 968.952 1414.77 969.361 1415.77 969.361 1417.65 969.361 1419.66 968.347 1421.81 966.319 1423.96 964.291 1425.54 961.372 1426.55 957.562L1429.93 944.824C1428.46 944.525 1427.23 944.375 1426.22 944.375ZM1273 944.375C1270.55 944.375 1268.41 945.048 1266.59 946.396 1264.77 947.743 1263.07 950.165 1261.51 953.663 1259.94 957.16 1259.16 960.651 1259.16 964.135 1259.16 965.986 1259.48 967.319 1260.1 968.136 1260.73 968.952 1261.54 969.361 1262.55 969.361 1264.43 969.361 1266.44 968.347 1268.59 966.319 1270.74 964.291 1272.32 961.372 1273.32 957.562L1276.71 944.824C1275.24 944.525 1274 944.375 1273 944.375ZM1859.42 943.926C1858.08 943.926 1856.5 944.729 1854.66 946.334 1852.83 947.94 1851.09 950.778 1849.46 954.847 1847.83 958.916 1847.01 962.91 1847.01 966.829 1847.01 968.299 1847.48 969.531 1848.42 970.524 1849.36 971.518 1850.45 972.015 1851.7 972.015 1854.72 972.015 1857.42 969.626 1859.78 964.849 1862.15 960.073 1863.33 955.316 1863.33 950.58 1863.33 948.43 1862.88 946.674 1861.99 945.314 1861.36 944.388 1860.5 943.926 1859.42 943.926ZM1563.42 943.926C1562.08 943.926 1560.5 944.729 1558.66 946.334 1556.83 947.94 1555.09 950.778 1553.46 954.847 1551.83 958.916 1551.01 962.91 1551.01 966.829 1551.01 968.299 1551.48 969.531 1552.42 970.524 1553.36 971.518 1554.45 972.015 1555.7 972.015 1558.72 972.015 1561.42 969.626 1563.78 964.849 1566.15 960.073 1567.33 955.316 1567.33 950.58 1567.33 948.43 1566.89 946.674 1565.99 945.314 1565.36 944.388 1564.51 943.926 1563.42 943.926ZM1462.43 943.926C1461.1 943.926 1459.51 944.729 1457.68 946.334 1455.84 947.94 1454.1 950.778 1452.47 954.847 1450.84 958.916 1450.02 962.91 1450.02 966.829 1450.02 968.299 1450.49 969.531 1451.43 970.524 1452.37 971.518 1453.47 972.015 1454.72 972.015 1457.74 972.015 1460.43 969.626 1462.8 964.849 1465.16 960.073 1466.35 955.316 1466.35 950.58 1466.35 948.43 1465.9 946.674 1465 945.314 1464.37 944.388 1463.52 943.926 1462.43 943.926ZM1693.46 943.313C1691.64 943.313 1689.86 944.029 1688.11 945.46 1686.37 946.891 1684.69 949.665 1683.07 953.782 1681.46 957.898 1680.65 961.482 1680.65 964.535 1680.65 965.926 1681.02 967.064 1681.77 967.95 1682.52 968.836 1683.37 969.279 1684.32 969.279 1685.46 969.279 1686.77 968.775 1688.24 967.766 1690.33 966.267 1691.99 964.44 1693.22 962.287 1693.95 960.924 1694.94 957.584 1696.19 952.268L1698.07 944.049C1695.9 943.559 1694.36 943.313 1693.46 943.313ZM1513.62 942.578C1512.61 942.578 1511.63 942.959 1510.68 943.721 1509.4 944.729 1508.33 946.253 1507.46 948.294 1506.2 951.288 1505.32 954.336 1504.8 957.439 1509.18 955.479 1512.47 953.37 1514.68 951.111 1516.17 949.533 1516.92 947.967 1516.92 946.416 1516.92 945.246 1516.62 944.313 1516 943.619 1515.39 942.925 1514.6 942.578 1513.62 942.578ZM2033.34 942.333C2031.03 942.333 2028.79 943.987 2026.63 947.294 2024.47 950.601 2023.38 955.167 2023.38 960.991 2023.38 964.53 2024.05 967.319 2025.38 969.361 2026.36 970.858 2027.67 971.606 2029.3 971.606 2031.59 971.606 2033.67 970.191 2035.55 967.36 2037.94 963.686 2039.14 959.127 2039.14 953.683 2039.14 949.601 2038.59 946.688 2037.48 944.946 2036.38 943.204 2035 942.333 2033.34 942.333ZM1747.79 942.333C1745.48 942.333 1743.24 943.987 1741.08 947.294 1738.91 950.601 1737.83 955.167 1737.83 960.991 1737.83 964.53 1738.5 967.319 1739.83 969.361 1740.81 970.858 1742.12 971.606 1743.75 971.606 1746.04 971.606 1748.12 970.191 1749.99 967.36 1752.39 963.686 1753.59 959.127 1753.59 953.683 1753.59 949.601 1753.03 946.688 1751.93 944.946 1750.83 943.204 1749.45 942.333 1747.79 942.333ZM1361.25 942.333C1358.94 942.333 1356.7 943.987 1354.54 947.294 1352.38 950.601 1351.29 955.167 1351.29 960.991 1351.29 964.53 1351.96 967.319 1353.29 969.361 1354.27 970.858 1355.58 971.606 1357.21 971.606 1359.5 971.606 1361.58 970.191 1363.46 967.36 1365.85 963.686 1367.05 959.127 1367.05 953.683 1367.05 949.601 1366.5 946.688 1365.39 944.946 1364.29 943.204 1362.91 942.333 1361.25 942.333ZM2071.88 939.271C2073.89 939.271 2075.42 939.653 2076.45 940.414 2077.48 941.177 2078 942.102 2078 943.191 2078 944.034 2077.73 944.722 2077.18 945.252 2076.64 945.783 2075.88 946.049 2074.9 946.049 2073.95 946.049 2072.72 945.613 2071.23 944.742 2069.68 943.817 2068.38 943.354 2067.35 943.354 2066.02 943.354 2064.69 943.959 2063.37 945.168 2062.05 946.377 2060.79 948.721 2059.6 952.2 2058.4 955.679 2057.8 959.171 2057.8 962.677 2057.8 965.259 2058.3 967.256 2059.31 968.669 2060.04 969.756 2061.08 970.3 2062.41 970.3 2065.59 970.3 2069.39 968.449 2073.8 964.747L2074.65 967.115C2068.18 972.205 2062.71 974.75 2058.25 974.75 2055.88 974.75 2054.16 973.906 2053.09 972.219 2052.01 970.531 2051.47 968.395 2051.47 965.809 2051.47 961.508 2052.62 957.086 2054.9 952.54 2057.19 947.995 2059.96 944.511 2063.23 942.089 2065.78 940.21 2068.67 939.271 2071.88 939.271ZM2036.81 939.271C2039.48 939.271 2041.69 940.333 2043.46 942.456 2045.23 944.579 2046.11 947.532 2046.11 951.315 2046.11 957.358 2043.99 962.781 2039.75 967.585 2035.5 972.389 2031.02 974.791 2026.28 974.791 2023.37 974.791 2021.02 973.838 2019.24 971.933 2017.46 970.028 2016.57 967.428 2016.57 964.135 2016.57 958.419 2018.2 953.139 2021.47 948.294 2025.57 942.279 2030.69 939.271 2036.81 939.271ZM2006.63 939.271C2009.05 939.271 2010.92 939.741 2012.24 940.68 2013.56 941.619 2014.22 942.701 2014.22 943.926 2014.22 944.661 2013.94 945.3 2013.38 945.845 2012.82 946.389 2012.15 946.661 2011.36 946.661 2010.84 946.661 2010.39 946.545 2010.01 946.314 2009.63 946.083 2009.09 945.504 2008.38 944.579 2007.05 942.81 2005.73 941.925 2004.42 941.925 2003.31 941.925 2002.32 942.353 2001.46 943.21 2000.61 944.066 2000.18 945.133 2000.18 946.41 2000.18 947.525 2000.45 948.606 2000.99 949.652 2001.54 950.699 2002.91 952.391 2005.12 954.729 2008.14 957.937 2009.65 960.981 2009.65 963.862 2009.65 966.744 2008.42 969.265 2005.97 971.427 2003.52 973.588 2000.37 974.668 1996.51 974.668 1993.27 974.668 1990.86 974.008 1989.28 972.688 1987.7 971.368 1986.92 969.742 1986.92 967.809 1986.92 966.857 1987.21 966.067 1987.81 965.441 1988.41 964.815 1989.15 964.503 1990.02 964.503 1990.78 964.503 1991.43 964.754 1991.98 965.258 1992.52 965.761 1992.79 966.353 1992.79 967.034 1992.79 967.306 1992.77 967.66 1992.74 968.095 1992.72 968.449 1992.71 968.748 1992.71 968.993 1992.71 969.892 1993.09 970.654 1993.85 971.28 1994.58 971.906 1995.58 972.219 1996.86 972.219 1998.32 972.219 1999.61 971.967 2000.72 971.464 2001.83 970.961 2002.7 970.2 2003.32 969.181 2003.95 968.162 2004.26 967.149 2004.26 966.143 2004.26 965.165 2003.97 964.186 2003.38 963.207 2002.8 962.228 2001.48 960.611 1999.44 958.355 1996.61 955.201 1995.2 952.17 1995.2 949.262 1995.2 946.597 1996.27 944.266 1998.42 942.268 2000.57 940.27 2003.31 939.271 2006.63 939.271ZM1978.77 939.271C1981.19 939.271 1983.06 939.741 1984.38 940.68 1985.7 941.619 1986.36 942.701 1986.36 943.926 1986.36 944.661 1986.08 945.3 1985.52 945.845 1984.96 946.389 1984.29 946.661 1983.5 946.661 1982.98 946.661 1982.54 946.545 1982.15 946.314 1981.77 946.083 1981.23 945.504 1980.52 944.579 1979.19 942.81 1977.87 941.925 1976.56 941.925 1975.45 941.925 1974.46 942.353 1973.6 943.21 1972.75 944.066 1972.32 945.133 1972.32 946.41 1972.32 947.525 1972.59 948.606 1973.14 949.652 1973.68 950.699 1975.05 952.391 1977.26 954.729 1980.28 957.937 1981.79 960.981 1981.79 963.862 1981.79 966.744 1980.56 969.265 1978.11 971.427 1975.67 973.588 1972.51 974.668 1968.65 974.668 1965.41 974.668 1963 974.008 1961.42 972.688 1959.85 971.368 1959.06 969.742 1959.06 967.809 1959.06 966.857 1959.36 966.067 1959.95 965.441 1960.55 964.815 1961.29 964.503 1962.16 964.503 1962.92 964.503 1963.57 964.754 1964.12 965.258 1964.66 965.761 1964.93 966.353 1964.93 967.034 1964.93 967.306 1964.92 967.66 1964.88 968.095 1964.86 968.449 1964.85 968.748 1964.85 968.993 1964.85 969.892 1965.23 970.654 1965.99 971.28 1966.72 971.906 1967.73 972.219 1969 972.219 1970.46 972.219 1971.75 971.967 1972.86 971.464 1973.97 970.961 1974.84 970.2 1975.46 969.181 1976.09 968.162 1976.4 967.149 1976.4 966.143 1976.4 965.165 1976.11 964.186 1975.52 963.207 1974.94 962.228 1973.63 960.611 1971.58 958.355 1968.76 955.201 1967.34 952.17 1967.34 949.262 1967.34 946.597 1968.42 944.266 1970.56 942.268 1972.71 940.27 1975.45 939.271 1978.77 939.271ZM1751.26 939.271C1753.93 939.271 1756.14 940.333 1757.91 942.456 1759.68 944.579 1760.56 947.532 1760.56 951.315 1760.56 957.358 1758.44 962.781 1754.2 967.585 1749.95 972.389 1745.46 974.791 1740.73 974.791 1737.82 974.791 1735.47 973.838 1733.69 971.933 1731.91 970.028 1731.02 967.428 1731.02 964.135 1731.02 958.419 1732.65 953.139 1735.92 948.294 1740.02 942.279 1745.14 939.271 1751.26 939.271ZM1364.72 939.271C1367.39 939.271 1369.6 940.333 1371.37 942.456 1373.14 944.579 1374.02 947.532 1374.02 951.315 1374.02 957.358 1371.9 962.781 1367.66 967.585 1363.41 972.389 1358.93 974.791 1354.19 974.791 1351.28 974.791 1348.93 973.838 1347.15 971.933 1345.37 970.028 1344.48 967.428 1344.48 964.135 1344.48 958.419 1346.11 953.139 1349.38 948.294 1353.48 942.279 1358.6 939.271 1364.72 939.271ZM1516.88 939.19C1518.81 939.19 1520.29 939.673 1521.31 940.639 1522.33 941.605 1522.84 942.932 1522.84 944.62 1522.84 946.389 1522.23 948.131 1521 949.846 1519.78 951.56 1517.59 953.343 1514.43 955.194 1512.86 956.092 1509.48 957.711 1504.31 960.052 1504.07 961.522 1503.95 962.924 1503.95 964.257 1503.95 966.19 1504.25 967.537 1504.86 968.299 1505.48 969.061 1506.37 969.443 1507.54 969.443 1508.65 969.443 1509.88 969.129 1511.21 968.503 1513.01 967.66 1515.63 965.945 1519.09 963.359L1520.43 965.155C1513.77 971.497 1508.05 974.668 1503.29 974.668 1501.36 974.668 1499.89 974.015 1498.86 972.708 1497.84 971.402 1497.33 969.306 1497.33 966.421 1497.33 960.596 1499.1 954.799 1502.64 949.029 1506.61 942.469 1511.36 939.19 1516.88 939.19ZM1887.08 939.149C1887.66 939.149 1888.09 939.271 1888.37 939.516 1888.66 939.761 1888.8 940.101 1888.8 940.537 1888.8 941.081 1888.59 942.129 1888.15 943.681 1887.52 945.967 1887.09 947.777 1886.84 949.11 1893.36 942.469 1898.33 939.149 1901.78 939.149 1902.68 939.149 1903.35 939.394 1903.82 939.884 1904.28 940.373 1904.51 941.149 1904.51 942.211 1904.51 943.354 1904.1 945.3 1903.29 948.049 1906.39 944.81 1909.08 942.517 1911.37 941.17 1913.66 939.823 1915.44 939.149 1916.72 939.149 1917.87 939.149 1918.75 939.476 1919.38 940.129 1920 940.782 1920.32 941.789 1920.32 943.15 1920.32 943.966 1920.18 944.933 1919.91 946.049 1919.64 947.165 1918.64 950.567 1916.93 956.255 1914.78 963.305 1913.7 967.51 1913.7 968.871 1913.7 969.796 1914.09 970.259 1914.85 970.259 1915.36 970.259 1915.87 970.096 1916.36 969.769 1917.96 968.626 1919.61 967.211 1921.3 965.523L1922.64 966.993C1922.07 967.455 1921 968.408 1919.42 969.851 1917.24 971.81 1915.75 973.035 1914.93 973.525 1913.35 974.451 1912.02 974.913 1910.93 974.913 1910.11 974.913 1909.39 974.512 1908.77 973.709 1908.14 972.906 1907.83 971.797 1907.83 970.381 1907.83 969.075 1908.02 967.544 1908.4 965.789 1908.78 964.033 1909.9 960.093 1911.75 953.969 1913.13 949.369 1913.83 946.579 1913.83 945.599 1913.83 944.674 1913.42 944.211 1912.6 944.211 1911.92 944.211 1911.01 944.552 1909.87 945.232 1907.53 946.647 1905.57 948.376 1903.99 950.417 1902.9 951.832 1901.95 954.078 1901.14 957.154 1899.31 963.876 1897.95 969.361 1897.05 973.607L1891.26 973.607 1897.34 948.662C1897.78 946.865 1897.99 945.831 1897.99 945.559 1897.99 945.123 1897.89 944.79 1897.67 944.559 1897.45 944.327 1897.14 944.211 1896.73 944.211 1896 944.211 1894.86 944.783 1893.31 945.926 1890.62 947.858 1888.68 949.73 1887.5 951.54 1886.32 953.35 1885.31 956.106 1884.47 959.807L1881.33 973.607 1875.47 973.607 1880.08 954.132C1881.44 948.498 1882.12 945.436 1882.12 944.946 1882.12 944.32 1881.87 944.007 1881.38 944.007 1880.32 944.007 1878.16 945.559 1874.9 948.662L1873.67 947.029C1876.36 944.334 1878.93 942.347 1881.35 941.068 1883.78 939.789 1885.69 939.149 1887.08 939.149ZM1650.47 939.149C1651.05 939.149 1651.49 939.271 1651.82 939.516 1652.15 939.761 1652.31 940.047 1652.31 940.373 1652.31 940.619 1652.24 941.054 1652.11 941.68L1650.27 949.896C1653.04 946.818 1656.51 943.944 1660.7 941.274 1662.92 939.884 1664.76 939.19 1666.2 939.19 1667.26 939.19 1668.08 939.53 1668.68 940.21 1669.28 940.891 1669.58 941.871 1669.58 943.15 1669.58 943.994 1669.46 944.946 1669.21 946.008 1668.78 947.777 1667.64 951.628 1665.8 957.562 1664.06 963.114 1663.19 966.802 1663.19 968.626 1663.19 969.184 1663.28 969.602 1663.44 969.881 1663.6 970.16 1663.83 970.3 1664.13 970.3 1664.92 970.3 1666.16 969.538 1667.85 968.013 1669.04 966.925 1670.24 965.918 1671.44 964.992L1672.46 966.462C1669.95 969.224 1667.36 971.446 1664.66 973.125 1662.95 974.208 1661.53 974.75 1660.42 974.75 1659.39 974.75 1658.58 974.376 1658.01 973.627 1657.44 972.878 1657.15 971.66 1657.15 969.973 1657.15 967.551 1658.66 961.522 1661.68 951.887 1662.61 948.457 1663.07 946.457 1663.07 945.885 1663.07 945.042 1662.57 944.62 1661.56 944.62 1660.47 944.62 1659.07 945.192 1657.36 946.337 1654.8 948.027 1652.67 950.016 1650.95 952.306 1649.86 953.778 1648.95 956.122 1648.22 959.338L1644.91 973.607 1638.83 973.607C1639.97 969.519 1640.97 965.607 1641.81 961.873L1645.44 946.337C1645.58 945.71 1645.65 945.26 1645.65 944.988 1645.65 944.253 1645.37 943.885 1644.83 943.885 1644.4 943.885 1643.77 944.173 1642.95 944.749 1641.27 945.875 1639.69 947.247 1638.22 948.866L1636.83 947.437C1640.32 944.099 1643.09 941.884 1645.16 940.79 1647.23 939.696 1649 939.149 1650.47 939.149ZM1319.65 939.149C1320.22 939.149 1320.67 939.271 1321 939.516 1321.33 939.761 1321.49 940.047 1321.49 940.373 1321.49 940.619 1321.42 941.054 1321.29 941.68L1319.45 949.896C1322.22 946.818 1325.69 943.944 1329.88 941.274 1332.1 939.884 1333.94 939.19 1335.38 939.19 1336.43 939.19 1337.26 939.53 1337.86 940.21 1338.46 940.891 1338.76 941.871 1338.76 943.15 1338.76 943.994 1338.63 944.946 1338.39 946.008 1337.96 947.777 1336.82 951.628 1334.98 957.562 1333.24 963.114 1332.37 966.802 1332.37 968.626 1332.37 969.184 1332.45 969.602 1332.62 969.881 1332.78 970.16 1333.01 970.3 1333.31 970.3 1334.1 970.3 1335.34 969.538 1337.02 968.013 1338.22 966.925 1339.42 965.918 1340.62 964.992L1341.64 966.462C1339.13 969.224 1336.54 971.446 1333.84 973.125 1332.13 974.208 1330.71 974.75 1329.6 974.75 1328.56 974.75 1327.76 974.376 1327.19 973.627 1326.62 972.878 1326.33 971.66 1326.33 969.973 1326.33 967.551 1327.84 961.522 1330.86 951.887 1331.79 948.457 1332.25 946.457 1332.25 945.885 1332.25 945.042 1331.75 944.62 1330.74 944.62 1329.65 944.62 1328.25 945.192 1326.54 946.337 1323.98 948.027 1321.84 950.016 1320.13 952.306 1319.04 953.778 1318.13 956.122 1317.4 959.338L1314.09 973.607 1308.01 973.607C1309.15 969.519 1310.15 965.607 1310.99 961.873L1314.62 946.337C1314.76 945.71 1314.83 945.26 1314.83 944.988 1314.83 944.253 1314.55 943.885 1314.01 943.885 1313.57 943.885 1312.95 944.173 1312.13 944.749 1310.44 945.875 1308.87 947.247 1307.4 948.866L1306.01 947.437C1309.5 944.099 1312.27 941.884 1314.34 940.79 1316.41 939.696 1318.18 939.149 1319.65 939.149ZM1956.55 938.006 1953.49 948.335C1952.27 952.445 1951.11 957.181 1950.02 962.543 1949.43 965.455 1949.13 967.333 1949.13 968.177 1949.13 969.02 1949.47 969.443 1950.15 969.443 1950.58 969.443 1951.28 969.156 1952.23 968.585 1953.91 967.578 1955.53 966.326 1957.08 964.829L1958.39 966.421C1955.29 969.252 1953.3 970.967 1952.43 971.565 1950.69 972.763 1949.03 973.648 1947.45 974.219 1946.42 974.6 1945.41 974.791 1944.43 974.791 1943.73 974.791 1943.2 974.628 1942.84 974.301 1942.49 973.974 1942.31 973.498 1942.31 972.872 1942.31 972.464 1942.42 971.906 1942.64 971.198L1944.27 965.646C1941.93 968.449 1939.14 970.858 1935.9 972.872 1933.92 974.124 1932.1 974.75 1930.44 974.75 1928.86 974.75 1927.65 974.192 1926.8 973.076 1925.66 971.579 1925.09 969.619 1925.09 967.197 1925.09 964.312 1925.86 961.1 1927.4 957.562 1928.93 954.023 1930.99 950.812 1933.58 947.926 1936.16 945.042 1938.88 942.918 1941.74 941.558 1943.94 940.523 1946.77 940.006 1950.23 940.006 1951.1 940.006 1951.98 940.061 1952.88 940.169L1953.86 938.577ZM1632.7 938.006 1629.64 948.335C1628.41 952.445 1627.26 957.181 1626.17 962.543 1625.57 965.455 1625.27 967.333 1625.27 968.177 1625.27 969.02 1625.61 969.443 1626.29 969.443 1626.73 969.443 1627.42 969.156 1628.37 968.585 1630.06 967.578 1631.68 966.326 1633.23 964.829L1634.53 966.421C1631.43 969.252 1629.45 970.967 1628.57 971.565 1626.83 972.763 1625.17 973.648 1623.6 974.219 1622.56 974.6 1621.56 974.791 1620.58 974.791 1619.87 974.791 1619.34 974.628 1618.98 974.301 1618.63 973.974 1618.45 973.498 1618.45 972.872 1618.45 972.464 1618.56 971.906 1618.78 971.198L1620.41 965.646C1618.07 968.449 1615.29 970.858 1612.05 972.872 1610.06 974.124 1608.24 974.75 1606.58 974.75 1605 974.75 1603.79 974.192 1602.95 973.076 1601.8 971.579 1601.23 969.619 1601.23 967.197 1601.23 964.312 1602 961.1 1603.54 957.562 1605.08 954.023 1607.14 950.812 1609.72 947.926 1612.31 945.042 1615.03 942.918 1617.88 941.558 1620.09 940.523 1622.92 940.006 1626.37 940.006 1627.24 940.006 1628.13 940.061 1629.02 940.169L1630 938.577ZM1437.69 938.006 1434.62 948.335C1433.4 952.445 1432.24 957.181 1431.16 962.543 1430.56 965.455 1430.26 967.333 1430.26 968.177 1430.26 969.02 1430.6 969.443 1431.28 969.443 1431.71 969.443 1432.41 969.156 1433.36 968.585 1435.05 967.578 1436.67 966.326 1438.22 964.829L1439.52 966.421C1436.42 969.252 1434.43 970.967 1433.56 971.565 1431.82 972.763 1430.16 973.648 1428.59 974.219 1427.55 974.6 1426.55 974.791 1425.57 974.791 1424.86 974.791 1424.33 974.628 1423.97 974.301 1423.62 973.974 1423.44 973.498 1423.44 972.872 1423.44 972.464 1423.55 971.906 1423.77 971.198L1425.4 965.646C1423.06 968.449 1420.27 970.858 1417.04 972.872 1415.05 974.124 1413.23 974.75 1411.57 974.75 1409.99 974.75 1408.78 974.192 1407.94 973.076 1406.79 971.579 1406.22 969.619 1406.22 967.197 1406.22 964.312 1406.99 961.1 1408.53 957.562 1410.07 954.023 1412.13 950.812 1414.71 947.926 1417.3 945.042 1420.02 942.918 1422.87 941.558 1425.08 940.523 1427.91 940.006 1431.36 940.006 1432.23 940.006 1433.12 940.061 1434.01 940.169L1434.99 938.577ZM1284.46 938.006 1281.4 948.335C1280.18 952.445 1279.02 957.181 1277.93 962.543 1277.34 965.455 1277.04 967.333 1277.04 968.177 1277.04 969.02 1277.38 969.443 1278.06 969.443 1278.49 969.443 1279.19 969.156 1280.14 968.585 1281.82 967.578 1283.44 966.326 1284.99 964.829L1286.3 966.421C1283.2 969.252 1281.21 970.967 1280.34 971.565 1278.6 972.763 1276.94 973.648 1275.36 974.219 1274.33 974.6 1273.32 974.791 1272.34 974.791 1271.64 974.791 1271.11 974.628 1270.75 974.301 1270.4 973.974 1270.22 973.498 1270.22 972.872 1270.22 972.464 1270.33 971.906 1270.55 971.198L1272.18 965.646C1269.84 968.449 1267.05 970.858 1263.81 972.872 1261.83 974.124 1260.01 974.75 1258.35 974.75 1256.77 974.75 1255.56 974.192 1254.71 973.076 1253.57 971.579 1253 969.619 1253 967.197 1253 964.312 1253.77 961.1 1255.31 957.562 1256.84 954.023 1258.9 950.812 1261.49 947.926 1264.07 945.042 1266.79 942.918 1269.65 941.558 1271.85 940.523 1274.68 940.006 1278.14 940.006 1279.01 940.006 1279.89 940.061 1280.79 940.169L1281.77 938.577ZM1604.07 937.23C1604.89 937.23 1605.57 937.495 1606.12 938.026 1606.66 938.557 1606.93 939.176 1606.93 939.884 1606.93 940.619 1606.67 941.245 1606.14 941.762 1605.61 942.279 1604.28 942.891 1602.16 943.599 1600.15 944.28 1598.51 945.097 1597.25 946.049 1595.98 947.003 1594.6 948.459 1593.09 950.419 1591.58 952.38 1590.53 954.088 1589.93 955.544 1589.33 957 1588.41 960.381 1587.19 965.688L1585.35 973.607 1579.26 973.607 1582.12 962.624C1583.51 957.235 1584.72 952.118 1585.75 947.273 1586 946.076 1586.12 945.327 1586.12 945.028 1586.12 944.375 1585.82 944.048 1585.22 944.048 1584.81 944.048 1584.19 944.327 1583.35 944.885 1582.5 945.443 1580.98 946.824 1578.77 949.029L1577.51 947.6C1580.12 944.797 1582.72 942.694 1585.32 941.292 1587.92 939.891 1589.91 939.19 1591.3 939.19 1591.79 939.19 1592.18 939.305 1592.46 939.537 1592.75 939.768 1592.89 940.061 1592.89 940.414 1592.89 940.77 1592.71 941.714 1592.35 943.245L1590.58 950.591C1593.33 946.247 1596.44 942.53 1599.9 939.443 1601.56 937.967 1602.95 937.23 1604.07 937.23ZM1829.02 930.497 1826.09 941.925 1834.54 941.925 1833.88 944.824 1825.43 944.824 1821.87 958.506C1820.74 962.613 1820.17 965.47 1820.17 967.075 1820.17 967.809 1820.33 968.34 1820.64 968.667 1820.95 968.993 1821.38 969.156 1821.93 969.156 1822.77 969.156 1824.06 968.653 1825.8 967.646 1828.09 966.312 1830.26 964.802 1832.33 963.114L1833.88 964.992C1827.93 969.483 1823.94 972.232 1821.93 973.239 1819.91 974.246 1818.29 974.75 1817.07 974.75 1816.06 974.75 1815.27 974.383 1814.68 973.648 1814.1 972.913 1813.81 971.715 1813.81 970.055 1813.81 968.095 1814.32 965.101 1815.36 961.073L1819.51 944.824 1812.9 944.824 1813.63 941.925 1820.25 941.925 1822.54 932.984ZM1397.21 930.497 1394.28 941.925 1402.73 941.925 1402.07 944.824 1393.62 944.824 1390.06 958.506C1388.93 962.613 1388.36 965.47 1388.36 967.075 1388.36 967.809 1388.52 968.34 1388.83 968.667 1389.14 968.993 1389.57 969.156 1390.12 969.156 1390.96 969.156 1392.25 968.653 1393.99 967.646 1396.28 966.312 1398.46 964.802 1400.52 963.114L1402.07 964.992C1396.12 969.483 1392.13 972.232 1390.12 973.239 1388.1 974.246 1386.49 974.75 1385.26 974.75 1384.25 974.75 1383.46 974.383 1382.87 973.648 1382.29 972.913 1382 971.715 1382 970.055 1382 968.095 1382.51 965.101 1383.55 961.073L1387.7 944.824 1381.09 944.824 1381.82 941.925 1388.44 941.925 1390.73 932.984ZM1867.13 916.286C1868.68 916.286 1869.81 916.551 1870.54 917.082 1871.26 917.613 1871.62 918.327 1871.62 919.225 1871.62 920.042 1871.29 920.722 1870.64 921.267 1869.98 921.811 1869.06 922.083 1867.86 922.083 1866.96 922.083 1865.41 921.879 1863.21 921.471 1862.23 921.28 1861.36 921.185 1860.59 921.185 1859.23 921.185 1858.13 921.92 1857.29 923.39 1856.66 924.533 1855.8 927.432 1854.71 932.086L1851.38 946.416C1853.58 943.994 1855.75 942.218 1857.89 941.088 1860.02 939.959 1861.9 939.394 1863.54 939.394 1865.44 939.394 1866.97 940.156 1868.11 941.68 1869.25 943.204 1869.82 945.504 1869.82 948.58 1869.82 953.044 1868.77 957.412 1866.68 961.685 1864.58 965.959 1861.99 969.211 1858.91 971.443 1855.82 973.675 1852.8 974.791 1849.87 974.791 1847.36 974.791 1845.36 974.056 1843.87 972.586 1842.37 971.116 1841.62 969.211 1841.62 966.87 1841.62 964.992 1841.99 962.379 1842.72 959.031L1847.54 937.434C1848.71 932.154 1850.18 928.133 1851.95 925.37 1853.72 922.607 1856.04 920.402 1858.93 918.756 1861.81 917.109 1864.54 916.286 1867.13 916.286ZM1571.13 916.286C1572.68 916.286 1573.82 916.551 1574.54 917.082 1575.26 917.613 1575.62 918.327 1575.62 919.225 1575.62 920.042 1575.29 920.722 1574.64 921.267 1573.99 921.811 1573.06 922.083 1571.86 922.083 1570.96 922.083 1569.41 921.879 1567.21 921.471 1566.23 921.28 1565.36 921.185 1564.6 921.185 1563.23 921.185 1562.13 921.92 1561.29 923.39 1560.66 924.533 1559.8 927.432 1558.72 932.086L1555.38 946.416C1557.58 943.994 1559.75 942.218 1561.89 941.088 1564.02 939.959 1565.91 939.394 1567.54 939.394 1569.44 939.394 1570.97 940.156 1572.11 941.68 1573.25 943.204 1573.82 945.504 1573.82 948.58 1573.82 953.044 1572.78 957.412 1570.68 961.685 1568.59 965.959 1565.99 969.211 1562.91 971.443 1559.82 973.675 1556.81 974.791 1553.87 974.791 1551.37 974.791 1549.37 974.056 1547.87 972.586 1546.37 971.116 1545.62 969.211 1545.62 966.87 1545.62 964.992 1545.99 962.379 1546.73 959.031L1551.54 937.434C1552.71 932.154 1554.18 928.133 1555.95 925.37 1557.72 922.607 1560.04 920.402 1562.93 918.756 1565.81 917.109 1568.55 916.286 1571.13 916.286ZM1470.14 916.286C1471.69 916.286 1472.83 916.551 1473.55 917.082 1474.27 917.613 1474.63 918.327 1474.63 919.225 1474.63 920.042 1474.3 920.722 1473.65 921.267 1473 921.811 1472.07 922.083 1470.88 922.083 1469.98 922.083 1468.43 921.879 1466.22 921.471 1465.24 921.28 1464.37 921.185 1463.61 921.185 1462.25 921.185 1461.14 921.92 1460.3 923.39 1459.67 924.533 1458.82 927.432 1457.73 932.086L1454.39 946.416C1456.59 943.994 1458.76 942.218 1460.9 941.088 1463.03 939.959 1464.92 939.394 1466.55 939.394 1468.46 939.394 1469.98 940.156 1471.12 941.68 1472.26 943.204 1472.84 945.504 1472.84 948.58 1472.84 953.044 1471.79 957.412 1469.69 961.685 1467.6 965.959 1465.01 969.211 1461.92 971.443 1458.83 973.675 1455.82 974.791 1452.88 974.791 1450.38 974.791 1448.38 974.056 1446.88 972.586 1445.39 971.116 1444.64 969.211 1444.64 966.87 1444.64 964.992 1445 962.379 1445.74 959.031L1450.55 937.434C1451.72 932.154 1453.19 928.133 1454.96 925.37 1456.73 922.607 1459.06 920.402 1461.94 918.756 1464.82 917.109 1467.56 916.286 1470.14 916.286ZM1720.15 916.123C1721.24 916.123 1722.11 916.408 1722.76 916.98 1723.41 917.551 1723.74 918.273 1723.74 919.144 1723.74 919.987 1723.44 920.675 1722.84 921.205 1722.24 921.736 1721.42 922.002 1720.39 922.002 1719.7 922.002 1718.44 921.865 1716.58 921.593 1714.73 921.321 1713.46 921.185 1712.78 921.185 1711.82 921.185 1710.99 921.477 1710.26 922.061 1709.54 922.645 1708.85 923.902 1708.2 925.83 1707.76 927.055 1706.77 930.962 1705.23 937.549L1699.46 962.213C1698.78 965.126 1698.44 967.059 1698.44 968.012 1698.44 969.047 1698.83 969.565 1699.62 969.565 1700.11 969.565 1700.68 969.388 1701.34 969.034 1702.26 968.516 1704.06 967.224 1706.72 965.155L1707.87 966.707C1704.22 969.783 1701.51 971.824 1699.75 972.831 1697.3 974.219 1695.37 974.913 1693.95 974.913 1693.3 974.913 1692.77 974.73 1692.36 974.362 1691.95 973.994 1691.75 973.58 1691.75 973.117 1691.75 972.654 1691.9 971.892 1692.2 970.831L1693.62 965.842C1690.36 969.356 1687.64 971.74 1685.46 972.993 1683.29 974.246 1681.33 974.872 1679.59 974.872 1678.14 974.872 1676.93 974.239 1675.95 972.972 1674.97 971.705 1674.48 969.845 1674.48 967.393 1674.48 963.523 1675.81 959.075 1678.46 954.047 1681.12 949.02 1684.07 945.3 1687.32 942.889 1690.57 940.477 1693.54 939.271 1696.24 939.271 1696.83 939.271 1697.73 939.367 1698.93 939.557 1700.21 934.259 1701.43 930.394 1702.6 927.962 1703.77 925.53 1705.28 923.432 1707.13 921.665 1708.98 919.899 1711.1 918.534 1713.48 917.569 1715.86 916.605 1718.08 916.123 1720.15 916.123ZM1505.46 916.123C1506.63 916.123 1507.55 916.404 1508.21 916.965 1508.88 917.527 1509.21 918.205 1509.21 919 1509.21 919.878 1508.88 920.597 1508.23 921.159 1507.58 921.721 1506.63 922.002 1505.39 922.002 1504.57 922.002 1503.42 921.865 1501.93 921.593 1500.63 921.375 1499.42 921.267 1498.31 921.267 1497.2 921.267 1496.36 921.497 1495.79 921.958 1495 922.608 1494.29 923.976 1493.66 926.062 1493.02 928.147 1491.98 932.265 1490.55 938.414L1486.47 955.52C1484.46 964.094 1483.45 968.571 1483.45 968.952 1483.45 969.824 1483.77 970.259 1484.39 970.259 1484.99 970.259 1485.86 969.905 1487.01 969.197 1489.26 967.782 1491.52 965.972 1493.78 963.767L1495.17 965.237C1493.05 967.632 1490.54 969.817 1487.64 971.79 1484.75 973.763 1482.36 974.75 1480.48 974.75 1479.64 974.75 1478.94 974.43 1478.4 973.79 1477.86 973.151 1477.58 972.273 1477.58 971.157 1477.58 968.98 1478.43 964.462 1480.11 957.603L1484.51 939.68C1486.11 933.202 1487.46 928.86 1488.55 926.656 1490.23 923.321 1492.62 920.732 1495.7 918.888 1498.78 917.044 1502.04 916.123 1505.46 916.123ZM1799.96 916C1801.62 916 1802.87 916.327 1803.71 916.98 1804.56 917.633 1804.98 918.409 1804.98 919.307 1804.98 920.123 1804.69 920.804 1804.12 921.348 1803.55 921.893 1802.8 922.165 1801.87 922.165 1800.92 922.165 1799.12 921.879 1796.48 921.307 1795.17 921.035 1794.15 920.899 1793.41 920.899 1791.61 920.899 1789.99 922.008 1788.55 924.227 1787.1 926.445 1785.95 929.446 1785.07 933.229L1783.02 941.925 1793.84 941.925 1793.18 944.824 1782.23 944.824 1775.84 970.871C1773.85 978.792 1770.68 984.793 1766.31 988.876 1761.94 992.958 1757.2 995 1752.09 995 1750.38 995 1749.08 994.667 1748.19 994 1747.31 993.333 1746.87 992.51 1746.87 991.53 1746.87 990.686 1747.17 990.012 1747.78 989.509 1748.4 989.005 1749.27 988.753 1750.42 988.753 1750.99 988.753 1751.83 988.822 1752.95 988.958 1754.85 989.202 1756.67 989.325 1758.41 989.325 1761.11 989.325 1763.07 988.692 1764.29 987.427 1765.51 986.161 1766.74 983.065 1767.96 978.138L1776.25 944.824 1766.49 944.824 1767.23 941.925 1776.98 941.925C1778.59 935.121 1780.42 930.058 1782.49 926.737 1784.56 923.417 1787.25 920.797 1790.57 918.878 1793.89 916.96 1797.02 916 1799.96 916Z" fill="#FFFFFF" fill-rule="evenodd"/>
  </g>
</svg>