<svg width="1650" height="447" xmlns="http://www.w3.org/2000/svg" xmlns:xlink="http://www.w3.org/1999/xlink" xml:space="preserve" overflow="hidden"><g transform="translate(-1375 -1014)"><path d="M1806.93 1262.07C1795.74 1262.1 1787 1263.14 1780.71 1265.18 1774.42 1267.22 1771.22 1270.05 1771.11 1273.67 1771.11 1278.09 1774.69 1281.36 1781.86 1283.48 1789.02 1285.6 1799.77 1286.65 1814.09 1286.64 1838.37 1286.58 1860.43 1282.6 1880.27 1274.69 1855.66 1266.22 1831.21 1262.01 1806.93 1262.07ZM2882.41 1242.62C2879.9 1242.62 2876.49 1244.55 2872.17 1248.42 2867.85 1252.29 2863.99 1256.84 2860.57 1262.07 2876.72 1254.79 2884.79 1249.1 2884.79 1245.01 2884.79 1243.41 2884 1242.62 2882.41 1242.62ZM2810.85 1241.59C2806.67 1241.84 2802.5 1243.91 2798.36 1247.78 2794.22 1251.65 2790.65 1255.85 2787.66 1260.36 2785.11 1264.08 2783.22 1267.22 2781.99 1269.79 2780.76 1272.35 2780.15 1274.56 2780.15 1276.4 2780.15 1277.56 2780.42 1278.31 2780.96 1278.66 2781.51 1279.01 2782.38 1279.16 2783.56 1279.13 2786.21 1279.07 2789.36 1277.82 2792.99 1275.38 2796.62 1272.93 2800.19 1269.63 2803.69 1265.48 2807.13 1261.33 2809.8 1257.52 2811.71 1254.05 2813.61 1250.58 2814.58 1247.79 2814.61 1245.69 2814.6 1244.47 2814.27 1243.49 2813.63 1242.75 2812.98 1242 2812.05 1241.62 2810.85 1241.59ZM2230.16 1241.59C2227.43 1241.79 2224.01 1243.79 2219.92 1247.61 2215.83 1251.43 2212.07 1255.9 2208.66 1261.04 2216.08 1257.92 2221.89 1254.87 2226.1 1251.87 2230.32 1248.88 2232.46 1246.25 2232.54 1243.98 2232.57 1243.29 2232.43 1242.72 2232.12 1242.28 2231.8 1241.84 2231.15 1241.61 2230.16 1241.59ZM2082.62 1241.59C2078.93 1241.93 2074.78 1243.99 2070.16 1247.78 2065.54 1251.57 2062.08 1255.08 2059.76 1258.31 2057.36 1261.92 2055.51 1265.2 2054.22 1268.17 2052.92 1271.13 2052.27 1273.65 2052.25 1275.72 2052.24 1277.41 2052.61 1278.63 2053.36 1279.39 2054.12 1280.14 2055.34 1280.51 2057.03 1280.49 2060.94 1280.37 2065.49 1278.06 2070.68 1273.58 2075.86 1269.11 2080.75 1263.22 2085.34 1255.93 2084.95 1253.54 2084.72 1251.83 2084.66 1250.81 2084.66 1249.48 2084.84 1248.3 2085.22 1247.27 2085.59 1246.24 2086.2 1245.14 2087.05 1243.98 2086.57 1243.14 2086 1242.53 2085.34 1242.15 2084.69 1241.77 2083.78 1241.59 2082.62 1241.59ZM1761.99 1241.59C1759.26 1241.79 1755.85 1243.79 1751.75 1247.61 1747.66 1251.43 1743.91 1255.9 1740.49 1261.04 1747.91 1257.92 1753.72 1254.87 1757.94 1251.87 1762.15 1248.88 1764.3 1246.25 1764.37 1243.98 1764.4 1243.29 1764.26 1242.72 1763.95 1242.28 1763.64 1241.84 1762.98 1241.61 1761.99 1241.59ZM2177.89 1195.64C2176.18 1197.44 2174.26 1199.23 2172.11 1201 2172.61 1201.35 2173.52 1202.01 2174.84 1202.95 2176.29 1203.98 2177.43 1204.49 2178.27 1204.47 2178.21 1201.53 2178.09 1198.58 2177.89 1195.64ZM2177.76 1189.61 2177.57 1190.17 2177.71 1190.01C2177.75 1189.63 2177.76 1189.5 2177.76 1189.61ZM2790.45 1183.93C2792.5 1183.91 2794.03 1184.37 2795.06 1185.29 2796.08 1186.22 2796.59 1187.7 2796.59 1189.73 2796.51 1192.34 2795.56 1194.46 2793.73 1196.08 2791.91 1197.71 2789.68 1198.55 2787.04 1198.6 2782.66 1198.54 2780.5 1196.61 2780.56 1192.8 2780.61 1190.19 2781.53 1188.07 2783.33 1186.44 2785.13 1184.82 2787.5 1183.98 2790.45 1183.93ZM2190.15 1169.71 2189.3 1170.09C2187.94 1171.55 2186.89 1173.25 2186.18 1175.17 2186.3 1175.17 2186.68 1175.39 2187.31 1175.83 2188.28 1176.43 2188.77 1177.17 2188.77 1178.05 2188.77 1179.02 2187.27 1180.94 2184.28 1183.82 2184.15 1184.84 2184.08 1185.67 2184.08 1186.31 2187.4 1183.83 2191.43 1181.15 2196.18 1178.26 2195.46 1176.75 2194.73 1175.09 2193.98 1173.27 2192.41 1172.91 2191.34 1172.49 2190.78 1172.01 2190.31 1171.54 2190.07 1170.85 2190.07 1169.93ZM2184.97 1166.27C2184.89 1166.59 2184.6 1166.64 2184.12 1166.43L2183.95 1166.49ZM2187.73 1164.17C2187.41 1164.63 2186.73 1164.87 2185.67 1164.89 2186.35 1164.8 2186.79 1164.74 2187 1164.72L2187.73 1164.54ZM2187.82 1159.9C2185.42 1160.6 2183 1161.52 2180.56 1162.67 2181.47 1162.98 2182.64 1163.39 2184.05 1163.89 2185.63 1162.97 2186.86 1162.22 2187.74 1161.67ZM1483.82 1155.27C1472.8 1155.64 1462.97 1159.97 1454.32 1168.23 1445.67 1176.5 1438.85 1186.43 1433.84 1198.03 1428.83 1209.63 1426.28 1220.63 1426.17 1231.02 1426.13 1239.13 1427.57 1246.53 1430.48 1253.2 1433.38 1259.86 1437.97 1266.23 1444.25 1272.3 1466.62 1261.73 1483.46 1249.44 1494.78 1235.41 1506.1 1221.38 1511.77 1205.59 1511.79 1188.02 1511.74 1177.7 1509.29 1169.68 1504.46 1163.97 1499.63 1158.25 1492.75 1155.35 1483.82 1155.27ZM2646.59 1150.15C2639.07 1150.24 2632.8 1151.33 2627.79 1153.43 2622.78 1155.53 2620.18 1158.07 2619.98 1161.07 2620.01 1162.77 2620.82 1164.05 2622.41 1164.91 2624.01 1165.76 2626.27 1166.18 2629.19 1166.18 2635.58 1166.21 2642 1165.39 2648.47 1163.71 2654.94 1162.03 2662.04 1159.33 2669.79 1155.61 2665.99 1153.59 2662.33 1152.17 2658.83 1151.34 2655.33 1150.52 2651.25 1150.12 2646.59 1150.15ZM2130.81 1142.47C2132.27 1142.47 2133.63 1142.74 2134.91 1143.3 2137.21 1144.27 2138.36 1145.48 2138.36 1146.91 2138.36 1148.55 2137.27 1149.6 2135.09 1150.06 2132.14 1150.64 2129.72 1151.18 2127.85 1151.67 2126.75 1152.03 2125.21 1154.81 2123.22 1160.04 2121.76 1164.08 2120.98 1167.2 2120.88 1169.41 2122.76 1169.42 2125.63 1168.94 2129.5 1167.95 2131.85 1166.81 2133.54 1166.23 2134.58 1166.23 2135.15 1166.23 2136.7 1166.55 2139.21 1167.18 2141.27 1167.67 2142.29 1168.76 2142.29 1170.43 2142.29 1172.14 2140.27 1173.35 2136.22 1174.04 2130.14 1175.05 2125.61 1175.55 2122.62 1175.55 2121.36 1175.55 2120.69 1175.22 2120.62 1174.55 2120.62 1182.19 2120.65 1188.09 2120.69 1192.26 2126.81 1191.92 2133.23 1191.76 2139.92 1191.76 2141.09 1191.25 2142.1 1191 2142.95 1191 2144.29 1191 2145.94 1191.78 2147.89 1193.34 2151.07 1195.05 2152.67 1196.71 2152.67 1198.3 2152.67 1200.04 2151.8 1200.91 2150.06 1200.91 2149.14 1200.91 2146.58 1200.35 2142.39 1199.23 2136.94 1198.51 2129.83 1198.15 2121.09 1198.15 2113.78 1198.64 2107.1 1199.76 2101.05 1201.49 2094.97 1203.11 2091.72 1203.92 2091.31 1203.92 2089.04 1203.92 2086.79 1203.33 2084.55 1202.15 2082.41 1201.05 2081.34 1199.62 2081.34 1197.86L2082.07 1196.61C2084.06 1197.03 2085.65 1197.42 2086.83 1197.78 2088.61 1197.78 2091.22 1197.26 2094.66 1196.22 2095.38 1195.41 2095.88 1192.27 2096.15 1186.8 2096.15 1181.13 2095.87 1177.46 2095.32 1175.8 2093.47 1173.61 2092.55 1171.62 2092.55 1169.84 2092.55 1168.15 2093.19 1167.17 2094.47 1166.9L2095.47 1167.46C2096.15 1168.69 2097.05 1169.62 2098.19 1170.25 2102.23 1172.37 2104.25 1174.72 2104.25 1177.29 2104.25 1179.82 2104.07 1181.81 2103.72 1183.28 2102.15 1189.63 2100.87 1193.65 2099.87 1195.35 2103.84 1194.19 2108.42 1193.41 2113.62 1193.01 2113.29 1191.21 2113.12 1188.34 2113.12 1184.41 2113.12 1180.72 2113.46 1176.16 2114.15 1170.71 2115.49 1162.59 2117.3 1156.67 2119.59 1152.96 2111.35 1154.74 2107.01 1155.63 2106.56 1155.63 2104.46 1155.63 2102.4 1154.8 2100.36 1153.13 2098.9 1151.88 2098.17 1150.43 2098.17 1148.79L2098.96 1147.65C2101.31 1148.22 2103.14 1148.59 2104.44 1148.74 2109.54 1148.26 2116.72 1146.86 2125.97 1144.55 2127.76 1143.16 2129.38 1142.47 2130.81 1142.47ZM2179.42 1135.35 2180.41 1135.64C2181.44 1136.04 2182.1 1136.66 2182.38 1137.52 2183.39 1139.29 2184.01 1140.16 2184.25 1140.12 2186.32 1139.67 2188.54 1138.72 2190.9 1137.28 2189.98 1139.81 2188.99 1141.98 2187.94 1143.77L2185.61 1146.72 2184.37 1147.05 2179.23 1144.93C2178.06 1143.77 2177.48 1142.09 2177.48 1139.89 2177.48 1137.73 2178.13 1136.22 2179.42 1135.35ZM2203.29 1132.59C2206.72 1133.32 2208.43 1134.69 2208.43 1136.71 2208.43 1138.08 2204.61 1140.83 2196.97 1144.97L2200.58 1143.88C2202.01 1143.05 2203.11 1142.63 2203.9 1142.63 2204.84 1142.63 2205.99 1143.03 2207.33 1143.83 2208.57 1144.55 2209.18 1145.53 2209.18 1146.75 2209.18 1147.9 2208.35 1148.62 2206.69 1148.91 2204 1149.32 2200.2 1150.04 2195.29 1151.06L2194.96 1152.92C2197.05 1152.48 2198.97 1152.26 2200.72 1152.26 2201.83 1152.26 2202.92 1152.59 2203.99 1153.26 2205.28 1154.14 2205.92 1155.04 2205.92 1155.95 2205.92 1157.11 2205.12 1157.73 2203.52 1157.81 2202.49 1157.86 2201.71 1158.06 2201.16 1158.4 2198.37 1159.52 2196.15 1160.55 2194.5 1161.49 2194.46 1162.13 2194.39 1162.68 2194.29 1163.13 2196.24 1162.64 2198.87 1162.02 2202.18 1161.28 2203.68 1160.17 2204.98 1159.62 2206.07 1159.62 2207.44 1159.62 2208.97 1160.23 2210.66 1161.44 2212.24 1162.56 2213.03 1163.74 2213.03 1164.99 2213.03 1165.75 2212.75 1166.32 2212.19 1166.7L2212.14 1166.71 2212.97 1166.57C2215.93 1166.57 2218.66 1167.66 2221.15 1169.85 2222.35 1170.73 2222.94 1172.51 2222.94 1175.2 2222.94 1177.61 2222.13 1178.81 2220.5 1178.81 2219.84 1178.81 2219.01 1178.41 2218.02 1177.59 2215.94 1177.15 2214.03 1176.01 2212.28 1174.18 2214.44 1173.98 2215.61 1173.9 2215.8 1173.93 2214.15 1172.38 2212.85 1171.31 2211.87 1170.7 2210.42 1169.84 2209.69 1169.03 2209.69 1168.25L2210.44 1167.09 2209.67 1167.27C2203.57 1167.27 2198.72 1167.42 2195.13 1167.74 2196.81 1167.65 2198.26 1167.94 2199.47 1168.62 2200.22 1169.64 2200.71 1170.69 2200.93 1171.76 2201.75 1171.87 2203.77 1171.92 2206.99 1171.92 2209.07 1172.29 2210.1 1173.08 2210.1 1174.28 2210.1 1175.41 2209.66 1176.3 2208.76 1176.97 2208.21 1177.32 2207.01 1177.87 2205.15 1178.62 2204.15 1179 2203.46 1179.38 2203.08 1179.77 2204.11 1183.7 2205.34 1187.2 2206.78 1190.25 2207.59 1188.79 2208.46 1187.28 2209.4 1185.74 2207.84 1184.9 2207.06 1184.06 2207.06 1183.23 2207.06 1182.5 2207.31 1181.85 2207.81 1181.26 2208.36 1180.78 2209.12 1180.43 2210.07 1180.21 2211.1 1180.21 2212.54 1180.84 2214.38 1182.12 2215.66 1183.07 2216.29 1184.17 2216.29 1185.41 2216.29 1186.78 2214.2 1190.06 2210.02 1195.25 2213.7 1200.25 2217.72 1203.89 2222.06 1206.15 2222.83 1203.96 2223.21 1201.65 2223.21 1199.22 2223.21 1198.06 2222.95 1196.19 2222.45 1193.6 2226.53 1197.5 2228.74 1203.22 2229.07 1210.75 2229.42 1211.5 2229.6 1212.29 2229.6 1213.11 2229.6 1214.51 2228.48 1215.22 2226.23 1215.22 2223 1215.22 2219 1213.14 2214.21 1208.99 2211.78 1206.9 2209.11 1203.79 2206.2 1199.65 2203.89 1202.67 2202.04 1204.54 2200.63 1205.24 2198.58 1206.2 2196.74 1206.68 2195.11 1206.68 2192.98 1206.68 2191.92 1205.84 2191.92 1204.15 2191.92 1203.38 2192.38 1202.58 2193.32 1201.76 2194 1198.55 2194.45 1195.68 2194.66 1193.18 2196.21 1197 2197.29 1199.17 2197.89 1199.7 2199.69 1198.41 2201.32 1196.79 2202.79 1194.84 2200.48 1190.67 2198.78 1186.67 2197.69 1182.83 2191.33 1186.64 2186.76 1189.67 2184 1191.92 2184.33 1199.54 2184.5 1204.34 2184.5 1206.33 2184.5 1208.26 2184.09 1209.96 2183.26 1211.42 2182.16 1213.23 2181 1214.13 2179.79 1214.13 2178.63 1214.13 2177.7 1213.29 2176.99 1211.62 2174.27 1208.9 2172.1 1205.8 2170.46 1202.33 2168.55 1204.67 2167.22 1205.84 2166.49 1205.84 2165.68 1205.84 2165.03 1205.6 2164.54 1205.1 2163.87 1204.44 2163.54 1203.46 2163.54 1202.15 2163.54 1200.81 2163.81 1199.79 2164.36 1199.09 2166.2 1197.88 2167.48 1197.01 2168.19 1196.48 2168.91 1195.9 2172.11 1191.73 2177.8 1183.96 2177.95 1183.3 2178.05 1183.03 2178.1 1183.17 2176.99 1184.22 2175.27 1185.37 2172.94 1186.62 2168.91 1188.03 2166.59 1189.9 2165.99 1192.21 2164.19 1190.19 2163.29 1188.73 2163.29 1187.84 2163.29 1186 2164.58 1184.55 2167.17 1183.47 2168.73 1182.53 2172.74 1180.31 2179.22 1176.8 2180.03 1174.09 2181.36 1172.19 2183.21 1171.12 2181.07 1172 2178.9 1172.89 2176.72 1173.79 2173.26 1175.24 2171.13 1175.97 2170.33 1175.97 2168.71 1175.97 2167.12 1175.48 2165.56 1174.51 2164.49 1173.04 2163.96 1171.99 2163.96 1171.35 2163.96 1169.78 2164.86 1168.99 2166.65 1168.99 2167.09 1168.99 2168.23 1169.13 2170.05 1169.41 2173.34 1168.66 2177.45 1167.35 2182.38 1165.5 2177.41 1164.43 2174.92 1163.11 2174.92 1161.56 2174.92 1160.56 2175.9 1159.5 2177.86 1158.39 2180.25 1157.02 2183.63 1155.69 2188 1154.39L2188.07 1152.54C2187.35 1152.76 2186.39 1153.04 2185.17 1153.37 2181.28 1154.49 2178.48 1155.05 2176.78 1155.05 2174.48 1155.05 2172.47 1153.95 2170.74 1151.75 2170.74 1150.02 2171.33 1149.16 2172.51 1149.16 2172.89 1149.16 2173.58 1149.33 2174.57 1149.66L2184.37 1147.05 2185.11 1147.35 2185.61 1146.72 2190.53 1145.41C2194.39 1143.37 2197.58 1140.56 2200.11 1136.98 2199.73 1136.82 2199.17 1136.38 2198.44 1135.68L2198.68 1134.2C2200.11 1133.13 2201.64 1132.59 2203.29 1132.59ZM1775.16 1123.19C1772.03 1123.43 1767.99 1125.45 1763.06 1129.27 1758.13 1133.08 1753.38 1137.26 1748.83 1141.79 1744.28 1146.33 1741 1149.8 1739 1152.19 1736.18 1155.66 1733.41 1159.23 1730.71 1162.89 1728.01 1166.54 1724.59 1171.32 1720.46 1177.22 1716.32 1183.11 1710.67 1191.15 1703.52 1201.33L1712.74 1196.55C1715.25 1195.18 1720.11 1191.86 1727.33 1186.62 1734.54 1181.38 1741.98 1175.64 1749.65 1169.41 1757.32 1163.18 1763.1 1157.89 1766.98 1153.56 1770.66 1149.18 1773.78 1144.8 1776.31 1140.42 1778.85 1136.04 1780.17 1132.35 1780.28 1129.33 1780.28 1127.43 1779.85 1125.94 1779 1124.85 1778.15 1123.77 1776.87 1123.21 1775.16 1123.19ZM2927.52 1121.83C2926.31 1121.85 2924.81 1122.4 2923 1123.49 2921.2 1124.58 2919.18 1126.07 2916.95 1127.97 2913 1131.34 2908.18 1136.36 2902.49 1143.02 2896.8 1149.69 2889.34 1159.23 2880.1 1171.64 2873.92 1179.73 2868.89 1186.42 2865.01 1191.73 2861.13 1197.04 2856.61 1203.66 2851.45 1211.57 2856.62 1207.2 2860.86 1203.48 2864.16 1200.44 2867.45 1197.39 2871.52 1193.59 2876.35 1189.05 2883.83 1182.04 2890.88 1174.99 2897.5 1167.89 2904.13 1160.8 2909.47 1154.77 2913.53 1149.81 2918.83 1143.44 2922.82 1138.08 2925.52 1133.73 2928.21 1129.37 2929.56 1126.31 2929.57 1124.56 2929.59 1123.7 2929.46 1123.03 2929.18 1122.55 2928.91 1122.07 2928.35 1121.83 2927.52 1121.83ZM2373.52 1121.83C2372.46 1121.85 2370.99 1122.4 2369.12 1123.49 2367.25 1124.58 2365.19 1126.07 2362.94 1127.97 2359.03 1131.37 2354.31 1136.43 2348.78 1143.15 2343.25 1149.88 2335.81 1159.37 2326.44 1171.64L2297.44 1211.57C2308.63 1202.23 2319.86 1191.98 2331.13 1180.81 2342.4 1169.65 2352.1 1159.31 2360.21 1149.81 2365.21 1143.59 2369.12 1138.28 2371.94 1133.85 2374.76 1129.43 2376.2 1126.33 2376.24 1124.56 2376.19 1122.79 2375.28 1121.88 2373.52 1121.83ZM2617.94 1035.5C2611.75 1047.27 2602.66 1058.4 2590.67 1068.89 2578.69 1079.38 2566.16 1088.71 2553.08 1096.87 2540 1105.04 2528.73 1111.54 2519.26 1116.35 2509.79 1121.17 2504.48 1123.79 2503.32 1124.21 2470.8 1141.27 2445.1 1158.34 2426.22 1175.44 2407.34 1192.53 2393.93 1208.31 2385.97 1222.79 2378.01 1237.27 2374.14 1249.11 2374.37 1258.31 2374.48 1269.65 2378.19 1278.38 2385.5 1284.5 2392.81 1290.63 2403.09 1293.73 2416.33 1293.8 2422.05 1293.79 2427.92 1293.22 2433.94 1292.1 2439.96 1290.97 2445.57 1289.38 2450.78 1287.32 2467.25 1280.27 2484.29 1268.86 2501.91 1253.11 2519.53 1237.36 2536.14 1218.62 2551.76 1196.89L2584.17 1151.51C2593.55 1138.37 2604.31 1125.19 2616.43 1111.98 2628.56 1098.77 2641.01 1086.61 2653.78 1075.48 2666.55 1064.36 2678.6 1055.35 2689.92 1048.46 2685.65 1046.44 2681.31 1044.94 2676.91 1043.98 2672.51 1043.03 2667.07 1042.47 2660.58 1042.32L2645.23 1041.64C2638.1 1041.36 2632.57 1040.81 2628.64 1039.98 2624.71 1039.14 2621.14 1037.65 2617.94 1035.5ZM1809.94 1027.31C1802.93 1027.4 1795.55 1029.09 1787.81 1032.38 1780.07 1035.67 1772.1 1040.01 1763.89 1045.39L1759.11 1048.46C1761.44 1048.79 1763.27 1048.99 1764.62 1049.06 1765.96 1049.13 1767.2 1049.16 1768.33 1049.15 1771.52 1049.19 1777.04 1048.72 1784.88 1047.74 1792.72 1046.76 1800.11 1045.01 1807.04 1042.47 1813.97 1039.94 1817.67 1036.36 1818.13 1031.74 1818.15 1030.21 1817.51 1029.09 1816.21 1028.37 1814.91 1027.66 1812.82 1027.3 1809.94 1027.31ZM2161.71 1023.55C2148.17 1023.49 2134.31 1027.2 2120.13 1034.69 2105.95 1042.17 2090.82 1053.82 2074.72 1069.62 2072.32 1071.5 2067.22 1076.86 2059.41 1085.7 2051.6 1094.54 2042.15 1107.83 2031.05 1125.58L2031.4 1125.58C2038.47 1124.65 2049.31 1122.76 2063.93 1119.91 2078.55 1117.06 2096.47 1110.64 2117.7 1100.67 2138.49 1090.27 2154.57 1079.76 2165.93 1069.15 2177.29 1058.54 2183.05 1048.8 2183.2 1039.93 2183.2 1029.01 2176.04 1023.55 2161.71 1023.55ZM1615.16 1022.19C1634.19 1022.33 1650.48 1023.83 1664.01 1026.71 1677.55 1029.59 1690.81 1033.02 1703.78 1037 1716.75 1040.98 1731.89 1044.69 1749.22 1048.12 1755.92 1043.5 1764.86 1038.33 1776.04 1032.6 1787.22 1026.87 1799.32 1023.74 1812.33 1023.21 1816.48 1023.21 1819.78 1023.9 1822.22 1025.26 1824.67 1026.63 1825.92 1028.67 1825.98 1031.4 1825.47 1037.55 1819.07 1042.74 1806.79 1046.97 1794.51 1051.2 1779.41 1053.4 1761.5 1053.58 1760.53 1053.59 1759.49 1053.57 1758.39 1053.54 1757.29 1053.5 1755.82 1053.4 1754 1053.24 1738.22 1065.3 1724.52 1079.63 1712.92 1096.22 1701.32 1112.82 1690.31 1130.3 1679.88 1148.68 1669.46 1167.06 1658.12 1184.95 1645.86 1202.35 1637.4 1214.17 1625.51 1226.74 1610.18 1240.08 1594.85 1253.41 1577.02 1264.85 1556.68 1274.39 1536.35 1283.93 1514.45 1288.92 1490.98 1289.37 1481.87 1289.39 1473.49 1288.48 1465.83 1286.64 1458.17 1284.79 1450.63 1281.83 1443.23 1277.76 1433.28 1281.34 1424.01 1284 1415.42 1285.74 1406.84 1287.48 1398.25 1288.35 1389.67 1288.34 1386.78 1288.35 1384.37 1288.25 1382.46 1288.04 1380.55 1287.84 1378.06 1287.48 1375 1286.98L1376.02 1284.93 1383.53 1284.93C1392.63 1284.94 1401.63 1284.06 1410.52 1282.29 1419.41 1280.51 1428.83 1277.75 1438.79 1274.01 1432.04 1266.77 1427.21 1259.66 1424.29 1252.68 1421.38 1245.7 1419.96 1238.25 1420.03 1230.33 1420.19 1216.26 1423.2 1203.31 1429.05 1191.49 1434.9 1179.66 1442.61 1170.15 1452.17 1162.95 1461.74 1155.75 1472.17 1152.05 1483.48 1151.85 1494.87 1151.97 1503.82 1155.83 1510.34 1163.41 1516.87 1171 1520.19 1181.59 1520.32 1195.19 1520.05 1211.2 1513.61 1226.35 1501.01 1240.66 1488.41 1254.96 1471.31 1266.53 1449.71 1275.38 1456.05 1278.92 1462.47 1281.47 1468.98 1283.01 1475.49 1284.55 1482.94 1285.31 1491.33 1285.27 1518.57 1285.31 1543.65 1277.64 1566.55 1262.24 1589.44 1246.84 1610.42 1223.47 1629.48 1192.12L1652.34 1154.58C1662.23 1138.39 1671.86 1124.41 1681.22 1112.64 1690.59 1100.87 1700.36 1090.2 1710.56 1080.63 1720.76 1071.06 1732.05 1061.47 1744.45 1051.88 1730.18 1049.01 1716.48 1045.79 1703.35 1042.22 1690.21 1038.65 1675.88 1035.53 1660.35 1032.87 1644.83 1030.21 1626.35 1028.81 1604.92 1028.67 1595.96 1028.65 1587.7 1029.12 1580.15 1030.08 1572.59 1031.04 1565.27 1032.62 1558.19 1034.81 1541.59 1040.18 1527.88 1049.15 1517.04 1061.73 1506.2 1074.3 1500.59 1087.97 1500.2 1102.72 1500.47 1115.23 1505.63 1125.35 1515.67 1133.09 1525.72 1140.82 1538.98 1144.8 1555.46 1145.03 1572.42 1144.7 1586.51 1140.41 1597.72 1132.15 1608.92 1123.89 1614.74 1113.62 1615.16 1101.35 1615.11 1094.81 1613.25 1089.72 1609.57 1086.08 1605.9 1082.44 1600.71 1080.59 1594.01 1080.54 1591.88 1080.52 1589.65 1080.72 1587.31 1081.14 1584.97 1081.55 1581.97 1082.26 1578.31 1083.27L1577.63 1081.22C1581.13 1079.87 1584.28 1078.9 1587.1 1078.32 1589.91 1077.74 1592.9 1077.45 1596.05 1077.47 1604.65 1077.54 1611.33 1079.78 1616.1 1084.21 1620.86 1088.63 1623.27 1094.8 1623.34 1102.72 1622.82 1115.36 1616.11 1125.99 1603.22 1134.62 1590.33 1143.25 1574.41 1147.74 1555.46 1148.1 1536.89 1147.84 1521.92 1143.16 1510.56 1134.07 1499.19 1124.98 1493.35 1113.05 1493.03 1098.28 1493.3 1084.13 1498.87 1071.34 1509.76 1059.9 1520.65 1048.47 1535.27 1039.36 1553.63 1032.59 1571.98 1025.82 1592.49 1022.35 1615.16 1022.19ZM2616.57 1014C2617.94 1014.03 2618.96 1014.65 2619.64 1015.88 2620.33 1017.1 2620.67 1018.75 2620.67 1020.82 2620.65 1021.46 2620.6 1022.91 2620.5 1025.18 2620.4 1027.44 2620.34 1028.72 2620.33 1029.01 2621.73 1031.92 2624.72 1034.13 2629.28 1035.62 2633.84 1037.12 2639.73 1037.88 2646.93 1037.89L2663.99 1037.89C2669.26 1037.84 2674.24 1038.35 2678.91 1039.42 2683.59 1040.49 2689.08 1042.36 2695.37 1045.05 2708.63 1037.86 2721.78 1032.37 2734.82 1028.59 2747.86 1024.81 2760.07 1022.9 2771.45 1022.87 2785.29 1022.89 2795.81 1025.25 2803 1029.95 2810.19 1034.66 2813.89 1041.62 2814.09 1050.85L2811.7 1051.19C2811.32 1042.83 2807.98 1036.53 2801.68 1032.3 2795.38 1028.07 2786.32 1025.95 2774.52 1025.94 2763.41 1025.97 2751.77 1027.88 2739.59 1031.66 2727.42 1035.44 2714.84 1040.93 2701.86 1048.12 2708.78 1053.19 2714.29 1059.35 2718.4 1066.59 2722.51 1073.83 2724.61 1081.44 2724.71 1089.41 2724.63 1101.49 2720.7 1113.24 2712.94 1124.64 2705.18 1136.04 2694.1 1146.25 2679.68 1155.27 2687.5 1161.49 2693.27 1168.15 2696.99 1175.27 2700.72 1182.39 2702.57 1190.5 2702.54 1199.62L2693.95 1224.18 2694.7 1223.85C2696.27 1223.86 2697.56 1224.27 2698.58 1225.09 2699.6 1225.91 2700.12 1227.09 2700.16 1228.63 2700.1 1230.28 2699.87 1231.42 2699.47 1232.04 2699.1 1232.7 2698.74 1233.26 2698.37 1233.7 2698 1234.15 2697.8 1234.62 2697.77 1235.11 2697.78 1235.62 2697.93 1235.97 2698.2 1236.18 2698.46 1236.38 2698.78 1236.48 2699.13 1236.48 2699.23 1236.46 2699.81 1236.41 2700.88 1236.31 2701.95 1236.21 2702.96 1236.15 2703.91 1236.14 2706.15 1236.15 2707.9 1236.72 2709.15 1237.84 2710.41 1238.96 2711.05 1240.56 2711.07 1242.62 2711.02 1243.85 2710.53 1245.31 2709.58 1247.01 2708.64 1248.71 2707.54 1250.43 2706.3 1252.17 2703.94 1255.44 2700.63 1259.99 2696.36 1265.82 2692.09 1271.65 2689.72 1275.52 2689.24 1277.42 2689.24 1278.12 2689.5 1278.69 2690.01 1279.13 2690.52 1279.57 2691.29 1279.8 2692.31 1279.81 2696.35 1279.63 2702 1277.27 2709.24 1272.73 2716.48 1268.2 2723.57 1262.59 2730.52 1255.93L2730.69 1256.16 2731.17 1255.7C2732.12 1254.78 2733.23 1253.72 2734.5 1252.51 2737.6 1249.6 2740.1 1247.15 2742.01 1245.18 2743.91 1243.2 2746.07 1240.76 2748.49 1237.84L2762.82 1237.84 2736.21 1272.99C2735.85 1273.53 2735.54 1274.15 2735.27 1274.86 2735 1275.57 2734.86 1276.2 2734.85 1276.74 2734.85 1277.47 2735.18 1278.15 2735.83 1278.79 2736.47 1279.43 2737.4 1279.77 2738.6 1279.81 2742.02 1279.58 2747.29 1277.14 2754.42 1272.48 2761.55 1267.81 2768.44 1262.3 2775.1 1255.93L2775.8 1256.89 2779.13 1253.2C2783.98 1248.62 2789.54 1244.72 2795.8 1241.51 2802.06 1238.3 2807.54 1236.62 2812.22 1236.48 2815.97 1236.53 2818.36 1238.47 2819.38 1242.28L2837.46 1214.98C2845.43 1202.69 2853.03 1191.53 2860.28 1181.5 2867.52 1171.47 2874.7 1162.61 2881.81 1154.92 2886.8 1149.76 2892.26 1144.31 2898.18 1138.59 2904.11 1132.87 2909.23 1128.19 2913.53 1124.56 2917.91 1120.99 2921.69 1118.39 2924.88 1116.75 2928.06 1115.11 2930.99 1114.3 2933.66 1114.32 2935.74 1114.33 2937.39 1114.99 2938.61 1116.28 2939.83 1117.57 2940.46 1119.42 2940.48 1121.83 2940.24 1126.86 2937.91 1132.4 2933.49 1138.46 2929.07 1144.52 2924.01 1150.57 2918.31 1156.63 2916.18 1158.95 2911.23 1163.78 2903.47 1171.13 2895.71 1178.48 2887.69 1185.71 2879.42 1192.8 2873.96 1197.82 2868.77 1202.45 2863.86 1206.7 2858.95 1210.96 2852.31 1216.44 2843.94 1223.17 2842.92 1224.53 2839.96 1229.16 2835.07 1237.06 2830.18 1244.95 2825.41 1252.72 2820.75 1260.35 2816.08 1267.98 2813.58 1272.08 2813.24 1272.65 2812.74 1273.48 2812.38 1274.2 2812.18 1274.78 2811.97 1275.36 2811.87 1275.9 2811.88 1276.4 2811.86 1277.26 2812.07 1277.93 2812.52 1278.4 2812.96 1278.88 2813.77 1279.12 2814.95 1279.13 2818.38 1278.91 2823.63 1276.53 2830.68 1272.01L2850.62 1256.04 2850.68 1255.93C2853.18 1253.42 2855.97 1250.98 2859.04 1248.59 2862.11 1246.2 2865.29 1244.1 2868.59 1242.28 2871.89 1240.46 2875.13 1239.04 2878.31 1238.01 2881.5 1236.99 2884.45 1236.48 2887.18 1236.48 2889.23 1236.48 2890.93 1237.05 2892.3 1238.18 2893.66 1239.32 2894.35 1240.8 2894.35 1242.62 2894.35 1244.21 2894.01 1245.52 2893.32 1246.54 2892.64 1247.57 2891.73 1248.76 2890.59 1250.13 2889.46 1251.26 2888.26 1252.29 2887.01 1253.2 2885.76 1254.11 2883.94 1255.24 2881.55 1256.61 2879.17 1257.97 2876.04 1259.62 2872.17 1261.56 2868.31 1263.49 2863.19 1266.05 2856.82 1269.23 2856.37 1270.37 2856.08 1271.11 2855.97 1271.45 2855.85 1271.79 2855.8 1272.42 2855.8 1273.33 2855.8 1279.02 2858.98 1281.86 2865.35 1281.86 2869.44 1281.86 2875.24 1280.04 2882.75 1276.4 2889.34 1273.21 2894.8 1271.05 2899.12 1269.92 2903.44 1268.78 2907.99 1268.21 2912.77 1268.21 2915.95 1268.21 2919.76 1268.61 2924.2 1269.4 2928.63 1270.2 2933.92 1271.51 2940.06 1273.33 2946.43 1275.38 2951.71 1277.02 2955.92 1278.28 2960.13 1279.53 2963.77 1280.44 2966.84 1281.01 2969.91 1281.57 2972.64 1281.97 2975.02 1282.2 2977.41 1282.43 2979.97 1282.54 2982.7 1282.54 2993.62 1282.54 3002.43 1280.61 3009.14 1276.74 3015.85 1272.87 3019.2 1267.64 3019.2 1261.04 3019.2 1256.72 3017.84 1253.54 3015.11 1251.49 3012.38 1249.44 3008.06 1248.08 3002.14 1247.4L3003.17 1245.01 3006.92 1245.01C3012.15 1245.01 3016.47 1246.31 3019.88 1248.93 3023.29 1251.55 3025 1255.02 3025 1259.34 3025 1263.21 3023.69 1266.96 3021.08 1270.6 3018.46 1274.24 3014.94 1277.48 3010.5 1280.32 3006.07 1283.17 3000.95 1285.44 2995.15 1287.15 2989.35 1288.85 2983.38 1289.71 2977.24 1289.71 2972.69 1289.71 2967.23 1289.14 2960.87 1288 2954.5 1286.86 2946.99 1285.04 2938.35 1282.54 2933.8 1281.4 2929.94 1280.44 2926.75 1279.64 2923.57 1278.84 2920.78 1278.22 2918.4 1277.76 2916.01 1277.31 2913.73 1277.02 2911.57 1276.91 2909.41 1276.8 2907.08 1276.74 2904.58 1276.74 2903.44 1276.74 2902.31 1276.74 2901.17 1276.74 2900.03 1276.74 2899.01 1276.97 2898.1 1277.42 2896.96 1277.42 2896 1277.48 2895.2 1277.59 2894.4 1277.71 2893.38 1277.93 2892.13 1278.28 2890.88 1278.62 2889.4 1279.13 2887.69 1279.81 2885.99 1280.49 2883.54 1281.4 2880.36 1282.54 2871.26 1286.41 2863.3 1288.34 2856.48 1288.34 2846.02 1288.34 2840.79 1284.02 2840.79 1275.38L2845.57 1265.98 2842.88 1268.03C2837.2 1272.3 2830.94 1276.4 2824.08 1280.33 2817.23 1284.26 2811.34 1286.36 2806.42 1286.64 2803.83 1286.66 2801.76 1286.19 2800.24 1285.23 2798.71 1284.27 2797.93 1282.69 2797.89 1280.49 2797.9 1280.17 2798.05 1279.7 2798.36 1279.09 2798.67 1278.47 2799.08 1277.57 2799.6 1276.4 2794.4 1280.11 2789.95 1282.75 2786.25 1284.33 2782.55 1285.91 2779.04 1286.68 2775.72 1286.64 2772.62 1286.61 2770.2 1285.73 2768.47 1283.99 2766.73 1282.26 2765.85 1279.84 2765.82 1276.74 2765.86 1275.14 2766.18 1273.4 2766.8 1271.53L2768.61 1267.53 2765.41 1270.16C2760.19 1274.34 2754.56 1278.08 2748.52 1281.39 2742.47 1284.7 2736.66 1286.45 2731.09 1286.64 2727.99 1286.62 2725.58 1285.88 2723.84 1284.42 2722.11 1282.95 2721.23 1280.85 2721.2 1278.11 2721.21 1276.61 2721.62 1275.08 2722.44 1273.5 2723.25 1271.92 2724.43 1270.04 2725.98 1267.87L2729.4 1262.58 2725.67 1265.38C2718.31 1270.8 2711.58 1275.35 2705.49 1279.04 2697.36 1283.96 2690.24 1286.49 2684.12 1286.64 2681.19 1286.62 2678.87 1285.88 2677.17 1284.42 2675.47 1282.95 2674.61 1280.85 2674.57 1278.11 2674.47 1275.04 2675.69 1271.7 2678.24 1268.08 2680.78 1264.46 2685.25 1259.5 2691.63 1253.2 2694.95 1250.03 2697.17 1247.74 2698.28 1246.33 2699.39 1244.91 2699.9 1243.91 2699.82 1243.3 2699.81 1242.47 2699.65 1241.91 2699.35 1241.64 2699.04 1241.36 2698.63 1241.23 2698.11 1241.25 2697.39 1241.27 2696.35 1241.32 2695 1241.42 2693.64 1241.52 2692.18 1241.58 2690.6 1241.59 2687.53 1245.63 2684.47 1249.07 2681.44 1251.92 2678.4 1254.76 2675.43 1257.35 2672.52 1259.68L2672.46 1259.6 2670.22 1262.11C2663.65 1267.93 2656.27 1273.14 2648.06 1277.75 2631.64 1286.98 2613.41 1291.76 2593.38 1292.1 2581.8 1292.02 2572.63 1289.79 2565.87 1285.4 2559.11 1281.01 2555.66 1274.94 2555.51 1267.19 2555.76 1257.94 2560.03 1249.32 2568.32 1241.34 2576.61 1233.36 2587.4 1226.89 2600.69 1221.94 2613.98 1216.99 2628.26 1214.44 2643.52 1214.3L2646.59 1214.3 2646.59 1217.03C2631.05 1217.82 2616.95 1220.59 2604.28 1225.34 2591.61 1230.09 2581.5 1236.15 2573.94 1243.52 2566.39 1250.88 2562.52 1258.89 2562.33 1267.53 2562.49 1273.75 2565.25 1278.7 2570.61 1282.37 2575.96 1286.04 2582.99 1287.92 2591.67 1288 2608.11 1287.75 2622.37 1284.31 2634.42 1277.68 2646.48 1271.05 2656.44 1262.75 2664.29 1252.77 2672.14 1242.79 2677.98 1232.66 2681.81 1222.36 2685.64 1212.06 2687.54 1203.12 2687.53 1195.53 2687.46 1188.17 2686.14 1181.13 2683.56 1174.42 2681.63 1169.38 2679.2 1165.17 2676.28 1161.78L2673.54 1159.02 2664.48 1162.79C2661.13 1164.03 2657.46 1165.25 2653.46 1166.44 2645.46 1168.83 2636.81 1170.11 2627.49 1170.28 2622.36 1170.29 2618.46 1169.59 2615.81 1168.19 2613.15 1166.79 2611.81 1164.64 2611.8 1161.75 2612.13 1157.82 2615.81 1154.33 2622.84 1151.26 2629.87 1148.19 2638.24 1146.56 2647.96 1146.39 2652.41 1146.36 2656.63 1146.86 2660.62 1147.89 2664.61 1148.92 2669.26 1150.69 2674.57 1153.22 2685.92 1145.51 2694.76 1135.67 2701.09 1123.7 2707.41 1111.73 2710.63 1098.82 2710.73 1084.97 2710.77 1077.4 2709.57 1070.97 2707.14 1065.7 2704.71 1060.42 2700.79 1055.7 2695.37 1051.53 2689.9 1054.96 2682.77 1060.24 2673.97 1067.37 2665.18 1074.5 2654.81 1084.76 2642.87 1098.14 2630.92 1111.53 2617.5 1129.32 2602.59 1151.51L2579.05 1186.66C2567.51 1204.25 2553.17 1221.46 2536.04 1238.31 2518.91 1255.15 2499.97 1269.13 2479.24 1280.25 2458.5 1291.37 2436.96 1297.14 2414.62 1297.55 2400.45 1297.38 2389.22 1293.63 2380.94 1286.29 2376.79 1282.63 2373.66 1278.32 2371.54 1273.37L2369.35 1262.26 2358.08 1271.73C2346.27 1280.81 2335.93 1286.12 2327.06 1287.66L2325.69 1289.37C2320.46 1295.96 2316.43 1301.48 2313.58 1305.92 2310.74 1310.35 2308.52 1313.71 2306.93 1315.98 2300.79 1324.85 2295.33 1332.59 2290.56 1339.18 2285.78 1345.78 2281.69 1351.35 2278.28 1355.9 2271.68 1364.55 2264.06 1373.31 2255.42 1382.18 2246.78 1391.05 2237.91 1399.13 2228.81 1406.4 2206.07 1425.06 2183.73 1438.82 2161.78 1447.69 2139.83 1456.56 2117.03 1461 2093.38 1461 2080.65 1461 2069.05 1459.46 2058.59 1456.39 2048.13 1453.32 2039.14 1449.06 2031.64 1443.6 2024.13 1438.14 2018.28 1431.6 2014.07 1423.98 2009.86 1416.36 2007.76 1407.88 2007.76 1398.56 2007.76 1391.28 2009.07 1383.83 2011.68 1376.21 2014.3 1368.59 2017.88 1361.82 2022.43 1355.9 2026.07 1351.35 2030.16 1347.15 2034.71 1343.28 2039.26 1339.41 2044.94 1335.54 2051.76 1331.68L2054.15 1335.43C2042.1 1342.26 2032.77 1350.73 2026.18 1360.85 2019.58 1370.97 2016.29 1381.61 2016.29 1392.76 2016.29 1401.63 2018.39 1409.7 2022.6 1416.98 2026.8 1424.26 2032.72 1430.57 2040.34 1435.92 2047.95 1441.27 2057.17 1445.36 2067.97 1448.2 2078.77 1451.05 2090.65 1452.47 2103.62 1452.47 2121.13 1452.47 2138.18 1449.57 2154.79 1443.77 2171.39 1437.97 2187.31 1429.38 2202.54 1418.01 2210.5 1412.09 2217.55 1406.4 2223.69 1400.95 2229.84 1395.49 2235.98 1389.34 2242.12 1382.52 2248.26 1375.69 2254.97 1367.62 2262.24 1358.29 2269.52 1348.97 2278.28 1337.25 2288.51 1323.15L2307.61 1297.21 2325.69 1271.62C2314.55 1282.31 2304.88 1287.66 2296.7 1287.66 2289.65 1287.66 2286.12 1284.82 2286.12 1279.13 2286.12 1277.31 2286.46 1275.49 2287.15 1273.67 2287.83 1271.85 2288.85 1270.14 2290.22 1268.55L2292.71 1265.48 2287.16 1270C2281.7 1274.19 2275.85 1277.96 2269.63 1281.32 2263.41 1284.67 2257.67 1286.44 2252.41 1286.64 2249.67 1286.66 2247.57 1286.1 2246.1 1284.93 2244.64 1283.76 2243.9 1281.83 2243.89 1279.13 2244.24 1275.51 2245.66 1271.57 2248.15 1267.31 2249.39 1265.19 2250.37 1263.54 2251.08 1262.38L2251.8 1261.25 2247.7 1264.64C2245.41 1266.43 2242.84 1268.38 2239.97 1270.46 2234.24 1274.63 2228.08 1278.32 2221.48 1281.54 2214.87 1284.76 2208.56 1286.46 2202.52 1286.64 2193.26 1286.58 2188.59 1282.94 2188.54 1275.72L2190.25 1268.51 2173.37 1280.33C2166.74 1284.26 2160.38 1286.36 2154.3 1286.64 2151.03 1286.62 2148.52 1285.88 2146.75 1284.42 2144.98 1282.95 2144.08 1280.85 2144.06 1278.11 2143.88 1275.84 2144.84 1273.2 2146.92 1270.17 2149 1267.14 2153.28 1261.94 2159.75 1254.56 2162.29 1251.54 2164.12 1249.22 2165.25 1247.61 2166.38 1245.99 2166.94 1244.79 2166.92 1243.98 2166.89 1243.63 2166.69 1243.31 2166.32 1243.04 2165.95 1242.77 2165.58 1242.63 2165.21 1242.62 2163.63 1242.63 2161.25 1243.54 2158.05 1245.35 2154.85 1247.15 2151.1 1249.77 2146.79 1253.2 2140.95 1257.86 2135.49 1262.95 2130.42 1268.47 2125.34 1273.98 2120.91 1279.58 2117.11 1285.27L2103.81 1285.27 2120.52 1259.68 2118.51 1260.84 2116.1 1263.02C2112.63 1266.07 2109.85 1268.24 2107.77 1269.53 2105 1271.26 2102.19 1272.07 2099.33 1271.96 2097.15 1271.98 2095.29 1271.6 2093.74 1270.81 2092.2 1270.02 2090.77 1268.7 2089.44 1266.84 2084.29 1272.18 2078.21 1276.87 2071.19 1280.92 2064.17 1284.97 2057.4 1287.1 2050.89 1287.32 2046.63 1287.28 2043.46 1286.24 2041.38 1284.2 2039.3 1282.16 2038.26 1279.34 2038.27 1275.72L2041.67 1266.53 2038.13 1269.45C2031.23 1273.86 2023.45 1277.7 2014.78 1280.99 1997.45 1287.55 1978.09 1290.91 1956.69 1291.07 1949.67 1291.11 1942.56 1290.6 1935.37 1289.54 1928.17 1288.47 1920.04 1286.59 1910.98 1283.91L1887.1 1277.08 1886.76 1277.08C1880.41 1279.71 1871.18 1282.47 1859.08 1285.36 1846.98 1288.24 1832.21 1289.81 1814.78 1290.05 1797.95 1290.01 1784.96 1288.55 1775.8 1285.65L1763.96 1275.16 1753.31 1281.54C1746.7 1284.76 1740.39 1286.46 1734.35 1286.64 1725.09 1286.58 1720.43 1282.94 1720.37 1275.72L1722.1 1268.46 1710.86 1276.48C1701.55 1282.68 1693.3 1286.07 1686.13 1286.64 1682.7 1286.63 1680.09 1285.88 1678.28 1284.38 1676.48 1282.88 1675.57 1280.67 1675.55 1277.76 1675.42 1275.62 1676.45 1272.99 1678.66 1269.87 1680.88 1266.75 1685.07 1261.65 1691.24 1254.56 1693.9 1251.54 1695.66 1249.22 1696.53 1247.61 1697.4 1245.99 1697.8 1244.79 1697.73 1243.98 1697.72 1243.63 1697.56 1243.31 1697.26 1243.04 1696.95 1242.77 1696.54 1242.63 1696.02 1242.62 1694.61 1242.63 1692.32 1243.54 1689.15 1245.35 1685.99 1247.15 1682.25 1249.77 1677.94 1253.2 1672.15 1257.86 1666.84 1262.95 1661.99 1268.47 1657.14 1273.98 1652.68 1279.58 1648.6 1285.27L1635.3 1285.27 1652.35 1259.68 1643.14 1264.8 1641.44 1262.75C1643.55 1260.97 1645.38 1259.33 1646.94 1257.85 1648.5 1256.36 1650.41 1254.47 1652.7 1252.17 1656.31 1248.77 1659.06 1246.11 1660.93 1244.2 1662.79 1242.28 1664.6 1240.05 1666.34 1237.5 1672.74 1228.94 1678.62 1220.55 1683.95 1212.33 1689.29 1204.12 1694.56 1196.24 1699.77 1188.71 1708.73 1175.78 1718.37 1163.83 1728.71 1152.88 1739.04 1141.92 1748.86 1133.09 1758.17 1126.38 1767.48 1119.66 1775.08 1116.21 1780.96 1116.03 1788.47 1116.08 1792.22 1119.72 1792.22 1126.94 1792.25 1131.49 1790.56 1136.47 1787.14 1141.87 1783.73 1147.28 1778.37 1153.45 1771.07 1160.38 1764.27 1166.49 1755.52 1173.3 1744.8 1180.81 1734.08 1188.33 1724.31 1194.71 1715.46 1199.97L1699.77 1209.18 1664.64 1259.34C1672.28 1252.71 1679.42 1247.28 1686.04 1243.04 1692.67 1238.81 1697.92 1236.62 1701.82 1236.48 1704.55 1236.51 1706.59 1237.21 1707.96 1238.57 1709.32 1239.92 1710.01 1241.73 1710.01 1243.98 1710.18 1246.13 1709.66 1248.4 1708.43 1250.81 1707.2 1253.21 1704.2 1257.19 1699.43 1262.75 1696.52 1266.3 1694.32 1269.26 1692.82 1271.62 1691.32 1273.98 1690.57 1275.92 1690.56 1277.42 1690.58 1278.12 1690.88 1278.69 1691.46 1279.13 1692.03 1279.57 1692.76 1279.8 1693.63 1279.81 1695.59 1279.73 1698.41 1278.61 1702.12 1276.44 1705.82 1274.27 1709.93 1271.53 1714.44 1268.21 1720.3 1263.77 1725.3 1259.68 1729.45 1255.93L1729.5 1255.99 1730.26 1254.9C1735.46 1249.51 1741.44 1245.11 1748.21 1241.72 1754.99 1238.33 1761.06 1236.58 1766.42 1236.48 1768.67 1236.45 1770.48 1236.84 1771.84 1237.63 1773.19 1238.42 1773.89 1239.74 1773.93 1241.59 1774.35 1244.89 1772.06 1248.37 1767.06 1252.04 1762.06 1255.72 1751.84 1261.34 1736.4 1268.89 1736.21 1269.55 1736 1270.19 1735.76 1270.81 1735.53 1271.43 1735.4 1272.16 1735.38 1272.99 1735.37 1275.36 1735.98 1277.1 1737.21 1278.19 1738.44 1279.29 1740.33 1279.83 1742.88 1279.81 1747.68 1279.67 1753.69 1277.39 1760.92 1272.99L1766.24 1268.84 1766.43 1269.18 1774.01 1262.24C1782.01 1259.65 1793.56 1258.34 1808.64 1258.31 1818.2 1258.33 1826.44 1258.79 1833.34 1259.69 1840.24 1260.59 1847.08 1261.84 1853.87 1263.42 1860.65 1265 1868.66 1266.83 1877.89 1268.89L1887.1 1270.94C1900.73 1265.08 1915.34 1253.76 1930.93 1236.99 1946.52 1220.21 1964.21 1197.29 1983.98 1168.23L2008.54 1132.4C1978.02 1131.71 1954.04 1126.19 1936.6 1115.85 1919.17 1105.52 1910.29 1091.47 1909.95 1073.71 1910.44 1057.28 1917.14 1043.66 1930.08 1032.85 1943.01 1022.05 1959.27 1016.45 1978.86 1016.05 1985.39 1015.95 1991.18 1016.66 1996.22 1018.18 2001.26 1019.7 2007.3 1022.63 2014.34 1026.97L2012.63 1029.35C2008.92 1027.46 2004.84 1025.44 2000.4 1023.3 1995.95 1021.15 1988.89 1019.99 1979.2 1019.8 1961.42 1020.12 1946.84 1025.2 1935.45 1035.03 1924.07 1044.86 1918.18 1057.53 1917.8 1073.03 1918.04 1090.23 1926 1103.6 1941.68 1113.12 1957.36 1122.65 1979.3 1127.48 2007.52 1127.63L2010.93 1127.63 2015.7 1121.83C2040.39 1091.59 2065.3 1067.1 2090.41 1048.38 2115.53 1029.65 2139.07 1020.01 2161.03 1019.46 2170.68 1019.52 2178.24 1021.53 2183.71 1025.47 2189.18 1029.42 2191.97 1034.92 2192.07 1041.98 2191.81 1050.65 2187.87 1059.09 2180.25 1067.31 2172.63 1075.53 2162.88 1083.19 2151.01 1090.31 2139.13 1097.42 2126.67 1103.65 2113.64 1109.01 2100.6 1114.37 2088.54 1118.53 2077.45 1121.48 2069.37 1123.62 2061.99 1125.32 2055.32 1126.56 2048.64 1127.8 2039.99 1129.07 2029.35 1130.36L2005.13 1168.57C1987.69 1195.65 1970.79 1216.83 1954.44 1232.13 1938.09 1247.42 1924.57 1258.17 1913.91 1264.37 1903.24 1270.56 1897.71 1273.55 1897.33 1273.33 1899.81 1274 1904.66 1275.23 1911.89 1277.01 1919.11 1278.78 1927.45 1280.46 1936.9 1282.05 1946.36 1283.63 1955.68 1284.48 1964.87 1284.59 1983.88 1284.42 2001.24 1281.23 2016.95 1275 2024.81 1271.88 2031.88 1268.25 2038.18 1264.12L2052.54 1251.99 2052.76 1252.37 2057.03 1248.08C2061.93 1244.45 2066.89 1241.56 2071.91 1239.42 2076.94 1237.28 2081.3 1236.18 2085 1236.14 2089.29 1236.17 2092.57 1237.29 2094.85 1239.5 2097.13 1241.72 2098.29 1244.8 2098.31 1248.76 2098.34 1250.11 2098.19 1251.33 2097.84 1252.43 2097.49 1253.52 2096.74 1255.6 2095.58 1258.66 2095.25 1259.52 2095.05 1260.26 2094.98 1260.87 2094.91 1261.49 2094.88 1261.88 2094.9 1262.07 2094.93 1263.48 2095.46 1264.67 2096.47 1265.65 2097.49 1266.63 2098.78 1267.14 2100.35 1267.19 2102.29 1267.25 2104.48 1266.44 2106.92 1264.76 2109.37 1263.07 2112.75 1260.13 2117.07 1255.93L2117.22 1256.13 2117.82 1255.55C2118.73 1254.66 2119.74 1253.64 2120.86 1252.51 2124.65 1248.92 2127.48 1246.13 2129.35 1244.15 2131.22 1242.18 2132.94 1240.07 2134.51 1237.84L2145.77 1237.84 2133.15 1259.34 2136.56 1256.61C2144.2 1250.4 2150.74 1245.5 2156.17 1241.94 2161.6 1238.37 2166.09 1236.55 2169.65 1236.48 2172.4 1236.49 2174.56 1237.14 2176.13 1238.44 2177.69 1239.73 2178.49 1241.58 2178.52 1243.98 2178.49 1245.68 2178.12 1247.32 2177.41 1248.89 2176.7 1250.46 2175.82 1252.01 2174.76 1253.54L2165.89 1265.48C2163.52 1268.68 2161.79 1271.15 2160.69 1272.9 2159.6 1274.65 2159.06 1275.93 2159.07 1276.74 2159.07 1278.79 2160.09 1279.81 2162.14 1279.81 2165.09 1279.59 2169.09 1277.8 2174.16 1274.45 2179.22 1271.11 2184.06 1267.55 2188.67 1263.79 2190.98 1261.9 2192.91 1260.31 2194.45 1259L2197.34 1256.47 2198.43 1254.9C2203.62 1249.51 2209.61 1245.11 2216.38 1241.72 2223.15 1238.33 2229.22 1236.58 2234.59 1236.48 2236.84 1236.45 2238.65 1236.84 2240.01 1237.63 2241.36 1238.42 2242.06 1239.74 2242.09 1241.59 2242.51 1244.89 2240.23 1248.37 2235.23 1252.04 2230.23 1255.72 2220.01 1261.34 2204.57 1268.89 2204.38 1269.55 2204.17 1270.19 2203.93 1270.81 2203.7 1271.43 2203.57 1272.16 2203.55 1272.99 2203.54 1275.36 2204.15 1277.1 2205.38 1278.19 2206.61 1279.29 2208.5 1279.83 2211.05 1279.81 2215.85 1279.67 2221.86 1277.39 2229.09 1272.99 2232.7 1270.78 2236.33 1268.26 2239.98 1265.42L2245.94 1260.27 2248.28 1258.14C2249.61 1256.82 2251.55 1254.95 2254.12 1252.51 2257.22 1249.6 2259.72 1247.15 2261.62 1245.18 2263.53 1243.2 2265.69 1240.76 2268.11 1237.84L2288.92 1206.11C2296.13 1195.19 2302.85 1185.72 2309.08 1177.7 2315.32 1169.68 2321.78 1162.09 2328.49 1154.92 2333.3 1149.76 2338.68 1144.31 2344.6 1138.59 2350.53 1132.87 2355.73 1128.19 2360.21 1124.56 2364.45 1121.14 2368.16 1118.58 2371.34 1116.88 2374.52 1115.17 2377.29 1114.32 2379.66 1114.32 2381.88 1114.33 2383.57 1114.99 2384.73 1116.28 2385.89 1117.57 2386.47 1119.42 2386.48 1121.83 2386.49 1124.88 2385.44 1128.42 2383.32 1132.45 2381.21 1136.48 2377.94 1141.13 2373.52 1146.39 2370.08 1150.47 2365.2 1155.62 2358.87 1161.84 2352.54 1168.05 2346.27 1174.06 2340.06 1179.86 2333.85 1185.66 2329.19 1189.97 2326.1 1192.8 2319.3 1198.97 2313.45 1204.12 2308.53 1208.24 2303.61 1212.36 2297.42 1217.34 2289.94 1223.17L2259.58 1272.65C2259.07 1273.48 2258.72 1274.2 2258.51 1274.78 2258.31 1275.36 2258.21 1275.9 2258.21 1276.4 2258.27 1278.16 2259.18 1279.07 2260.94 1279.13 2264.37 1278.91 2269.63 1276.53 2276.72 1272.01L2291.98 1259.96 2299.08 1253.54 2305.23 1248.08C2306.14 1246.94 2307.04 1245.8 2307.95 1244.67 2308.86 1243.53 2310.68 1241.59 2313.41 1238.86L2326.38 1238.86 2305.23 1267.53C2304.09 1269.35 2303.12 1270.83 2302.33 1271.96 2301.53 1273.1 2300.79 1274.01 2300.11 1274.69 2299.2 1275.6 2298.74 1276.74 2298.74 1278.11 2298.74 1280.38 2299.99 1281.52 2302.5 1281.52 2304.77 1281.52 2307.73 1280.32 2311.37 1277.93 2315 1275.55 2318.93 1272.42 2323.13 1268.55 2327.34 1264.68 2331.66 1260.13 2336.1 1254.9 2340.53 1249.67 2344.57 1244.32 2348.21 1238.86L2361.51 1238.86 2330.81 1281.86C2336.5 1280.04 2342.75 1276.85 2349.57 1272.3L2368.34 1257.16 2368.23 1256.61C2368.17 1234.77 2379.54 1211.91 2402.34 1188.02 2410.24 1179.49 2417.64 1172.67 2424.52 1167.55 2433.75 1160.38 2445.64 1152.28 2460.21 1143.24 2474.77 1134.2 2488.8 1126.26 2502.29 1119.44L2527.88 1106.47C2547.73 1096.11 2563.94 1085.63 2576.52 1075.02 2589.1 1064.4 2598.37 1055.08 2604.32 1047.05 2610.27 1039.01 2613.21 1033.69 2613.16 1031.06 2613.08 1030.52 2612.74 1029.13 2612.14 1026.88 2611.54 1024.64 2611.2 1022.73 2611.11 1021.17 2611.15 1018.93 2611.68 1017.18 2612.69 1015.92 2613.71 1014.66 2615 1014.02 2616.57 1014Z" fill="#D8DCE4" fill-rule="evenodd"/><path d="M2152.98 1358.86 2152.98 1345.92 2113.88 1362.58 2113.88 1390.95 2127.35 1385.26 2127.35 1389.66 2112.07 1396 2110 1393.93 2110 1359.89 2154.15 1341 2157 1343.72 2157 1356.92 2152.98 1358.86Z" fill="#D8DCE4" fill-rule="evenodd"/><path d="M2161 1360 2161 1367.19 2131 1381 2131 1374.06 2161 1360Z" fill="#D8DCE4" fill-rule="evenodd"/><path d="M2145 1377 2145 1391.42 2131 1398 2131 1383.49 2145 1377Z" fill="#C00000" fill-rule="evenodd"/><path d="M2148 1376.11 2148 1390 2161 1383.65 2161 1370 2148 1376.11Z" fill="#333946" fill-rule="evenodd"/></g></svg>