<svg width="165" height="165" xmlns="http://www.w3.org/2000/svg" xmlns:xlink="http://www.w3.org/1999/xlink" xml:space="preserve" overflow="hidden"><defs><clipPath id="clip0"><rect x="176" y="899" width="165" height="165"/></clipPath></defs><g clip-path="url(#clip0)" transform="translate(-176 -899)"><path d="M248.083 963.502 250.512 965.036C253.351 967.806 255.091 972.279 254.544 979.01L254.103 981.461 256.86 980.848C260.192 980.357 263.165 980.428 265.778 980.952 267.738 981.345 269.495 981.994 271.048 982.852L274.36 985.435 273.028 982.254C267.095 969.888 259.185 965.056 250.68 963.609ZM220.554 899C233.189 909.946 241.204 924.946 242.649 938.114L242.618 939.719 243.958 938.578C251.844 933.514 261.957 931.502 273.268 933.257 284.439 934.99 296.779 940.398 309.297 950.17 281.785 941.017 263.697 940.388 249.526 947.338L248.469 948.002 251.096 947.019C264.746 944.512 278.738 954.66 291.153 974.927 279.568 964.587 269.166 959.463 259.701 957.877L256.82 957.647 262.207 960.775C266.752 964.518 270.607 970.435 273.24 978.815L274.932 985.881 275.096 986.009 277.833 990.024 277.334 986.071C275.949 979.037 273.021 971.798 268.438 965.109 278.328 973.354 284.57 984.69 285.654 994.663L285.624 995.88 286.681 995.01C292.901 991.142 300.858 989.577 309.743 990.862 318.518 992.132 328.198 996.181 338 1003.54 316.408 996.71 302.192 996.304 291.025 1001.63L290.191 1002.13 292.26 1001.38C303 999.425 313.959 1007.06 323.639 1022.37 314.573 1014.58 306.416 1010.74 298.982 1009.57L296.718 1009.41 300.94 1011.76C305.684 1015.52 309.45 1022.21 311.241 1032.36 306.509 1019.74 299.503 1015.17 291.868 1013.95L289.827 1013.88 291.73 1015.03C294.691 1017.82 296.105 1022.9 293.752 1031.3 292.081 1024.21 288.366 1019.22 283.296 1016.92L279.048 1015.84 278.267 1028.12C278.462 1041.11 281.859 1053.6 289.533 1064L265.466 1064C263.114 1051.75 263.309 1038.76 267.128 1026.1L271.813 1014.53 267.157 1013.31C261.305 1012.03 254.218 1012.24 249.735 1024.18 250.758 1005.66 259.07 1001.6 265.846 1003.69L268.989 1005.17 265.076 1001.69C257.256 996.565 245.987 997.709 236.312 1013.05 243.312 991.255 259.364 988.556 268.576 995.406L269.916 996.635 267.937 993.401C265.852 990.591 263.077 988.224 259.443 986.582L253.509 984.755 253.191 986.516 252.521 984.636 245.79 984.115 251.589 982.021 250.189 978.095C246.39 970.653 240.299 966.234 232.793 965.588L232.274 965.593 229.863 977.111C224.342 1011.47 232.347 1034.97 241.391 1064L204.379 1064C201.721 1037.15 204.047 1002.78 219.274 971.667L223.752 963.849 219.241 962.595C211.788 960.869 202.774 961.095 197.149 976.827 198.328 952.396 208.876 947.098 217.51 949.895L221.518 951.87 216.518 947.255C206.535 940.436 192.207 941.871 180 962.052 188.763 933.336 209.165 929.882 220.929 938.982L222.641 940.612 220.102 936.331C214.76 928.889 205.921 923.762 191.868 923.931 202.143 919.437 210.62 918.471 217.274 919.889 222.265 920.953 226.231 923.359 229.161 926.624L232.668 931.94 232.009 926.721C230.201 917.429 226.428 907.857 220.554 899Z" fill="#D6C278" fill-rule="evenodd"/></g></svg>