<svg width="330" height="111"
  xmlns="http://www.w3.org/2000/svg"
  xmlns:xlink="http://www.w3.org/1999/xlink" xml:space="preserve" overflow="hidden">
  <defs>
    <clipPath id="clip0">
      <rect x="342" y="722" width="330" height="111"/>
    </clipPath>
  </defs>
  <g clip-path="url(#clip0)" transform="translate(-342 -722)">
    <path d="M602.116 816.807 602.116 824.172C602.447 823.87 602.808 823.609 603.201 823.388 603.594 823.168 603.99 822.965 604.389 822.78 604.789 822.594 605.178 822.405 605.557 822.212 605.936 822.02 606.273 821.8 606.57 821.552 606.866 821.305 607.1 821.013 607.272 820.676 607.444 820.339 607.531 819.929 607.531 819.448 607.531 818.636 607.252 817.994 606.694 817.519 606.136 817.045 605.388 816.807 604.451 816.807ZM543.348 816.807 543.348 827.122 543.699 827.122C544.719 827.122 545.624 826.895 546.417 826.442 547.209 825.988 547.832 825.372 548.287 824.595 548.741 823.818 548.969 822.941 548.969 821.965 548.969 820.988 548.741 820.112 548.287 819.335 547.832 818.557 547.209 817.942 546.417 817.488 545.624 817.034 544.719 816.807 543.699 816.807ZM582.68 816.684C582.156 816.684 581.688 816.804 581.275 817.045 580.861 817.285 580.541 817.612 580.314 818.025 580.086 818.437 579.973 818.918 579.973 819.469L579.973 822.171 580.179 822.171C581.901 822.171 583.276 822.491 584.302 823.13L585.387 824.115 585.387 819.469C585.387 818.918 585.27 818.437 585.036 818.025 584.802 817.612 584.481 817.285 584.075 817.045 583.668 816.804 583.203 816.684 582.68 816.684ZM637.274 815.26 644.362 815.26 644.362 816.807 638.927 816.807 638.927 823.087 639.26 822.63C639.589 822.297 639.967 822.013 640.394 821.779 641.249 821.312 642.261 821.078 643.432 821.078L643.742 821.078 643.742 822.625 643.432 822.625C642.055 822.625 640.959 823.007 640.146 823.77 639.333 824.533 638.927 825.568 638.927 826.875L638.927 827.122 644.362 827.122 644.362 828.67 637.274 828.67ZM622.42 815.26 624.073 815.26 624.073 828.67 622.42 828.67ZM600.463 815.26 604.389 815.26C605.354 815.26 606.198 815.432 606.921 815.776 607.644 816.12 608.209 816.597 608.616 817.21 609.022 817.822 609.225 818.54 609.225 819.365 609.225 819.916 609.153 820.4 609.008 820.82 608.864 821.239 608.664 821.604 608.409 821.913 608.154 822.223 607.865 822.494 607.541 822.728 607.217 822.962 606.876 823.175 606.518 823.368 607.165 823.533 607.72 823.815 608.182 824.214 608.643 824.612 609.001 825.097 609.256 825.668 609.511 826.239 609.639 826.882 609.639 827.597L609.639 828.67 607.985 828.67 607.985 827.7C607.985 827.095 607.861 826.562 607.613 826.101 607.365 825.64 607.021 825.279 606.58 825.018 606.139 824.757 605.629 824.626 605.051 824.626 604.472 824.626 603.962 824.757 603.521 825.018 603.081 825.279 602.736 825.64 602.488 826.101 602.24 826.562 602.116 827.095 602.116 827.7L602.116 828.67 600.463 828.67ZM563.652 815.26 565.305 815.26 565.305 828.67 563.652 828.67ZM541.695 815.26 543.348 815.26C544.794 815.26 546.065 815.549 547.161 816.127 548.256 816.704 549.114 817.495 549.734 818.499 550.353 819.503 550.663 820.658 550.663 821.965 550.663 823.258 550.353 824.41 549.734 825.42 549.114 826.431 548.256 827.226 547.161 827.803 546.065 828.381 544.794 828.67 543.348 828.67L541.695 828.67ZM660.724 815.074C661.523 815.074 662.226 815.236 662.832 815.559 663.438 815.882 663.914 816.329 664.258 816.9 664.603 817.471 664.775 818.135 664.775 818.891L663.121 818.891C663.121 818.217 662.898 817.67 662.45 817.251 662.002 816.831 661.427 816.622 660.724 816.622 660.325 816.622 659.956 816.708 659.619 816.88 659.281 817.051 659.012 817.285 658.813 817.581 658.613 817.877 658.513 818.21 658.513 818.582 658.513 819.035 658.63 819.407 658.864 819.696 659.099 819.984 659.412 820.235 659.805 820.449 660.197 820.662 660.628 820.854 661.096 821.026 661.565 821.198 662.033 821.387 662.502 821.594 662.97 821.8 663.4 822.054 663.793 822.357 664.186 822.66 664.499 823.031 664.734 823.471 664.968 823.911 665.085 824.461 665.085 825.121 665.085 825.837 664.902 826.476 664.537 827.04 664.172 827.604 663.673 828.047 663.039 828.371 662.405 828.694 661.682 828.855 660.869 828.855 660.084 828.855 659.357 828.694 658.689 828.371 658.021 828.047 657.487 827.583 657.087 826.978 656.688 826.373 656.488 825.63 656.488 824.75L658.141 824.75C658.141 825.245 658.258 825.685 658.492 826.07 658.727 826.455 659.05 826.758 659.464 826.978 659.877 827.198 660.345 827.308 660.869 827.308 661.613 827.308 662.219 827.105 662.688 826.699 663.156 826.294 663.39 825.768 663.39 825.121 663.39 824.654 663.273 824.269 663.039 823.966 662.805 823.663 662.491 823.406 662.099 823.192 661.706 822.979 661.275 822.787 660.807 822.615 660.339 822.443 659.87 822.254 659.402 822.047 658.933 821.841 658.503 821.594 658.11 821.305 657.717 821.016 657.404 820.655 657.17 820.222 656.936 819.788 656.818 819.242 656.818 818.582 656.818 817.935 656.994 817.347 657.346 816.818 657.697 816.288 658.169 815.865 658.761 815.549 659.353 815.233 660.008 815.074 660.724 815.074ZM582.68 815.074C583.548 815.074 584.309 815.26 584.964 815.631 585.618 816.003 586.128 816.518 586.493 817.179 586.858 817.839 587.04 818.602 587.04 819.469L587.04 828.67 585.387 828.67 585.387 828.236C585.387 826.875 584.977 825.781 584.157 824.956 583.338 824.131 582.149 823.719 580.593 823.719L579.973 823.719 579.973 828.67 578.319 828.67 578.319 819.469C578.319 818.602 578.502 817.839 578.867 817.179 579.232 816.518 579.745 816.003 580.407 815.631 581.068 815.26 581.826 815.074 582.68 815.074ZM472.464 807.229 472.275 807.803C472.18 808.377 472.23 808.78 472.405 809.029L473.144 809.281 472.972 808.683ZM526.853 797.639C525.724 806.159 523.093 812.491 518.96 816.634 514.826 820.777 509.743 823.432 503.712 824.6 499.26 825.468 495.337 825.395 491.943 824.381 488.549 823.368 485.657 821.903 483.267 819.988 480.877 818.072 478.96 816.195 477.518 814.356 476.076 812.518 475.08 811.207 474.531 810.425 476.568 817.054 479.554 822.006 483.487 825.28 487.421 828.554 491.692 830.575 496.302 831.342 500.913 832.109 505.252 832.047 509.32 831.155 512.083 830.519 515.059 828.643 518.247 825.527 521.435 822.412 524.329 818.549 526.928 813.937 529.527 809.326 531.325 804.457 532.322 799.332 532.233 799.342 531.6 799.219 530.422 798.965 529.244 798.711 528.055 798.269 526.853 797.639ZM419.431 792.771C417.728 793.19 415.59 795.333 412.959 801.416 420.068 800.356 422.884 793.49 420.991 792.845 420.518 792.684 419.999 792.632 419.431 792.771ZM598.245 792.527C593.292 792.02 586.21 807.093 589.925 808.053 594.472 809.228 602.836 794.984 599.204 792.845 598.896 792.664 598.576 792.561 598.245 792.527ZM653.8 792.462C648.847 791.955 641.765 807.028 645.48 807.988 650.027 809.163 658.391 794.919 654.759 792.78 654.451 792.599 654.131 792.496 653.8 792.462ZM559.635 790.888C561.659 790.93 563.732 791.634 565.495 793.259 567.671 795.267 565.633 800.955 560.509 797.96 563.902 789.135 552.339 791.551 558.985 799.204 568.787 810.49 546.475 817.984 544.028 805.149 543.74 803.638 547.398 799.435 550.122 801.831 552.846 804.228 550.445 806.716 547.906 806.255 547.098 813.283 560.683 809.766 552.476 801.278 547.933 796.578 553.562 790.76 559.635 790.888ZM517.486 779.798C517.519 779.956 517.808 780.952 518.352 782.784 518.896 784.616 519.497 786.335 520.157 787.939 520.87 789.449 521.67 790.724 522.557 791.763 523.445 792.802 524.347 793.783 525.265 794.707 524.851 793.391 524.496 792.165 524.201 791.028 523.906 789.892 523.526 788.806 523.062 787.773 522.478 786.433 521.752 785.103 520.886 783.781 520.019 782.459 518.886 781.131 517.486 779.798ZM588.235 777.084C584.265 783.766 580.355 790.484 576.325 797.131 566.193 813.84 574.609 810.229 581.261 803.938L581.68 803.491 581.713 803.037C581.998 801.887 582.507 800.648 583.277 799.343 587.129 792.819 593.406 790.588 597.578 790.998 600.081 791.243 601.826 792.439 601.835 794.227L602.943 791.462 610.975 791.601C603.834 802.445 594.867 817.299 609.408 804.38L610.745 803.154 617.124 792.154 624.741 792.154 620.725 797.822C632.958 784.619 640.321 793.951 633.328 801.693 627.208 808.468 628.405 813.231 636.407 805.332L637.159 804.512 637.268 802.972C637.553 801.822 638.062 800.583 638.832 799.278 642.684 792.754 648.961 790.523 653.133 790.933 655.636 791.178 657.381 792.374 657.39 794.162L664.224 782.42 672 782.42 668.838 787.666C666.61 791.328 664.258 795.123 661.96 798.725 657.05 806.422 655.064 816.685 667.99 800.977L670.175 798.237 671.164 798.237 667.857 802.788C659.025 813.645 652.087 813.288 651.158 806.19 646.21 812.297 640.225 812.147 637.936 808.628L637.121 806.348 635.632 807.707C624.547 816.842 620.501 806.411 625.849 800.725 635.56 790.4 626.403 789.135 613.8 810.403L606.46 810.541 608.632 806.795 606.23 808.699C600.467 812.745 596.399 812.339 595.603 806.256 589.665 813.583 582.234 811.902 581.49 806.2L581.53 805.628 578.889 807.93C569.98 814.067 559.117 812.823 569.262 796.44 571.299 793.149 578.31 780.932 580.203 777.222ZM503.513 775.859C502.012 775.907 500.41 776.088 498.709 776.403 492.388 777.83 487.512 780.096 484.081 783.203 482.365 784.755 480.903 786.363 479.694 788.025L477.625 791.739 481.651 791.739C478.5 796.114 476.251 799.556 474.742 802.192L474.322 803.009 474.102 805.908C474.055 806.76 474.045 807.356 474.073 807.694 474.076 807.751 474.239 808.033 474.563 808.541L474.743 808.812 474.791 808.795C475.385 808.489 476.063 808.06 476.805 807.524L478.613 806.064 478.327 805.149C478.039 803.638 481.697 799.435 484.421 801.831 487.145 804.228 484.744 806.716 482.205 806.255 481.397 813.283 494.982 809.766 486.775 801.278 482.232 796.578 487.861 790.76 493.934 790.888 495.958 790.93 498.031 791.634 499.794 793.259 501.97 795.267 499.932 800.955 494.808 797.96 498.201 789.135 486.638 791.551 493.284 799.204 501.861 809.079 485.85 816.051 480.074 809.042L479.07 807.425 477.243 808.787 475.399 809.805 476.017 810.739C477.307 812.655 479.205 814.791 481.711 817.144 484.216 819.499 487.295 821.389 490.946 822.817 494.598 824.244 498.789 824.526 503.518 823.662 508.608 822.518 512.629 820.69 515.58 818.176 518.531 815.662 520.708 812.938 522.114 810.004 523.519 807.07 524.45 804.4 524.905 801.995 525.361 799.59 525.639 797.925 525.741 797 524.578 795.986 523.4 794.771 522.208 793.356 521.016 791.941 519.971 790.319 519.074 788.49 518.503 787.284 517.995 785.943 517.549 784.466 517.103 782.989 516.751 781.704 516.494 780.611 516.237 779.518 516.105 778.944 516.1 778.889 516.073 778.819 515.32 778.45 513.841 777.779 512.363 777.108 510.322 776.554 507.718 776.116 506.416 775.897 505.015 775.812 503.513 775.859ZM563.303 748.727C559.516 748.499 555.016 748.874 549.805 749.85 544.042 751.049 538.815 752.964 534.124 755.596 529.433 758.227 525.618 761.468 522.681 765.319 519.742 769.169 518.022 773.522 517.518 778.378 518.316 779.085 519.32 780.095 520.529 781.409 521.739 782.723 522.917 784.703 524.063 787.348 524.498 788.401 524.922 789.614 525.334 790.985 525.747 792.357 526.089 793.562 526.359 794.601 526.63 795.64 526.771 796.187 526.781 796.241 526.91 796.316 527.643 796.613 528.979 797.131 530.317 797.649 531.483 797.937 532.479 797.996 532.623 796.431 533.051 793.507 533.763 789.225 534.474 784.942 535.888 780.164 538.003 774.891 540.118 769.617 543.352 764.712 547.704 760.175 549.308 758.554 551.031 757.177 552.874 756.046 554.717 754.914 556.979 753.877 559.66 752.935 562.34 751.992 565.739 750.993 569.855 749.939 569.274 749.359 567.09 748.956 563.303 748.727ZM562.18 747.71C566.124 747.697 568.979 747.944 570.744 748.451 571.128 748.643 571.362 748.893 571.444 749.202 571.527 749.511 571.666 749.836 571.864 750.175 569.157 750.803 566.787 751.511 564.753 752.299 562.718 753.087 561.044 753.868 559.728 754.643 555.243 757.332 551.728 760.836 549.185 765.157 546.641 769.477 544.805 773.891 543.678 778.398 542.55 782.904 541.869 786.78 541.633 790.025 541.397 793.27 541.344 795.162 541.474 795.699 541.585 795.831 542.273 795.463 543.539 794.595 544.805 793.727 546.201 792.609 547.725 791.241 549.25 789.873 550.457 788.504 551.344 787.135 552.114 785.83 552.796 784.068 553.39 781.848 553.983 779.629 554.455 776.986 554.805 773.92L555.831 774.143C555.88 774.424 555.804 775.367 555.6 776.972 555.397 778.577 555.028 780.41 554.496 782.47 553.964 784.529 553.229 786.381 552.291 788.026 550.791 790.356 548.942 792.351 546.744 794.01 544.546 795.67 542.758 796.783 541.381 797.348 540.061 807.743 536.727 815.714 531.379 821.264 526.032 826.813 518.758 830.492 509.558 832.301 505.315 833.229 500.675 833.233 495.637 832.313 490.6 831.393 485.986 829.08 481.798 825.376 478.656 822.598 476.216 818.773 474.477 813.903L473.584 810.806 473.387 810.914C469.843 812.256 467.257 811.073 465.863 805.841 460.698 812.292 453.478 813.344 452.621 808.083L452.717 806.892 451.825 807.707C440.741 816.842 436.695 806.411 442.042 800.725 451.754 790.4 442.596 789.135 429.993 810.403L422.653 810.541 425.623 805.421 424.611 806.406C412.048 817.12 398.399 808.55 409.081 796.854 412.146 793.498 415.714 791.879 418.887 791.419 420.077 791.246 421.212 791.236 422.243 791.359 429.464 792.218 431.645 799.565 412.544 802.937 412.924 809.539 417.044 811.63 424.028 805.536L427.694 801.85 433.317 792.154 440.934 792.154 436.918 797.822C441.506 792.871 445.408 791.089 448.126 791.203 452.655 791.394 453.892 796.854 449.521 801.693 443.401 808.467 444.598 813.231 452.601 805.332L452.866 805.042 452.938 804.162C453.748 801.033 455.845 796.866 459.769 791.6L468.079 791.462C451.275 812.471 459.707 814.321 469.717 799.235L469.976 798.815 469.716 797.728C468.502 791.368 468.908 785.44 470.933 779.943 472.959 774.445 476.054 769.82 480.22 766.065 484.386 762.311 489.071 759.868 494.278 758.736 497.431 758.183 500.037 758.042 502.097 758.313 504.155 758.584 505.222 758.762 505.296 758.846L505.282 759.827C505.173 759.75 504.046 759.585 501.9 759.332 499.754 759.078 497.243 759.2 494.368 759.695 489.567 760.735 485.144 763.056 481.097 766.657 477.05 770.258 474.001 774.733 471.95 780.082 469.9 785.432 469.468 791.249 470.656 797.534L470.693 797.657 471.877 795.743C472.6 794.494 473.321 793.159 474.034 791.739L476.438 791.739 479.219 787.093C480.478 785.45 481.987 783.85 483.747 782.292 487.266 779.176 492.188 776.9 498.515 775.465 501.823 774.853 504.812 774.741 507.481 775.13 510.151 775.52 512.275 776.022 513.854 776.637 515.434 777.252 516.242 777.592 516.28 777.656 516.612 774.878 517.193 772.543 518.023 770.653 518.853 768.762 519.95 766.946 521.314 765.203 524.138 761.24 527.985 757.881 532.856 755.125 537.727 752.369 543.319 750.333 549.632 749.017 554.053 748.158 558.236 747.723 562.18 747.71ZM436.995 726.606C440.99 727.117 444.711 731.129 444.535 741.138 444.281 755.611 418.314 795.564 358.67 822.155 352.83 827.5 345.282 833.399 344.128 828.514 342.974 823.629 351.768 819.85 355.9 819.389 374.666 802.292 396.253 756.669 381.383 746.576 374.834 742.131 342.523 759.312 348.144 785.287 353.042 807.915 382.214 773.443 370.026 759.111 384.999 768.527 369.174 794.092 354.515 794.965 339.856 795.837 333.494 771.992 361.44 749.433 387.176 728.657 433.594 753.581 362.548 817.177 397.54 798.467 430.501 777.729 431.517 741.691 422.919 734.634 430.337 725.756 436.995 726.606ZM607.008 722C611.995 726.301 615.159 732.195 615.729 737.368L615.717 737.999 616.246 737.551C619.359 735.561 623.351 734.771 627.816 735.46 632.226 736.141 637.098 738.266 642.039 742.105 631.179 738.509 624.039 738.262 618.444 740.993L618.027 741.254 619.064 740.867C624.453 739.882 629.976 743.87 634.877 751.833 630.303 747.77 626.197 745.757 622.461 745.133L621.323 745.043 623.45 746.272C625.244 747.743 626.766 750.068 627.806 753.36L628.473 756.137 628.538 756.187 629.619 757.765 629.422 756.212C628.875 753.448 627.719 750.603 625.91 747.975 629.814 751.215 632.278 755.669 632.706 759.587L632.694 760.065 633.112 759.724C635.567 758.204 638.708 757.589 642.215 758.094 645.679 758.593 649.5 760.184 653.37 763.074 649.108 761.733 645.574 761.022 642.555 760.909L635.351 762.227 635.35 762.227 635.269 762.242 635.269 762.243 635.268 762.243 634.498 762.522 634.497 762.523 635.269 762.243 635.351 762.227 638.501 762.345C641.685 763.147 644.835 765.962 647.701 770.474 644.122 767.413 640.902 765.903 637.967 765.446L637.074 765.382 638.741 766.305C640.613 767.782 642.1 770.411 642.807 774.399 640.939 769.439 638.173 767.644 635.159 767.167L634.353 767.139 635.105 767.591C636.273 768.686 636.832 770.684 635.903 773.984 635.243 771.196 633.777 769.238 631.775 768.331L630.098 767.908 629.79 772.735C629.867 777.838 631.208 782.744 634.237 786.831L624.737 786.831C623.808 782.016 623.885 776.915 625.393 771.942L627.242 767.395 625.404 766.913C623.094 766.411 620.297 766.492 618.527 771.185 618.931 763.909 622.212 762.315 624.887 763.134L626.127 763.716 624.583 762.35C621.496 760.335 617.047 760.784 613.228 766.812 615.991 758.248 622.328 757.188 625.965 759.88L626.494 760.362 625.712 759.091C624.889 757.988 623.794 757.057 622.359 756.412L620.016 755.694 619.891 756.386 619.627 755.648 616.97 755.443 619.259 754.62 618.706 753.078C617.207 750.154 614.802 748.417 611.839 748.163L611.634 748.166 610.682 752.691C608.503 766.19 611.663 775.427 615.233 786.831L600.622 786.831C599.573 776.28 600.491 762.776 606.502 750.552L608.27 747.48 606.489 746.987C603.547 746.309 599.989 746.398 597.768 752.579 598.234 742.98 602.398 740.898 605.806 741.997L607.388 742.773 605.414 740.96C601.473 738.281 595.817 738.844 590.998 746.774 594.458 735.491 602.512 734.134 607.155 737.709L607.831 738.35 606.829 736.668C604.72 733.744 601.231 731.729 595.683 731.796 599.739 730.03 603.086 729.65 605.713 730.208 607.683 730.626 609.248 731.571 610.405 732.854L611.79 734.942 611.529 732.892C610.815 729.241 609.326 725.48 607.008 722Z" fill="#D6C278" fill-rule="evenodd"/>
  </g>
</svg>