<svg width="1663" height="1049" xmlns="http://www.w3.org/2000/svg" xmlns:xlink="http://www.w3.org/1999/xlink" xml:space="preserve" overflow="hidden"><defs><clipPath id="clip0"><rect x="1386" y="713" width="1663" height="1049"/></clipPath></defs><g clip-path="url(#clip0)" transform="translate(-1386 -713)"><path d="M1880.1 938.836C1970.06 604.277 2390.07 658.127 2399.24 990.395 3024.1 958.601 3079.54 1328.39 3038.72 1463.02 3002.81 1581.43 2767.68 1861.02 2298.68 1725.97 2017.33 1806.74 1976.65 1694.17 2082.94 1608.24 2052.29 1582.18 2038.82 1557.83 2019.34 1524.89L1953.16 1576.45C1305.37 1239.02 1373.99 1052.49 1403.93 961.179 1474.78 745.102 1760.91 691.067 1880.1 938.836Z" fill="#EB004D" fill-rule="evenodd"/><path d="M1592.37 1372.34C1447.31 1265.39 1393.42 1435.17 1419.22 1489.22 1445.02 1543.27 1582.63 1611.45 1705.9 1621 1826.31 1405.19 1814.27 1349.61 1778.15 1297.86 1742.02 1246.1 1609 1195.11 1592.37 1372.34Z" fill="#FF72A1" fill-rule="evenodd"/><path d="M2513.5 1038C2778.32 1038 2993 1187.98 2993 1373 2993 1558.02 2778.32 1708 2513.5 1708 2447.29 1708 2384.22 1698.63 2326.86 1681.67L2298.52 1672.14 2291.96 1673.95C2235.81 1688.38 2180.33 1698.01 2105.04 1695.4 2083.9 1694.67 2081.6 1684.38 2099.02 1665.34 2109.02 1656.25 2123.45 1643.23 2139.41 1628.47L2166.2 1602.9 2115.89 1560.3C2064.19 1506.84 2034 1442.38 2034 1373 2034 1187.98 2248.68 1038 2513.5 1038Z" fill="#FFFFFF" fill-rule="evenodd"/><path d="M2260 1378.5C2260 1355.03 2278.8 1336 2302 1336 2325.2 1336 2344 1355.03 2344 1378.5 2344 1401.97 2325.2 1421 2302 1421 2278.8 1421 2260 1401.97 2260 1378.5Z" fill="#EB004D" fill-rule="evenodd"/><path d="M2471 1378.5C2471 1355.03 2489.8 1336 2513 1336 2536.2 1336 2555 1355.03 2555 1378.5 2555 1401.97 2536.2 1421 2513 1421 2489.8 1421 2471 1401.97 2471 1378.5Z" fill="#EB004D" fill-rule="evenodd"/><path d="M2684 1378.5C2684 1355.03 2702.8 1336 2726 1336 2749.2 1336 2768 1355.03 2768 1378.5 2768 1401.97 2749.2 1421 2726 1421 2702.8 1421 2684 1401.97 2684 1378.5Z" fill="#EB004D" fill-rule="evenodd"/></g></svg>