<svg width="3099" height="1973"
  xmlns="http://www.w3.org/2000/svg"
  xmlns:xlink="http://www.w3.org/1999/xlink" xml:space="preserve" overflow="hidden">
  <defs>
    <clipPath id="clip0">
      <rect x="678" y="249" width="3099" height="1973"/>
    </clipPath>
  </defs>
  <g clip-path="url(#clip0)" transform="translate(-678 -249)">
    <path d="M2100.85 283.871C2228.45 289.13 2356.74 350.341 2451.38 470.147 2517.33 553.634 2564.96 640.312 2571.2 745.164L2569.97 801.929 2574.39 801.111C2637.67 791.782 2703.2 786.883 2770.32 786.883 3307.24 786.883 3742.5 1100.42 3742.5 1487.19 3742.5 1873.96 3307.24 2187.5 2770.32 2187.5 2636.09 2187.5 2508.21 2167.9 2391.9 2132.47L2388.66 2131.34 2378.88 2133.21C2162.12 2172.67 2004.77 2186.78 1946.53 2150.33 1838.04 2082.45 1912.48 1968.75 1991.84 1913.28L1996.77 1910.15 1964.17 1878.74C1937.96 1850.8 1914.48 1821.42 1894 1790.8L1875.58 1760.46 1849.3 1784.91C1822.37 1809.64 1794.54 1834.86 1765.79 1860.59L1765.79 1860.59C1663.68 1806.06 1570.72 1754.04 1486.2 1704.27L1437.72 1675.18 1437.49 1675.81C1408.63 1749.82 1364.82 1839.37 1302.49 1948.91L1302.49 1948.91C810.283 1839.86 754.108 1725.72 769.336 1584.52 777.303 1510.65 818.072 1456.33 872.03 1431.37 932.733 1403.28 1010.13 1412.34 1076.29 1472.49L1103.87 1501.43 1103.87 1501.43 1103.87 1501.43 1103.87 1501.43 1100.95 1465.83 1101.63 1451.05 1074.86 1430.79C664.447 1110.96 668.087 895.028 769.884 672.504 843.983 510.526 981.493 415.159 1128.45 395.262 1317.41 369.68 1521.98 468.852 1627.51 711.607L1627.51 711.608C1677.42 421.763 1888.19 275.106 2100.85 283.871Z" stroke="#FFFFFF" stroke-width="68.75" stroke-linecap="round" stroke-linejoin="round" stroke-miterlimit="10" fill="#FFFFFF" fill-rule="evenodd"/>
    <path d="M1128.07 394.394C1317.03 368.81 1521.63 467.989 1627.16 710.761L1627.16 710.761C1707.03 246.978 2198.69 149.781 2451.08 469.284 2662.14 736.46 2685.57 1036.32 1765.44 1859.82L1765.44 1859.82C676.212 1278.13 627.833 981.276 769.474 671.655 843.578 509.666 981.097 414.292 1128.07 394.394Z" fill="#EB004D" fill-rule="evenodd"/>
    <path d="M871.627 1430.57C941.006 1398.47 1032.19 1414.89 1103.48 1500.64L1103.48 1500.64C1075.45 1304.38 1252.09 1208.5 1389.54 1308.27 1504.48 1391.7 1551.45 1509.94 1302.12 1948.15L1302.12 1948.15C809.875 1839.09 753.697 1724.94 768.926 1583.73 776.893 1509.86 817.665 1455.54 871.627 1430.57Z" fill="#FF72A1" fill-rule="evenodd"/>
    <path d="M2770 786C3306.82 786 3742 1099.62 3742 1486.5 3742 1873.38 3306.82 2187 2770 2187 2635.8 2187 2507.94 2167.4 2391.65 2131.95L2388.41 2130.83 2378.63 2132.69C2161.92 2172.17 2004.6 2186.28 1946.37 2149.82 1837.9 2081.92 1912.32 1968.19 1991.67 1912.71L1996.6 1909.58 1964 1878.16C1859.2 1766.36 1798 1631.58 1798 1486.5 1798 1099.62 2233.18 786 2770 786Z" fill="#EB004D" fill-rule="evenodd"/>
    <path d="M2770 881C3252.7 881 3644 1152.09 3644 1486.5 3644 1820.91 3252.7 2092 2770 2092 2649.33 2092 2534.36 2075.06 2429.8 2044.42L2382.57 2028.66 2350.09 2037C2208.61 2070.36 1982.78 2090.45 1989.36 2055.76 1995.54 2023.17 2072.49 1965.07 2129.59 1914.19L2139.32 1905 2095.58 1871.65C1970.9 1766.99 1896 1632.8 1896 1486.5 1896 1152.09 2287.3 881 2770 881Z" fill="#FFFFFF" fill-rule="evenodd"/>
    <path d="M2384 1417C2425.97 1417 2460 1451.25 2460 1493.5 2460 1535.75 2425.97 1570 2384 1570 2342.03 1570 2308 1535.75 2308 1493.5 2308 1451.25 2342.03 1417 2384 1417Z" fill="#EB004D" fill-rule="evenodd"/>
    <path d="M2770 1417C2811.97 1417 2846 1451.25 2846 1493.5 2846 1535.75 2811.97 1570 2770 1570 2728.03 1570 2694 1535.75 2694 1493.5 2694 1451.25 2728.03 1417 2770 1417Z" fill="#EB004D" fill-rule="evenodd"/>
    <path d="M3156 1417C3197.97 1417 3232 1451.25 3232 1493.5 3232 1535.75 3197.97 1570 3156 1570 3114.03 1570 3080 1535.75 3080 1493.5 3080 1451.25 3114.03 1417 3156 1417Z" fill="#EB004D" fill-rule="evenodd"/>
  </g>
</svg>