<svg width="518" height="424" xmlns="http://www.w3.org/2000/svg" xmlns:xlink="http://www.w3.org/1999/xlink" overflow="hidden"><defs><clipPath id="clip0"><rect x="381" y="194" width="518" height="424"/></clipPath><radialGradient cx="1.7145e+06" cy="1.55734e+06" r="2.31621e+06" fx="1.7145e+06" gradientUnits="userSpaceOnUse" spreadMethod="pad" id="fill1" gradientTransform="matrix(0.000104987 0 0 0.000104987 460 195)"><stop offset="0" stop-color="#0066B2"/><stop offset="0.25" stop-color="#0066B2"/><stop offset="0.5" stop-color="#00A551"/><stop offset="0.75" stop-color="#EC1C24"/><stop offset="1" stop-color="#EC1C24"/></radialGradient></defs><g clip-path="url(#clip0)" transform="translate(-381 -194)"><path d="M646.204 433.972 637.713 452.731 636.935 453.772 642.21 452.852 650.206 450.714ZM648.365 314.643 678.669 441.388 686.726 438.223C700.842 431.721 712.415 423.237 721.446 412.771 730.477 402.305 735.144 389.499 735.447 374.354 734.938 354.082 726.95 339.717 711.486 331.259 696.022 322.801 676.139 317.539 651.837 315.473ZM612.171 291.629 564.174 297.759C560.736 298.154 557.928 299.3 555.749 301.197 553.57 303.093 551.73 305.692 550.229 308.993L546.742 316.353C544.969 320.105 544.647 322.575 545.776 323.761 546.905 324.948 548.518 325.577 550.616 325.65 567.623 327.591 583.827 331.628 599.228 337.759 606.929 340.824 613.903 344.6 620.151 349.086L627.579 356.076ZM653.867 286.304 641.954 287.826 645.599 303.072 646.039 301.915ZM814.741 195C817.031 195.105 818.547 195.864 819.289 197.276 820.031 198.688 820.192 200.125 819.773 201.585 817.483 208.13 813.935 214.7 809.129 221.293 804.324 227.887 799.228 233.584 793.842 238.386L699.808 250.395C696.37 250.79 693.562 251.936 691.383 253.832 689.204 255.729 687.364 258.328 685.863 261.628L682.376 268.988C680.603 272.741 680.281 275.211 681.41 276.397 682.539 277.583 684.152 278.213 686.25 278.285 703.257 280.227 719.461 284.263 734.863 290.395 750.263 296.526 762.76 305.497 772.35 317.31 781.941 329.122 786.524 344.522 786.101 363.508 784.893 384.418 777.738 402.253 764.636 417.014 751.534 431.774 735.09 443.508 715.304 452.216 707.231 455.693 698.634 458.764 689.514 461.43L683.782 462.774 692.407 498.849 663.377 505.802 654.599 469.088 630.572 472.602 618.921 473.418 606.842 484.249C598.62 490.116 589.563 495.227 579.67 499.581 563.524 506.534 545.284 511.866 524.951 515.577 504.618 519.288 484.934 521.429 465.899 522 462.278 520.52 460.327 517.977 460.045 514.372 459.763 510.768 460.811 508.033 463.19 506.166 476.553 505.451 491.015 503.468 506.576 500.216 522.137 496.965 536.975 492.088 551.092 485.587 565.208 479.085 576.781 470.601 585.812 460.135 594.843 449.669 599.51 436.863 599.813 421.719 599.303 401.446 591.316 387.081 575.852 378.623 560.388 370.166 540.505 364.904 516.203 362.838 512.12 362.491 509.559 361.248 508.519 359.109 507.48 356.97 508.109 353.694 510.405 349.28L551.391 267.544C553.312 263.428 555.765 260.619 558.751 259.118 561.737 257.617 566.515 256.552 573.084 255.922L602.728 252.132 594.603 218.151 623.633 211.198 632.509 248.323 675.681 242.803 687.025 220.179C688.946 216.064 691.399 213.255 694.385 211.754 697.371 210.253 702.149 209.188 708.718 208.558Z" fill="url(#fill1)" fill-rule="evenodd"/><path d="M510.285 592.502C508.162 593.291 506.098 594.752 504.092 596.884 502.085 599.017 501.082 600.738 501.082 602.047 501.082 602.22 501.099 602.306 501.132 602.306 502.214 602.306 505.265 599.038 510.285 592.502ZM558.457 591.985C557.411 593.369 555.921 595.071 553.988 597.09 552.839 598.994 552.12 600.347 551.833 601.149L551.718 601.646 551.782 601.63C552.364 601.375 553.552 600.227 555.344 598.187 557.393 595.855 558.418 593.988 558.418 592.587 558.418 592.33 558.431 592.129 558.457 591.985ZM527.586 584.54C525.542 586.663 524.521 588.38 524.521 589.689 524.521 590.041 524.675 590.217 524.985 590.217 525.811 590.217 527.158 589.269 529.024 587.374 527.962 587.173 527.432 586.41 527.432 585.085 527.432 584.741 527.483 584.56 527.586 584.54ZM606.914 582.578C606.15 582.578 604.801 583.594 602.867 585.626 601.9 586.643 601.174 587.509 600.691 588.227L599.967 589.93 599.939 589.944C599.957 589.944 599.965 589.94 599.965 589.933L599.967 589.93 601.398 589.159C602.065 588.636 602.914 587.851 603.944 586.805 606.003 584.711 607.035 583.357 607.04 582.742 607.04 582.633 606.998 582.578 606.914 582.578ZM592.669 582.364C592.037 582.364 590.593 583.446 588.335 585.61 586.077 587.774 584.948 589.177 584.948 589.818 584.948 589.902 584.977 589.944 585.035 589.944 585.652 589.944 587.105 588.883 589.395 586.76 591.684 584.637 592.83 583.252 592.833 582.605 592.833 582.444 592.778 582.364 592.669 582.364ZM475.623 582.364C474.992 582.364 473.547 583.446 471.289 585.61 469.031 587.774 467.902 589.177 467.902 589.818 467.902 589.902 467.932 589.944 467.99 589.944 468.607 589.944 470.06 588.883 472.349 586.76 474.639 584.637 475.784 583.252 475.787 582.605 475.787 582.444 475.733 582.364 475.623 582.364ZM438.61 582.364C437.978 582.364 436.534 583.446 434.276 585.61 432.018 587.774 430.889 589.177 430.889 589.818 430.889 589.902 430.918 589.944 430.976 589.944 431.593 589.944 433.046 588.883 435.335 586.76 437.625 584.637 438.771 583.252 438.773 582.605 438.773 582.444 438.719 582.364 438.61 582.364ZM531.375 582.267C530.888 582.267 530.366 582.616 529.809 583.314 529.252 584.013 528.974 584.638 528.974 585.189 528.974 585.698 529.217 586.015 529.702 586.14 530.051 585.785 530.43 585.28 530.839 584.626 531.356 583.727 531.615 583.054 531.615 582.605 531.615 582.38 531.535 582.267 531.375 582.267ZM563.09 582.17C562.082 582.17 560.38 583.25 557.984 585.412 555.587 587.573 554.388 589.113 554.388 590.031 554.388 590.064 554.393 590.081 554.401 590.081 555.344 590.081 557.039 589.014 559.487 586.881 561.936 584.748 563.16 583.232 563.16 582.333 563.16 582.224 563.137 582.17 563.09 582.17ZM394.727 579.39 391.701 579.463 389.37 582.267 392.534 582.163ZM394.827 572.937C395.336 572.937 395.591 573.181 395.591 573.668 395.591 573.911 394.62 575.216 392.679 577.583L395.743 577.441 397.584 575.03C398.632 573.66 399.371 572.976 399.801 572.976 400.297 572.976 400.545 573.213 400.545 573.688 400.545 574.079 399.588 575.305 397.672 577.369L398.703 577.33C399.379 577.33 399.717 577.587 399.717 578.102 399.717 578.857 399.187 579.293 398.129 579.41L396.666 579.371 394.478 582.131 395.327 582.118C396.197 582.101 396.632 582.401 396.632 583.017 396.632 583.812 395.569 584.204 393.443 584.191L388.89 591.031C388.627 591.589 388.326 591.869 387.987 591.869 387.453 591.869 387.186 591.593 387.186 591.042 387.186 590.739 387.704 589.768 388.739 588.13L391.533 584.211 388.332 584.266C387.088 586.05 385.673 588.277 384.089 590.945 383.612 591.742 383.146 592.141 382.688 592.141 382.229 592.141 382 591.897 382 591.409 382 590.698 383.469 588.324 386.406 584.288L385.094 584.307C384.252 584.32 383.831 584.082 383.831 583.594 383.831 582.865 385.006 582.447 387.354 582.34L389.658 579.507C389.713 579.507 389.49 579.52 388.989 579.545L387.904 579.565C387.117 579.565 386.723 579.295 386.723 578.756 386.723 578.178 387.422 577.828 388.82 577.706L390.614 577.653 392.453 575.19C393.578 573.688 394.369 572.937 394.827 572.937ZM438.137 564.832C439.427 564.832 440.073 565.45 440.073 566.687 440.073 567.664 439.704 568.71 438.965 569.823 438.365 570.696 435.008 574.365 428.896 580.831 423.997 586.326 421.547 589.517 421.547 590.403 421.547 590.511 421.791 590.585 422.279 590.623L422.294 590.634 422.409 590.514C423.531 590.334 425.112 589.439 427.151 587.83L429.591 585.906 433.501 582.765C435.376 581.461 436.99 580.809 438.341 580.809 439.525 580.809 440.156 581.286 440.234 582.24 440.416 581.765 440.653 581.528 440.947 581.528 441.632 581.528 441.974 581.831 441.974 582.438 441.974 582.974 441.006 584.38 439.072 586.657 437.138 588.934 436.171 590.216 436.171 590.502 436.171 590.519 436.377 590.534 436.788 590.546L437.241 590.727 437.602 590.52C438.491 590.299 439.133 590.08 439.525 589.863 440.374 589.415 442.06 588.18 444.581 586.159 445.736 585.252 447.363 583.839 449.463 581.921 450.364 580.972 451.046 580.498 451.511 580.498 452.486 580.498 452.974 580.856 452.974 581.571 452.974 582.24 452.262 583.32 450.84 584.813 453.215 582.273 454.976 581.003 456.124 581.003 456.563 581.003 456.974 581.15 457.356 581.442 457.737 581.735 457.928 582.112 457.928 582.573 457.928 583.158 457.588 583.771 456.907 584.412 459.082 581.881 460.953 580.615 462.52 580.615 463.636 580.615 464.193 581.088 464.193 582.035 464.193 583.026 463.159 584.591 461.09 586.73 459.02 588.869 457.986 590.106 457.986 590.44 457.986 590.519 458.204 590.562 458.641 590.569L459.015 590.703 459.422 590.514C460.545 590.334 462.126 589.439 464.165 587.83L466.604 585.906 470.514 582.765C472.39 581.461 474.003 580.809 475.355 580.809 476.539 580.809 477.17 581.286 477.248 582.24 477.429 581.765 477.667 581.528 477.961 581.528 478.645 581.528 478.987 581.831 478.987 582.438 478.987 582.974 478.02 584.38 476.086 586.657 474.152 588.934 473.185 590.216 473.185 590.502 473.185 590.519 473.39 590.534 473.802 590.546 474.213 590.559 474.418 590.792 474.418 591.247 474.418 591.765 473.856 592.024 472.732 592.024 471.633 592.024 471.083 591.519 471.083 590.51 471.083 589.836 471.426 589.114 472.112 588.341L470.371 590.284C469.173 591.185 468.185 591.635 467.409 591.635 466.067 591.635 465.396 590.953 465.396 589.588 465.396 588.925 465.541 588.381 465.832 587.955 462.823 590.629 460.633 591.966 459.261 591.966L458.898 591.839 458.449 591.976C458.261 592.008 458.041 592.024 457.79 592.024 456.546 592.024 455.923 591.456 455.923 590.318 455.923 589.225 456.826 587.644 458.632 585.576 459.986 584.025 460.832 583.016 461.171 582.549L461.221 582.465 461.156 582.477C460.389 582.733 458.924 583.882 456.759 585.927 454.677 587.889 453.05 589.533 451.876 590.859 451.373 591.623 450.911 592.005 450.492 592.005 449.743 592.005 449.369 591.646 449.369 590.929 449.369 590.361 450.358 588.964 452.337 586.739 453.822 585.07 454.75 583.908 455.121 583.252L455.287 582.817 455.069 582.861C454.404 583.096 453.083 584.15 451.108 586.026 449.134 587.905 447.738 589.378 446.92 590.445 446.203 591.381 445.537 591.849 444.922 591.849 444.236 591.849 443.894 591.529 443.894 590.888 443.894 590.313 444.797 588.89 446.603 586.619L449.577 583.434 444.241 588.343C441.092 590.758 438.86 591.966 437.547 591.966 437.343 591.966 437.19 591.912 437.087 591.806L437.073 591.761 436.983 591.83C436.702 591.959 436.28 592.024 435.718 592.024 434.619 592.024 434.07 591.519 434.07 590.51 434.07 589.836 434.413 589.114 435.099 588.341L433.358 590.284C432.159 591.185 431.172 591.635 430.395 591.635 429.053 591.635 428.383 590.953 428.383 589.588 428.383 588.925 428.528 588.381 428.818 587.955 425.809 590.629 423.619 591.966 422.248 591.966L422.234 591.951 421.455 592.102C420.115 592.102 419.446 591.458 419.446 590.17 419.446 588.155 421.826 584.47 426.588 579.115 428.273 577.221 431.401 573.965 435.969 569.346 437.086 568.219 437.784 567.366 438.063 566.788L438.193 566.336 437.866 566.406C436.844 566.77 434.598 568.406 431.128 571.314 427.931 573.997 425.534 576.143 423.938 577.753 422.392 579.31 420.393 581.473 417.941 584.244 413.393 589.392 410.989 591.966 410.727 591.966 410.435 591.966 410.122 591.809 409.788 591.496 409.453 591.183 409.286 590.873 409.286 590.568 409.286 589.979 411.963 586.498 417.316 580.128 422 574.553 424.635 571.068 425.219 569.67L425.342 569.208 424.749 569.391C423.951 569.762 422.57 570.691 420.607 572.177 418.159 574.039 415.461 576.386 412.511 579.219L404.798 586.915 402.18 589.757C400.606 591.463 399.703 592.316 399.47 592.316 399.184 592.316 398.88 592.207 398.558 591.99 398.063 591.674 397.816 591.346 397.816 591.006 397.816 590.49 399.429 588.412 402.656 584.774L411.484 574.782C414.594 571.087 416.149 568.842 416.149 568.048 416.149 567.977 416.114 567.942 416.043 567.942 415.235 567.942 413.43 569.086 410.627 571.375 408.488 573.125 405.434 576.218 401.467 580.655 401.142 581.017 400.841 581.198 400.565 581.198 400.03 581.198 399.763 580.96 399.763 580.486 399.763 580.055 400.865 578.741 403.071 576.541 404.725 574.303 406.763 572.178 409.182 570.164 412.368 567.516 414.699 566.192 416.177 566.192 417.379 566.192 417.98 566.836 417.98 568.123 417.98 569.936 415.712 573.461 411.176 578.696 418.546 571.28 423.272 567.572 425.354 567.572 426.556 567.572 427.157 568.184 427.157 569.406 427.157 571.013 425.362 573.945 421.772 578.2 430.131 569.288 435.586 564.832 438.137 564.832ZM563.085 564.521C565.836 564.521 567.212 565.425 567.212 567.234 567.212 568.692 566.006 570.364 563.595 572.25 561.297 574.043 559.394 574.939 557.886 574.939 556.495 574.939 555.8 574.416 555.8 573.369 555.8 572.575 556.713 571.671 558.539 570.657 559.427 569.818 560.258 569.399 561.031 569.399 561.54 569.399 561.795 569.681 561.795 570.245L559.632 571.431C559.043 571.754 558.598 572.009 558.296 572.196L558.078 572.342 558.479 572.282C559.329 572.06 560.511 571.504 562.025 570.616 564.108 569.392 565.149 568.435 565.149 567.746 565.149 567.267 564.396 567.028 562.888 567.028 560.926 567.028 558.124 567.609 554.482 568.771 552.011 569.56 549.86 570.391 548.029 571.265 544.958 572.717 543.423 573.98 543.423 575.053 543.423 575.632 544.311 576.088 546.088 576.42L552.246 577.22C554.699 577.59 556.164 578.107 556.641 578.773 557.365 579.734 557.727 580.64 557.727 581.491L557.337 582.681 559.972 581.056C560.853 580.671 561.677 580.479 562.443 580.479 563.91 580.479 564.644 581.058 564.644 582.217 564.644 582.686 564.525 583.042 564.285 583.285 564.704 583.398 564.914 583.72 564.914 584.253 564.914 584.444 563.095 586.542 559.458 590.547L560.464 590.547 560.577 590.587 560.687 590.535C561.161 590.444 561.63 590.331 562.094 590.194 562.951 589.712 564.542 588.55 566.868 586.706 567.967 585.843 569.543 584.524 571.597 582.752 571.958 582.373 572.542 581.856 573.349 581.201 573.753 580.94 574.124 580.809 574.46 580.809 575.46 580.809 575.961 581.18 575.961 581.921 575.961 582.51 575.077 583.787 573.31 585.753 571.984 587.227 571.156 588.357 570.825 589.144L570.68 589.73 570.882 589.682C571.659 589.365 573.19 587.936 575.472 585.396 578.08 582.494 579.617 581.042 580.082 581.042 580.374 581.042 580.644 581.176 580.891 581.444 581.138 581.712 581.262 581.987 581.262 582.269 581.262 582.665 580.292 583.997 578.351 586.263 576.41 588.53 575.44 589.935 575.44 590.479 575.44 590.524 575.652 590.553 576.076 590.565L576.23 590.624 576.468 590.514C577.59 590.334 579.171 589.439 581.21 587.83L583.65 585.906 587.56 582.765C589.435 581.461 591.049 580.809 592.401 580.809 593.584 580.809 594.215 581.286 594.293 582.24 594.475 581.765 594.712 581.528 595.006 581.528 595.691 581.528 596.033 581.831 596.033 582.438 596.033 582.974 595.066 584.38 593.131 586.657 591.197 588.934 590.23 590.216 590.23 590.502 590.23 590.519 590.436 590.534 590.847 590.546L591.01 590.612 591.167 590.52C592.113 590.286 593.108 589.92 594.151 589.424 595.032 588.766 596.554 587.485 598.717 585.584 600.88 583.682 602.56 582.375 603.757 581.664 604.65 581.133 605.467 580.867 606.207 580.867 607.581 580.867 608.282 581.334 608.308 582.268 609.754 579.985 611.653 577.68 614.007 575.352 617.825 570.619 620.153 568.253 620.99 568.253 621.664 568.253 622 568.611 622 569.327 622 569.81 621.452 570.631 620.356 571.79 618.438 573.801 615.608 577.019 611.867 581.446 607.313 586.835 605.035 589.84 605.035 590.46 605.035 590.505 605.241 590.534 605.652 590.546 606.064 590.559 606.269 590.792 606.269 591.247 606.269 591.765 605.833 592.024 604.961 592.024 603.713 592.024 603.088 591.481 603.088 590.395 603.088 589.659 603.501 588.758 604.327 587.692 602.218 590.36 600.582 591.694 599.417 591.694 598.189 591.694 597.575 591.044 597.575 589.744 597.575 589.1 597.852 588.316 598.407 587.392L595.466 590.07C593.617 591.334 592.166 591.966 591.113 591.966L590.86 591.88 590.515 591.976C590.304 592.008 590.058 592.024 589.777 592.024 588.678 592.024 588.129 591.519 588.129 590.51 588.129 589.836 588.472 589.114 589.158 588.341L587.417 590.284C586.218 591.185 585.231 591.635 584.454 591.635 583.113 591.635 582.442 590.953 582.442 589.588 582.442 588.925 582.587 588.381 582.877 587.955 579.868 590.629 577.678 591.966 576.307 591.966L576.122 591.901 575.951 591.958C575.781 591.989 575.584 592.005 575.358 592.005 574.038 592.005 573.377 591.468 573.377 590.395 573.377 589.747 573.641 589.075 574.17 588.381 572.343 590.538 570.857 591.616 569.711 591.616 568.672 591.616 568.153 591.049 568.153 589.914 568.153 588.799 568.622 587.578 569.562 586.253L571.955 583.946 567.244 588.331C564.083 590.754 561.84 591.966 560.514 591.966L560.449 591.943 560.305 591.986C560.125 592.011 559.914 592.017 559.674 592.005 559.787 592.128 559.844 592.329 559.844 592.606 559.844 594.064 558.727 596.185 556.493 598.968 554.223 601.815 552.416 603.239 551.072 603.239 550.109 603.239 549.627 602.678 549.627 601.555 549.627 599.976 550.968 597.582 553.65 594.373L558.672 588.819C556.596 590.852 555.029 591.869 553.97 591.869 552.578 591.869 551.882 591.193 551.882 589.841L552.644 588.033 551.098 589.18C549.815 589.941 548.418 590.594 546.908 591.139 544.064 592.157 541.14 592.666 538.137 592.666 533.873 592.666 531.741 591.322 531.741 588.634 531.741 587.03 532.868 585.678 535.123 584.579 537.281 583.323 539.198 582.694 540.875 582.694 541.661 582.694 542.054 582.983 542.054 583.559 542.054 584 541.675 584.276 540.915 584.385 539.425 584.621 538.059 585.015 536.818 585.568 534.808 586.468 533.803 587.388 533.803 588.329 533.803 589.419 535.223 589.964 538.062 589.964 540.549 589.964 543.217 589.463 546.066 588.461 548.984 587.432 551.367 586.126 553.214 584.544 554.963 583.042 555.838 581.955 555.838 581.285 555.838 580.741 554.71 580.336 552.453 580.07 548.325 579.584 545.97 579.274 545.39 579.138 542.793 578.5 541.495 577.302 541.495 575.545 541.495 573.43 543.011 571.446 546.042 569.594 548.451 568.115 551.515 566.869 555.234 565.854 558.504 564.965 561.12 564.521 563.085 564.521ZM498.833 553.447 498.615 553.658 498.735 553.45ZM545.422 547.003C547.447 547.042 549.274 547.48 550.904 548.317 553.078 549.432 554.267 550.981 554.472 552.964 554.581 554.025 554.33 555.001 553.716 555.892 553.103 556.782 552.274 557.282 551.229 557.392 550.447 557.474 549.748 557.273 549.131 556.789 548.515 556.304 548.167 555.677 548.087 554.905 547.999 554.05 548.235 553.303 548.794 552.667 549.354 552.03 549.999 551.673 550.728 551.597L551.437 551.672 551.012 551.076C550.573 550.736 549.931 550.387 549.087 550.03 547.399 549.314 545.496 549.068 543.378 549.29 536.448 550.017 529.454 553.975 522.396 561.166 516.222 567.457 508.891 576.999 500.404 589.791L500.402 589.794 501.594 589.241C502.664 588.578 503.886 587.679 505.26 586.544L508.587 583.783 510.721 581.88C511.973 580.79 512.722 580.245 512.967 580.245 513.385 580.245 513.786 580.391 514.172 580.681 514.558 580.971 514.75 581.383 514.75 581.916L511.671 585.529C510.232 587.254 509.333 588.528 508.973 589.353L508.808 589.974 509.062 589.919C509.873 589.618 511.528 588.264 514.029 585.858 516.171 583.796 517.952 581.953 519.372 580.331 519.742 579.911 520.047 579.701 520.287 579.701 520.607 579.701 520.943 579.818 521.296 580.052 521.649 580.286 521.826 580.585 521.826 580.946 521.826 581.169 521.743 581.192 521.579 581.014 519.183 583.992 516.641 587.183 513.952 590.586L514.923 590.548 515 590.584 515.098 590.529C515.856 590.392 516.567 590.162 517.23 589.841 518.002 589.363 519.455 588.271 521.589 586.566L526.457 582.532C527.531 581.578 528.225 581.101 528.538 581.101 528.964 581.101 529.324 581.283 529.618 581.648 530.241 581.089 530.877 580.809 531.526 580.809 532.652 580.809 533.215 581.402 533.215 582.589 533.215 584.069 532.081 586.045 529.812 588.516 527.507 591.01 525.608 592.258 524.116 592.258 522.573 592.258 521.802 591.448 521.802 589.83 521.802 589.049 522.212 588.067 523.031 586.884L519.718 589.831C517.689 591.254 516.14 591.966 515.07 591.966L514.818 591.88 514.165 592.062 513.128 592.111 507.914 598.62C504.707 602.309 502.379 604.153 500.928 604.153 500.041 604.153 499.598 603.597 499.598 602.485 499.598 600.48 500.866 598.202 503.402 595.651 505.938 593.101 508.507 591.528 511.11 590.934L514.865 586.587 512.394 589.296C510.448 590.921 509.085 591.733 508.305 591.733 507.256 591.733 506.731 591.038 506.731 589.648 506.731 588.587 507.218 587.356 508.192 585.955L508.307 585.836 505.925 587.902C504.344 589.165 503.272 589.985 502.707 590.361 501.916 590.896 501.193 591.297 500.539 591.565L499.02 591.912 496.696 595.473 486.492 613.383 484.771 612.428C485.865 610.181 486.732 608.059 487.372 606.061 488.013 604.064 488.571 600.186 489.047 594.428 489.524 588.669 490.058 584.245 490.65 581.156 491.243 578.067 492.343 574.207 493.951 569.576 494.152 568.998 494.349 568.443 494.542 567.912L494.774 567.288 489.998 575.048C481.485 588.587 473.43 598.928 465.834 606.073 458.238 613.217 450.947 617.155 443.961 617.888 440.638 618.237 437.844 617.771 435.579 616.493 433.315 615.215 432.057 613.356 431.805 610.917 431.636 609.281 432.033 607.781 432.996 606.42 433.959 605.058 435.162 604.301 436.606 604.15 437.552 604.051 438.411 604.29 439.183 604.869 439.955 605.448 440.389 606.201 440.485 607.126 440.576 608.013 440.347 608.789 439.798 609.454 439.249 610.12 438.514 610.501 437.592 610.598 436.461 610.716 435.593 610.445 434.988 609.783L434.543 609.099 434.505 609.124C434.376 609.323 434.349 609.789 434.425 610.523 434.603 612.245 435.551 613.594 437.269 614.57 438.987 615.545 441.199 615.891 443.905 615.607 449.536 615.017 455.575 612.042 462.022 606.681 468.469 601.322 475.606 592.728 483.435 580.902 491.264 569.075 496.56 560.751 499.322 555.93 500.131 554.477 500.938 553.323 501.741 552.47L503.247 553.112C500.168 557.772 498.088 565.61 497.008 576.626L496.454 581.511C495.821 587.309 494.216 593.691 491.637 600.658L491.114 601.948 497.415 591.54C506.105 577.358 514.104 566.597 521.41 559.256 528.717 551.916 536.024 547.863 543.331 547.096 544.05 547.021 544.747 546.99 545.422 547.003Z" fill="#FFFFFF" fill-rule="evenodd"/><path d="M837.95 583.844 837.95 591.412C837.95 594.099 838.059 594.08 842.843 594.08 847.869 594.08 852.667 593.301 852.667 589.316 852.667 583.912 844.468 583.844 840.775 583.844ZM711.073 583.844 711.073 591.412C711.073 594.099 711.181 594.08 715.966 594.08 720.991 594.08 725.789 593.301 725.789 589.316 725.789 583.912 717.59 583.844 713.898 583.844ZM773.369 576.707 784.156 576.707 784.156 587.737 773.369 587.737ZM767.983 576.522 767.984 576.523 767.983 576.523ZM675.111 573.917 668.774 585.606 681.21 585.606ZM842.174 570.939C838.183 570.939 837.95 571.235 837.95 573.695L837.95 580.474 840.775 580.474C844.006 580.474 850.699 580.241 850.699 575.723 850.699 571.923 846.783 570.939 842.174 570.939ZM715.294 570.939C711.299 570.939 711.072 571.235 711.072 573.695L711.072 580.474 711.073 580.474 713.898 580.474C717.127 580.474 723.825 580.241 723.825 575.723 723.825 571.923 719.905 570.939 715.294 570.939ZM827.21 568.417 843.448 568.417C852.639 568.417 862.156 568.834 862.156 575.312 862.156 580.841 855.455 581.302 853.187 581.553L853.187 581.597C858.486 581.553 863.416 583.873 863.416 589.063 863.416 596.651 851.798 596.588 842.986 596.588L827.21 596.588ZM700.332 568.417 700.333 568.417 716.57 568.417C725.76 568.417 735.274 568.834 735.274 575.312 735.274 580.841 728.576 581.302 726.31 581.553L726.31 581.597C731.608 581.553 736.539 583.873 736.539 589.063 736.539 596.651 724.916 596.588 716.107 596.588L700.332 596.588ZM674.054 568.417 683.405 568.417 698.704 596.588 686.758 596.588 682.678 589.001 666.643 589.001 662.629 596.588 658 596.588ZM865.113 568.408 873.387 568.417 893.923 587.292 893.923 568.408 897.937 568.408 897.932 568.417 898 568.417 898 596.584 888.382 596.584 869.188 578.508 869.179 596.584 865.113 596.584ZM755.147 568.029C759.988 568.18 764.167 568.63 767.983 569.395L767.983 576.522 765.592 573.847C762.731 571.576 758.624 570.509 754.713 570.509 749.348 570.509 747.269 572.009 747.118 574.498 746.834 579.844 771.167 578.024 770.468 588.656 770.043 595.145 761.334 596.995 751.719 596.995 746.509 596.995 739.447 596.143 738.173 595.998L738.173 588.154C741.088 591.044 747.326 594.395 752.38 594.535 757.4 594.671 759.988 593.906 759.988 590.4 759.988 584.59 737.063 587.427 737.767 575.966 738.049 571.391 743.703 567.642 755.147 568.029ZM809.178 568C815.909 568 819.248 568.349 825 569.346L825 576.513C823.588 574.159 819.635 570.509 811.251 570.509 801.518 570.509 797.947 577.142 797.947 582.498 797.947 587.848 801.518 594.491 811.251 594.491 819.635 594.491 823.588 590.846 825 588.483L825 595.649C819.249 596.646 815.909 597 809.178 597 791.789 597 787.037 590.192 787.037 582.498 787.037 574.803 791.789 568 809.178 568Z" fill="#FFFFFF" fill-rule="evenodd"/></g></svg>